%TF.GenerationSoftware,KiCad,Pcbnew,9.0.5*%
%TF.CreationDate,2026-03-25T16:01:15-04:00*%
%TF.ProjectId,uno_hat_dev (1) (2),756e6f5f-6861-4745-9f64-657620283129,rev?*%
%TF.SameCoordinates,Original*%
%TF.FileFunction,Paste,Top*%
%TF.FilePolarity,Positive*%
%FSLAX46Y46*%
G04 Gerber Fmt 4.6, Leading zero omitted, Abs format (unit mm)*
G04 Created by KiCad (PCBNEW 9.0.5) date 2026-03-25 16:01:15*
%MOMM*%
%LPD*%
G01*
G04 APERTURE LIST*
G04 Aperture macros list*
%AMRoundRect*
0 Rectangle with rounded corners*
0 $1 Rounding radius*
0 $2 $3 $4 $5 $6 $7 $8 $9 X,Y pos of 4 corners*
0 Add a 4 corners polygon primitive as box body*
4,1,4,$2,$3,$4,$5,$6,$7,$8,$9,$2,$3,0*
0 Add four circle primitives for the rounded corners*
1,1,$1+$1,$2,$3*
1,1,$1+$1,$4,$5*
1,1,$1+$1,$6,$7*
1,1,$1+$1,$8,$9*
0 Add four rect primitives between the rounded corners*
20,1,$1+$1,$2,$3,$4,$5,0*
20,1,$1+$1,$4,$5,$6,$7,0*
20,1,$1+$1,$6,$7,$8,$9,0*
20,1,$1+$1,$8,$9,$2,$3,0*%
%AMFreePoly0*
4,1,7,1.050000,-0.975000,-0.250000,-0.975000,-0.250000,-0.625000,-1.050000,-0.625000,-1.050000,0.975000,1.050000,0.975000,1.050000,-0.975000,1.050000,-0.975000,$1*%
%AMFreePoly1*
4,1,7,1.050000,-0.625000,0.250000,-0.625000,0.250000,-0.975000,-1.050000,-0.975000,-1.050000,0.975000,1.050000,0.975000,1.050000,-0.625000,1.050000,-0.625000,$1*%
G04 Aperture macros list end*
%ADD10RoundRect,0.250000X0.262500X0.450000X-0.262500X0.450000X-0.262500X-0.450000X0.262500X-0.450000X0*%
%ADD11RoundRect,0.150000X0.150000X-0.825000X0.150000X0.825000X-0.150000X0.825000X-0.150000X-0.825000X0*%
%ADD12RoundRect,0.243750X-0.456250X0.243750X-0.456250X-0.243750X0.456250X-0.243750X0.456250X0.243750X0*%
%ADD13RoundRect,0.250000X-0.262500X-0.450000X0.262500X-0.450000X0.262500X0.450000X-0.262500X0.450000X0*%
%ADD14RoundRect,0.243750X0.456250X-0.243750X0.456250X0.243750X-0.456250X0.243750X-0.456250X-0.243750X0*%
%ADD15RoundRect,0.075000X-0.075000X-0.475000X0.075000X-0.475000X0.075000X0.475000X-0.075000X0.475000X0*%
%ADD16FreePoly0,0.000000*%
%ADD17FreePoly1,0.000000*%
%ADD18RoundRect,0.250000X-0.450000X0.262500X-0.450000X-0.262500X0.450000X-0.262500X0.450000X0.262500X0*%
%ADD19RoundRect,0.250000X-0.385000X-0.405000X0.385000X-0.405000X0.385000X0.405000X-0.385000X0.405000X0*%
%ADD20RoundRect,0.100000X-0.687500X-0.100000X0.687500X-0.100000X0.687500X0.100000X-0.687500X0.100000X0*%
%ADD21R,1.900000X3.250000*%
%ADD22RoundRect,0.250000X0.450000X-0.262500X0.450000X0.262500X-0.450000X0.262500X-0.450000X-0.262500X0*%
G04 APERTURE END LIST*
D10*
%TO.C,R21*%
X139412500Y-118500000D03*
X137587500Y-118500000D03*
%TD*%
%TO.C,Css2*%
X134462500Y-91300000D03*
X132637500Y-91300000D03*
%TD*%
D11*
%TO.C,U6*%
X166045000Y-82975000D03*
X167315000Y-82975000D03*
X168585000Y-82975000D03*
X169855000Y-82975000D03*
X169855000Y-78025000D03*
X168585000Y-78025000D03*
X167315000Y-78025000D03*
X166045000Y-78025000D03*
%TD*%
D12*
%TO.C,D21*%
X142000000Y-114562500D03*
X142000000Y-116437500D03*
%TD*%
D13*
%TO.C,R42*%
X132637500Y-89350000D03*
X134462500Y-89350000D03*
%TD*%
D12*
%TO.C,D14*%
X149500000Y-114562500D03*
X149500000Y-116437500D03*
%TD*%
D14*
%TO.C,D18*%
X152000000Y-107937500D03*
X152000000Y-106062500D03*
%TD*%
D13*
%TO.C,R43*%
X147410000Y-86135000D03*
X149235000Y-86135000D03*
%TD*%
D10*
%TO.C,C13*%
X146662500Y-93700000D03*
X144837500Y-93700000D03*
%TD*%
D15*
%TO.C,J1*%
X260250000Y-111600000D03*
X260750000Y-111600000D03*
X261250000Y-111600000D03*
X261750000Y-111600000D03*
X262250000Y-111600000D03*
X262750000Y-111600000D03*
X263250000Y-111600000D03*
X263750000Y-111600000D03*
D16*
X258000000Y-112725000D03*
D17*
X266000000Y-112725000D03*
%TD*%
D13*
%TO.C,R46*%
X139937500Y-84750000D03*
X141762500Y-84750000D03*
%TD*%
D10*
%TO.C,R23*%
X159500000Y-118500000D03*
X157675000Y-118500000D03*
%TD*%
D18*
%TO.C,R45*%
X135900000Y-94437500D03*
X135900000Y-96262500D03*
%TD*%
D13*
%TO.C,R30*%
X152087500Y-118500000D03*
X153912500Y-118500000D03*
%TD*%
D10*
%TO.C,R24*%
X169412500Y-118500000D03*
X167587500Y-118500000D03*
%TD*%
D14*
%TO.C,D19*%
X162000000Y-107937500D03*
X162000000Y-106062500D03*
%TD*%
D19*
%TO.C,U5*%
X140070000Y-89120000D03*
X140070000Y-90750000D03*
X141650000Y-89120000D03*
X141650000Y-90750000D03*
D20*
X137997500Y-87985000D03*
X137997500Y-88635000D03*
X137997500Y-89285000D03*
X137997500Y-89935000D03*
X137997500Y-90585000D03*
X137997500Y-91235000D03*
X137997500Y-91885000D03*
X143722500Y-91885000D03*
X143722500Y-91235000D03*
X143722500Y-90585000D03*
X143722500Y-89935000D03*
X143722500Y-89285000D03*
X143722500Y-88635000D03*
X143722500Y-87985000D03*
%TD*%
D13*
%TO.C,R27*%
X162087500Y-104000000D03*
X163912500Y-104000000D03*
%TD*%
D10*
%TO.C,R17*%
X139412500Y-104000000D03*
X137587500Y-104000000D03*
%TD*%
D12*
%TO.C,D13*%
X139500000Y-114562500D03*
X139500000Y-116437500D03*
%TD*%
%TO.C,D15*%
X159500000Y-114562500D03*
X159500000Y-116437500D03*
%TD*%
%TO.C,D24*%
X172000000Y-114562500D03*
X172000000Y-116437500D03*
%TD*%
D13*
%TO.C,R29*%
X142087500Y-118500000D03*
X143912500Y-118500000D03*
%TD*%
D10*
%TO.C,R22*%
X149412500Y-118500000D03*
X147587500Y-118500000D03*
%TD*%
D14*
%TO.C,D12*%
X169500000Y-107937500D03*
X169500000Y-106062500D03*
%TD*%
D12*
%TO.C,D23*%
X162000000Y-114562500D03*
X162000000Y-116437500D03*
%TD*%
D18*
%TO.C,C19*%
X138200000Y-96537500D03*
X138200000Y-98362500D03*
%TD*%
D15*
%TO.C,J2*%
X260250000Y-119600000D03*
X260750000Y-119600000D03*
X261250000Y-119600000D03*
X261750000Y-119600000D03*
X262250000Y-119600000D03*
X262750000Y-119600000D03*
X263250000Y-119600000D03*
X263750000Y-119600000D03*
D16*
X258000000Y-120725000D03*
D17*
X266000000Y-120725000D03*
%TD*%
D12*
%TO.C,D16*%
X169500000Y-114562500D03*
X169500000Y-116437500D03*
%TD*%
D21*
%TO.C,R48*%
X161000000Y-77625000D03*
X163500000Y-77625000D03*
X163500000Y-82875000D03*
X161000000Y-82875000D03*
%TD*%
D13*
%TO.C,R47*%
X167837500Y-92950000D03*
X169662500Y-92950000D03*
%TD*%
D14*
%TO.C,D9*%
X139500000Y-107937500D03*
X139500000Y-106062500D03*
%TD*%
D13*
%TO.C,R32*%
X172087500Y-118500000D03*
X173912500Y-118500000D03*
%TD*%
D10*
%TO.C,R20*%
X169412500Y-104000000D03*
X167587500Y-104000000D03*
%TD*%
%TO.C,R18*%
X149412500Y-104000000D03*
X147587500Y-104000000D03*
%TD*%
D13*
%TO.C,C16*%
X174087500Y-92950000D03*
X175912500Y-92950000D03*
%TD*%
D22*
%TO.C,C15*%
X178250000Y-84862500D03*
X178250000Y-83037500D03*
%TD*%
D14*
%TO.C,D10*%
X149500000Y-107937500D03*
X149500000Y-106062500D03*
%TD*%
D13*
%TO.C,R26*%
X152087500Y-104000000D03*
X153912500Y-104000000D03*
%TD*%
%TO.C,Rcs2*%
X151387500Y-96300000D03*
X153212500Y-96300000D03*
%TD*%
D14*
%TO.C,D11*%
X159500000Y-107937500D03*
X159500000Y-106062500D03*
%TD*%
D13*
%TO.C,R44*%
X148960000Y-93035000D03*
X150785000Y-93035000D03*
%TD*%
D14*
%TO.C,D17*%
X142000000Y-107937500D03*
X142000000Y-106062500D03*
%TD*%
D13*
%TO.C,Cvcc2*%
X148960000Y-91085000D03*
X150785000Y-91085000D03*
%TD*%
%TO.C,R25*%
X142087500Y-104000000D03*
X143912500Y-104000000D03*
%TD*%
D10*
%TO.C,R19*%
X159412500Y-104000000D03*
X157587500Y-104000000D03*
%TD*%
D14*
%TO.C,D20*%
X172000000Y-107937500D03*
X172000000Y-106062500D03*
%TD*%
D18*
%TO.C,C18*%
X135950000Y-98287500D03*
X135950000Y-100112500D03*
%TD*%
D12*
%TO.C,D22*%
X152000000Y-114562500D03*
X152000000Y-116437500D03*
%TD*%
D13*
%TO.C,R28*%
X172087500Y-104000000D03*
X173912500Y-104000000D03*
%TD*%
%TO.C,R31*%
X162175000Y-118500000D03*
X164000000Y-118500000D03*
%TD*%
M02*
