%TF.GenerationSoftware,KiCad,Pcbnew,9.0.5*%
%TF.CreationDate,2026-03-25T16:01:15-04:00*%
%TF.ProjectId,uno_hat_dev (1) (2),756e6f5f-6861-4745-9f64-657620283129,rev?*%
%TF.SameCoordinates,Original*%
%TF.FileFunction,Soldermask,Bot*%
%TF.FilePolarity,Negative*%
%FSLAX46Y46*%
G04 Gerber Fmt 4.6, Leading zero omitted, Abs format (unit mm)*
G04 Created by KiCad (PCBNEW 9.0.5) date 2026-03-25 16:01:15*
%MOMM*%
%LPD*%
G01*
G04 APERTURE LIST*
G04 Aperture macros list*
%AMRoundRect*
0 Rectangle with rounded corners*
0 $1 Rounding radius*
0 $2 $3 $4 $5 $6 $7 $8 $9 X,Y pos of 4 corners*
0 Add a 4 corners polygon primitive as box body*
4,1,4,$2,$3,$4,$5,$6,$7,$8,$9,$2,$3,0*
0 Add four circle primitives for the rounded corners*
1,1,$1+$1,$2,$3*
1,1,$1+$1,$4,$5*
1,1,$1+$1,$6,$7*
1,1,$1+$1,$8,$9*
0 Add four rect primitives between the rounded corners*
20,1,$1+$1,$2,$3,$4,$5,0*
20,1,$1+$1,$4,$5,$6,$7,0*
20,1,$1+$1,$6,$7,$8,$9,0*
20,1,$1+$1,$8,$9,$2,$3,0*%
G04 Aperture macros list end*
%ADD10RoundRect,0.249999X-0.850001X0.850001X-0.850001X-0.850001X0.850001X-0.850001X0.850001X0.850001X0*%
%ADD11C,2.200000*%
%ADD12R,1.600000X1.600000*%
%ADD13O,1.600000X1.600000*%
%ADD14C,1.600000*%
%ADD15R,2.000000X1.905000*%
%ADD16O,2.000000X1.905000*%
%ADD17RoundRect,0.250000X0.550000X-0.550000X0.550000X0.550000X-0.550000X0.550000X-0.550000X-0.550000X0*%
%ADD18R,1.500000X1.050000*%
%ADD19O,1.500000X1.050000*%
%ADD20R,1.700000X1.700000*%
%ADD21C,1.700000*%
%ADD22RoundRect,0.250000X0.650000X0.650000X-0.650000X0.650000X-0.650000X-0.650000X0.650000X-0.650000X0*%
%ADD23C,1.800000*%
G04 APERTURE END LIST*
D10*
%TO.C,D5*%
X202690000Y-74500000D03*
D11*
X202690000Y-84660000D03*
%TD*%
D12*
%TO.C,A1*%
X146425000Y-74220000D03*
D13*
X148965000Y-74220000D03*
X151505000Y-74220000D03*
X154045000Y-74220000D03*
X156585000Y-74220000D03*
X159125000Y-74220000D03*
X161665000Y-74220000D03*
X164205000Y-74220000D03*
X169285000Y-74220000D03*
X171825000Y-74220000D03*
X174365000Y-74220000D03*
X176905000Y-74220000D03*
X179445000Y-74220000D03*
X181985000Y-74220000D03*
X181985000Y-122480000D03*
X179445000Y-122480000D03*
X176905000Y-122480000D03*
X174365000Y-122480000D03*
X171825000Y-122480000D03*
X169285000Y-122480000D03*
X166745000Y-122480000D03*
X164205000Y-122480000D03*
X160145000Y-122480000D03*
X157605000Y-122480000D03*
X155065000Y-122480000D03*
X152525000Y-122480000D03*
X149985000Y-122480000D03*
X147445000Y-122480000D03*
X144905000Y-122480000D03*
X142365000Y-122480000D03*
X139825000Y-122480000D03*
X137285000Y-122480000D03*
%TD*%
D14*
%TO.C,R1*%
X219690000Y-77690000D03*
X219690000Y-85310000D03*
%TD*%
%TO.C,R12*%
X236380000Y-106500000D03*
X244000000Y-106500000D03*
%TD*%
%TO.C,R3*%
X255690000Y-86500000D03*
X263310000Y-86500000D03*
%TD*%
D15*
%TO.C,Q20*%
X154622500Y-87245000D03*
D16*
X154622500Y-89785000D03*
X154622500Y-92325000D03*
%TD*%
D14*
%TO.C,R10*%
X235690000Y-87000000D03*
X243310000Y-87000000D03*
%TD*%
D17*
%TO.C,C17*%
X154950000Y-81002651D03*
D14*
X154950000Y-78502651D03*
%TD*%
D18*
%TO.C,Q17*%
X247500000Y-101080000D03*
D19*
X247500000Y-102350000D03*
X247500000Y-103620000D03*
%TD*%
D14*
%TO.C,R11*%
X197190000Y-107500000D03*
X204810000Y-107500000D03*
%TD*%
D20*
%TO.C,J3*%
X205680000Y-124000000D03*
D21*
X208220000Y-124000000D03*
X210760000Y-124000000D03*
X213300000Y-124000000D03*
X215840000Y-124000000D03*
X218380000Y-124000000D03*
X220920000Y-124000000D03*
X223460000Y-124000000D03*
X226000000Y-124000000D03*
%TD*%
D14*
%TO.C,R2*%
X216380000Y-88000000D03*
X224000000Y-88000000D03*
%TD*%
D10*
%TO.C,D1*%
X223190000Y-74500000D03*
D11*
X223190000Y-84660000D03*
%TD*%
D14*
%TO.C,R16*%
X239500000Y-95880000D03*
X239500000Y-103500000D03*
%TD*%
%TO.C,R14*%
X239310000Y-76690000D03*
X239310000Y-84310000D03*
%TD*%
D18*
%TO.C,Q7*%
X227500000Y-102000000D03*
D19*
X227500000Y-103270000D03*
X227500000Y-104540000D03*
%TD*%
D14*
%TO.C,R4*%
X258500000Y-76190000D03*
X258500000Y-83810000D03*
%TD*%
D18*
%TO.C,Q13*%
X235500000Y-103500000D03*
D19*
X235500000Y-102230000D03*
X235500000Y-100960000D03*
%TD*%
D18*
%TO.C,Q11*%
X235500000Y-83880000D03*
D19*
X235500000Y-82610000D03*
X235500000Y-81340000D03*
%TD*%
D14*
%TO.C,R13*%
X196070000Y-88160000D03*
X203690000Y-88160000D03*
%TD*%
%TO.C,R9*%
X199190000Y-77850000D03*
X199190000Y-85470000D03*
%TD*%
D17*
%TO.C,C14*%
X146200000Y-81102651D03*
D14*
X146200000Y-78602651D03*
%TD*%
D18*
%TO.C,Q12*%
X196000000Y-104000000D03*
D19*
X196000000Y-102730000D03*
X196000000Y-101460000D03*
%TD*%
D20*
%TO.C,T2*%
X162100000Y-86800000D03*
D21*
X162100000Y-89340000D03*
X162100000Y-91880000D03*
X162100000Y-94420000D03*
%TD*%
D18*
%TO.C,Q15*%
X247000000Y-83800000D03*
D19*
X247000000Y-85070000D03*
X247000000Y-86340000D03*
%TD*%
D14*
%TO.C,R7*%
X255690000Y-106500000D03*
X263310000Y-106500000D03*
%TD*%
D18*
%TO.C,Q8*%
X255000000Y-103040000D03*
D19*
X255000000Y-101770000D03*
X255000000Y-100500000D03*
%TD*%
D18*
%TO.C,Q3*%
X137200000Y-81570000D03*
D19*
X137200000Y-80300000D03*
X137200000Y-79030000D03*
%TD*%
D10*
%TO.C,D7*%
X203500000Y-93690000D03*
D11*
X203500000Y-103850000D03*
%TD*%
D18*
%TO.C,Q14*%
X207690000Y-85120000D03*
D19*
X207690000Y-86390000D03*
X207690000Y-87660000D03*
%TD*%
D18*
%TO.C,Q10*%
X195500000Y-85000000D03*
D19*
X195500000Y-83730000D03*
X195500000Y-82460000D03*
%TD*%
D14*
%TO.C,R8*%
X259000000Y-96190000D03*
X259000000Y-103810000D03*
%TD*%
D18*
%TO.C,Q6*%
X215500000Y-103500000D03*
D19*
X215500000Y-102230000D03*
X215500000Y-100960000D03*
%TD*%
D10*
%TO.C,D6*%
X243000000Y-73340000D03*
D11*
X243000000Y-83500000D03*
%TD*%
D18*
%TO.C,Q9*%
X267000000Y-103460000D03*
D19*
X267000000Y-104730000D03*
X267000000Y-106000000D03*
%TD*%
D14*
%TO.C,R15*%
X200000000Y-97190000D03*
X200000000Y-104810000D03*
%TD*%
D18*
%TO.C,Q1*%
X215690000Y-84770000D03*
D19*
X215690000Y-83500000D03*
X215690000Y-82230000D03*
%TD*%
D22*
%TO.C,D29*%
X178250000Y-88000000D03*
D23*
X165550000Y-88000000D03*
%TD*%
D18*
%TO.C,Q16*%
X208000000Y-102500000D03*
D19*
X208000000Y-103770000D03*
X208000000Y-105040000D03*
%TD*%
D10*
%TO.C,D8*%
X243000000Y-92840000D03*
D11*
X243000000Y-103000000D03*
%TD*%
D18*
%TO.C,Q2*%
X227500000Y-83960000D03*
D19*
X227500000Y-85230000D03*
X227500000Y-86500000D03*
%TD*%
D18*
%TO.C,Q5*%
X266500000Y-83880000D03*
D19*
X266500000Y-85150000D03*
X266500000Y-86420000D03*
%TD*%
D14*
%TO.C,R5*%
X216690000Y-107000000D03*
X224310000Y-107000000D03*
%TD*%
%TO.C,R6*%
X219500000Y-96380000D03*
X219500000Y-104000000D03*
%TD*%
D10*
%TO.C,D4*%
X262500000Y-92840000D03*
D11*
X262500000Y-103000000D03*
%TD*%
D10*
%TO.C,D2*%
X262500000Y-73340000D03*
D11*
X262500000Y-83500000D03*
%TD*%
D18*
%TO.C,Q4*%
X254500000Y-83420000D03*
D19*
X254500000Y-82150000D03*
X254500000Y-80880000D03*
%TD*%
D10*
%TO.C,D3*%
X223500000Y-93300000D03*
D11*
X223500000Y-103460000D03*
%TD*%
M02*
