M48
; DRILL file {KiCad 9.0.5} date 2026-03-25T16:01:05-0400
; FORMAT={-:-/ absolute / metric / decimal}
; #@! TF.CreationDate,2026-03-25T16:01:05-04:00
; #@! TF.GenerationSoftware,Kicad,Pcbnew,9.0.5
; #@! TF.FileFunction,Plated,1,2,PTH
FMAT,2
METRIC
; #@! TA.AperFunction,Plated,PTH,ViaDrill
T1C0.300
; #@! TA.AperFunction,Plated,PTH,ComponentDrill
T2C0.750
; #@! TA.AperFunction,Plated,PTH,ComponentDrill
T3C0.800
; #@! TA.AperFunction,Plated,PTH,ComponentDrill
T4C0.900
; #@! TA.AperFunction,Plated,PTH,ComponentDrill
T5C1.000
; #@! TA.AperFunction,Plated,PTH,ComponentDrill
T6C1.100
%
G90
G05
T1
X132.637Y-92.862
X135.5Y-90.5
X138.97Y-79.03
X139.5Y-107.938
X139.5Y-114.562
X141.0Y-80.5
X142.0Y-107.938
X142.0Y-114.562
X144.5Y-78.5
X147.5Y-78.5
X147.588Y-111.0
X149.5Y-107.938
X149.5Y-114.562
X151.0Y-91.0
X151.387Y-95.112
X152.0Y-107.938
X152.0Y-114.562
X153.503Y-78.503
X154.0Y-111.0
X159.5Y-107.938
X159.5Y-114.562
X162.0Y-107.938
X162.0Y-114.562
X162.1Y-94.42
X163.5Y-98.5
X164.0Y-100.5
X165.8Y-75.7
X166.0Y-84.5
X167.0Y-84.5
X168.1Y-79.7
X169.5Y-107.938
X169.5Y-114.562
X171.0Y-95.5
X172.0Y-107.938
X172.0Y-114.562
X174.5Y-112.0
X175.0Y-109.0
X176.5Y-111.5
X177.505Y-120.0
X178.0Y-81.5
X178.4Y-116.5
X180.0Y-95.0
X182.5Y-94.5
X189.0Y-90.499
X195.5Y-82.46
X196.0Y-101.46
X208.0Y-99.5
X212.0Y-91.5
X215.5Y-100.96
X215.69Y-82.23
X231.0Y-90.0
X235.5Y-81.34
X235.5Y-100.96
X237.5Y-98.0
X248.5Y-99.0
X251.5Y-90.0
X254.5Y-80.88
X255.0Y-100.5
X258.65Y-110.0
X260.0Y-110.0
X260.0Y-121.0
X260.067Y-109.0
X261.0Y-108.5
X262.4Y-113.6
X262.5Y-116.5
X262.75Y-114.75
X269.5Y-110.6
T2
X137.2Y-79.03
X137.2Y-80.3
X137.2Y-81.57
X195.5Y-82.46
X195.5Y-83.73
X195.5Y-85.0
X196.0Y-101.46
X196.0Y-102.73
X196.0Y-104.0
X207.69Y-85.12
X207.69Y-86.39
X207.69Y-87.66
X208.0Y-102.5
X208.0Y-103.77
X208.0Y-105.04
X215.5Y-100.96
X215.5Y-102.23
X215.5Y-103.5
X215.69Y-82.23
X215.69Y-83.5
X215.69Y-84.77
X227.5Y-83.96
X227.5Y-85.23
X227.5Y-86.5
X227.5Y-102.0
X227.5Y-103.27
X227.5Y-104.54
X235.5Y-81.34
X235.5Y-82.61
X235.5Y-83.88
X235.5Y-100.96
X235.5Y-102.23
X235.5Y-103.5
X247.0Y-83.8
X247.0Y-85.07
X247.0Y-86.34
X247.5Y-101.08
X247.5Y-102.35
X247.5Y-103.62
X254.5Y-80.88
X254.5Y-82.15
X254.5Y-83.42
X255.0Y-100.5
X255.0Y-101.77
X255.0Y-103.04
X266.5Y-83.88
X266.5Y-85.15
X266.5Y-86.42
X267.0Y-103.46
X267.0Y-104.73
X267.0Y-106.0
T3
X146.2Y-78.603
X146.2Y-81.103
X154.95Y-78.503
X154.95Y-81.003
X196.07Y-88.16
X197.19Y-107.5
X199.19Y-77.85
X199.19Y-85.47
X200.0Y-97.19
X200.0Y-104.81
X203.69Y-88.16
X204.81Y-107.5
X216.38Y-88.0
X216.69Y-107.0
X219.5Y-96.38
X219.5Y-104.0
X219.69Y-77.69
X219.69Y-85.31
X224.0Y-88.0
X224.31Y-107.0
X235.69Y-87.0
X236.38Y-106.5
X239.31Y-76.69
X239.31Y-84.31
X239.5Y-95.88
X239.5Y-103.5
X243.31Y-87.0
X244.0Y-106.5
X255.69Y-86.5
X255.69Y-106.5
X258.5Y-76.19
X258.5Y-83.81
X259.0Y-96.19
X259.0Y-103.81
X263.31Y-86.5
X263.31Y-106.5
T4
X165.55Y-88.0
X178.25Y-88.0
T5
X137.285Y-122.48
X139.825Y-122.48
X142.365Y-122.48
X144.905Y-122.48
X146.425Y-74.22
X147.445Y-122.48
X148.965Y-74.22
X149.985Y-122.48
X151.505Y-74.22
X152.525Y-122.48
X154.045Y-74.22
X155.065Y-122.48
X156.585Y-74.22
X157.605Y-122.48
X159.125Y-74.22
X160.145Y-122.48
X161.665Y-74.22
X162.1Y-86.8
X162.1Y-89.34
X162.1Y-91.88
X162.1Y-94.42
X164.205Y-74.22
X164.205Y-122.48
X166.745Y-122.48
X169.285Y-74.22
X169.285Y-122.48
X171.825Y-74.22
X171.825Y-122.48
X174.365Y-74.22
X174.365Y-122.48
X176.905Y-74.22
X176.905Y-122.48
X179.445Y-74.22
X179.445Y-122.48
X181.985Y-74.22
X181.985Y-122.48
X205.68Y-124.0
X208.22Y-124.0
X210.76Y-124.0
X213.3Y-124.0
X215.84Y-124.0
X218.38Y-124.0
X220.92Y-124.0
X223.46Y-124.0
X226.0Y-124.0
T6
X154.623Y-87.245
X154.623Y-89.785
X154.623Y-92.325
X202.69Y-74.5
X202.69Y-84.66
X203.5Y-93.69
X203.5Y-103.85
X223.19Y-74.5
X223.19Y-84.66
X223.5Y-93.3
X223.5Y-103.46
X243.0Y-73.34
X243.0Y-83.5
X243.0Y-92.84
X243.0Y-103.0
X262.5Y-73.34
X262.5Y-83.5
X262.5Y-92.84
X262.5Y-103.0
M30
