%TF.GenerationSoftware,KiCad,Pcbnew,9.0.5*%
%TF.CreationDate,2026-03-25T16:01:15-04:00*%
%TF.ProjectId,uno_hat_dev (1) (2),756e6f5f-6861-4745-9f64-657620283129,rev?*%
%TF.SameCoordinates,Original*%
%TF.FileFunction,Legend,Top*%
%TF.FilePolarity,Positive*%
%FSLAX46Y46*%
G04 Gerber Fmt 4.6, Leading zero omitted, Abs format (unit mm)*
G04 Created by KiCad (PCBNEW 9.0.5) date 2026-03-25 16:01:15*
%MOMM*%
%LPD*%
G01*
G04 APERTURE LIST*
%ADD10C,0.150000*%
%ADD11C,0.120000*%
G04 APERTURE END LIST*
D10*
X137857142Y-120604819D02*
X137523809Y-120128628D01*
X137285714Y-120604819D02*
X137285714Y-119604819D01*
X137285714Y-119604819D02*
X137666666Y-119604819D01*
X137666666Y-119604819D02*
X137761904Y-119652438D01*
X137761904Y-119652438D02*
X137809523Y-119700057D01*
X137809523Y-119700057D02*
X137857142Y-119795295D01*
X137857142Y-119795295D02*
X137857142Y-119938152D01*
X137857142Y-119938152D02*
X137809523Y-120033390D01*
X137809523Y-120033390D02*
X137761904Y-120081009D01*
X137761904Y-120081009D02*
X137666666Y-120128628D01*
X137666666Y-120128628D02*
X137285714Y-120128628D01*
X138238095Y-119700057D02*
X138285714Y-119652438D01*
X138285714Y-119652438D02*
X138380952Y-119604819D01*
X138380952Y-119604819D02*
X138619047Y-119604819D01*
X138619047Y-119604819D02*
X138714285Y-119652438D01*
X138714285Y-119652438D02*
X138761904Y-119700057D01*
X138761904Y-119700057D02*
X138809523Y-119795295D01*
X138809523Y-119795295D02*
X138809523Y-119890533D01*
X138809523Y-119890533D02*
X138761904Y-120033390D01*
X138761904Y-120033390D02*
X138190476Y-120604819D01*
X138190476Y-120604819D02*
X138809523Y-120604819D01*
X139761904Y-120604819D02*
X139190476Y-120604819D01*
X139476190Y-120604819D02*
X139476190Y-119604819D01*
X139476190Y-119604819D02*
X139380952Y-119747676D01*
X139380952Y-119747676D02*
X139285714Y-119842914D01*
X139285714Y-119842914D02*
X139190476Y-119890533D01*
X131359580Y-90976190D02*
X131407200Y-91023809D01*
X131407200Y-91023809D02*
X131454819Y-91166666D01*
X131454819Y-91166666D02*
X131454819Y-91261904D01*
X131454819Y-91261904D02*
X131407200Y-91404761D01*
X131407200Y-91404761D02*
X131311961Y-91499999D01*
X131311961Y-91499999D02*
X131216723Y-91547618D01*
X131216723Y-91547618D02*
X131026247Y-91595237D01*
X131026247Y-91595237D02*
X130883390Y-91595237D01*
X130883390Y-91595237D02*
X130692914Y-91547618D01*
X130692914Y-91547618D02*
X130597676Y-91499999D01*
X130597676Y-91499999D02*
X130502438Y-91404761D01*
X130502438Y-91404761D02*
X130454819Y-91261904D01*
X130454819Y-91261904D02*
X130454819Y-91166666D01*
X130454819Y-91166666D02*
X130502438Y-91023809D01*
X130502438Y-91023809D02*
X130550057Y-90976190D01*
X131407200Y-90595237D02*
X131454819Y-90499999D01*
X131454819Y-90499999D02*
X131454819Y-90309523D01*
X131454819Y-90309523D02*
X131407200Y-90214285D01*
X131407200Y-90214285D02*
X131311961Y-90166666D01*
X131311961Y-90166666D02*
X131264342Y-90166666D01*
X131264342Y-90166666D02*
X131169104Y-90214285D01*
X131169104Y-90214285D02*
X131121485Y-90309523D01*
X131121485Y-90309523D02*
X131121485Y-90452380D01*
X131121485Y-90452380D02*
X131073866Y-90547618D01*
X131073866Y-90547618D02*
X130978628Y-90595237D01*
X130978628Y-90595237D02*
X130931009Y-90595237D01*
X130931009Y-90595237D02*
X130835771Y-90547618D01*
X130835771Y-90547618D02*
X130788152Y-90452380D01*
X130788152Y-90452380D02*
X130788152Y-90309523D01*
X130788152Y-90309523D02*
X130835771Y-90214285D01*
X131407200Y-89785713D02*
X131454819Y-89690475D01*
X131454819Y-89690475D02*
X131454819Y-89499999D01*
X131454819Y-89499999D02*
X131407200Y-89404761D01*
X131407200Y-89404761D02*
X131311961Y-89357142D01*
X131311961Y-89357142D02*
X131264342Y-89357142D01*
X131264342Y-89357142D02*
X131169104Y-89404761D01*
X131169104Y-89404761D02*
X131121485Y-89499999D01*
X131121485Y-89499999D02*
X131121485Y-89642856D01*
X131121485Y-89642856D02*
X131073866Y-89738094D01*
X131073866Y-89738094D02*
X130978628Y-89785713D01*
X130978628Y-89785713D02*
X130931009Y-89785713D01*
X130931009Y-89785713D02*
X130835771Y-89738094D01*
X130835771Y-89738094D02*
X130788152Y-89642856D01*
X130788152Y-89642856D02*
X130788152Y-89499999D01*
X130788152Y-89499999D02*
X130835771Y-89404761D01*
X130550057Y-88976189D02*
X130502438Y-88928570D01*
X130502438Y-88928570D02*
X130454819Y-88833332D01*
X130454819Y-88833332D02*
X130454819Y-88595237D01*
X130454819Y-88595237D02*
X130502438Y-88499999D01*
X130502438Y-88499999D02*
X130550057Y-88452380D01*
X130550057Y-88452380D02*
X130645295Y-88404761D01*
X130645295Y-88404761D02*
X130740533Y-88404761D01*
X130740533Y-88404761D02*
X130883390Y-88452380D01*
X130883390Y-88452380D02*
X131454819Y-89023808D01*
X131454819Y-89023808D02*
X131454819Y-88404761D01*
X164004819Y-81261904D02*
X164814342Y-81261904D01*
X164814342Y-81261904D02*
X164909580Y-81214285D01*
X164909580Y-81214285D02*
X164957200Y-81166666D01*
X164957200Y-81166666D02*
X165004819Y-81071428D01*
X165004819Y-81071428D02*
X165004819Y-80880952D01*
X165004819Y-80880952D02*
X164957200Y-80785714D01*
X164957200Y-80785714D02*
X164909580Y-80738095D01*
X164909580Y-80738095D02*
X164814342Y-80690476D01*
X164814342Y-80690476D02*
X164004819Y-80690476D01*
X164004819Y-79785714D02*
X164004819Y-79976190D01*
X164004819Y-79976190D02*
X164052438Y-80071428D01*
X164052438Y-80071428D02*
X164100057Y-80119047D01*
X164100057Y-80119047D02*
X164242914Y-80214285D01*
X164242914Y-80214285D02*
X164433390Y-80261904D01*
X164433390Y-80261904D02*
X164814342Y-80261904D01*
X164814342Y-80261904D02*
X164909580Y-80214285D01*
X164909580Y-80214285D02*
X164957200Y-80166666D01*
X164957200Y-80166666D02*
X165004819Y-80071428D01*
X165004819Y-80071428D02*
X165004819Y-79880952D01*
X165004819Y-79880952D02*
X164957200Y-79785714D01*
X164957200Y-79785714D02*
X164909580Y-79738095D01*
X164909580Y-79738095D02*
X164814342Y-79690476D01*
X164814342Y-79690476D02*
X164576247Y-79690476D01*
X164576247Y-79690476D02*
X164481009Y-79738095D01*
X164481009Y-79738095D02*
X164433390Y-79785714D01*
X164433390Y-79785714D02*
X164385771Y-79880952D01*
X164385771Y-79880952D02*
X164385771Y-80071428D01*
X164385771Y-80071428D02*
X164433390Y-80166666D01*
X164433390Y-80166666D02*
X164481009Y-80214285D01*
X164481009Y-80214285D02*
X164576247Y-80261904D01*
X205614819Y-80318094D02*
X204614819Y-80318094D01*
X204614819Y-80318094D02*
X204614819Y-80079999D01*
X204614819Y-80079999D02*
X204662438Y-79937142D01*
X204662438Y-79937142D02*
X204757676Y-79841904D01*
X204757676Y-79841904D02*
X204852914Y-79794285D01*
X204852914Y-79794285D02*
X205043390Y-79746666D01*
X205043390Y-79746666D02*
X205186247Y-79746666D01*
X205186247Y-79746666D02*
X205376723Y-79794285D01*
X205376723Y-79794285D02*
X205471961Y-79841904D01*
X205471961Y-79841904D02*
X205567200Y-79937142D01*
X205567200Y-79937142D02*
X205614819Y-80079999D01*
X205614819Y-80079999D02*
X205614819Y-80318094D01*
X204614819Y-78841904D02*
X204614819Y-79318094D01*
X204614819Y-79318094D02*
X205091009Y-79365713D01*
X205091009Y-79365713D02*
X205043390Y-79318094D01*
X205043390Y-79318094D02*
X204995771Y-79222856D01*
X204995771Y-79222856D02*
X204995771Y-78984761D01*
X204995771Y-78984761D02*
X205043390Y-78889523D01*
X205043390Y-78889523D02*
X205091009Y-78841904D01*
X205091009Y-78841904D02*
X205186247Y-78794285D01*
X205186247Y-78794285D02*
X205424342Y-78794285D01*
X205424342Y-78794285D02*
X205519580Y-78841904D01*
X205519580Y-78841904D02*
X205567200Y-78889523D01*
X205567200Y-78889523D02*
X205614819Y-78984761D01*
X205614819Y-78984761D02*
X205614819Y-79222856D01*
X205614819Y-79222856D02*
X205567200Y-79318094D01*
X205567200Y-79318094D02*
X205519580Y-79365713D01*
X205244819Y-74761904D02*
X204244819Y-74761904D01*
X205244819Y-74190476D02*
X204673390Y-74619047D01*
X204244819Y-74190476D02*
X204816247Y-74761904D01*
X144104819Y-115714285D02*
X143104819Y-115714285D01*
X143104819Y-115714285D02*
X143104819Y-115476190D01*
X143104819Y-115476190D02*
X143152438Y-115333333D01*
X143152438Y-115333333D02*
X143247676Y-115238095D01*
X143247676Y-115238095D02*
X143342914Y-115190476D01*
X143342914Y-115190476D02*
X143533390Y-115142857D01*
X143533390Y-115142857D02*
X143676247Y-115142857D01*
X143676247Y-115142857D02*
X143866723Y-115190476D01*
X143866723Y-115190476D02*
X143961961Y-115238095D01*
X143961961Y-115238095D02*
X144057200Y-115333333D01*
X144057200Y-115333333D02*
X144104819Y-115476190D01*
X144104819Y-115476190D02*
X144104819Y-115714285D01*
X143200057Y-114761904D02*
X143152438Y-114714285D01*
X143152438Y-114714285D02*
X143104819Y-114619047D01*
X143104819Y-114619047D02*
X143104819Y-114380952D01*
X143104819Y-114380952D02*
X143152438Y-114285714D01*
X143152438Y-114285714D02*
X143200057Y-114238095D01*
X143200057Y-114238095D02*
X143295295Y-114190476D01*
X143295295Y-114190476D02*
X143390533Y-114190476D01*
X143390533Y-114190476D02*
X143533390Y-114238095D01*
X143533390Y-114238095D02*
X144104819Y-114809523D01*
X144104819Y-114809523D02*
X144104819Y-114190476D01*
X144104819Y-113238095D02*
X144104819Y-113809523D01*
X144104819Y-113523809D02*
X143104819Y-113523809D01*
X143104819Y-113523809D02*
X143247676Y-113619047D01*
X143247676Y-113619047D02*
X143342914Y-113714285D01*
X143342914Y-113714285D02*
X143390533Y-113809523D01*
X146980714Y-70579104D02*
X147456904Y-70579104D01*
X146885476Y-70864819D02*
X147218809Y-69864819D01*
X147218809Y-69864819D02*
X147552142Y-70864819D01*
X148409285Y-70864819D02*
X147837857Y-70864819D01*
X148123571Y-70864819D02*
X148123571Y-69864819D01*
X148123571Y-69864819D02*
X148028333Y-70007676D01*
X148028333Y-70007676D02*
X147933095Y-70102914D01*
X147933095Y-70102914D02*
X147837857Y-70150533D01*
X132907142Y-88154819D02*
X132573809Y-87678628D01*
X132335714Y-88154819D02*
X132335714Y-87154819D01*
X132335714Y-87154819D02*
X132716666Y-87154819D01*
X132716666Y-87154819D02*
X132811904Y-87202438D01*
X132811904Y-87202438D02*
X132859523Y-87250057D01*
X132859523Y-87250057D02*
X132907142Y-87345295D01*
X132907142Y-87345295D02*
X132907142Y-87488152D01*
X132907142Y-87488152D02*
X132859523Y-87583390D01*
X132859523Y-87583390D02*
X132811904Y-87631009D01*
X132811904Y-87631009D02*
X132716666Y-87678628D01*
X132716666Y-87678628D02*
X132335714Y-87678628D01*
X133764285Y-87488152D02*
X133764285Y-88154819D01*
X133526190Y-87107200D02*
X133288095Y-87821485D01*
X133288095Y-87821485D02*
X133907142Y-87821485D01*
X134240476Y-87250057D02*
X134288095Y-87202438D01*
X134288095Y-87202438D02*
X134383333Y-87154819D01*
X134383333Y-87154819D02*
X134621428Y-87154819D01*
X134621428Y-87154819D02*
X134716666Y-87202438D01*
X134716666Y-87202438D02*
X134764285Y-87250057D01*
X134764285Y-87250057D02*
X134811904Y-87345295D01*
X134811904Y-87345295D02*
X134811904Y-87440533D01*
X134811904Y-87440533D02*
X134764285Y-87583390D01*
X134764285Y-87583390D02*
X134192857Y-88154819D01*
X134192857Y-88154819D02*
X134811904Y-88154819D01*
X217454819Y-78166666D02*
X216978628Y-78499999D01*
X217454819Y-78738094D02*
X216454819Y-78738094D01*
X216454819Y-78738094D02*
X216454819Y-78357142D01*
X216454819Y-78357142D02*
X216502438Y-78261904D01*
X216502438Y-78261904D02*
X216550057Y-78214285D01*
X216550057Y-78214285D02*
X216645295Y-78166666D01*
X216645295Y-78166666D02*
X216788152Y-78166666D01*
X216788152Y-78166666D02*
X216883390Y-78214285D01*
X216883390Y-78214285D02*
X216931009Y-78261904D01*
X216931009Y-78261904D02*
X216978628Y-78357142D01*
X216978628Y-78357142D02*
X216978628Y-78738094D01*
X217454819Y-77214285D02*
X217454819Y-77785713D01*
X217454819Y-77499999D02*
X216454819Y-77499999D01*
X216454819Y-77499999D02*
X216597676Y-77595237D01*
X216597676Y-77595237D02*
X216692914Y-77690475D01*
X216692914Y-77690475D02*
X216740533Y-77785713D01*
X147785714Y-113454819D02*
X147785714Y-112454819D01*
X147785714Y-112454819D02*
X148023809Y-112454819D01*
X148023809Y-112454819D02*
X148166666Y-112502438D01*
X148166666Y-112502438D02*
X148261904Y-112597676D01*
X148261904Y-112597676D02*
X148309523Y-112692914D01*
X148309523Y-112692914D02*
X148357142Y-112883390D01*
X148357142Y-112883390D02*
X148357142Y-113026247D01*
X148357142Y-113026247D02*
X148309523Y-113216723D01*
X148309523Y-113216723D02*
X148261904Y-113311961D01*
X148261904Y-113311961D02*
X148166666Y-113407200D01*
X148166666Y-113407200D02*
X148023809Y-113454819D01*
X148023809Y-113454819D02*
X147785714Y-113454819D01*
X149309523Y-113454819D02*
X148738095Y-113454819D01*
X149023809Y-113454819D02*
X149023809Y-112454819D01*
X149023809Y-112454819D02*
X148928571Y-112597676D01*
X148928571Y-112597676D02*
X148833333Y-112692914D01*
X148833333Y-112692914D02*
X148738095Y-112740533D01*
X150166666Y-112788152D02*
X150166666Y-113454819D01*
X149928571Y-112407200D02*
X149690476Y-113121485D01*
X149690476Y-113121485D02*
X150309523Y-113121485D01*
X234454819Y-107142857D02*
X233978628Y-107476190D01*
X234454819Y-107714285D02*
X233454819Y-107714285D01*
X233454819Y-107714285D02*
X233454819Y-107333333D01*
X233454819Y-107333333D02*
X233502438Y-107238095D01*
X233502438Y-107238095D02*
X233550057Y-107190476D01*
X233550057Y-107190476D02*
X233645295Y-107142857D01*
X233645295Y-107142857D02*
X233788152Y-107142857D01*
X233788152Y-107142857D02*
X233883390Y-107190476D01*
X233883390Y-107190476D02*
X233931009Y-107238095D01*
X233931009Y-107238095D02*
X233978628Y-107333333D01*
X233978628Y-107333333D02*
X233978628Y-107714285D01*
X234454819Y-106190476D02*
X234454819Y-106761904D01*
X234454819Y-106476190D02*
X233454819Y-106476190D01*
X233454819Y-106476190D02*
X233597676Y-106571428D01*
X233597676Y-106571428D02*
X233692914Y-106666666D01*
X233692914Y-106666666D02*
X233740533Y-106761904D01*
X233550057Y-105809523D02*
X233502438Y-105761904D01*
X233502438Y-105761904D02*
X233454819Y-105666666D01*
X233454819Y-105666666D02*
X233454819Y-105428571D01*
X233454819Y-105428571D02*
X233502438Y-105333333D01*
X233502438Y-105333333D02*
X233550057Y-105285714D01*
X233550057Y-105285714D02*
X233645295Y-105238095D01*
X233645295Y-105238095D02*
X233740533Y-105238095D01*
X233740533Y-105238095D02*
X233883390Y-105285714D01*
X233883390Y-105285714D02*
X234454819Y-105857142D01*
X234454819Y-105857142D02*
X234454819Y-105238095D01*
X155454819Y-108214285D02*
X154454819Y-108214285D01*
X154454819Y-108214285D02*
X154454819Y-107976190D01*
X154454819Y-107976190D02*
X154502438Y-107833333D01*
X154502438Y-107833333D02*
X154597676Y-107738095D01*
X154597676Y-107738095D02*
X154692914Y-107690476D01*
X154692914Y-107690476D02*
X154883390Y-107642857D01*
X154883390Y-107642857D02*
X155026247Y-107642857D01*
X155026247Y-107642857D02*
X155216723Y-107690476D01*
X155216723Y-107690476D02*
X155311961Y-107738095D01*
X155311961Y-107738095D02*
X155407200Y-107833333D01*
X155407200Y-107833333D02*
X155454819Y-107976190D01*
X155454819Y-107976190D02*
X155454819Y-108214285D01*
X155454819Y-106690476D02*
X155454819Y-107261904D01*
X155454819Y-106976190D02*
X154454819Y-106976190D01*
X154454819Y-106976190D02*
X154597676Y-107071428D01*
X154597676Y-107071428D02*
X154692914Y-107166666D01*
X154692914Y-107166666D02*
X154740533Y-107261904D01*
X154883390Y-106119047D02*
X154835771Y-106214285D01*
X154835771Y-106214285D02*
X154788152Y-106261904D01*
X154788152Y-106261904D02*
X154692914Y-106309523D01*
X154692914Y-106309523D02*
X154645295Y-106309523D01*
X154645295Y-106309523D02*
X154550057Y-106261904D01*
X154550057Y-106261904D02*
X154502438Y-106214285D01*
X154502438Y-106214285D02*
X154454819Y-106119047D01*
X154454819Y-106119047D02*
X154454819Y-105928571D01*
X154454819Y-105928571D02*
X154502438Y-105833333D01*
X154502438Y-105833333D02*
X154550057Y-105785714D01*
X154550057Y-105785714D02*
X154645295Y-105738095D01*
X154645295Y-105738095D02*
X154692914Y-105738095D01*
X154692914Y-105738095D02*
X154788152Y-105785714D01*
X154788152Y-105785714D02*
X154835771Y-105833333D01*
X154835771Y-105833333D02*
X154883390Y-105928571D01*
X154883390Y-105928571D02*
X154883390Y-106119047D01*
X154883390Y-106119047D02*
X154931009Y-106214285D01*
X154931009Y-106214285D02*
X154978628Y-106261904D01*
X154978628Y-106261904D02*
X155073866Y-106309523D01*
X155073866Y-106309523D02*
X155264342Y-106309523D01*
X155264342Y-106309523D02*
X155359580Y-106261904D01*
X155359580Y-106261904D02*
X155407200Y-106214285D01*
X155407200Y-106214285D02*
X155454819Y-106119047D01*
X155454819Y-106119047D02*
X155454819Y-105928571D01*
X155454819Y-105928571D02*
X155407200Y-105833333D01*
X155407200Y-105833333D02*
X155359580Y-105785714D01*
X155359580Y-105785714D02*
X155264342Y-105738095D01*
X155264342Y-105738095D02*
X155073866Y-105738095D01*
X155073866Y-105738095D02*
X154978628Y-105785714D01*
X154978628Y-105785714D02*
X154931009Y-105833333D01*
X154931009Y-105833333D02*
X154883390Y-105928571D01*
X147679642Y-84939819D02*
X147346309Y-84463628D01*
X147108214Y-84939819D02*
X147108214Y-83939819D01*
X147108214Y-83939819D02*
X147489166Y-83939819D01*
X147489166Y-83939819D02*
X147584404Y-83987438D01*
X147584404Y-83987438D02*
X147632023Y-84035057D01*
X147632023Y-84035057D02*
X147679642Y-84130295D01*
X147679642Y-84130295D02*
X147679642Y-84273152D01*
X147679642Y-84273152D02*
X147632023Y-84368390D01*
X147632023Y-84368390D02*
X147584404Y-84416009D01*
X147584404Y-84416009D02*
X147489166Y-84463628D01*
X147489166Y-84463628D02*
X147108214Y-84463628D01*
X148536785Y-84273152D02*
X148536785Y-84939819D01*
X148298690Y-83892200D02*
X148060595Y-84606485D01*
X148060595Y-84606485D02*
X148679642Y-84606485D01*
X148965357Y-83939819D02*
X149584404Y-83939819D01*
X149584404Y-83939819D02*
X149251071Y-84320771D01*
X149251071Y-84320771D02*
X149393928Y-84320771D01*
X149393928Y-84320771D02*
X149489166Y-84368390D01*
X149489166Y-84368390D02*
X149536785Y-84416009D01*
X149536785Y-84416009D02*
X149584404Y-84511247D01*
X149584404Y-84511247D02*
X149584404Y-84749342D01*
X149584404Y-84749342D02*
X149536785Y-84844580D01*
X149536785Y-84844580D02*
X149489166Y-84892200D01*
X149489166Y-84892200D02*
X149393928Y-84939819D01*
X149393928Y-84939819D02*
X149108214Y-84939819D01*
X149108214Y-84939819D02*
X149012976Y-84892200D01*
X149012976Y-84892200D02*
X148965357Y-84844580D01*
X145107142Y-95709580D02*
X145059523Y-95757200D01*
X145059523Y-95757200D02*
X144916666Y-95804819D01*
X144916666Y-95804819D02*
X144821428Y-95804819D01*
X144821428Y-95804819D02*
X144678571Y-95757200D01*
X144678571Y-95757200D02*
X144583333Y-95661961D01*
X144583333Y-95661961D02*
X144535714Y-95566723D01*
X144535714Y-95566723D02*
X144488095Y-95376247D01*
X144488095Y-95376247D02*
X144488095Y-95233390D01*
X144488095Y-95233390D02*
X144535714Y-95042914D01*
X144535714Y-95042914D02*
X144583333Y-94947676D01*
X144583333Y-94947676D02*
X144678571Y-94852438D01*
X144678571Y-94852438D02*
X144821428Y-94804819D01*
X144821428Y-94804819D02*
X144916666Y-94804819D01*
X144916666Y-94804819D02*
X145059523Y-94852438D01*
X145059523Y-94852438D02*
X145107142Y-94900057D01*
X146059523Y-95804819D02*
X145488095Y-95804819D01*
X145773809Y-95804819D02*
X145773809Y-94804819D01*
X145773809Y-94804819D02*
X145678571Y-94947676D01*
X145678571Y-94947676D02*
X145583333Y-95042914D01*
X145583333Y-95042914D02*
X145488095Y-95090533D01*
X146392857Y-94804819D02*
X147011904Y-94804819D01*
X147011904Y-94804819D02*
X146678571Y-95185771D01*
X146678571Y-95185771D02*
X146821428Y-95185771D01*
X146821428Y-95185771D02*
X146916666Y-95233390D01*
X146916666Y-95233390D02*
X146964285Y-95281009D01*
X146964285Y-95281009D02*
X147011904Y-95376247D01*
X147011904Y-95376247D02*
X147011904Y-95614342D01*
X147011904Y-95614342D02*
X146964285Y-95709580D01*
X146964285Y-95709580D02*
X146916666Y-95757200D01*
X146916666Y-95757200D02*
X146821428Y-95804819D01*
X146821428Y-95804819D02*
X146535714Y-95804819D01*
X146535714Y-95804819D02*
X146440476Y-95757200D01*
X146440476Y-95757200D02*
X146392857Y-95709580D01*
X253954819Y-86666666D02*
X253478628Y-86999999D01*
X253954819Y-87238094D02*
X252954819Y-87238094D01*
X252954819Y-87238094D02*
X252954819Y-86857142D01*
X252954819Y-86857142D02*
X253002438Y-86761904D01*
X253002438Y-86761904D02*
X253050057Y-86714285D01*
X253050057Y-86714285D02*
X253145295Y-86666666D01*
X253145295Y-86666666D02*
X253288152Y-86666666D01*
X253288152Y-86666666D02*
X253383390Y-86714285D01*
X253383390Y-86714285D02*
X253431009Y-86761904D01*
X253431009Y-86761904D02*
X253478628Y-86857142D01*
X253478628Y-86857142D02*
X253478628Y-87238094D01*
X252954819Y-86333332D02*
X252954819Y-85714285D01*
X252954819Y-85714285D02*
X253335771Y-86047618D01*
X253335771Y-86047618D02*
X253335771Y-85904761D01*
X253335771Y-85904761D02*
X253383390Y-85809523D01*
X253383390Y-85809523D02*
X253431009Y-85761904D01*
X253431009Y-85761904D02*
X253526247Y-85714285D01*
X253526247Y-85714285D02*
X253764342Y-85714285D01*
X253764342Y-85714285D02*
X253859580Y-85761904D01*
X253859580Y-85761904D02*
X253907200Y-85809523D01*
X253907200Y-85809523D02*
X253954819Y-85904761D01*
X253954819Y-85904761D02*
X253954819Y-86190475D01*
X253954819Y-86190475D02*
X253907200Y-86285713D01*
X253907200Y-86285713D02*
X253859580Y-86333332D01*
X159272557Y-90356428D02*
X159224938Y-90451666D01*
X159224938Y-90451666D02*
X159129700Y-90546904D01*
X159129700Y-90546904D02*
X158986842Y-90689761D01*
X158986842Y-90689761D02*
X158939223Y-90784999D01*
X158939223Y-90784999D02*
X158939223Y-90880237D01*
X159177319Y-90832618D02*
X159129700Y-90927856D01*
X159129700Y-90927856D02*
X159034461Y-91023094D01*
X159034461Y-91023094D02*
X158843985Y-91070713D01*
X158843985Y-91070713D02*
X158510652Y-91070713D01*
X158510652Y-91070713D02*
X158320176Y-91023094D01*
X158320176Y-91023094D02*
X158224938Y-90927856D01*
X158224938Y-90927856D02*
X158177319Y-90832618D01*
X158177319Y-90832618D02*
X158177319Y-90642142D01*
X158177319Y-90642142D02*
X158224938Y-90546904D01*
X158224938Y-90546904D02*
X158320176Y-90451666D01*
X158320176Y-90451666D02*
X158510652Y-90404047D01*
X158510652Y-90404047D02*
X158843985Y-90404047D01*
X158843985Y-90404047D02*
X159034461Y-90451666D01*
X159034461Y-90451666D02*
X159129700Y-90546904D01*
X159129700Y-90546904D02*
X159177319Y-90642142D01*
X159177319Y-90642142D02*
X159177319Y-90832618D01*
X158272557Y-90023094D02*
X158224938Y-89975475D01*
X158224938Y-89975475D02*
X158177319Y-89880237D01*
X158177319Y-89880237D02*
X158177319Y-89642142D01*
X158177319Y-89642142D02*
X158224938Y-89546904D01*
X158224938Y-89546904D02*
X158272557Y-89499285D01*
X158272557Y-89499285D02*
X158367795Y-89451666D01*
X158367795Y-89451666D02*
X158463033Y-89451666D01*
X158463033Y-89451666D02*
X158605890Y-89499285D01*
X158605890Y-89499285D02*
X159177319Y-90070713D01*
X159177319Y-90070713D02*
X159177319Y-89451666D01*
X158177319Y-88832618D02*
X158177319Y-88737380D01*
X158177319Y-88737380D02*
X158224938Y-88642142D01*
X158224938Y-88642142D02*
X158272557Y-88594523D01*
X158272557Y-88594523D02*
X158367795Y-88546904D01*
X158367795Y-88546904D02*
X158558271Y-88499285D01*
X158558271Y-88499285D02*
X158796366Y-88499285D01*
X158796366Y-88499285D02*
X158986842Y-88546904D01*
X158986842Y-88546904D02*
X159082080Y-88594523D01*
X159082080Y-88594523D02*
X159129700Y-88642142D01*
X159129700Y-88642142D02*
X159177319Y-88737380D01*
X159177319Y-88737380D02*
X159177319Y-88832618D01*
X159177319Y-88832618D02*
X159129700Y-88927856D01*
X159129700Y-88927856D02*
X159082080Y-88975475D01*
X159082080Y-88975475D02*
X158986842Y-89023094D01*
X158986842Y-89023094D02*
X158796366Y-89070713D01*
X158796366Y-89070713D02*
X158558271Y-89070713D01*
X158558271Y-89070713D02*
X158367795Y-89023094D01*
X158367795Y-89023094D02*
X158272557Y-88975475D01*
X158272557Y-88975475D02*
X158224938Y-88927856D01*
X158224938Y-88927856D02*
X158177319Y-88832618D01*
X268666666Y-113454819D02*
X268666666Y-114169104D01*
X268666666Y-114169104D02*
X268619047Y-114311961D01*
X268619047Y-114311961D02*
X268523809Y-114407200D01*
X268523809Y-114407200D02*
X268380952Y-114454819D01*
X268380952Y-114454819D02*
X268285714Y-114454819D01*
X269666666Y-114454819D02*
X269095238Y-114454819D01*
X269380952Y-114454819D02*
X269380952Y-113454819D01*
X269380952Y-113454819D02*
X269285714Y-113597676D01*
X269285714Y-113597676D02*
X269190476Y-113692914D01*
X269190476Y-113692914D02*
X269095238Y-113740533D01*
X143954819Y-85142857D02*
X143478628Y-85476190D01*
X143954819Y-85714285D02*
X142954819Y-85714285D01*
X142954819Y-85714285D02*
X142954819Y-85333333D01*
X142954819Y-85333333D02*
X143002438Y-85238095D01*
X143002438Y-85238095D02*
X143050057Y-85190476D01*
X143050057Y-85190476D02*
X143145295Y-85142857D01*
X143145295Y-85142857D02*
X143288152Y-85142857D01*
X143288152Y-85142857D02*
X143383390Y-85190476D01*
X143383390Y-85190476D02*
X143431009Y-85238095D01*
X143431009Y-85238095D02*
X143478628Y-85333333D01*
X143478628Y-85333333D02*
X143478628Y-85714285D01*
X143288152Y-84285714D02*
X143954819Y-84285714D01*
X142907200Y-84523809D02*
X143621485Y-84761904D01*
X143621485Y-84761904D02*
X143621485Y-84142857D01*
X142954819Y-83333333D02*
X142954819Y-83523809D01*
X142954819Y-83523809D02*
X143002438Y-83619047D01*
X143002438Y-83619047D02*
X143050057Y-83666666D01*
X143050057Y-83666666D02*
X143192914Y-83761904D01*
X143192914Y-83761904D02*
X143383390Y-83809523D01*
X143383390Y-83809523D02*
X143764342Y-83809523D01*
X143764342Y-83809523D02*
X143859580Y-83761904D01*
X143859580Y-83761904D02*
X143907200Y-83714285D01*
X143907200Y-83714285D02*
X143954819Y-83619047D01*
X143954819Y-83619047D02*
X143954819Y-83428571D01*
X143954819Y-83428571D02*
X143907200Y-83333333D01*
X143907200Y-83333333D02*
X143859580Y-83285714D01*
X143859580Y-83285714D02*
X143764342Y-83238095D01*
X143764342Y-83238095D02*
X143526247Y-83238095D01*
X143526247Y-83238095D02*
X143431009Y-83285714D01*
X143431009Y-83285714D02*
X143383390Y-83333333D01*
X143383390Y-83333333D02*
X143335771Y-83428571D01*
X143335771Y-83428571D02*
X143335771Y-83619047D01*
X143335771Y-83619047D02*
X143383390Y-83714285D01*
X143383390Y-83714285D02*
X143431009Y-83761904D01*
X143431009Y-83761904D02*
X143526247Y-83809523D01*
X235357142Y-89454819D02*
X235023809Y-88978628D01*
X234785714Y-89454819D02*
X234785714Y-88454819D01*
X234785714Y-88454819D02*
X235166666Y-88454819D01*
X235166666Y-88454819D02*
X235261904Y-88502438D01*
X235261904Y-88502438D02*
X235309523Y-88550057D01*
X235309523Y-88550057D02*
X235357142Y-88645295D01*
X235357142Y-88645295D02*
X235357142Y-88788152D01*
X235357142Y-88788152D02*
X235309523Y-88883390D01*
X235309523Y-88883390D02*
X235261904Y-88931009D01*
X235261904Y-88931009D02*
X235166666Y-88978628D01*
X235166666Y-88978628D02*
X234785714Y-88978628D01*
X236309523Y-89454819D02*
X235738095Y-89454819D01*
X236023809Y-89454819D02*
X236023809Y-88454819D01*
X236023809Y-88454819D02*
X235928571Y-88597676D01*
X235928571Y-88597676D02*
X235833333Y-88692914D01*
X235833333Y-88692914D02*
X235738095Y-88740533D01*
X236928571Y-88454819D02*
X237023809Y-88454819D01*
X237023809Y-88454819D02*
X237119047Y-88502438D01*
X237119047Y-88502438D02*
X237166666Y-88550057D01*
X237166666Y-88550057D02*
X237214285Y-88645295D01*
X237214285Y-88645295D02*
X237261904Y-88835771D01*
X237261904Y-88835771D02*
X237261904Y-89073866D01*
X237261904Y-89073866D02*
X237214285Y-89264342D01*
X237214285Y-89264342D02*
X237166666Y-89359580D01*
X237166666Y-89359580D02*
X237119047Y-89407200D01*
X237119047Y-89407200D02*
X237023809Y-89454819D01*
X237023809Y-89454819D02*
X236928571Y-89454819D01*
X236928571Y-89454819D02*
X236833333Y-89407200D01*
X236833333Y-89407200D02*
X236785714Y-89359580D01*
X236785714Y-89359580D02*
X236738095Y-89264342D01*
X236738095Y-89264342D02*
X236690476Y-89073866D01*
X236690476Y-89073866D02*
X236690476Y-88835771D01*
X236690476Y-88835771D02*
X236738095Y-88645295D01*
X236738095Y-88645295D02*
X236785714Y-88550057D01*
X236785714Y-88550057D02*
X236833333Y-88502438D01*
X236833333Y-88502438D02*
X236928571Y-88454819D01*
X145357142Y-76859580D02*
X145309523Y-76907200D01*
X145309523Y-76907200D02*
X145166666Y-76954819D01*
X145166666Y-76954819D02*
X145071428Y-76954819D01*
X145071428Y-76954819D02*
X144928571Y-76907200D01*
X144928571Y-76907200D02*
X144833333Y-76811961D01*
X144833333Y-76811961D02*
X144785714Y-76716723D01*
X144785714Y-76716723D02*
X144738095Y-76526247D01*
X144738095Y-76526247D02*
X144738095Y-76383390D01*
X144738095Y-76383390D02*
X144785714Y-76192914D01*
X144785714Y-76192914D02*
X144833333Y-76097676D01*
X144833333Y-76097676D02*
X144928571Y-76002438D01*
X144928571Y-76002438D02*
X145071428Y-75954819D01*
X145071428Y-75954819D02*
X145166666Y-75954819D01*
X145166666Y-75954819D02*
X145309523Y-76002438D01*
X145309523Y-76002438D02*
X145357142Y-76050057D01*
X146309523Y-76954819D02*
X145738095Y-76954819D01*
X146023809Y-76954819D02*
X146023809Y-75954819D01*
X146023809Y-75954819D02*
X145928571Y-76097676D01*
X145928571Y-76097676D02*
X145833333Y-76192914D01*
X145833333Y-76192914D02*
X145738095Y-76240533D01*
X146642857Y-75954819D02*
X147309523Y-75954819D01*
X147309523Y-75954819D02*
X146880952Y-76954819D01*
X251610057Y-102921428D02*
X251562438Y-103016666D01*
X251562438Y-103016666D02*
X251467200Y-103111904D01*
X251467200Y-103111904D02*
X251324342Y-103254761D01*
X251324342Y-103254761D02*
X251276723Y-103349999D01*
X251276723Y-103349999D02*
X251276723Y-103445237D01*
X251514819Y-103397618D02*
X251467200Y-103492856D01*
X251467200Y-103492856D02*
X251371961Y-103588094D01*
X251371961Y-103588094D02*
X251181485Y-103635713D01*
X251181485Y-103635713D02*
X250848152Y-103635713D01*
X250848152Y-103635713D02*
X250657676Y-103588094D01*
X250657676Y-103588094D02*
X250562438Y-103492856D01*
X250562438Y-103492856D02*
X250514819Y-103397618D01*
X250514819Y-103397618D02*
X250514819Y-103207142D01*
X250514819Y-103207142D02*
X250562438Y-103111904D01*
X250562438Y-103111904D02*
X250657676Y-103016666D01*
X250657676Y-103016666D02*
X250848152Y-102969047D01*
X250848152Y-102969047D02*
X251181485Y-102969047D01*
X251181485Y-102969047D02*
X251371961Y-103016666D01*
X251371961Y-103016666D02*
X251467200Y-103111904D01*
X251467200Y-103111904D02*
X251514819Y-103207142D01*
X251514819Y-103207142D02*
X251514819Y-103397618D01*
X251514819Y-102016666D02*
X251514819Y-102588094D01*
X251514819Y-102302380D02*
X250514819Y-102302380D01*
X250514819Y-102302380D02*
X250657676Y-102397618D01*
X250657676Y-102397618D02*
X250752914Y-102492856D01*
X250752914Y-102492856D02*
X250800533Y-102588094D01*
X250514819Y-101683332D02*
X250514819Y-101016666D01*
X250514819Y-101016666D02*
X251514819Y-101445237D01*
X157944642Y-120604819D02*
X157611309Y-120128628D01*
X157373214Y-120604819D02*
X157373214Y-119604819D01*
X157373214Y-119604819D02*
X157754166Y-119604819D01*
X157754166Y-119604819D02*
X157849404Y-119652438D01*
X157849404Y-119652438D02*
X157897023Y-119700057D01*
X157897023Y-119700057D02*
X157944642Y-119795295D01*
X157944642Y-119795295D02*
X157944642Y-119938152D01*
X157944642Y-119938152D02*
X157897023Y-120033390D01*
X157897023Y-120033390D02*
X157849404Y-120081009D01*
X157849404Y-120081009D02*
X157754166Y-120128628D01*
X157754166Y-120128628D02*
X157373214Y-120128628D01*
X158325595Y-119700057D02*
X158373214Y-119652438D01*
X158373214Y-119652438D02*
X158468452Y-119604819D01*
X158468452Y-119604819D02*
X158706547Y-119604819D01*
X158706547Y-119604819D02*
X158801785Y-119652438D01*
X158801785Y-119652438D02*
X158849404Y-119700057D01*
X158849404Y-119700057D02*
X158897023Y-119795295D01*
X158897023Y-119795295D02*
X158897023Y-119890533D01*
X158897023Y-119890533D02*
X158849404Y-120033390D01*
X158849404Y-120033390D02*
X158277976Y-120604819D01*
X158277976Y-120604819D02*
X158897023Y-120604819D01*
X159230357Y-119604819D02*
X159849404Y-119604819D01*
X159849404Y-119604819D02*
X159516071Y-119985771D01*
X159516071Y-119985771D02*
X159658928Y-119985771D01*
X159658928Y-119985771D02*
X159754166Y-120033390D01*
X159754166Y-120033390D02*
X159801785Y-120081009D01*
X159801785Y-120081009D02*
X159849404Y-120176247D01*
X159849404Y-120176247D02*
X159849404Y-120414342D01*
X159849404Y-120414342D02*
X159801785Y-120509580D01*
X159801785Y-120509580D02*
X159754166Y-120557200D01*
X159754166Y-120557200D02*
X159658928Y-120604819D01*
X159658928Y-120604819D02*
X159373214Y-120604819D01*
X159373214Y-120604819D02*
X159277976Y-120557200D01*
X159277976Y-120557200D02*
X159230357Y-120509580D01*
X137857142Y-95454819D02*
X137523809Y-94978628D01*
X137285714Y-95454819D02*
X137285714Y-94454819D01*
X137285714Y-94454819D02*
X137666666Y-94454819D01*
X137666666Y-94454819D02*
X137761904Y-94502438D01*
X137761904Y-94502438D02*
X137809523Y-94550057D01*
X137809523Y-94550057D02*
X137857142Y-94645295D01*
X137857142Y-94645295D02*
X137857142Y-94788152D01*
X137857142Y-94788152D02*
X137809523Y-94883390D01*
X137809523Y-94883390D02*
X137761904Y-94931009D01*
X137761904Y-94931009D02*
X137666666Y-94978628D01*
X137666666Y-94978628D02*
X137285714Y-94978628D01*
X138714285Y-94788152D02*
X138714285Y-95454819D01*
X138476190Y-94407200D02*
X138238095Y-95121485D01*
X138238095Y-95121485D02*
X138857142Y-95121485D01*
X139714285Y-94454819D02*
X139238095Y-94454819D01*
X139238095Y-94454819D02*
X139190476Y-94931009D01*
X139190476Y-94931009D02*
X139238095Y-94883390D01*
X139238095Y-94883390D02*
X139333333Y-94835771D01*
X139333333Y-94835771D02*
X139571428Y-94835771D01*
X139571428Y-94835771D02*
X139666666Y-94883390D01*
X139666666Y-94883390D02*
X139714285Y-94931009D01*
X139714285Y-94931009D02*
X139761904Y-95026247D01*
X139761904Y-95026247D02*
X139761904Y-95264342D01*
X139761904Y-95264342D02*
X139714285Y-95359580D01*
X139714285Y-95359580D02*
X139666666Y-95407200D01*
X139666666Y-95407200D02*
X139571428Y-95454819D01*
X139571428Y-95454819D02*
X139333333Y-95454819D01*
X139333333Y-95454819D02*
X139238095Y-95407200D01*
X139238095Y-95407200D02*
X139190476Y-95359580D01*
X154357142Y-120454819D02*
X154023809Y-119978628D01*
X153785714Y-120454819D02*
X153785714Y-119454819D01*
X153785714Y-119454819D02*
X154166666Y-119454819D01*
X154166666Y-119454819D02*
X154261904Y-119502438D01*
X154261904Y-119502438D02*
X154309523Y-119550057D01*
X154309523Y-119550057D02*
X154357142Y-119645295D01*
X154357142Y-119645295D02*
X154357142Y-119788152D01*
X154357142Y-119788152D02*
X154309523Y-119883390D01*
X154309523Y-119883390D02*
X154261904Y-119931009D01*
X154261904Y-119931009D02*
X154166666Y-119978628D01*
X154166666Y-119978628D02*
X153785714Y-119978628D01*
X154690476Y-119454819D02*
X155309523Y-119454819D01*
X155309523Y-119454819D02*
X154976190Y-119835771D01*
X154976190Y-119835771D02*
X155119047Y-119835771D01*
X155119047Y-119835771D02*
X155214285Y-119883390D01*
X155214285Y-119883390D02*
X155261904Y-119931009D01*
X155261904Y-119931009D02*
X155309523Y-120026247D01*
X155309523Y-120026247D02*
X155309523Y-120264342D01*
X155309523Y-120264342D02*
X155261904Y-120359580D01*
X155261904Y-120359580D02*
X155214285Y-120407200D01*
X155214285Y-120407200D02*
X155119047Y-120454819D01*
X155119047Y-120454819D02*
X154833333Y-120454819D01*
X154833333Y-120454819D02*
X154738095Y-120407200D01*
X154738095Y-120407200D02*
X154690476Y-120359580D01*
X155928571Y-119454819D02*
X156023809Y-119454819D01*
X156023809Y-119454819D02*
X156119047Y-119502438D01*
X156119047Y-119502438D02*
X156166666Y-119550057D01*
X156166666Y-119550057D02*
X156214285Y-119645295D01*
X156214285Y-119645295D02*
X156261904Y-119835771D01*
X156261904Y-119835771D02*
X156261904Y-120073866D01*
X156261904Y-120073866D02*
X156214285Y-120264342D01*
X156214285Y-120264342D02*
X156166666Y-120359580D01*
X156166666Y-120359580D02*
X156119047Y-120407200D01*
X156119047Y-120407200D02*
X156023809Y-120454819D01*
X156023809Y-120454819D02*
X155928571Y-120454819D01*
X155928571Y-120454819D02*
X155833333Y-120407200D01*
X155833333Y-120407200D02*
X155785714Y-120359580D01*
X155785714Y-120359580D02*
X155738095Y-120264342D01*
X155738095Y-120264342D02*
X155690476Y-120073866D01*
X155690476Y-120073866D02*
X155690476Y-119835771D01*
X155690476Y-119835771D02*
X155738095Y-119645295D01*
X155738095Y-119645295D02*
X155785714Y-119550057D01*
X155785714Y-119550057D02*
X155833333Y-119502438D01*
X155833333Y-119502438D02*
X155928571Y-119454819D01*
X167857142Y-120604819D02*
X167523809Y-120128628D01*
X167285714Y-120604819D02*
X167285714Y-119604819D01*
X167285714Y-119604819D02*
X167666666Y-119604819D01*
X167666666Y-119604819D02*
X167761904Y-119652438D01*
X167761904Y-119652438D02*
X167809523Y-119700057D01*
X167809523Y-119700057D02*
X167857142Y-119795295D01*
X167857142Y-119795295D02*
X167857142Y-119938152D01*
X167857142Y-119938152D02*
X167809523Y-120033390D01*
X167809523Y-120033390D02*
X167761904Y-120081009D01*
X167761904Y-120081009D02*
X167666666Y-120128628D01*
X167666666Y-120128628D02*
X167285714Y-120128628D01*
X168238095Y-119700057D02*
X168285714Y-119652438D01*
X168285714Y-119652438D02*
X168380952Y-119604819D01*
X168380952Y-119604819D02*
X168619047Y-119604819D01*
X168619047Y-119604819D02*
X168714285Y-119652438D01*
X168714285Y-119652438D02*
X168761904Y-119700057D01*
X168761904Y-119700057D02*
X168809523Y-119795295D01*
X168809523Y-119795295D02*
X168809523Y-119890533D01*
X168809523Y-119890533D02*
X168761904Y-120033390D01*
X168761904Y-120033390D02*
X168190476Y-120604819D01*
X168190476Y-120604819D02*
X168809523Y-120604819D01*
X169666666Y-119938152D02*
X169666666Y-120604819D01*
X169428571Y-119557200D02*
X169190476Y-120271485D01*
X169190476Y-120271485D02*
X169809523Y-120271485D01*
X200357142Y-105584819D02*
X200023809Y-105108628D01*
X199785714Y-105584819D02*
X199785714Y-104584819D01*
X199785714Y-104584819D02*
X200166666Y-104584819D01*
X200166666Y-104584819D02*
X200261904Y-104632438D01*
X200261904Y-104632438D02*
X200309523Y-104680057D01*
X200309523Y-104680057D02*
X200357142Y-104775295D01*
X200357142Y-104775295D02*
X200357142Y-104918152D01*
X200357142Y-104918152D02*
X200309523Y-105013390D01*
X200309523Y-105013390D02*
X200261904Y-105061009D01*
X200261904Y-105061009D02*
X200166666Y-105108628D01*
X200166666Y-105108628D02*
X199785714Y-105108628D01*
X201309523Y-105584819D02*
X200738095Y-105584819D01*
X201023809Y-105584819D02*
X201023809Y-104584819D01*
X201023809Y-104584819D02*
X200928571Y-104727676D01*
X200928571Y-104727676D02*
X200833333Y-104822914D01*
X200833333Y-104822914D02*
X200738095Y-104870533D01*
X202261904Y-105584819D02*
X201690476Y-105584819D01*
X201976190Y-105584819D02*
X201976190Y-104584819D01*
X201976190Y-104584819D02*
X201880952Y-104727676D01*
X201880952Y-104727676D02*
X201785714Y-104822914D01*
X201785714Y-104822914D02*
X201690476Y-104870533D01*
X202754819Y-124333333D02*
X203469104Y-124333333D01*
X203469104Y-124333333D02*
X203611961Y-124380952D01*
X203611961Y-124380952D02*
X203707200Y-124476190D01*
X203707200Y-124476190D02*
X203754819Y-124619047D01*
X203754819Y-124619047D02*
X203754819Y-124714285D01*
X202754819Y-123952380D02*
X202754819Y-123333333D01*
X202754819Y-123333333D02*
X203135771Y-123666666D01*
X203135771Y-123666666D02*
X203135771Y-123523809D01*
X203135771Y-123523809D02*
X203183390Y-123428571D01*
X203183390Y-123428571D02*
X203231009Y-123380952D01*
X203231009Y-123380952D02*
X203326247Y-123333333D01*
X203326247Y-123333333D02*
X203564342Y-123333333D01*
X203564342Y-123333333D02*
X203659580Y-123380952D01*
X203659580Y-123380952D02*
X203707200Y-123428571D01*
X203707200Y-123428571D02*
X203754819Y-123523809D01*
X203754819Y-123523809D02*
X203754819Y-123809523D01*
X203754819Y-123809523D02*
X203707200Y-123904761D01*
X203707200Y-123904761D02*
X203659580Y-123952380D01*
X214954819Y-88166666D02*
X214478628Y-88499999D01*
X214954819Y-88738094D02*
X213954819Y-88738094D01*
X213954819Y-88738094D02*
X213954819Y-88357142D01*
X213954819Y-88357142D02*
X214002438Y-88261904D01*
X214002438Y-88261904D02*
X214050057Y-88214285D01*
X214050057Y-88214285D02*
X214145295Y-88166666D01*
X214145295Y-88166666D02*
X214288152Y-88166666D01*
X214288152Y-88166666D02*
X214383390Y-88214285D01*
X214383390Y-88214285D02*
X214431009Y-88261904D01*
X214431009Y-88261904D02*
X214478628Y-88357142D01*
X214478628Y-88357142D02*
X214478628Y-88738094D01*
X214050057Y-87785713D02*
X214002438Y-87738094D01*
X214002438Y-87738094D02*
X213954819Y-87642856D01*
X213954819Y-87642856D02*
X213954819Y-87404761D01*
X213954819Y-87404761D02*
X214002438Y-87309523D01*
X214002438Y-87309523D02*
X214050057Y-87261904D01*
X214050057Y-87261904D02*
X214145295Y-87214285D01*
X214145295Y-87214285D02*
X214240533Y-87214285D01*
X214240533Y-87214285D02*
X214383390Y-87261904D01*
X214383390Y-87261904D02*
X214954819Y-87833332D01*
X214954819Y-87833332D02*
X214954819Y-87214285D01*
X226114819Y-80318094D02*
X225114819Y-80318094D01*
X225114819Y-80318094D02*
X225114819Y-80079999D01*
X225114819Y-80079999D02*
X225162438Y-79937142D01*
X225162438Y-79937142D02*
X225257676Y-79841904D01*
X225257676Y-79841904D02*
X225352914Y-79794285D01*
X225352914Y-79794285D02*
X225543390Y-79746666D01*
X225543390Y-79746666D02*
X225686247Y-79746666D01*
X225686247Y-79746666D02*
X225876723Y-79794285D01*
X225876723Y-79794285D02*
X225971961Y-79841904D01*
X225971961Y-79841904D02*
X226067200Y-79937142D01*
X226067200Y-79937142D02*
X226114819Y-80079999D01*
X226114819Y-80079999D02*
X226114819Y-80318094D01*
X226114819Y-78794285D02*
X226114819Y-79365713D01*
X226114819Y-79079999D02*
X225114819Y-79079999D01*
X225114819Y-79079999D02*
X225257676Y-79175237D01*
X225257676Y-79175237D02*
X225352914Y-79270475D01*
X225352914Y-79270475D02*
X225400533Y-79365713D01*
X225744819Y-74761904D02*
X224744819Y-74761904D01*
X225744819Y-74190476D02*
X225173390Y-74619047D01*
X224744819Y-74190476D02*
X225316247Y-74761904D01*
X165454819Y-108214285D02*
X164454819Y-108214285D01*
X164454819Y-108214285D02*
X164454819Y-107976190D01*
X164454819Y-107976190D02*
X164502438Y-107833333D01*
X164502438Y-107833333D02*
X164597676Y-107738095D01*
X164597676Y-107738095D02*
X164692914Y-107690476D01*
X164692914Y-107690476D02*
X164883390Y-107642857D01*
X164883390Y-107642857D02*
X165026247Y-107642857D01*
X165026247Y-107642857D02*
X165216723Y-107690476D01*
X165216723Y-107690476D02*
X165311961Y-107738095D01*
X165311961Y-107738095D02*
X165407200Y-107833333D01*
X165407200Y-107833333D02*
X165454819Y-107976190D01*
X165454819Y-107976190D02*
X165454819Y-108214285D01*
X165454819Y-106690476D02*
X165454819Y-107261904D01*
X165454819Y-106976190D02*
X164454819Y-106976190D01*
X164454819Y-106976190D02*
X164597676Y-107071428D01*
X164597676Y-107071428D02*
X164692914Y-107166666D01*
X164692914Y-107166666D02*
X164740533Y-107261904D01*
X165454819Y-106214285D02*
X165454819Y-106023809D01*
X165454819Y-106023809D02*
X165407200Y-105928571D01*
X165407200Y-105928571D02*
X165359580Y-105880952D01*
X165359580Y-105880952D02*
X165216723Y-105785714D01*
X165216723Y-105785714D02*
X165026247Y-105738095D01*
X165026247Y-105738095D02*
X164645295Y-105738095D01*
X164645295Y-105738095D02*
X164550057Y-105785714D01*
X164550057Y-105785714D02*
X164502438Y-105833333D01*
X164502438Y-105833333D02*
X164454819Y-105928571D01*
X164454819Y-105928571D02*
X164454819Y-106119047D01*
X164454819Y-106119047D02*
X164502438Y-106214285D01*
X164502438Y-106214285D02*
X164550057Y-106261904D01*
X164550057Y-106261904D02*
X164645295Y-106309523D01*
X164645295Y-106309523D02*
X164883390Y-106309523D01*
X164883390Y-106309523D02*
X164978628Y-106261904D01*
X164978628Y-106261904D02*
X165026247Y-106214285D01*
X165026247Y-106214285D02*
X165073866Y-106119047D01*
X165073866Y-106119047D02*
X165073866Y-105928571D01*
X165073866Y-105928571D02*
X165026247Y-105833333D01*
X165026247Y-105833333D02*
X164978628Y-105785714D01*
X164978628Y-105785714D02*
X164883390Y-105738095D01*
X143238095Y-85939819D02*
X143238095Y-86749342D01*
X143238095Y-86749342D02*
X143285714Y-86844580D01*
X143285714Y-86844580D02*
X143333333Y-86892200D01*
X143333333Y-86892200D02*
X143428571Y-86939819D01*
X143428571Y-86939819D02*
X143619047Y-86939819D01*
X143619047Y-86939819D02*
X143714285Y-86892200D01*
X143714285Y-86892200D02*
X143761904Y-86844580D01*
X143761904Y-86844580D02*
X143809523Y-86749342D01*
X143809523Y-86749342D02*
X143809523Y-85939819D01*
X144761904Y-85939819D02*
X144285714Y-85939819D01*
X144285714Y-85939819D02*
X144238095Y-86416009D01*
X144238095Y-86416009D02*
X144285714Y-86368390D01*
X144285714Y-86368390D02*
X144380952Y-86320771D01*
X144380952Y-86320771D02*
X144619047Y-86320771D01*
X144619047Y-86320771D02*
X144714285Y-86368390D01*
X144714285Y-86368390D02*
X144761904Y-86416009D01*
X144761904Y-86416009D02*
X144809523Y-86511247D01*
X144809523Y-86511247D02*
X144809523Y-86749342D01*
X144809523Y-86749342D02*
X144761904Y-86844580D01*
X144761904Y-86844580D02*
X144714285Y-86892200D01*
X144714285Y-86892200D02*
X144619047Y-86939819D01*
X144619047Y-86939819D02*
X144380952Y-86939819D01*
X144380952Y-86939819D02*
X144285714Y-86892200D01*
X144285714Y-86892200D02*
X144238095Y-86844580D01*
X162357142Y-102804819D02*
X162023809Y-102328628D01*
X161785714Y-102804819D02*
X161785714Y-101804819D01*
X161785714Y-101804819D02*
X162166666Y-101804819D01*
X162166666Y-101804819D02*
X162261904Y-101852438D01*
X162261904Y-101852438D02*
X162309523Y-101900057D01*
X162309523Y-101900057D02*
X162357142Y-101995295D01*
X162357142Y-101995295D02*
X162357142Y-102138152D01*
X162357142Y-102138152D02*
X162309523Y-102233390D01*
X162309523Y-102233390D02*
X162261904Y-102281009D01*
X162261904Y-102281009D02*
X162166666Y-102328628D01*
X162166666Y-102328628D02*
X161785714Y-102328628D01*
X162738095Y-101900057D02*
X162785714Y-101852438D01*
X162785714Y-101852438D02*
X162880952Y-101804819D01*
X162880952Y-101804819D02*
X163119047Y-101804819D01*
X163119047Y-101804819D02*
X163214285Y-101852438D01*
X163214285Y-101852438D02*
X163261904Y-101900057D01*
X163261904Y-101900057D02*
X163309523Y-101995295D01*
X163309523Y-101995295D02*
X163309523Y-102090533D01*
X163309523Y-102090533D02*
X163261904Y-102233390D01*
X163261904Y-102233390D02*
X162690476Y-102804819D01*
X162690476Y-102804819D02*
X163309523Y-102804819D01*
X163642857Y-101804819D02*
X164309523Y-101804819D01*
X164309523Y-101804819D02*
X163880952Y-102804819D01*
X136454819Y-104642857D02*
X135978628Y-104976190D01*
X136454819Y-105214285D02*
X135454819Y-105214285D01*
X135454819Y-105214285D02*
X135454819Y-104833333D01*
X135454819Y-104833333D02*
X135502438Y-104738095D01*
X135502438Y-104738095D02*
X135550057Y-104690476D01*
X135550057Y-104690476D02*
X135645295Y-104642857D01*
X135645295Y-104642857D02*
X135788152Y-104642857D01*
X135788152Y-104642857D02*
X135883390Y-104690476D01*
X135883390Y-104690476D02*
X135931009Y-104738095D01*
X135931009Y-104738095D02*
X135978628Y-104833333D01*
X135978628Y-104833333D02*
X135978628Y-105214285D01*
X136454819Y-103690476D02*
X136454819Y-104261904D01*
X136454819Y-103976190D02*
X135454819Y-103976190D01*
X135454819Y-103976190D02*
X135597676Y-104071428D01*
X135597676Y-104071428D02*
X135692914Y-104166666D01*
X135692914Y-104166666D02*
X135740533Y-104261904D01*
X135454819Y-103357142D02*
X135454819Y-102690476D01*
X135454819Y-102690476D02*
X136454819Y-103119047D01*
X141604819Y-116714285D02*
X140604819Y-116714285D01*
X140604819Y-116714285D02*
X140604819Y-116476190D01*
X140604819Y-116476190D02*
X140652438Y-116333333D01*
X140652438Y-116333333D02*
X140747676Y-116238095D01*
X140747676Y-116238095D02*
X140842914Y-116190476D01*
X140842914Y-116190476D02*
X141033390Y-116142857D01*
X141033390Y-116142857D02*
X141176247Y-116142857D01*
X141176247Y-116142857D02*
X141366723Y-116190476D01*
X141366723Y-116190476D02*
X141461961Y-116238095D01*
X141461961Y-116238095D02*
X141557200Y-116333333D01*
X141557200Y-116333333D02*
X141604819Y-116476190D01*
X141604819Y-116476190D02*
X141604819Y-116714285D01*
X141604819Y-115190476D02*
X141604819Y-115761904D01*
X141604819Y-115476190D02*
X140604819Y-115476190D01*
X140604819Y-115476190D02*
X140747676Y-115571428D01*
X140747676Y-115571428D02*
X140842914Y-115666666D01*
X140842914Y-115666666D02*
X140890533Y-115761904D01*
X140604819Y-114857142D02*
X140604819Y-114238095D01*
X140604819Y-114238095D02*
X140985771Y-114571428D01*
X140985771Y-114571428D02*
X140985771Y-114428571D01*
X140985771Y-114428571D02*
X141033390Y-114333333D01*
X141033390Y-114333333D02*
X141081009Y-114285714D01*
X141081009Y-114285714D02*
X141176247Y-114238095D01*
X141176247Y-114238095D02*
X141414342Y-114238095D01*
X141414342Y-114238095D02*
X141509580Y-114285714D01*
X141509580Y-114285714D02*
X141557200Y-114333333D01*
X141557200Y-114333333D02*
X141604819Y-114428571D01*
X141604819Y-114428571D02*
X141604819Y-114714285D01*
X141604819Y-114714285D02*
X141557200Y-114809523D01*
X141557200Y-114809523D02*
X141509580Y-114857142D01*
X161604819Y-116714285D02*
X160604819Y-116714285D01*
X160604819Y-116714285D02*
X160604819Y-116476190D01*
X160604819Y-116476190D02*
X160652438Y-116333333D01*
X160652438Y-116333333D02*
X160747676Y-116238095D01*
X160747676Y-116238095D02*
X160842914Y-116190476D01*
X160842914Y-116190476D02*
X161033390Y-116142857D01*
X161033390Y-116142857D02*
X161176247Y-116142857D01*
X161176247Y-116142857D02*
X161366723Y-116190476D01*
X161366723Y-116190476D02*
X161461961Y-116238095D01*
X161461961Y-116238095D02*
X161557200Y-116333333D01*
X161557200Y-116333333D02*
X161604819Y-116476190D01*
X161604819Y-116476190D02*
X161604819Y-116714285D01*
X161604819Y-115190476D02*
X161604819Y-115761904D01*
X161604819Y-115476190D02*
X160604819Y-115476190D01*
X160604819Y-115476190D02*
X160747676Y-115571428D01*
X160747676Y-115571428D02*
X160842914Y-115666666D01*
X160842914Y-115666666D02*
X160890533Y-115761904D01*
X160604819Y-114285714D02*
X160604819Y-114761904D01*
X160604819Y-114761904D02*
X161081009Y-114809523D01*
X161081009Y-114809523D02*
X161033390Y-114761904D01*
X161033390Y-114761904D02*
X160985771Y-114666666D01*
X160985771Y-114666666D02*
X160985771Y-114428571D01*
X160985771Y-114428571D02*
X161033390Y-114333333D01*
X161033390Y-114333333D02*
X161081009Y-114285714D01*
X161081009Y-114285714D02*
X161176247Y-114238095D01*
X161176247Y-114238095D02*
X161414342Y-114238095D01*
X161414342Y-114238095D02*
X161509580Y-114285714D01*
X161509580Y-114285714D02*
X161557200Y-114333333D01*
X161557200Y-114333333D02*
X161604819Y-114428571D01*
X161604819Y-114428571D02*
X161604819Y-114666666D01*
X161604819Y-114666666D02*
X161557200Y-114761904D01*
X161557200Y-114761904D02*
X161509580Y-114809523D01*
X171285714Y-113454819D02*
X171285714Y-112454819D01*
X171285714Y-112454819D02*
X171523809Y-112454819D01*
X171523809Y-112454819D02*
X171666666Y-112502438D01*
X171666666Y-112502438D02*
X171761904Y-112597676D01*
X171761904Y-112597676D02*
X171809523Y-112692914D01*
X171809523Y-112692914D02*
X171857142Y-112883390D01*
X171857142Y-112883390D02*
X171857142Y-113026247D01*
X171857142Y-113026247D02*
X171809523Y-113216723D01*
X171809523Y-113216723D02*
X171761904Y-113311961D01*
X171761904Y-113311961D02*
X171666666Y-113407200D01*
X171666666Y-113407200D02*
X171523809Y-113454819D01*
X171523809Y-113454819D02*
X171285714Y-113454819D01*
X172238095Y-112550057D02*
X172285714Y-112502438D01*
X172285714Y-112502438D02*
X172380952Y-112454819D01*
X172380952Y-112454819D02*
X172619047Y-112454819D01*
X172619047Y-112454819D02*
X172714285Y-112502438D01*
X172714285Y-112502438D02*
X172761904Y-112550057D01*
X172761904Y-112550057D02*
X172809523Y-112645295D01*
X172809523Y-112645295D02*
X172809523Y-112740533D01*
X172809523Y-112740533D02*
X172761904Y-112883390D01*
X172761904Y-112883390D02*
X172190476Y-113454819D01*
X172190476Y-113454819D02*
X172809523Y-113454819D01*
X173666666Y-112788152D02*
X173666666Y-113454819D01*
X173428571Y-112407200D02*
X173190476Y-113121485D01*
X173190476Y-113121485D02*
X173809523Y-113121485D01*
X232857142Y-96954819D02*
X232523809Y-96478628D01*
X232285714Y-96954819D02*
X232285714Y-95954819D01*
X232285714Y-95954819D02*
X232666666Y-95954819D01*
X232666666Y-95954819D02*
X232761904Y-96002438D01*
X232761904Y-96002438D02*
X232809523Y-96050057D01*
X232809523Y-96050057D02*
X232857142Y-96145295D01*
X232857142Y-96145295D02*
X232857142Y-96288152D01*
X232857142Y-96288152D02*
X232809523Y-96383390D01*
X232809523Y-96383390D02*
X232761904Y-96431009D01*
X232761904Y-96431009D02*
X232666666Y-96478628D01*
X232666666Y-96478628D02*
X232285714Y-96478628D01*
X233809523Y-96954819D02*
X233238095Y-96954819D01*
X233523809Y-96954819D02*
X233523809Y-95954819D01*
X233523809Y-95954819D02*
X233428571Y-96097676D01*
X233428571Y-96097676D02*
X233333333Y-96192914D01*
X233333333Y-96192914D02*
X233238095Y-96240533D01*
X234666666Y-95954819D02*
X234476190Y-95954819D01*
X234476190Y-95954819D02*
X234380952Y-96002438D01*
X234380952Y-96002438D02*
X234333333Y-96050057D01*
X234333333Y-96050057D02*
X234238095Y-96192914D01*
X234238095Y-96192914D02*
X234190476Y-96383390D01*
X234190476Y-96383390D02*
X234190476Y-96764342D01*
X234190476Y-96764342D02*
X234238095Y-96859580D01*
X234238095Y-96859580D02*
X234285714Y-96907200D01*
X234285714Y-96907200D02*
X234380952Y-96954819D01*
X234380952Y-96954819D02*
X234571428Y-96954819D01*
X234571428Y-96954819D02*
X234666666Y-96907200D01*
X234666666Y-96907200D02*
X234714285Y-96859580D01*
X234714285Y-96859580D02*
X234761904Y-96764342D01*
X234761904Y-96764342D02*
X234761904Y-96526247D01*
X234761904Y-96526247D02*
X234714285Y-96431009D01*
X234714285Y-96431009D02*
X234666666Y-96383390D01*
X234666666Y-96383390D02*
X234571428Y-96335771D01*
X234571428Y-96335771D02*
X234380952Y-96335771D01*
X234380952Y-96335771D02*
X234285714Y-96383390D01*
X234285714Y-96383390D02*
X234238095Y-96431009D01*
X234238095Y-96431009D02*
X234190476Y-96526247D01*
X238357142Y-74954819D02*
X238023809Y-74478628D01*
X237785714Y-74954819D02*
X237785714Y-73954819D01*
X237785714Y-73954819D02*
X238166666Y-73954819D01*
X238166666Y-73954819D02*
X238261904Y-74002438D01*
X238261904Y-74002438D02*
X238309523Y-74050057D01*
X238309523Y-74050057D02*
X238357142Y-74145295D01*
X238357142Y-74145295D02*
X238357142Y-74288152D01*
X238357142Y-74288152D02*
X238309523Y-74383390D01*
X238309523Y-74383390D02*
X238261904Y-74431009D01*
X238261904Y-74431009D02*
X238166666Y-74478628D01*
X238166666Y-74478628D02*
X237785714Y-74478628D01*
X239309523Y-74954819D02*
X238738095Y-74954819D01*
X239023809Y-74954819D02*
X239023809Y-73954819D01*
X239023809Y-73954819D02*
X238928571Y-74097676D01*
X238928571Y-74097676D02*
X238833333Y-74192914D01*
X238833333Y-74192914D02*
X238738095Y-74240533D01*
X240166666Y-74288152D02*
X240166666Y-74954819D01*
X239928571Y-73907200D02*
X239690476Y-74621485D01*
X239690476Y-74621485D02*
X240309523Y-74621485D01*
X231610057Y-103365238D02*
X231562438Y-103460476D01*
X231562438Y-103460476D02*
X231467200Y-103555714D01*
X231467200Y-103555714D02*
X231324342Y-103698571D01*
X231324342Y-103698571D02*
X231276723Y-103793809D01*
X231276723Y-103793809D02*
X231276723Y-103889047D01*
X231514819Y-103841428D02*
X231467200Y-103936666D01*
X231467200Y-103936666D02*
X231371961Y-104031904D01*
X231371961Y-104031904D02*
X231181485Y-104079523D01*
X231181485Y-104079523D02*
X230848152Y-104079523D01*
X230848152Y-104079523D02*
X230657676Y-104031904D01*
X230657676Y-104031904D02*
X230562438Y-103936666D01*
X230562438Y-103936666D02*
X230514819Y-103841428D01*
X230514819Y-103841428D02*
X230514819Y-103650952D01*
X230514819Y-103650952D02*
X230562438Y-103555714D01*
X230562438Y-103555714D02*
X230657676Y-103460476D01*
X230657676Y-103460476D02*
X230848152Y-103412857D01*
X230848152Y-103412857D02*
X231181485Y-103412857D01*
X231181485Y-103412857D02*
X231371961Y-103460476D01*
X231371961Y-103460476D02*
X231467200Y-103555714D01*
X231467200Y-103555714D02*
X231514819Y-103650952D01*
X231514819Y-103650952D02*
X231514819Y-103841428D01*
X230514819Y-103079523D02*
X230514819Y-102412857D01*
X230514819Y-102412857D02*
X231514819Y-102841428D01*
X255333333Y-74954819D02*
X255000000Y-74478628D01*
X254761905Y-74954819D02*
X254761905Y-73954819D01*
X254761905Y-73954819D02*
X255142857Y-73954819D01*
X255142857Y-73954819D02*
X255238095Y-74002438D01*
X255238095Y-74002438D02*
X255285714Y-74050057D01*
X255285714Y-74050057D02*
X255333333Y-74145295D01*
X255333333Y-74145295D02*
X255333333Y-74288152D01*
X255333333Y-74288152D02*
X255285714Y-74383390D01*
X255285714Y-74383390D02*
X255238095Y-74431009D01*
X255238095Y-74431009D02*
X255142857Y-74478628D01*
X255142857Y-74478628D02*
X254761905Y-74478628D01*
X256190476Y-74288152D02*
X256190476Y-74954819D01*
X255952381Y-73907200D02*
X255714286Y-74621485D01*
X255714286Y-74621485D02*
X256333333Y-74621485D01*
X143857142Y-117304819D02*
X143523809Y-116828628D01*
X143285714Y-117304819D02*
X143285714Y-116304819D01*
X143285714Y-116304819D02*
X143666666Y-116304819D01*
X143666666Y-116304819D02*
X143761904Y-116352438D01*
X143761904Y-116352438D02*
X143809523Y-116400057D01*
X143809523Y-116400057D02*
X143857142Y-116495295D01*
X143857142Y-116495295D02*
X143857142Y-116638152D01*
X143857142Y-116638152D02*
X143809523Y-116733390D01*
X143809523Y-116733390D02*
X143761904Y-116781009D01*
X143761904Y-116781009D02*
X143666666Y-116828628D01*
X143666666Y-116828628D02*
X143285714Y-116828628D01*
X144238095Y-116400057D02*
X144285714Y-116352438D01*
X144285714Y-116352438D02*
X144380952Y-116304819D01*
X144380952Y-116304819D02*
X144619047Y-116304819D01*
X144619047Y-116304819D02*
X144714285Y-116352438D01*
X144714285Y-116352438D02*
X144761904Y-116400057D01*
X144761904Y-116400057D02*
X144809523Y-116495295D01*
X144809523Y-116495295D02*
X144809523Y-116590533D01*
X144809523Y-116590533D02*
X144761904Y-116733390D01*
X144761904Y-116733390D02*
X144190476Y-117304819D01*
X144190476Y-117304819D02*
X144809523Y-117304819D01*
X145285714Y-117304819D02*
X145476190Y-117304819D01*
X145476190Y-117304819D02*
X145571428Y-117257200D01*
X145571428Y-117257200D02*
X145619047Y-117209580D01*
X145619047Y-117209580D02*
X145714285Y-117066723D01*
X145714285Y-117066723D02*
X145761904Y-116876247D01*
X145761904Y-116876247D02*
X145761904Y-116495295D01*
X145761904Y-116495295D02*
X145714285Y-116400057D01*
X145714285Y-116400057D02*
X145666666Y-116352438D01*
X145666666Y-116352438D02*
X145571428Y-116304819D01*
X145571428Y-116304819D02*
X145380952Y-116304819D01*
X145380952Y-116304819D02*
X145285714Y-116352438D01*
X145285714Y-116352438D02*
X145238095Y-116400057D01*
X145238095Y-116400057D02*
X145190476Y-116495295D01*
X145190476Y-116495295D02*
X145190476Y-116733390D01*
X145190476Y-116733390D02*
X145238095Y-116828628D01*
X145238095Y-116828628D02*
X145285714Y-116876247D01*
X145285714Y-116876247D02*
X145380952Y-116923866D01*
X145380952Y-116923866D02*
X145571428Y-116923866D01*
X145571428Y-116923866D02*
X145666666Y-116876247D01*
X145666666Y-116876247D02*
X145714285Y-116828628D01*
X145714285Y-116828628D02*
X145761904Y-116733390D01*
X232490057Y-101571428D02*
X232442438Y-101666666D01*
X232442438Y-101666666D02*
X232347200Y-101761904D01*
X232347200Y-101761904D02*
X232204342Y-101904761D01*
X232204342Y-101904761D02*
X232156723Y-101999999D01*
X232156723Y-101999999D02*
X232156723Y-102095237D01*
X232394819Y-102047618D02*
X232347200Y-102142856D01*
X232347200Y-102142856D02*
X232251961Y-102238094D01*
X232251961Y-102238094D02*
X232061485Y-102285713D01*
X232061485Y-102285713D02*
X231728152Y-102285713D01*
X231728152Y-102285713D02*
X231537676Y-102238094D01*
X231537676Y-102238094D02*
X231442438Y-102142856D01*
X231442438Y-102142856D02*
X231394819Y-102047618D01*
X231394819Y-102047618D02*
X231394819Y-101857142D01*
X231394819Y-101857142D02*
X231442438Y-101761904D01*
X231442438Y-101761904D02*
X231537676Y-101666666D01*
X231537676Y-101666666D02*
X231728152Y-101619047D01*
X231728152Y-101619047D02*
X232061485Y-101619047D01*
X232061485Y-101619047D02*
X232251961Y-101666666D01*
X232251961Y-101666666D02*
X232347200Y-101761904D01*
X232347200Y-101761904D02*
X232394819Y-101857142D01*
X232394819Y-101857142D02*
X232394819Y-102047618D01*
X232394819Y-100666666D02*
X232394819Y-101238094D01*
X232394819Y-100952380D02*
X231394819Y-100952380D01*
X231394819Y-100952380D02*
X231537676Y-101047618D01*
X231537676Y-101047618D02*
X231632914Y-101142856D01*
X231632914Y-101142856D02*
X231680533Y-101238094D01*
X231394819Y-100333332D02*
X231394819Y-99714285D01*
X231394819Y-99714285D02*
X231775771Y-100047618D01*
X231775771Y-100047618D02*
X231775771Y-99904761D01*
X231775771Y-99904761D02*
X231823390Y-99809523D01*
X231823390Y-99809523D02*
X231871009Y-99761904D01*
X231871009Y-99761904D02*
X231966247Y-99714285D01*
X231966247Y-99714285D02*
X232204342Y-99714285D01*
X232204342Y-99714285D02*
X232299580Y-99761904D01*
X232299580Y-99761904D02*
X232347200Y-99809523D01*
X232347200Y-99809523D02*
X232394819Y-99904761D01*
X232394819Y-99904761D02*
X232394819Y-100190475D01*
X232394819Y-100190475D02*
X232347200Y-100285713D01*
X232347200Y-100285713D02*
X232299580Y-100333332D01*
X232490057Y-83181428D02*
X232442438Y-83276666D01*
X232442438Y-83276666D02*
X232347200Y-83371904D01*
X232347200Y-83371904D02*
X232204342Y-83514761D01*
X232204342Y-83514761D02*
X232156723Y-83609999D01*
X232156723Y-83609999D02*
X232156723Y-83705237D01*
X232394819Y-83657618D02*
X232347200Y-83752856D01*
X232347200Y-83752856D02*
X232251961Y-83848094D01*
X232251961Y-83848094D02*
X232061485Y-83895713D01*
X232061485Y-83895713D02*
X231728152Y-83895713D01*
X231728152Y-83895713D02*
X231537676Y-83848094D01*
X231537676Y-83848094D02*
X231442438Y-83752856D01*
X231442438Y-83752856D02*
X231394819Y-83657618D01*
X231394819Y-83657618D02*
X231394819Y-83467142D01*
X231394819Y-83467142D02*
X231442438Y-83371904D01*
X231442438Y-83371904D02*
X231537676Y-83276666D01*
X231537676Y-83276666D02*
X231728152Y-83229047D01*
X231728152Y-83229047D02*
X232061485Y-83229047D01*
X232061485Y-83229047D02*
X232251961Y-83276666D01*
X232251961Y-83276666D02*
X232347200Y-83371904D01*
X232347200Y-83371904D02*
X232394819Y-83467142D01*
X232394819Y-83467142D02*
X232394819Y-83657618D01*
X232394819Y-82276666D02*
X232394819Y-82848094D01*
X232394819Y-82562380D02*
X231394819Y-82562380D01*
X231394819Y-82562380D02*
X231537676Y-82657618D01*
X231537676Y-82657618D02*
X231632914Y-82752856D01*
X231632914Y-82752856D02*
X231680533Y-82848094D01*
X232394819Y-81324285D02*
X232394819Y-81895713D01*
X232394819Y-81609999D02*
X231394819Y-81609999D01*
X231394819Y-81609999D02*
X231537676Y-81705237D01*
X231537676Y-81705237D02*
X231632914Y-81800475D01*
X231632914Y-81800475D02*
X231680533Y-81895713D01*
X147857142Y-120604819D02*
X147523809Y-120128628D01*
X147285714Y-120604819D02*
X147285714Y-119604819D01*
X147285714Y-119604819D02*
X147666666Y-119604819D01*
X147666666Y-119604819D02*
X147761904Y-119652438D01*
X147761904Y-119652438D02*
X147809523Y-119700057D01*
X147809523Y-119700057D02*
X147857142Y-119795295D01*
X147857142Y-119795295D02*
X147857142Y-119938152D01*
X147857142Y-119938152D02*
X147809523Y-120033390D01*
X147809523Y-120033390D02*
X147761904Y-120081009D01*
X147761904Y-120081009D02*
X147666666Y-120128628D01*
X147666666Y-120128628D02*
X147285714Y-120128628D01*
X148238095Y-119700057D02*
X148285714Y-119652438D01*
X148285714Y-119652438D02*
X148380952Y-119604819D01*
X148380952Y-119604819D02*
X148619047Y-119604819D01*
X148619047Y-119604819D02*
X148714285Y-119652438D01*
X148714285Y-119652438D02*
X148761904Y-119700057D01*
X148761904Y-119700057D02*
X148809523Y-119795295D01*
X148809523Y-119795295D02*
X148809523Y-119890533D01*
X148809523Y-119890533D02*
X148761904Y-120033390D01*
X148761904Y-120033390D02*
X148190476Y-120604819D01*
X148190476Y-120604819D02*
X148809523Y-120604819D01*
X149190476Y-119700057D02*
X149238095Y-119652438D01*
X149238095Y-119652438D02*
X149333333Y-119604819D01*
X149333333Y-119604819D02*
X149571428Y-119604819D01*
X149571428Y-119604819D02*
X149666666Y-119652438D01*
X149666666Y-119652438D02*
X149714285Y-119700057D01*
X149714285Y-119700057D02*
X149761904Y-119795295D01*
X149761904Y-119795295D02*
X149761904Y-119890533D01*
X149761904Y-119890533D02*
X149714285Y-120033390D01*
X149714285Y-120033390D02*
X149142857Y-120604819D01*
X149142857Y-120604819D02*
X149761904Y-120604819D01*
X199237142Y-90954819D02*
X198903809Y-90478628D01*
X198665714Y-90954819D02*
X198665714Y-89954819D01*
X198665714Y-89954819D02*
X199046666Y-89954819D01*
X199046666Y-89954819D02*
X199141904Y-90002438D01*
X199141904Y-90002438D02*
X199189523Y-90050057D01*
X199189523Y-90050057D02*
X199237142Y-90145295D01*
X199237142Y-90145295D02*
X199237142Y-90288152D01*
X199237142Y-90288152D02*
X199189523Y-90383390D01*
X199189523Y-90383390D02*
X199141904Y-90431009D01*
X199141904Y-90431009D02*
X199046666Y-90478628D01*
X199046666Y-90478628D02*
X198665714Y-90478628D01*
X200189523Y-90954819D02*
X199618095Y-90954819D01*
X199903809Y-90954819D02*
X199903809Y-89954819D01*
X199903809Y-89954819D02*
X199808571Y-90097676D01*
X199808571Y-90097676D02*
X199713333Y-90192914D01*
X199713333Y-90192914D02*
X199618095Y-90240533D01*
X200522857Y-89954819D02*
X201141904Y-89954819D01*
X201141904Y-89954819D02*
X200808571Y-90335771D01*
X200808571Y-90335771D02*
X200951428Y-90335771D01*
X200951428Y-90335771D02*
X201046666Y-90383390D01*
X201046666Y-90383390D02*
X201094285Y-90431009D01*
X201094285Y-90431009D02*
X201141904Y-90526247D01*
X201141904Y-90526247D02*
X201141904Y-90764342D01*
X201141904Y-90764342D02*
X201094285Y-90859580D01*
X201094285Y-90859580D02*
X201046666Y-90907200D01*
X201046666Y-90907200D02*
X200951428Y-90954819D01*
X200951428Y-90954819D02*
X200665714Y-90954819D01*
X200665714Y-90954819D02*
X200570476Y-90907200D01*
X200570476Y-90907200D02*
X200522857Y-90859580D01*
X205454819Y-81826666D02*
X204978628Y-82159999D01*
X205454819Y-82398094D02*
X204454819Y-82398094D01*
X204454819Y-82398094D02*
X204454819Y-82017142D01*
X204454819Y-82017142D02*
X204502438Y-81921904D01*
X204502438Y-81921904D02*
X204550057Y-81874285D01*
X204550057Y-81874285D02*
X204645295Y-81826666D01*
X204645295Y-81826666D02*
X204788152Y-81826666D01*
X204788152Y-81826666D02*
X204883390Y-81874285D01*
X204883390Y-81874285D02*
X204931009Y-81921904D01*
X204931009Y-81921904D02*
X204978628Y-82017142D01*
X204978628Y-82017142D02*
X204978628Y-82398094D01*
X205454819Y-81350475D02*
X205454819Y-81159999D01*
X205454819Y-81159999D02*
X205407200Y-81064761D01*
X205407200Y-81064761D02*
X205359580Y-81017142D01*
X205359580Y-81017142D02*
X205216723Y-80921904D01*
X205216723Y-80921904D02*
X205026247Y-80874285D01*
X205026247Y-80874285D02*
X204645295Y-80874285D01*
X204645295Y-80874285D02*
X204550057Y-80921904D01*
X204550057Y-80921904D02*
X204502438Y-80969523D01*
X204502438Y-80969523D02*
X204454819Y-81064761D01*
X204454819Y-81064761D02*
X204454819Y-81255237D01*
X204454819Y-81255237D02*
X204502438Y-81350475D01*
X204502438Y-81350475D02*
X204550057Y-81398094D01*
X204550057Y-81398094D02*
X204645295Y-81445713D01*
X204645295Y-81445713D02*
X204883390Y-81445713D01*
X204883390Y-81445713D02*
X204978628Y-81398094D01*
X204978628Y-81398094D02*
X205026247Y-81350475D01*
X205026247Y-81350475D02*
X205073866Y-81255237D01*
X205073866Y-81255237D02*
X205073866Y-81064761D01*
X205073866Y-81064761D02*
X205026247Y-80969523D01*
X205026247Y-80969523D02*
X204978628Y-80921904D01*
X204978628Y-80921904D02*
X204883390Y-80874285D01*
X140357142Y-82359580D02*
X140309523Y-82407200D01*
X140309523Y-82407200D02*
X140166666Y-82454819D01*
X140166666Y-82454819D02*
X140071428Y-82454819D01*
X140071428Y-82454819D02*
X139928571Y-82407200D01*
X139928571Y-82407200D02*
X139833333Y-82311961D01*
X139833333Y-82311961D02*
X139785714Y-82216723D01*
X139785714Y-82216723D02*
X139738095Y-82026247D01*
X139738095Y-82026247D02*
X139738095Y-81883390D01*
X139738095Y-81883390D02*
X139785714Y-81692914D01*
X139785714Y-81692914D02*
X139833333Y-81597676D01*
X139833333Y-81597676D02*
X139928571Y-81502438D01*
X139928571Y-81502438D02*
X140071428Y-81454819D01*
X140071428Y-81454819D02*
X140166666Y-81454819D01*
X140166666Y-81454819D02*
X140309523Y-81502438D01*
X140309523Y-81502438D02*
X140357142Y-81550057D01*
X141309523Y-82454819D02*
X140738095Y-82454819D01*
X141023809Y-82454819D02*
X141023809Y-81454819D01*
X141023809Y-81454819D02*
X140928571Y-81597676D01*
X140928571Y-81597676D02*
X140833333Y-81692914D01*
X140833333Y-81692914D02*
X140738095Y-81740533D01*
X142166666Y-81788152D02*
X142166666Y-82454819D01*
X141928571Y-81407200D02*
X141690476Y-82121485D01*
X141690476Y-82121485D02*
X142309523Y-82121485D01*
X168254819Y-108714285D02*
X167254819Y-108714285D01*
X167254819Y-108714285D02*
X167254819Y-108476190D01*
X167254819Y-108476190D02*
X167302438Y-108333333D01*
X167302438Y-108333333D02*
X167397676Y-108238095D01*
X167397676Y-108238095D02*
X167492914Y-108190476D01*
X167492914Y-108190476D02*
X167683390Y-108142857D01*
X167683390Y-108142857D02*
X167826247Y-108142857D01*
X167826247Y-108142857D02*
X168016723Y-108190476D01*
X168016723Y-108190476D02*
X168111961Y-108238095D01*
X168111961Y-108238095D02*
X168207200Y-108333333D01*
X168207200Y-108333333D02*
X168254819Y-108476190D01*
X168254819Y-108476190D02*
X168254819Y-108714285D01*
X168254819Y-107190476D02*
X168254819Y-107761904D01*
X168254819Y-107476190D02*
X167254819Y-107476190D01*
X167254819Y-107476190D02*
X167397676Y-107571428D01*
X167397676Y-107571428D02*
X167492914Y-107666666D01*
X167492914Y-107666666D02*
X167540533Y-107761904D01*
X167350057Y-106809523D02*
X167302438Y-106761904D01*
X167302438Y-106761904D02*
X167254819Y-106666666D01*
X167254819Y-106666666D02*
X167254819Y-106428571D01*
X167254819Y-106428571D02*
X167302438Y-106333333D01*
X167302438Y-106333333D02*
X167350057Y-106285714D01*
X167350057Y-106285714D02*
X167445295Y-106238095D01*
X167445295Y-106238095D02*
X167540533Y-106238095D01*
X167540533Y-106238095D02*
X167683390Y-106285714D01*
X167683390Y-106285714D02*
X168254819Y-106857142D01*
X168254819Y-106857142D02*
X168254819Y-106238095D01*
X164104819Y-115714285D02*
X163104819Y-115714285D01*
X163104819Y-115714285D02*
X163104819Y-115476190D01*
X163104819Y-115476190D02*
X163152438Y-115333333D01*
X163152438Y-115333333D02*
X163247676Y-115238095D01*
X163247676Y-115238095D02*
X163342914Y-115190476D01*
X163342914Y-115190476D02*
X163533390Y-115142857D01*
X163533390Y-115142857D02*
X163676247Y-115142857D01*
X163676247Y-115142857D02*
X163866723Y-115190476D01*
X163866723Y-115190476D02*
X163961961Y-115238095D01*
X163961961Y-115238095D02*
X164057200Y-115333333D01*
X164057200Y-115333333D02*
X164104819Y-115476190D01*
X164104819Y-115476190D02*
X164104819Y-115714285D01*
X163200057Y-114761904D02*
X163152438Y-114714285D01*
X163152438Y-114714285D02*
X163104819Y-114619047D01*
X163104819Y-114619047D02*
X163104819Y-114380952D01*
X163104819Y-114380952D02*
X163152438Y-114285714D01*
X163152438Y-114285714D02*
X163200057Y-114238095D01*
X163200057Y-114238095D02*
X163295295Y-114190476D01*
X163295295Y-114190476D02*
X163390533Y-114190476D01*
X163390533Y-114190476D02*
X163533390Y-114238095D01*
X163533390Y-114238095D02*
X164104819Y-114809523D01*
X164104819Y-114809523D02*
X164104819Y-114190476D01*
X163104819Y-113857142D02*
X163104819Y-113238095D01*
X163104819Y-113238095D02*
X163485771Y-113571428D01*
X163485771Y-113571428D02*
X163485771Y-113428571D01*
X163485771Y-113428571D02*
X163533390Y-113333333D01*
X163533390Y-113333333D02*
X163581009Y-113285714D01*
X163581009Y-113285714D02*
X163676247Y-113238095D01*
X163676247Y-113238095D02*
X163914342Y-113238095D01*
X163914342Y-113238095D02*
X164009580Y-113285714D01*
X164009580Y-113285714D02*
X164057200Y-113333333D01*
X164057200Y-113333333D02*
X164104819Y-113428571D01*
X164104819Y-113428571D02*
X164104819Y-113714285D01*
X164104819Y-113714285D02*
X164057200Y-113809523D01*
X164057200Y-113809523D02*
X164009580Y-113857142D01*
X192990057Y-101071428D02*
X192942438Y-101166666D01*
X192942438Y-101166666D02*
X192847200Y-101261904D01*
X192847200Y-101261904D02*
X192704342Y-101404761D01*
X192704342Y-101404761D02*
X192656723Y-101499999D01*
X192656723Y-101499999D02*
X192656723Y-101595237D01*
X192894819Y-101547618D02*
X192847200Y-101642856D01*
X192847200Y-101642856D02*
X192751961Y-101738094D01*
X192751961Y-101738094D02*
X192561485Y-101785713D01*
X192561485Y-101785713D02*
X192228152Y-101785713D01*
X192228152Y-101785713D02*
X192037676Y-101738094D01*
X192037676Y-101738094D02*
X191942438Y-101642856D01*
X191942438Y-101642856D02*
X191894819Y-101547618D01*
X191894819Y-101547618D02*
X191894819Y-101357142D01*
X191894819Y-101357142D02*
X191942438Y-101261904D01*
X191942438Y-101261904D02*
X192037676Y-101166666D01*
X192037676Y-101166666D02*
X192228152Y-101119047D01*
X192228152Y-101119047D02*
X192561485Y-101119047D01*
X192561485Y-101119047D02*
X192751961Y-101166666D01*
X192751961Y-101166666D02*
X192847200Y-101261904D01*
X192847200Y-101261904D02*
X192894819Y-101357142D01*
X192894819Y-101357142D02*
X192894819Y-101547618D01*
X192894819Y-100166666D02*
X192894819Y-100738094D01*
X192894819Y-100452380D02*
X191894819Y-100452380D01*
X191894819Y-100452380D02*
X192037676Y-100547618D01*
X192037676Y-100547618D02*
X192132914Y-100642856D01*
X192132914Y-100642856D02*
X192180533Y-100738094D01*
X191990057Y-99785713D02*
X191942438Y-99738094D01*
X191942438Y-99738094D02*
X191894819Y-99642856D01*
X191894819Y-99642856D02*
X191894819Y-99404761D01*
X191894819Y-99404761D02*
X191942438Y-99309523D01*
X191942438Y-99309523D02*
X191990057Y-99261904D01*
X191990057Y-99261904D02*
X192085295Y-99214285D01*
X192085295Y-99214285D02*
X192180533Y-99214285D01*
X192180533Y-99214285D02*
X192323390Y-99261904D01*
X192323390Y-99261904D02*
X192894819Y-99833332D01*
X192894819Y-99833332D02*
X192894819Y-99214285D01*
X163738095Y-84954819D02*
X164309523Y-84954819D01*
X164023809Y-85954819D02*
X164023809Y-84954819D01*
X164595238Y-85050057D02*
X164642857Y-85002438D01*
X164642857Y-85002438D02*
X164738095Y-84954819D01*
X164738095Y-84954819D02*
X164976190Y-84954819D01*
X164976190Y-84954819D02*
X165071428Y-85002438D01*
X165071428Y-85002438D02*
X165119047Y-85050057D01*
X165119047Y-85050057D02*
X165166666Y-85145295D01*
X165166666Y-85145295D02*
X165166666Y-85240533D01*
X165166666Y-85240533D02*
X165119047Y-85383390D01*
X165119047Y-85383390D02*
X164547619Y-85954819D01*
X164547619Y-85954819D02*
X165166666Y-85954819D01*
X140209580Y-98092857D02*
X140257200Y-98140476D01*
X140257200Y-98140476D02*
X140304819Y-98283333D01*
X140304819Y-98283333D02*
X140304819Y-98378571D01*
X140304819Y-98378571D02*
X140257200Y-98521428D01*
X140257200Y-98521428D02*
X140161961Y-98616666D01*
X140161961Y-98616666D02*
X140066723Y-98664285D01*
X140066723Y-98664285D02*
X139876247Y-98711904D01*
X139876247Y-98711904D02*
X139733390Y-98711904D01*
X139733390Y-98711904D02*
X139542914Y-98664285D01*
X139542914Y-98664285D02*
X139447676Y-98616666D01*
X139447676Y-98616666D02*
X139352438Y-98521428D01*
X139352438Y-98521428D02*
X139304819Y-98378571D01*
X139304819Y-98378571D02*
X139304819Y-98283333D01*
X139304819Y-98283333D02*
X139352438Y-98140476D01*
X139352438Y-98140476D02*
X139400057Y-98092857D01*
X140304819Y-97140476D02*
X140304819Y-97711904D01*
X140304819Y-97426190D02*
X139304819Y-97426190D01*
X139304819Y-97426190D02*
X139447676Y-97521428D01*
X139447676Y-97521428D02*
X139542914Y-97616666D01*
X139542914Y-97616666D02*
X139590533Y-97711904D01*
X140304819Y-96664285D02*
X140304819Y-96473809D01*
X140304819Y-96473809D02*
X140257200Y-96378571D01*
X140257200Y-96378571D02*
X140209580Y-96330952D01*
X140209580Y-96330952D02*
X140066723Y-96235714D01*
X140066723Y-96235714D02*
X139876247Y-96188095D01*
X139876247Y-96188095D02*
X139495295Y-96188095D01*
X139495295Y-96188095D02*
X139400057Y-96235714D01*
X139400057Y-96235714D02*
X139352438Y-96283333D01*
X139352438Y-96283333D02*
X139304819Y-96378571D01*
X139304819Y-96378571D02*
X139304819Y-96569047D01*
X139304819Y-96569047D02*
X139352438Y-96664285D01*
X139352438Y-96664285D02*
X139400057Y-96711904D01*
X139400057Y-96711904D02*
X139495295Y-96759523D01*
X139495295Y-96759523D02*
X139733390Y-96759523D01*
X139733390Y-96759523D02*
X139828628Y-96711904D01*
X139828628Y-96711904D02*
X139876247Y-96664285D01*
X139876247Y-96664285D02*
X139923866Y-96569047D01*
X139923866Y-96569047D02*
X139923866Y-96378571D01*
X139923866Y-96378571D02*
X139876247Y-96283333D01*
X139876247Y-96283333D02*
X139828628Y-96235714D01*
X139828628Y-96235714D02*
X139733390Y-96188095D01*
X251110057Y-85641428D02*
X251062438Y-85736666D01*
X251062438Y-85736666D02*
X250967200Y-85831904D01*
X250967200Y-85831904D02*
X250824342Y-85974761D01*
X250824342Y-85974761D02*
X250776723Y-86069999D01*
X250776723Y-86069999D02*
X250776723Y-86165237D01*
X251014819Y-86117618D02*
X250967200Y-86212856D01*
X250967200Y-86212856D02*
X250871961Y-86308094D01*
X250871961Y-86308094D02*
X250681485Y-86355713D01*
X250681485Y-86355713D02*
X250348152Y-86355713D01*
X250348152Y-86355713D02*
X250157676Y-86308094D01*
X250157676Y-86308094D02*
X250062438Y-86212856D01*
X250062438Y-86212856D02*
X250014819Y-86117618D01*
X250014819Y-86117618D02*
X250014819Y-85927142D01*
X250014819Y-85927142D02*
X250062438Y-85831904D01*
X250062438Y-85831904D02*
X250157676Y-85736666D01*
X250157676Y-85736666D02*
X250348152Y-85689047D01*
X250348152Y-85689047D02*
X250681485Y-85689047D01*
X250681485Y-85689047D02*
X250871961Y-85736666D01*
X250871961Y-85736666D02*
X250967200Y-85831904D01*
X250967200Y-85831904D02*
X251014819Y-85927142D01*
X251014819Y-85927142D02*
X251014819Y-86117618D01*
X251014819Y-84736666D02*
X251014819Y-85308094D01*
X251014819Y-85022380D02*
X250014819Y-85022380D01*
X250014819Y-85022380D02*
X250157676Y-85117618D01*
X250157676Y-85117618D02*
X250252914Y-85212856D01*
X250252914Y-85212856D02*
X250300533Y-85308094D01*
X250014819Y-83831904D02*
X250014819Y-84308094D01*
X250014819Y-84308094D02*
X250491009Y-84355713D01*
X250491009Y-84355713D02*
X250443390Y-84308094D01*
X250443390Y-84308094D02*
X250395771Y-84212856D01*
X250395771Y-84212856D02*
X250395771Y-83974761D01*
X250395771Y-83974761D02*
X250443390Y-83879523D01*
X250443390Y-83879523D02*
X250491009Y-83831904D01*
X250491009Y-83831904D02*
X250586247Y-83784285D01*
X250586247Y-83784285D02*
X250824342Y-83784285D01*
X250824342Y-83784285D02*
X250919580Y-83831904D01*
X250919580Y-83831904D02*
X250967200Y-83879523D01*
X250967200Y-83879523D02*
X251014819Y-83974761D01*
X251014819Y-83974761D02*
X251014819Y-84212856D01*
X251014819Y-84212856D02*
X250967200Y-84308094D01*
X250967200Y-84308094D02*
X250919580Y-84355713D01*
X261666666Y-117304819D02*
X261666666Y-118019104D01*
X261666666Y-118019104D02*
X261619047Y-118161961D01*
X261619047Y-118161961D02*
X261523809Y-118257200D01*
X261523809Y-118257200D02*
X261380952Y-118304819D01*
X261380952Y-118304819D02*
X261285714Y-118304819D01*
X262095238Y-117400057D02*
X262142857Y-117352438D01*
X262142857Y-117352438D02*
X262238095Y-117304819D01*
X262238095Y-117304819D02*
X262476190Y-117304819D01*
X262476190Y-117304819D02*
X262571428Y-117352438D01*
X262571428Y-117352438D02*
X262619047Y-117400057D01*
X262619047Y-117400057D02*
X262666666Y-117495295D01*
X262666666Y-117495295D02*
X262666666Y-117590533D01*
X262666666Y-117590533D02*
X262619047Y-117733390D01*
X262619047Y-117733390D02*
X262047619Y-118304819D01*
X262047619Y-118304819D02*
X262666666Y-118304819D01*
X259333333Y-104584819D02*
X259000000Y-104108628D01*
X258761905Y-104584819D02*
X258761905Y-103584819D01*
X258761905Y-103584819D02*
X259142857Y-103584819D01*
X259142857Y-103584819D02*
X259238095Y-103632438D01*
X259238095Y-103632438D02*
X259285714Y-103680057D01*
X259285714Y-103680057D02*
X259333333Y-103775295D01*
X259333333Y-103775295D02*
X259333333Y-103918152D01*
X259333333Y-103918152D02*
X259285714Y-104013390D01*
X259285714Y-104013390D02*
X259238095Y-104061009D01*
X259238095Y-104061009D02*
X259142857Y-104108628D01*
X259142857Y-104108628D02*
X258761905Y-104108628D01*
X259666667Y-103584819D02*
X260333333Y-103584819D01*
X260333333Y-103584819D02*
X259904762Y-104584819D01*
X167785714Y-113454819D02*
X167785714Y-112454819D01*
X167785714Y-112454819D02*
X168023809Y-112454819D01*
X168023809Y-112454819D02*
X168166666Y-112502438D01*
X168166666Y-112502438D02*
X168261904Y-112597676D01*
X168261904Y-112597676D02*
X168309523Y-112692914D01*
X168309523Y-112692914D02*
X168357142Y-112883390D01*
X168357142Y-112883390D02*
X168357142Y-113026247D01*
X168357142Y-113026247D02*
X168309523Y-113216723D01*
X168309523Y-113216723D02*
X168261904Y-113311961D01*
X168261904Y-113311961D02*
X168166666Y-113407200D01*
X168166666Y-113407200D02*
X168023809Y-113454819D01*
X168023809Y-113454819D02*
X167785714Y-113454819D01*
X169309523Y-113454819D02*
X168738095Y-113454819D01*
X169023809Y-113454819D02*
X169023809Y-112454819D01*
X169023809Y-112454819D02*
X168928571Y-112597676D01*
X168928571Y-112597676D02*
X168833333Y-112692914D01*
X168833333Y-112692914D02*
X168738095Y-112740533D01*
X170166666Y-112454819D02*
X169976190Y-112454819D01*
X169976190Y-112454819D02*
X169880952Y-112502438D01*
X169880952Y-112502438D02*
X169833333Y-112550057D01*
X169833333Y-112550057D02*
X169738095Y-112692914D01*
X169738095Y-112692914D02*
X169690476Y-112883390D01*
X169690476Y-112883390D02*
X169690476Y-113264342D01*
X169690476Y-113264342D02*
X169738095Y-113359580D01*
X169738095Y-113359580D02*
X169785714Y-113407200D01*
X169785714Y-113407200D02*
X169880952Y-113454819D01*
X169880952Y-113454819D02*
X170071428Y-113454819D01*
X170071428Y-113454819D02*
X170166666Y-113407200D01*
X170166666Y-113407200D02*
X170214285Y-113359580D01*
X170214285Y-113359580D02*
X170261904Y-113264342D01*
X170261904Y-113264342D02*
X170261904Y-113026247D01*
X170261904Y-113026247D02*
X170214285Y-112931009D01*
X170214285Y-112931009D02*
X170166666Y-112883390D01*
X170166666Y-112883390D02*
X170071428Y-112835771D01*
X170071428Y-112835771D02*
X169880952Y-112835771D01*
X169880952Y-112835771D02*
X169785714Y-112883390D01*
X169785714Y-112883390D02*
X169738095Y-112931009D01*
X169738095Y-112931009D02*
X169690476Y-113026247D01*
X252050057Y-99595238D02*
X252002438Y-99690476D01*
X252002438Y-99690476D02*
X251907200Y-99785714D01*
X251907200Y-99785714D02*
X251764342Y-99928571D01*
X251764342Y-99928571D02*
X251716723Y-100023809D01*
X251716723Y-100023809D02*
X251716723Y-100119047D01*
X251954819Y-100071428D02*
X251907200Y-100166666D01*
X251907200Y-100166666D02*
X251811961Y-100261904D01*
X251811961Y-100261904D02*
X251621485Y-100309523D01*
X251621485Y-100309523D02*
X251288152Y-100309523D01*
X251288152Y-100309523D02*
X251097676Y-100261904D01*
X251097676Y-100261904D02*
X251002438Y-100166666D01*
X251002438Y-100166666D02*
X250954819Y-100071428D01*
X250954819Y-100071428D02*
X250954819Y-99880952D01*
X250954819Y-99880952D02*
X251002438Y-99785714D01*
X251002438Y-99785714D02*
X251097676Y-99690476D01*
X251097676Y-99690476D02*
X251288152Y-99642857D01*
X251288152Y-99642857D02*
X251621485Y-99642857D01*
X251621485Y-99642857D02*
X251811961Y-99690476D01*
X251811961Y-99690476D02*
X251907200Y-99785714D01*
X251907200Y-99785714D02*
X251954819Y-99880952D01*
X251954819Y-99880952D02*
X251954819Y-100071428D01*
X251383390Y-99071428D02*
X251335771Y-99166666D01*
X251335771Y-99166666D02*
X251288152Y-99214285D01*
X251288152Y-99214285D02*
X251192914Y-99261904D01*
X251192914Y-99261904D02*
X251145295Y-99261904D01*
X251145295Y-99261904D02*
X251050057Y-99214285D01*
X251050057Y-99214285D02*
X251002438Y-99166666D01*
X251002438Y-99166666D02*
X250954819Y-99071428D01*
X250954819Y-99071428D02*
X250954819Y-98880952D01*
X250954819Y-98880952D02*
X251002438Y-98785714D01*
X251002438Y-98785714D02*
X251050057Y-98738095D01*
X251050057Y-98738095D02*
X251145295Y-98690476D01*
X251145295Y-98690476D02*
X251192914Y-98690476D01*
X251192914Y-98690476D02*
X251288152Y-98738095D01*
X251288152Y-98738095D02*
X251335771Y-98785714D01*
X251335771Y-98785714D02*
X251383390Y-98880952D01*
X251383390Y-98880952D02*
X251383390Y-99071428D01*
X251383390Y-99071428D02*
X251431009Y-99166666D01*
X251431009Y-99166666D02*
X251478628Y-99214285D01*
X251478628Y-99214285D02*
X251573866Y-99261904D01*
X251573866Y-99261904D02*
X251764342Y-99261904D01*
X251764342Y-99261904D02*
X251859580Y-99214285D01*
X251859580Y-99214285D02*
X251907200Y-99166666D01*
X251907200Y-99166666D02*
X251954819Y-99071428D01*
X251954819Y-99071428D02*
X251954819Y-98880952D01*
X251954819Y-98880952D02*
X251907200Y-98785714D01*
X251907200Y-98785714D02*
X251859580Y-98738095D01*
X251859580Y-98738095D02*
X251764342Y-98690476D01*
X251764342Y-98690476D02*
X251573866Y-98690476D01*
X251573866Y-98690476D02*
X251478628Y-98738095D01*
X251478628Y-98738095D02*
X251431009Y-98785714D01*
X251431009Y-98785714D02*
X251383390Y-98880952D01*
X135050057Y-82595238D02*
X135002438Y-82690476D01*
X135002438Y-82690476D02*
X134907200Y-82785714D01*
X134907200Y-82785714D02*
X134764342Y-82928571D01*
X134764342Y-82928571D02*
X134716723Y-83023809D01*
X134716723Y-83023809D02*
X134716723Y-83119047D01*
X134954819Y-83071428D02*
X134907200Y-83166666D01*
X134907200Y-83166666D02*
X134811961Y-83261904D01*
X134811961Y-83261904D02*
X134621485Y-83309523D01*
X134621485Y-83309523D02*
X134288152Y-83309523D01*
X134288152Y-83309523D02*
X134097676Y-83261904D01*
X134097676Y-83261904D02*
X134002438Y-83166666D01*
X134002438Y-83166666D02*
X133954819Y-83071428D01*
X133954819Y-83071428D02*
X133954819Y-82880952D01*
X133954819Y-82880952D02*
X134002438Y-82785714D01*
X134002438Y-82785714D02*
X134097676Y-82690476D01*
X134097676Y-82690476D02*
X134288152Y-82642857D01*
X134288152Y-82642857D02*
X134621485Y-82642857D01*
X134621485Y-82642857D02*
X134811961Y-82690476D01*
X134811961Y-82690476D02*
X134907200Y-82785714D01*
X134907200Y-82785714D02*
X134954819Y-82880952D01*
X134954819Y-82880952D02*
X134954819Y-83071428D01*
X133954819Y-82309523D02*
X133954819Y-81690476D01*
X133954819Y-81690476D02*
X134335771Y-82023809D01*
X134335771Y-82023809D02*
X134335771Y-81880952D01*
X134335771Y-81880952D02*
X134383390Y-81785714D01*
X134383390Y-81785714D02*
X134431009Y-81738095D01*
X134431009Y-81738095D02*
X134526247Y-81690476D01*
X134526247Y-81690476D02*
X134764342Y-81690476D01*
X134764342Y-81690476D02*
X134859580Y-81738095D01*
X134859580Y-81738095D02*
X134907200Y-81785714D01*
X134907200Y-81785714D02*
X134954819Y-81880952D01*
X134954819Y-81880952D02*
X134954819Y-82166666D01*
X134954819Y-82166666D02*
X134907200Y-82261904D01*
X134907200Y-82261904D02*
X134859580Y-82309523D01*
X206424819Y-99508094D02*
X205424819Y-99508094D01*
X205424819Y-99508094D02*
X205424819Y-99269999D01*
X205424819Y-99269999D02*
X205472438Y-99127142D01*
X205472438Y-99127142D02*
X205567676Y-99031904D01*
X205567676Y-99031904D02*
X205662914Y-98984285D01*
X205662914Y-98984285D02*
X205853390Y-98936666D01*
X205853390Y-98936666D02*
X205996247Y-98936666D01*
X205996247Y-98936666D02*
X206186723Y-98984285D01*
X206186723Y-98984285D02*
X206281961Y-99031904D01*
X206281961Y-99031904D02*
X206377200Y-99127142D01*
X206377200Y-99127142D02*
X206424819Y-99269999D01*
X206424819Y-99269999D02*
X206424819Y-99508094D01*
X205424819Y-98603332D02*
X205424819Y-97936666D01*
X205424819Y-97936666D02*
X206424819Y-98365237D01*
X206054819Y-93951904D02*
X205054819Y-93951904D01*
X206054819Y-93380476D02*
X205483390Y-93809047D01*
X205054819Y-93380476D02*
X205626247Y-93951904D01*
X159454819Y-77142857D02*
X158978628Y-77476190D01*
X159454819Y-77714285D02*
X158454819Y-77714285D01*
X158454819Y-77714285D02*
X158454819Y-77333333D01*
X158454819Y-77333333D02*
X158502438Y-77238095D01*
X158502438Y-77238095D02*
X158550057Y-77190476D01*
X158550057Y-77190476D02*
X158645295Y-77142857D01*
X158645295Y-77142857D02*
X158788152Y-77142857D01*
X158788152Y-77142857D02*
X158883390Y-77190476D01*
X158883390Y-77190476D02*
X158931009Y-77238095D01*
X158931009Y-77238095D02*
X158978628Y-77333333D01*
X158978628Y-77333333D02*
X158978628Y-77714285D01*
X158788152Y-76285714D02*
X159454819Y-76285714D01*
X158407200Y-76523809D02*
X159121485Y-76761904D01*
X159121485Y-76761904D02*
X159121485Y-76142857D01*
X158883390Y-75619047D02*
X158835771Y-75714285D01*
X158835771Y-75714285D02*
X158788152Y-75761904D01*
X158788152Y-75761904D02*
X158692914Y-75809523D01*
X158692914Y-75809523D02*
X158645295Y-75809523D01*
X158645295Y-75809523D02*
X158550057Y-75761904D01*
X158550057Y-75761904D02*
X158502438Y-75714285D01*
X158502438Y-75714285D02*
X158454819Y-75619047D01*
X158454819Y-75619047D02*
X158454819Y-75428571D01*
X158454819Y-75428571D02*
X158502438Y-75333333D01*
X158502438Y-75333333D02*
X158550057Y-75285714D01*
X158550057Y-75285714D02*
X158645295Y-75238095D01*
X158645295Y-75238095D02*
X158692914Y-75238095D01*
X158692914Y-75238095D02*
X158788152Y-75285714D01*
X158788152Y-75285714D02*
X158835771Y-75333333D01*
X158835771Y-75333333D02*
X158883390Y-75428571D01*
X158883390Y-75428571D02*
X158883390Y-75619047D01*
X158883390Y-75619047D02*
X158931009Y-75714285D01*
X158931009Y-75714285D02*
X158978628Y-75761904D01*
X158978628Y-75761904D02*
X159073866Y-75809523D01*
X159073866Y-75809523D02*
X159264342Y-75809523D01*
X159264342Y-75809523D02*
X159359580Y-75761904D01*
X159359580Y-75761904D02*
X159407200Y-75714285D01*
X159407200Y-75714285D02*
X159454819Y-75619047D01*
X159454819Y-75619047D02*
X159454819Y-75428571D01*
X159454819Y-75428571D02*
X159407200Y-75333333D01*
X159407200Y-75333333D02*
X159359580Y-75285714D01*
X159359580Y-75285714D02*
X159264342Y-75238095D01*
X159264342Y-75238095D02*
X159073866Y-75238095D01*
X159073866Y-75238095D02*
X158978628Y-75285714D01*
X158978628Y-75285714D02*
X158931009Y-75333333D01*
X158931009Y-75333333D02*
X158883390Y-75428571D01*
X211800057Y-86961428D02*
X211752438Y-87056666D01*
X211752438Y-87056666D02*
X211657200Y-87151904D01*
X211657200Y-87151904D02*
X211514342Y-87294761D01*
X211514342Y-87294761D02*
X211466723Y-87389999D01*
X211466723Y-87389999D02*
X211466723Y-87485237D01*
X211704819Y-87437618D02*
X211657200Y-87532856D01*
X211657200Y-87532856D02*
X211561961Y-87628094D01*
X211561961Y-87628094D02*
X211371485Y-87675713D01*
X211371485Y-87675713D02*
X211038152Y-87675713D01*
X211038152Y-87675713D02*
X210847676Y-87628094D01*
X210847676Y-87628094D02*
X210752438Y-87532856D01*
X210752438Y-87532856D02*
X210704819Y-87437618D01*
X210704819Y-87437618D02*
X210704819Y-87247142D01*
X210704819Y-87247142D02*
X210752438Y-87151904D01*
X210752438Y-87151904D02*
X210847676Y-87056666D01*
X210847676Y-87056666D02*
X211038152Y-87009047D01*
X211038152Y-87009047D02*
X211371485Y-87009047D01*
X211371485Y-87009047D02*
X211561961Y-87056666D01*
X211561961Y-87056666D02*
X211657200Y-87151904D01*
X211657200Y-87151904D02*
X211704819Y-87247142D01*
X211704819Y-87247142D02*
X211704819Y-87437618D01*
X211704819Y-86056666D02*
X211704819Y-86628094D01*
X211704819Y-86342380D02*
X210704819Y-86342380D01*
X210704819Y-86342380D02*
X210847676Y-86437618D01*
X210847676Y-86437618D02*
X210942914Y-86532856D01*
X210942914Y-86532856D02*
X210990533Y-86628094D01*
X211038152Y-85199523D02*
X211704819Y-85199523D01*
X210657200Y-85437618D02*
X211371485Y-85675713D01*
X211371485Y-85675713D02*
X211371485Y-85056666D01*
X192490057Y-84301428D02*
X192442438Y-84396666D01*
X192442438Y-84396666D02*
X192347200Y-84491904D01*
X192347200Y-84491904D02*
X192204342Y-84634761D01*
X192204342Y-84634761D02*
X192156723Y-84729999D01*
X192156723Y-84729999D02*
X192156723Y-84825237D01*
X192394819Y-84777618D02*
X192347200Y-84872856D01*
X192347200Y-84872856D02*
X192251961Y-84968094D01*
X192251961Y-84968094D02*
X192061485Y-85015713D01*
X192061485Y-85015713D02*
X191728152Y-85015713D01*
X191728152Y-85015713D02*
X191537676Y-84968094D01*
X191537676Y-84968094D02*
X191442438Y-84872856D01*
X191442438Y-84872856D02*
X191394819Y-84777618D01*
X191394819Y-84777618D02*
X191394819Y-84587142D01*
X191394819Y-84587142D02*
X191442438Y-84491904D01*
X191442438Y-84491904D02*
X191537676Y-84396666D01*
X191537676Y-84396666D02*
X191728152Y-84349047D01*
X191728152Y-84349047D02*
X192061485Y-84349047D01*
X192061485Y-84349047D02*
X192251961Y-84396666D01*
X192251961Y-84396666D02*
X192347200Y-84491904D01*
X192347200Y-84491904D02*
X192394819Y-84587142D01*
X192394819Y-84587142D02*
X192394819Y-84777618D01*
X192394819Y-83396666D02*
X192394819Y-83968094D01*
X192394819Y-83682380D02*
X191394819Y-83682380D01*
X191394819Y-83682380D02*
X191537676Y-83777618D01*
X191537676Y-83777618D02*
X191632914Y-83872856D01*
X191632914Y-83872856D02*
X191680533Y-83968094D01*
X191394819Y-82777618D02*
X191394819Y-82682380D01*
X191394819Y-82682380D02*
X191442438Y-82587142D01*
X191442438Y-82587142D02*
X191490057Y-82539523D01*
X191490057Y-82539523D02*
X191585295Y-82491904D01*
X191585295Y-82491904D02*
X191775771Y-82444285D01*
X191775771Y-82444285D02*
X192013866Y-82444285D01*
X192013866Y-82444285D02*
X192204342Y-82491904D01*
X192204342Y-82491904D02*
X192299580Y-82539523D01*
X192299580Y-82539523D02*
X192347200Y-82587142D01*
X192347200Y-82587142D02*
X192394819Y-82682380D01*
X192394819Y-82682380D02*
X192394819Y-82777618D01*
X192394819Y-82777618D02*
X192347200Y-82872856D01*
X192347200Y-82872856D02*
X192299580Y-82920475D01*
X192299580Y-82920475D02*
X192204342Y-82968094D01*
X192204342Y-82968094D02*
X192013866Y-83015713D01*
X192013866Y-83015713D02*
X191775771Y-83015713D01*
X191775771Y-83015713D02*
X191585295Y-82968094D01*
X191585295Y-82968094D02*
X191490057Y-82920475D01*
X191490057Y-82920475D02*
X191442438Y-82872856D01*
X191442438Y-82872856D02*
X191394819Y-82777618D01*
X168107142Y-91754819D02*
X167773809Y-91278628D01*
X167535714Y-91754819D02*
X167535714Y-90754819D01*
X167535714Y-90754819D02*
X167916666Y-90754819D01*
X167916666Y-90754819D02*
X168011904Y-90802438D01*
X168011904Y-90802438D02*
X168059523Y-90850057D01*
X168059523Y-90850057D02*
X168107142Y-90945295D01*
X168107142Y-90945295D02*
X168107142Y-91088152D01*
X168107142Y-91088152D02*
X168059523Y-91183390D01*
X168059523Y-91183390D02*
X168011904Y-91231009D01*
X168011904Y-91231009D02*
X167916666Y-91278628D01*
X167916666Y-91278628D02*
X167535714Y-91278628D01*
X168964285Y-91088152D02*
X168964285Y-91754819D01*
X168726190Y-90707200D02*
X168488095Y-91421485D01*
X168488095Y-91421485D02*
X169107142Y-91421485D01*
X169392857Y-90754819D02*
X170059523Y-90754819D01*
X170059523Y-90754819D02*
X169630952Y-91754819D01*
X256833333Y-95954819D02*
X256500000Y-95478628D01*
X256261905Y-95954819D02*
X256261905Y-94954819D01*
X256261905Y-94954819D02*
X256642857Y-94954819D01*
X256642857Y-94954819D02*
X256738095Y-95002438D01*
X256738095Y-95002438D02*
X256785714Y-95050057D01*
X256785714Y-95050057D02*
X256833333Y-95145295D01*
X256833333Y-95145295D02*
X256833333Y-95288152D01*
X256833333Y-95288152D02*
X256785714Y-95383390D01*
X256785714Y-95383390D02*
X256738095Y-95431009D01*
X256738095Y-95431009D02*
X256642857Y-95478628D01*
X256642857Y-95478628D02*
X256261905Y-95478628D01*
X257404762Y-95383390D02*
X257309524Y-95335771D01*
X257309524Y-95335771D02*
X257261905Y-95288152D01*
X257261905Y-95288152D02*
X257214286Y-95192914D01*
X257214286Y-95192914D02*
X257214286Y-95145295D01*
X257214286Y-95145295D02*
X257261905Y-95050057D01*
X257261905Y-95050057D02*
X257309524Y-95002438D01*
X257309524Y-95002438D02*
X257404762Y-94954819D01*
X257404762Y-94954819D02*
X257595238Y-94954819D01*
X257595238Y-94954819D02*
X257690476Y-95002438D01*
X257690476Y-95002438D02*
X257738095Y-95050057D01*
X257738095Y-95050057D02*
X257785714Y-95145295D01*
X257785714Y-95145295D02*
X257785714Y-95192914D01*
X257785714Y-95192914D02*
X257738095Y-95288152D01*
X257738095Y-95288152D02*
X257690476Y-95335771D01*
X257690476Y-95335771D02*
X257595238Y-95383390D01*
X257595238Y-95383390D02*
X257404762Y-95383390D01*
X257404762Y-95383390D02*
X257309524Y-95431009D01*
X257309524Y-95431009D02*
X257261905Y-95478628D01*
X257261905Y-95478628D02*
X257214286Y-95573866D01*
X257214286Y-95573866D02*
X257214286Y-95764342D01*
X257214286Y-95764342D02*
X257261905Y-95859580D01*
X257261905Y-95859580D02*
X257309524Y-95907200D01*
X257309524Y-95907200D02*
X257404762Y-95954819D01*
X257404762Y-95954819D02*
X257595238Y-95954819D01*
X257595238Y-95954819D02*
X257690476Y-95907200D01*
X257690476Y-95907200D02*
X257738095Y-95859580D01*
X257738095Y-95859580D02*
X257785714Y-95764342D01*
X257785714Y-95764342D02*
X257785714Y-95573866D01*
X257785714Y-95573866D02*
X257738095Y-95478628D01*
X257738095Y-95478628D02*
X257690476Y-95431009D01*
X257690476Y-95431009D02*
X257595238Y-95383390D01*
X138761905Y-109954819D02*
X138761905Y-108954819D01*
X138761905Y-108954819D02*
X139000000Y-108954819D01*
X139000000Y-108954819D02*
X139142857Y-109002438D01*
X139142857Y-109002438D02*
X139238095Y-109097676D01*
X139238095Y-109097676D02*
X139285714Y-109192914D01*
X139285714Y-109192914D02*
X139333333Y-109383390D01*
X139333333Y-109383390D02*
X139333333Y-109526247D01*
X139333333Y-109526247D02*
X139285714Y-109716723D01*
X139285714Y-109716723D02*
X139238095Y-109811961D01*
X139238095Y-109811961D02*
X139142857Y-109907200D01*
X139142857Y-109907200D02*
X139000000Y-109954819D01*
X139000000Y-109954819D02*
X138761905Y-109954819D01*
X139809524Y-109954819D02*
X140000000Y-109954819D01*
X140000000Y-109954819D02*
X140095238Y-109907200D01*
X140095238Y-109907200D02*
X140142857Y-109859580D01*
X140142857Y-109859580D02*
X140238095Y-109716723D01*
X140238095Y-109716723D02*
X140285714Y-109526247D01*
X140285714Y-109526247D02*
X140285714Y-109145295D01*
X140285714Y-109145295D02*
X140238095Y-109050057D01*
X140238095Y-109050057D02*
X140190476Y-109002438D01*
X140190476Y-109002438D02*
X140095238Y-108954819D01*
X140095238Y-108954819D02*
X139904762Y-108954819D01*
X139904762Y-108954819D02*
X139809524Y-109002438D01*
X139809524Y-109002438D02*
X139761905Y-109050057D01*
X139761905Y-109050057D02*
X139714286Y-109145295D01*
X139714286Y-109145295D02*
X139714286Y-109383390D01*
X139714286Y-109383390D02*
X139761905Y-109478628D01*
X139761905Y-109478628D02*
X139809524Y-109526247D01*
X139809524Y-109526247D02*
X139904762Y-109573866D01*
X139904762Y-109573866D02*
X140095238Y-109573866D01*
X140095238Y-109573866D02*
X140190476Y-109526247D01*
X140190476Y-109526247D02*
X140238095Y-109478628D01*
X140238095Y-109478628D02*
X140285714Y-109383390D01*
X212490057Y-100595238D02*
X212442438Y-100690476D01*
X212442438Y-100690476D02*
X212347200Y-100785714D01*
X212347200Y-100785714D02*
X212204342Y-100928571D01*
X212204342Y-100928571D02*
X212156723Y-101023809D01*
X212156723Y-101023809D02*
X212156723Y-101119047D01*
X212394819Y-101071428D02*
X212347200Y-101166666D01*
X212347200Y-101166666D02*
X212251961Y-101261904D01*
X212251961Y-101261904D02*
X212061485Y-101309523D01*
X212061485Y-101309523D02*
X211728152Y-101309523D01*
X211728152Y-101309523D02*
X211537676Y-101261904D01*
X211537676Y-101261904D02*
X211442438Y-101166666D01*
X211442438Y-101166666D02*
X211394819Y-101071428D01*
X211394819Y-101071428D02*
X211394819Y-100880952D01*
X211394819Y-100880952D02*
X211442438Y-100785714D01*
X211442438Y-100785714D02*
X211537676Y-100690476D01*
X211537676Y-100690476D02*
X211728152Y-100642857D01*
X211728152Y-100642857D02*
X212061485Y-100642857D01*
X212061485Y-100642857D02*
X212251961Y-100690476D01*
X212251961Y-100690476D02*
X212347200Y-100785714D01*
X212347200Y-100785714D02*
X212394819Y-100880952D01*
X212394819Y-100880952D02*
X212394819Y-101071428D01*
X211394819Y-99785714D02*
X211394819Y-99976190D01*
X211394819Y-99976190D02*
X211442438Y-100071428D01*
X211442438Y-100071428D02*
X211490057Y-100119047D01*
X211490057Y-100119047D02*
X211632914Y-100214285D01*
X211632914Y-100214285D02*
X211823390Y-100261904D01*
X211823390Y-100261904D02*
X212204342Y-100261904D01*
X212204342Y-100261904D02*
X212299580Y-100214285D01*
X212299580Y-100214285D02*
X212347200Y-100166666D01*
X212347200Y-100166666D02*
X212394819Y-100071428D01*
X212394819Y-100071428D02*
X212394819Y-99880952D01*
X212394819Y-99880952D02*
X212347200Y-99785714D01*
X212347200Y-99785714D02*
X212299580Y-99738095D01*
X212299580Y-99738095D02*
X212204342Y-99690476D01*
X212204342Y-99690476D02*
X211966247Y-99690476D01*
X211966247Y-99690476D02*
X211871009Y-99738095D01*
X211871009Y-99738095D02*
X211823390Y-99785714D01*
X211823390Y-99785714D02*
X211775771Y-99880952D01*
X211775771Y-99880952D02*
X211775771Y-100071428D01*
X211775771Y-100071428D02*
X211823390Y-100166666D01*
X211823390Y-100166666D02*
X211871009Y-100214285D01*
X211871009Y-100214285D02*
X211966247Y-100261904D01*
X245924819Y-79158094D02*
X244924819Y-79158094D01*
X244924819Y-79158094D02*
X244924819Y-78919999D01*
X244924819Y-78919999D02*
X244972438Y-78777142D01*
X244972438Y-78777142D02*
X245067676Y-78681904D01*
X245067676Y-78681904D02*
X245162914Y-78634285D01*
X245162914Y-78634285D02*
X245353390Y-78586666D01*
X245353390Y-78586666D02*
X245496247Y-78586666D01*
X245496247Y-78586666D02*
X245686723Y-78634285D01*
X245686723Y-78634285D02*
X245781961Y-78681904D01*
X245781961Y-78681904D02*
X245877200Y-78777142D01*
X245877200Y-78777142D02*
X245924819Y-78919999D01*
X245924819Y-78919999D02*
X245924819Y-79158094D01*
X244924819Y-77729523D02*
X244924819Y-77919999D01*
X244924819Y-77919999D02*
X244972438Y-78015237D01*
X244972438Y-78015237D02*
X245020057Y-78062856D01*
X245020057Y-78062856D02*
X245162914Y-78158094D01*
X245162914Y-78158094D02*
X245353390Y-78205713D01*
X245353390Y-78205713D02*
X245734342Y-78205713D01*
X245734342Y-78205713D02*
X245829580Y-78158094D01*
X245829580Y-78158094D02*
X245877200Y-78110475D01*
X245877200Y-78110475D02*
X245924819Y-78015237D01*
X245924819Y-78015237D02*
X245924819Y-77824761D01*
X245924819Y-77824761D02*
X245877200Y-77729523D01*
X245877200Y-77729523D02*
X245829580Y-77681904D01*
X245829580Y-77681904D02*
X245734342Y-77634285D01*
X245734342Y-77634285D02*
X245496247Y-77634285D01*
X245496247Y-77634285D02*
X245401009Y-77681904D01*
X245401009Y-77681904D02*
X245353390Y-77729523D01*
X245353390Y-77729523D02*
X245305771Y-77824761D01*
X245305771Y-77824761D02*
X245305771Y-78015237D01*
X245305771Y-78015237D02*
X245353390Y-78110475D01*
X245353390Y-78110475D02*
X245401009Y-78158094D01*
X245401009Y-78158094D02*
X245496247Y-78205713D01*
X245554819Y-73601904D02*
X244554819Y-73601904D01*
X245554819Y-73030476D02*
X244983390Y-73459047D01*
X244554819Y-73030476D02*
X245126247Y-73601904D01*
X271110057Y-104825238D02*
X271062438Y-104920476D01*
X271062438Y-104920476D02*
X270967200Y-105015714D01*
X270967200Y-105015714D02*
X270824342Y-105158571D01*
X270824342Y-105158571D02*
X270776723Y-105253809D01*
X270776723Y-105253809D02*
X270776723Y-105349047D01*
X271014819Y-105301428D02*
X270967200Y-105396666D01*
X270967200Y-105396666D02*
X270871961Y-105491904D01*
X270871961Y-105491904D02*
X270681485Y-105539523D01*
X270681485Y-105539523D02*
X270348152Y-105539523D01*
X270348152Y-105539523D02*
X270157676Y-105491904D01*
X270157676Y-105491904D02*
X270062438Y-105396666D01*
X270062438Y-105396666D02*
X270014819Y-105301428D01*
X270014819Y-105301428D02*
X270014819Y-105110952D01*
X270014819Y-105110952D02*
X270062438Y-105015714D01*
X270062438Y-105015714D02*
X270157676Y-104920476D01*
X270157676Y-104920476D02*
X270348152Y-104872857D01*
X270348152Y-104872857D02*
X270681485Y-104872857D01*
X270681485Y-104872857D02*
X270871961Y-104920476D01*
X270871961Y-104920476D02*
X270967200Y-105015714D01*
X270967200Y-105015714D02*
X271014819Y-105110952D01*
X271014819Y-105110952D02*
X271014819Y-105301428D01*
X271014819Y-104396666D02*
X271014819Y-104206190D01*
X271014819Y-104206190D02*
X270967200Y-104110952D01*
X270967200Y-104110952D02*
X270919580Y-104063333D01*
X270919580Y-104063333D02*
X270776723Y-103968095D01*
X270776723Y-103968095D02*
X270586247Y-103920476D01*
X270586247Y-103920476D02*
X270205295Y-103920476D01*
X270205295Y-103920476D02*
X270110057Y-103968095D01*
X270110057Y-103968095D02*
X270062438Y-104015714D01*
X270062438Y-104015714D02*
X270014819Y-104110952D01*
X270014819Y-104110952D02*
X270014819Y-104301428D01*
X270014819Y-104301428D02*
X270062438Y-104396666D01*
X270062438Y-104396666D02*
X270110057Y-104444285D01*
X270110057Y-104444285D02*
X270205295Y-104491904D01*
X270205295Y-104491904D02*
X270443390Y-104491904D01*
X270443390Y-104491904D02*
X270538628Y-104444285D01*
X270538628Y-104444285D02*
X270586247Y-104396666D01*
X270586247Y-104396666D02*
X270633866Y-104301428D01*
X270633866Y-104301428D02*
X270633866Y-104110952D01*
X270633866Y-104110952D02*
X270586247Y-104015714D01*
X270586247Y-104015714D02*
X270538628Y-103968095D01*
X270538628Y-103968095D02*
X270443390Y-103920476D01*
X173857142Y-117454819D02*
X173523809Y-116978628D01*
X173285714Y-117454819D02*
X173285714Y-116454819D01*
X173285714Y-116454819D02*
X173666666Y-116454819D01*
X173666666Y-116454819D02*
X173761904Y-116502438D01*
X173761904Y-116502438D02*
X173809523Y-116550057D01*
X173809523Y-116550057D02*
X173857142Y-116645295D01*
X173857142Y-116645295D02*
X173857142Y-116788152D01*
X173857142Y-116788152D02*
X173809523Y-116883390D01*
X173809523Y-116883390D02*
X173761904Y-116931009D01*
X173761904Y-116931009D02*
X173666666Y-116978628D01*
X173666666Y-116978628D02*
X173285714Y-116978628D01*
X174190476Y-116454819D02*
X174809523Y-116454819D01*
X174809523Y-116454819D02*
X174476190Y-116835771D01*
X174476190Y-116835771D02*
X174619047Y-116835771D01*
X174619047Y-116835771D02*
X174714285Y-116883390D01*
X174714285Y-116883390D02*
X174761904Y-116931009D01*
X174761904Y-116931009D02*
X174809523Y-117026247D01*
X174809523Y-117026247D02*
X174809523Y-117264342D01*
X174809523Y-117264342D02*
X174761904Y-117359580D01*
X174761904Y-117359580D02*
X174714285Y-117407200D01*
X174714285Y-117407200D02*
X174619047Y-117454819D01*
X174619047Y-117454819D02*
X174333333Y-117454819D01*
X174333333Y-117454819D02*
X174238095Y-117407200D01*
X174238095Y-117407200D02*
X174190476Y-117359580D01*
X175190476Y-116550057D02*
X175238095Y-116502438D01*
X175238095Y-116502438D02*
X175333333Y-116454819D01*
X175333333Y-116454819D02*
X175571428Y-116454819D01*
X175571428Y-116454819D02*
X175666666Y-116502438D01*
X175666666Y-116502438D02*
X175714285Y-116550057D01*
X175714285Y-116550057D02*
X175761904Y-116645295D01*
X175761904Y-116645295D02*
X175761904Y-116740533D01*
X175761904Y-116740533D02*
X175714285Y-116883390D01*
X175714285Y-116883390D02*
X175142857Y-117454819D01*
X175142857Y-117454819D02*
X175761904Y-117454819D01*
X167857142Y-101454819D02*
X167523809Y-100978628D01*
X167285714Y-101454819D02*
X167285714Y-100454819D01*
X167285714Y-100454819D02*
X167666666Y-100454819D01*
X167666666Y-100454819D02*
X167761904Y-100502438D01*
X167761904Y-100502438D02*
X167809523Y-100550057D01*
X167809523Y-100550057D02*
X167857142Y-100645295D01*
X167857142Y-100645295D02*
X167857142Y-100788152D01*
X167857142Y-100788152D02*
X167809523Y-100883390D01*
X167809523Y-100883390D02*
X167761904Y-100931009D01*
X167761904Y-100931009D02*
X167666666Y-100978628D01*
X167666666Y-100978628D02*
X167285714Y-100978628D01*
X168238095Y-100550057D02*
X168285714Y-100502438D01*
X168285714Y-100502438D02*
X168380952Y-100454819D01*
X168380952Y-100454819D02*
X168619047Y-100454819D01*
X168619047Y-100454819D02*
X168714285Y-100502438D01*
X168714285Y-100502438D02*
X168761904Y-100550057D01*
X168761904Y-100550057D02*
X168809523Y-100645295D01*
X168809523Y-100645295D02*
X168809523Y-100740533D01*
X168809523Y-100740533D02*
X168761904Y-100883390D01*
X168761904Y-100883390D02*
X168190476Y-101454819D01*
X168190476Y-101454819D02*
X168809523Y-101454819D01*
X169428571Y-100454819D02*
X169523809Y-100454819D01*
X169523809Y-100454819D02*
X169619047Y-100502438D01*
X169619047Y-100502438D02*
X169666666Y-100550057D01*
X169666666Y-100550057D02*
X169714285Y-100645295D01*
X169714285Y-100645295D02*
X169761904Y-100835771D01*
X169761904Y-100835771D02*
X169761904Y-101073866D01*
X169761904Y-101073866D02*
X169714285Y-101264342D01*
X169714285Y-101264342D02*
X169666666Y-101359580D01*
X169666666Y-101359580D02*
X169619047Y-101407200D01*
X169619047Y-101407200D02*
X169523809Y-101454819D01*
X169523809Y-101454819D02*
X169428571Y-101454819D01*
X169428571Y-101454819D02*
X169333333Y-101407200D01*
X169333333Y-101407200D02*
X169285714Y-101359580D01*
X169285714Y-101359580D02*
X169238095Y-101264342D01*
X169238095Y-101264342D02*
X169190476Y-101073866D01*
X169190476Y-101073866D02*
X169190476Y-100835771D01*
X169190476Y-100835771D02*
X169238095Y-100645295D01*
X169238095Y-100645295D02*
X169285714Y-100550057D01*
X169285714Y-100550057D02*
X169333333Y-100502438D01*
X169333333Y-100502438D02*
X169428571Y-100454819D01*
X195857142Y-99954819D02*
X195523809Y-99478628D01*
X195285714Y-99954819D02*
X195285714Y-98954819D01*
X195285714Y-98954819D02*
X195666666Y-98954819D01*
X195666666Y-98954819D02*
X195761904Y-99002438D01*
X195761904Y-99002438D02*
X195809523Y-99050057D01*
X195809523Y-99050057D02*
X195857142Y-99145295D01*
X195857142Y-99145295D02*
X195857142Y-99288152D01*
X195857142Y-99288152D02*
X195809523Y-99383390D01*
X195809523Y-99383390D02*
X195761904Y-99431009D01*
X195761904Y-99431009D02*
X195666666Y-99478628D01*
X195666666Y-99478628D02*
X195285714Y-99478628D01*
X196809523Y-99954819D02*
X196238095Y-99954819D01*
X196523809Y-99954819D02*
X196523809Y-98954819D01*
X196523809Y-98954819D02*
X196428571Y-99097676D01*
X196428571Y-99097676D02*
X196333333Y-99192914D01*
X196333333Y-99192914D02*
X196238095Y-99240533D01*
X197714285Y-98954819D02*
X197238095Y-98954819D01*
X197238095Y-98954819D02*
X197190476Y-99431009D01*
X197190476Y-99431009D02*
X197238095Y-99383390D01*
X197238095Y-99383390D02*
X197333333Y-99335771D01*
X197333333Y-99335771D02*
X197571428Y-99335771D01*
X197571428Y-99335771D02*
X197666666Y-99383390D01*
X197666666Y-99383390D02*
X197714285Y-99431009D01*
X197714285Y-99431009D02*
X197761904Y-99526247D01*
X197761904Y-99526247D02*
X197761904Y-99764342D01*
X197761904Y-99764342D02*
X197714285Y-99859580D01*
X197714285Y-99859580D02*
X197666666Y-99907200D01*
X197666666Y-99907200D02*
X197571428Y-99954819D01*
X197571428Y-99954819D02*
X197333333Y-99954819D01*
X197333333Y-99954819D02*
X197238095Y-99907200D01*
X197238095Y-99907200D02*
X197190476Y-99859580D01*
X212680057Y-83595238D02*
X212632438Y-83690476D01*
X212632438Y-83690476D02*
X212537200Y-83785714D01*
X212537200Y-83785714D02*
X212394342Y-83928571D01*
X212394342Y-83928571D02*
X212346723Y-84023809D01*
X212346723Y-84023809D02*
X212346723Y-84119047D01*
X212584819Y-84071428D02*
X212537200Y-84166666D01*
X212537200Y-84166666D02*
X212441961Y-84261904D01*
X212441961Y-84261904D02*
X212251485Y-84309523D01*
X212251485Y-84309523D02*
X211918152Y-84309523D01*
X211918152Y-84309523D02*
X211727676Y-84261904D01*
X211727676Y-84261904D02*
X211632438Y-84166666D01*
X211632438Y-84166666D02*
X211584819Y-84071428D01*
X211584819Y-84071428D02*
X211584819Y-83880952D01*
X211584819Y-83880952D02*
X211632438Y-83785714D01*
X211632438Y-83785714D02*
X211727676Y-83690476D01*
X211727676Y-83690476D02*
X211918152Y-83642857D01*
X211918152Y-83642857D02*
X212251485Y-83642857D01*
X212251485Y-83642857D02*
X212441961Y-83690476D01*
X212441961Y-83690476D02*
X212537200Y-83785714D01*
X212537200Y-83785714D02*
X212584819Y-83880952D01*
X212584819Y-83880952D02*
X212584819Y-84071428D01*
X212584819Y-82690476D02*
X212584819Y-83261904D01*
X212584819Y-82976190D02*
X211584819Y-82976190D01*
X211584819Y-82976190D02*
X211727676Y-83071428D01*
X211727676Y-83071428D02*
X211822914Y-83166666D01*
X211822914Y-83166666D02*
X211870533Y-83261904D01*
X147857142Y-101454819D02*
X147523809Y-100978628D01*
X147285714Y-101454819D02*
X147285714Y-100454819D01*
X147285714Y-100454819D02*
X147666666Y-100454819D01*
X147666666Y-100454819D02*
X147761904Y-100502438D01*
X147761904Y-100502438D02*
X147809523Y-100550057D01*
X147809523Y-100550057D02*
X147857142Y-100645295D01*
X147857142Y-100645295D02*
X147857142Y-100788152D01*
X147857142Y-100788152D02*
X147809523Y-100883390D01*
X147809523Y-100883390D02*
X147761904Y-100931009D01*
X147761904Y-100931009D02*
X147666666Y-100978628D01*
X147666666Y-100978628D02*
X147285714Y-100978628D01*
X148809523Y-101454819D02*
X148238095Y-101454819D01*
X148523809Y-101454819D02*
X148523809Y-100454819D01*
X148523809Y-100454819D02*
X148428571Y-100597676D01*
X148428571Y-100597676D02*
X148333333Y-100692914D01*
X148333333Y-100692914D02*
X148238095Y-100740533D01*
X149380952Y-100883390D02*
X149285714Y-100835771D01*
X149285714Y-100835771D02*
X149238095Y-100788152D01*
X149238095Y-100788152D02*
X149190476Y-100692914D01*
X149190476Y-100692914D02*
X149190476Y-100645295D01*
X149190476Y-100645295D02*
X149238095Y-100550057D01*
X149238095Y-100550057D02*
X149285714Y-100502438D01*
X149285714Y-100502438D02*
X149380952Y-100454819D01*
X149380952Y-100454819D02*
X149571428Y-100454819D01*
X149571428Y-100454819D02*
X149666666Y-100502438D01*
X149666666Y-100502438D02*
X149714285Y-100550057D01*
X149714285Y-100550057D02*
X149761904Y-100645295D01*
X149761904Y-100645295D02*
X149761904Y-100692914D01*
X149761904Y-100692914D02*
X149714285Y-100788152D01*
X149714285Y-100788152D02*
X149666666Y-100835771D01*
X149666666Y-100835771D02*
X149571428Y-100883390D01*
X149571428Y-100883390D02*
X149380952Y-100883390D01*
X149380952Y-100883390D02*
X149285714Y-100931009D01*
X149285714Y-100931009D02*
X149238095Y-100978628D01*
X149238095Y-100978628D02*
X149190476Y-101073866D01*
X149190476Y-101073866D02*
X149190476Y-101264342D01*
X149190476Y-101264342D02*
X149238095Y-101359580D01*
X149238095Y-101359580D02*
X149285714Y-101407200D01*
X149285714Y-101407200D02*
X149380952Y-101454819D01*
X149380952Y-101454819D02*
X149571428Y-101454819D01*
X149571428Y-101454819D02*
X149666666Y-101407200D01*
X149666666Y-101407200D02*
X149714285Y-101359580D01*
X149714285Y-101359580D02*
X149761904Y-101264342D01*
X149761904Y-101264342D02*
X149761904Y-101073866D01*
X149761904Y-101073866D02*
X149714285Y-100978628D01*
X149714285Y-100978628D02*
X149666666Y-100931009D01*
X149666666Y-100931009D02*
X149571428Y-100883390D01*
X170685714Y-90924819D02*
X170685714Y-89924819D01*
X170685714Y-89924819D02*
X170923809Y-89924819D01*
X170923809Y-89924819D02*
X171066666Y-89972438D01*
X171066666Y-89972438D02*
X171161904Y-90067676D01*
X171161904Y-90067676D02*
X171209523Y-90162914D01*
X171209523Y-90162914D02*
X171257142Y-90353390D01*
X171257142Y-90353390D02*
X171257142Y-90496247D01*
X171257142Y-90496247D02*
X171209523Y-90686723D01*
X171209523Y-90686723D02*
X171161904Y-90781961D01*
X171161904Y-90781961D02*
X171066666Y-90877200D01*
X171066666Y-90877200D02*
X170923809Y-90924819D01*
X170923809Y-90924819D02*
X170685714Y-90924819D01*
X171638095Y-90020057D02*
X171685714Y-89972438D01*
X171685714Y-89972438D02*
X171780952Y-89924819D01*
X171780952Y-89924819D02*
X172019047Y-89924819D01*
X172019047Y-89924819D02*
X172114285Y-89972438D01*
X172114285Y-89972438D02*
X172161904Y-90020057D01*
X172161904Y-90020057D02*
X172209523Y-90115295D01*
X172209523Y-90115295D02*
X172209523Y-90210533D01*
X172209523Y-90210533D02*
X172161904Y-90353390D01*
X172161904Y-90353390D02*
X171590476Y-90924819D01*
X171590476Y-90924819D02*
X172209523Y-90924819D01*
X172685714Y-90924819D02*
X172876190Y-90924819D01*
X172876190Y-90924819D02*
X172971428Y-90877200D01*
X172971428Y-90877200D02*
X173019047Y-90829580D01*
X173019047Y-90829580D02*
X173114285Y-90686723D01*
X173114285Y-90686723D02*
X173161904Y-90496247D01*
X173161904Y-90496247D02*
X173161904Y-90115295D01*
X173161904Y-90115295D02*
X173114285Y-90020057D01*
X173114285Y-90020057D02*
X173066666Y-89972438D01*
X173066666Y-89972438D02*
X172971428Y-89924819D01*
X172971428Y-89924819D02*
X172780952Y-89924819D01*
X172780952Y-89924819D02*
X172685714Y-89972438D01*
X172685714Y-89972438D02*
X172638095Y-90020057D01*
X172638095Y-90020057D02*
X172590476Y-90115295D01*
X172590476Y-90115295D02*
X172590476Y-90353390D01*
X172590476Y-90353390D02*
X172638095Y-90448628D01*
X172638095Y-90448628D02*
X172685714Y-90496247D01*
X172685714Y-90496247D02*
X172780952Y-90543866D01*
X172780952Y-90543866D02*
X172971428Y-90543866D01*
X172971428Y-90543866D02*
X173066666Y-90496247D01*
X173066666Y-90496247D02*
X173114285Y-90448628D01*
X173114285Y-90448628D02*
X173161904Y-90353390D01*
X177988095Y-90354819D02*
X177988095Y-89354819D01*
X178559523Y-90354819D02*
X178130952Y-89783390D01*
X178559523Y-89354819D02*
X177988095Y-89926247D01*
X212110057Y-104341428D02*
X212062438Y-104436666D01*
X212062438Y-104436666D02*
X211967200Y-104531904D01*
X211967200Y-104531904D02*
X211824342Y-104674761D01*
X211824342Y-104674761D02*
X211776723Y-104769999D01*
X211776723Y-104769999D02*
X211776723Y-104865237D01*
X212014819Y-104817618D02*
X211967200Y-104912856D01*
X211967200Y-104912856D02*
X211871961Y-105008094D01*
X211871961Y-105008094D02*
X211681485Y-105055713D01*
X211681485Y-105055713D02*
X211348152Y-105055713D01*
X211348152Y-105055713D02*
X211157676Y-105008094D01*
X211157676Y-105008094D02*
X211062438Y-104912856D01*
X211062438Y-104912856D02*
X211014819Y-104817618D01*
X211014819Y-104817618D02*
X211014819Y-104627142D01*
X211014819Y-104627142D02*
X211062438Y-104531904D01*
X211062438Y-104531904D02*
X211157676Y-104436666D01*
X211157676Y-104436666D02*
X211348152Y-104389047D01*
X211348152Y-104389047D02*
X211681485Y-104389047D01*
X211681485Y-104389047D02*
X211871961Y-104436666D01*
X211871961Y-104436666D02*
X211967200Y-104531904D01*
X211967200Y-104531904D02*
X212014819Y-104627142D01*
X212014819Y-104627142D02*
X212014819Y-104817618D01*
X212014819Y-103436666D02*
X212014819Y-104008094D01*
X212014819Y-103722380D02*
X211014819Y-103722380D01*
X211014819Y-103722380D02*
X211157676Y-103817618D01*
X211157676Y-103817618D02*
X211252914Y-103912856D01*
X211252914Y-103912856D02*
X211300533Y-104008094D01*
X211014819Y-102579523D02*
X211014819Y-102769999D01*
X211014819Y-102769999D02*
X211062438Y-102865237D01*
X211062438Y-102865237D02*
X211110057Y-102912856D01*
X211110057Y-102912856D02*
X211252914Y-103008094D01*
X211252914Y-103008094D02*
X211443390Y-103055713D01*
X211443390Y-103055713D02*
X211824342Y-103055713D01*
X211824342Y-103055713D02*
X211919580Y-103008094D01*
X211919580Y-103008094D02*
X211967200Y-102960475D01*
X211967200Y-102960475D02*
X212014819Y-102865237D01*
X212014819Y-102865237D02*
X212014819Y-102674761D01*
X212014819Y-102674761D02*
X211967200Y-102579523D01*
X211967200Y-102579523D02*
X211919580Y-102531904D01*
X211919580Y-102531904D02*
X211824342Y-102484285D01*
X211824342Y-102484285D02*
X211586247Y-102484285D01*
X211586247Y-102484285D02*
X211491009Y-102531904D01*
X211491009Y-102531904D02*
X211443390Y-102579523D01*
X211443390Y-102579523D02*
X211395771Y-102674761D01*
X211395771Y-102674761D02*
X211395771Y-102865237D01*
X211395771Y-102865237D02*
X211443390Y-102960475D01*
X211443390Y-102960475D02*
X211491009Y-103008094D01*
X211491009Y-103008094D02*
X211586247Y-103055713D01*
X174357142Y-91659580D02*
X174309523Y-91707200D01*
X174309523Y-91707200D02*
X174166666Y-91754819D01*
X174166666Y-91754819D02*
X174071428Y-91754819D01*
X174071428Y-91754819D02*
X173928571Y-91707200D01*
X173928571Y-91707200D02*
X173833333Y-91611961D01*
X173833333Y-91611961D02*
X173785714Y-91516723D01*
X173785714Y-91516723D02*
X173738095Y-91326247D01*
X173738095Y-91326247D02*
X173738095Y-91183390D01*
X173738095Y-91183390D02*
X173785714Y-90992914D01*
X173785714Y-90992914D02*
X173833333Y-90897676D01*
X173833333Y-90897676D02*
X173928571Y-90802438D01*
X173928571Y-90802438D02*
X174071428Y-90754819D01*
X174071428Y-90754819D02*
X174166666Y-90754819D01*
X174166666Y-90754819D02*
X174309523Y-90802438D01*
X174309523Y-90802438D02*
X174357142Y-90850057D01*
X175309523Y-91754819D02*
X174738095Y-91754819D01*
X175023809Y-91754819D02*
X175023809Y-90754819D01*
X175023809Y-90754819D02*
X174928571Y-90897676D01*
X174928571Y-90897676D02*
X174833333Y-90992914D01*
X174833333Y-90992914D02*
X174738095Y-91040533D01*
X176166666Y-90754819D02*
X175976190Y-90754819D01*
X175976190Y-90754819D02*
X175880952Y-90802438D01*
X175880952Y-90802438D02*
X175833333Y-90850057D01*
X175833333Y-90850057D02*
X175738095Y-90992914D01*
X175738095Y-90992914D02*
X175690476Y-91183390D01*
X175690476Y-91183390D02*
X175690476Y-91564342D01*
X175690476Y-91564342D02*
X175738095Y-91659580D01*
X175738095Y-91659580D02*
X175785714Y-91707200D01*
X175785714Y-91707200D02*
X175880952Y-91754819D01*
X175880952Y-91754819D02*
X176071428Y-91754819D01*
X176071428Y-91754819D02*
X176166666Y-91707200D01*
X176166666Y-91707200D02*
X176214285Y-91659580D01*
X176214285Y-91659580D02*
X176261904Y-91564342D01*
X176261904Y-91564342D02*
X176261904Y-91326247D01*
X176261904Y-91326247D02*
X176214285Y-91231009D01*
X176214285Y-91231009D02*
X176166666Y-91183390D01*
X176166666Y-91183390D02*
X176071428Y-91135771D01*
X176071428Y-91135771D02*
X175880952Y-91135771D01*
X175880952Y-91135771D02*
X175785714Y-91183390D01*
X175785714Y-91183390D02*
X175738095Y-91231009D01*
X175738095Y-91231009D02*
X175690476Y-91326247D01*
X245924819Y-98658094D02*
X244924819Y-98658094D01*
X244924819Y-98658094D02*
X244924819Y-98419999D01*
X244924819Y-98419999D02*
X244972438Y-98277142D01*
X244972438Y-98277142D02*
X245067676Y-98181904D01*
X245067676Y-98181904D02*
X245162914Y-98134285D01*
X245162914Y-98134285D02*
X245353390Y-98086666D01*
X245353390Y-98086666D02*
X245496247Y-98086666D01*
X245496247Y-98086666D02*
X245686723Y-98134285D01*
X245686723Y-98134285D02*
X245781961Y-98181904D01*
X245781961Y-98181904D02*
X245877200Y-98277142D01*
X245877200Y-98277142D02*
X245924819Y-98419999D01*
X245924819Y-98419999D02*
X245924819Y-98658094D01*
X245353390Y-97515237D02*
X245305771Y-97610475D01*
X245305771Y-97610475D02*
X245258152Y-97658094D01*
X245258152Y-97658094D02*
X245162914Y-97705713D01*
X245162914Y-97705713D02*
X245115295Y-97705713D01*
X245115295Y-97705713D02*
X245020057Y-97658094D01*
X245020057Y-97658094D02*
X244972438Y-97610475D01*
X244972438Y-97610475D02*
X244924819Y-97515237D01*
X244924819Y-97515237D02*
X244924819Y-97324761D01*
X244924819Y-97324761D02*
X244972438Y-97229523D01*
X244972438Y-97229523D02*
X245020057Y-97181904D01*
X245020057Y-97181904D02*
X245115295Y-97134285D01*
X245115295Y-97134285D02*
X245162914Y-97134285D01*
X245162914Y-97134285D02*
X245258152Y-97181904D01*
X245258152Y-97181904D02*
X245305771Y-97229523D01*
X245305771Y-97229523D02*
X245353390Y-97324761D01*
X245353390Y-97324761D02*
X245353390Y-97515237D01*
X245353390Y-97515237D02*
X245401009Y-97610475D01*
X245401009Y-97610475D02*
X245448628Y-97658094D01*
X245448628Y-97658094D02*
X245543866Y-97705713D01*
X245543866Y-97705713D02*
X245734342Y-97705713D01*
X245734342Y-97705713D02*
X245829580Y-97658094D01*
X245829580Y-97658094D02*
X245877200Y-97610475D01*
X245877200Y-97610475D02*
X245924819Y-97515237D01*
X245924819Y-97515237D02*
X245924819Y-97324761D01*
X245924819Y-97324761D02*
X245877200Y-97229523D01*
X245877200Y-97229523D02*
X245829580Y-97181904D01*
X245829580Y-97181904D02*
X245734342Y-97134285D01*
X245734342Y-97134285D02*
X245543866Y-97134285D01*
X245543866Y-97134285D02*
X245448628Y-97181904D01*
X245448628Y-97181904D02*
X245401009Y-97229523D01*
X245401009Y-97229523D02*
X245353390Y-97324761D01*
X245554819Y-93101904D02*
X244554819Y-93101904D01*
X245554819Y-92530476D02*
X244983390Y-92959047D01*
X244554819Y-92530476D02*
X245126247Y-93101904D01*
X176959580Y-84592857D02*
X177007200Y-84640476D01*
X177007200Y-84640476D02*
X177054819Y-84783333D01*
X177054819Y-84783333D02*
X177054819Y-84878571D01*
X177054819Y-84878571D02*
X177007200Y-85021428D01*
X177007200Y-85021428D02*
X176911961Y-85116666D01*
X176911961Y-85116666D02*
X176816723Y-85164285D01*
X176816723Y-85164285D02*
X176626247Y-85211904D01*
X176626247Y-85211904D02*
X176483390Y-85211904D01*
X176483390Y-85211904D02*
X176292914Y-85164285D01*
X176292914Y-85164285D02*
X176197676Y-85116666D01*
X176197676Y-85116666D02*
X176102438Y-85021428D01*
X176102438Y-85021428D02*
X176054819Y-84878571D01*
X176054819Y-84878571D02*
X176054819Y-84783333D01*
X176054819Y-84783333D02*
X176102438Y-84640476D01*
X176102438Y-84640476D02*
X176150057Y-84592857D01*
X177054819Y-83640476D02*
X177054819Y-84211904D01*
X177054819Y-83926190D02*
X176054819Y-83926190D01*
X176054819Y-83926190D02*
X176197676Y-84021428D01*
X176197676Y-84021428D02*
X176292914Y-84116666D01*
X176292914Y-84116666D02*
X176340533Y-84211904D01*
X176054819Y-82735714D02*
X176054819Y-83211904D01*
X176054819Y-83211904D02*
X176531009Y-83259523D01*
X176531009Y-83259523D02*
X176483390Y-83211904D01*
X176483390Y-83211904D02*
X176435771Y-83116666D01*
X176435771Y-83116666D02*
X176435771Y-82878571D01*
X176435771Y-82878571D02*
X176483390Y-82783333D01*
X176483390Y-82783333D02*
X176531009Y-82735714D01*
X176531009Y-82735714D02*
X176626247Y-82688095D01*
X176626247Y-82688095D02*
X176864342Y-82688095D01*
X176864342Y-82688095D02*
X176959580Y-82735714D01*
X176959580Y-82735714D02*
X177007200Y-82783333D01*
X177007200Y-82783333D02*
X177054819Y-82878571D01*
X177054819Y-82878571D02*
X177054819Y-83116666D01*
X177054819Y-83116666D02*
X177007200Y-83211904D01*
X177007200Y-83211904D02*
X176959580Y-83259523D01*
X148304819Y-108214285D02*
X147304819Y-108214285D01*
X147304819Y-108214285D02*
X147304819Y-107976190D01*
X147304819Y-107976190D02*
X147352438Y-107833333D01*
X147352438Y-107833333D02*
X147447676Y-107738095D01*
X147447676Y-107738095D02*
X147542914Y-107690476D01*
X147542914Y-107690476D02*
X147733390Y-107642857D01*
X147733390Y-107642857D02*
X147876247Y-107642857D01*
X147876247Y-107642857D02*
X148066723Y-107690476D01*
X148066723Y-107690476D02*
X148161961Y-107738095D01*
X148161961Y-107738095D02*
X148257200Y-107833333D01*
X148257200Y-107833333D02*
X148304819Y-107976190D01*
X148304819Y-107976190D02*
X148304819Y-108214285D01*
X148304819Y-106690476D02*
X148304819Y-107261904D01*
X148304819Y-106976190D02*
X147304819Y-106976190D01*
X147304819Y-106976190D02*
X147447676Y-107071428D01*
X147447676Y-107071428D02*
X147542914Y-107166666D01*
X147542914Y-107166666D02*
X147590533Y-107261904D01*
X147304819Y-106071428D02*
X147304819Y-105976190D01*
X147304819Y-105976190D02*
X147352438Y-105880952D01*
X147352438Y-105880952D02*
X147400057Y-105833333D01*
X147400057Y-105833333D02*
X147495295Y-105785714D01*
X147495295Y-105785714D02*
X147685771Y-105738095D01*
X147685771Y-105738095D02*
X147923866Y-105738095D01*
X147923866Y-105738095D02*
X148114342Y-105785714D01*
X148114342Y-105785714D02*
X148209580Y-105833333D01*
X148209580Y-105833333D02*
X148257200Y-105880952D01*
X148257200Y-105880952D02*
X148304819Y-105976190D01*
X148304819Y-105976190D02*
X148304819Y-106071428D01*
X148304819Y-106071428D02*
X148257200Y-106166666D01*
X148257200Y-106166666D02*
X148209580Y-106214285D01*
X148209580Y-106214285D02*
X148114342Y-106261904D01*
X148114342Y-106261904D02*
X147923866Y-106309523D01*
X147923866Y-106309523D02*
X147685771Y-106309523D01*
X147685771Y-106309523D02*
X147495295Y-106261904D01*
X147495295Y-106261904D02*
X147400057Y-106214285D01*
X147400057Y-106214285D02*
X147352438Y-106166666D01*
X147352438Y-106166666D02*
X147304819Y-106071428D01*
X152357142Y-102804819D02*
X152023809Y-102328628D01*
X151785714Y-102804819D02*
X151785714Y-101804819D01*
X151785714Y-101804819D02*
X152166666Y-101804819D01*
X152166666Y-101804819D02*
X152261904Y-101852438D01*
X152261904Y-101852438D02*
X152309523Y-101900057D01*
X152309523Y-101900057D02*
X152357142Y-101995295D01*
X152357142Y-101995295D02*
X152357142Y-102138152D01*
X152357142Y-102138152D02*
X152309523Y-102233390D01*
X152309523Y-102233390D02*
X152261904Y-102281009D01*
X152261904Y-102281009D02*
X152166666Y-102328628D01*
X152166666Y-102328628D02*
X151785714Y-102328628D01*
X152738095Y-101900057D02*
X152785714Y-101852438D01*
X152785714Y-101852438D02*
X152880952Y-101804819D01*
X152880952Y-101804819D02*
X153119047Y-101804819D01*
X153119047Y-101804819D02*
X153214285Y-101852438D01*
X153214285Y-101852438D02*
X153261904Y-101900057D01*
X153261904Y-101900057D02*
X153309523Y-101995295D01*
X153309523Y-101995295D02*
X153309523Y-102090533D01*
X153309523Y-102090533D02*
X153261904Y-102233390D01*
X153261904Y-102233390D02*
X152690476Y-102804819D01*
X152690476Y-102804819D02*
X153309523Y-102804819D01*
X154166666Y-101804819D02*
X153976190Y-101804819D01*
X153976190Y-101804819D02*
X153880952Y-101852438D01*
X153880952Y-101852438D02*
X153833333Y-101900057D01*
X153833333Y-101900057D02*
X153738095Y-102042914D01*
X153738095Y-102042914D02*
X153690476Y-102233390D01*
X153690476Y-102233390D02*
X153690476Y-102614342D01*
X153690476Y-102614342D02*
X153738095Y-102709580D01*
X153738095Y-102709580D02*
X153785714Y-102757200D01*
X153785714Y-102757200D02*
X153880952Y-102804819D01*
X153880952Y-102804819D02*
X154071428Y-102804819D01*
X154071428Y-102804819D02*
X154166666Y-102757200D01*
X154166666Y-102757200D02*
X154214285Y-102709580D01*
X154214285Y-102709580D02*
X154261904Y-102614342D01*
X154261904Y-102614342D02*
X154261904Y-102376247D01*
X154261904Y-102376247D02*
X154214285Y-102281009D01*
X154214285Y-102281009D02*
X154166666Y-102233390D01*
X154166666Y-102233390D02*
X154071428Y-102185771D01*
X154071428Y-102185771D02*
X153880952Y-102185771D01*
X153880952Y-102185771D02*
X153785714Y-102233390D01*
X153785714Y-102233390D02*
X153738095Y-102281009D01*
X153738095Y-102281009D02*
X153690476Y-102376247D01*
X231610057Y-85325238D02*
X231562438Y-85420476D01*
X231562438Y-85420476D02*
X231467200Y-85515714D01*
X231467200Y-85515714D02*
X231324342Y-85658571D01*
X231324342Y-85658571D02*
X231276723Y-85753809D01*
X231276723Y-85753809D02*
X231276723Y-85849047D01*
X231514819Y-85801428D02*
X231467200Y-85896666D01*
X231467200Y-85896666D02*
X231371961Y-85991904D01*
X231371961Y-85991904D02*
X231181485Y-86039523D01*
X231181485Y-86039523D02*
X230848152Y-86039523D01*
X230848152Y-86039523D02*
X230657676Y-85991904D01*
X230657676Y-85991904D02*
X230562438Y-85896666D01*
X230562438Y-85896666D02*
X230514819Y-85801428D01*
X230514819Y-85801428D02*
X230514819Y-85610952D01*
X230514819Y-85610952D02*
X230562438Y-85515714D01*
X230562438Y-85515714D02*
X230657676Y-85420476D01*
X230657676Y-85420476D02*
X230848152Y-85372857D01*
X230848152Y-85372857D02*
X231181485Y-85372857D01*
X231181485Y-85372857D02*
X231371961Y-85420476D01*
X231371961Y-85420476D02*
X231467200Y-85515714D01*
X231467200Y-85515714D02*
X231514819Y-85610952D01*
X231514819Y-85610952D02*
X231514819Y-85801428D01*
X230610057Y-84991904D02*
X230562438Y-84944285D01*
X230562438Y-84944285D02*
X230514819Y-84849047D01*
X230514819Y-84849047D02*
X230514819Y-84610952D01*
X230514819Y-84610952D02*
X230562438Y-84515714D01*
X230562438Y-84515714D02*
X230610057Y-84468095D01*
X230610057Y-84468095D02*
X230705295Y-84420476D01*
X230705295Y-84420476D02*
X230800533Y-84420476D01*
X230800533Y-84420476D02*
X230943390Y-84468095D01*
X230943390Y-84468095D02*
X231514819Y-85039523D01*
X231514819Y-85039523D02*
X231514819Y-84420476D01*
X151299999Y-95104819D02*
X150966666Y-94628628D01*
X150728571Y-95104819D02*
X150728571Y-94104819D01*
X150728571Y-94104819D02*
X151109523Y-94104819D01*
X151109523Y-94104819D02*
X151204761Y-94152438D01*
X151204761Y-94152438D02*
X151252380Y-94200057D01*
X151252380Y-94200057D02*
X151299999Y-94295295D01*
X151299999Y-94295295D02*
X151299999Y-94438152D01*
X151299999Y-94438152D02*
X151252380Y-94533390D01*
X151252380Y-94533390D02*
X151204761Y-94581009D01*
X151204761Y-94581009D02*
X151109523Y-94628628D01*
X151109523Y-94628628D02*
X150728571Y-94628628D01*
X152157142Y-95057200D02*
X152061904Y-95104819D01*
X152061904Y-95104819D02*
X151871428Y-95104819D01*
X151871428Y-95104819D02*
X151776190Y-95057200D01*
X151776190Y-95057200D02*
X151728571Y-95009580D01*
X151728571Y-95009580D02*
X151680952Y-94914342D01*
X151680952Y-94914342D02*
X151680952Y-94628628D01*
X151680952Y-94628628D02*
X151728571Y-94533390D01*
X151728571Y-94533390D02*
X151776190Y-94485771D01*
X151776190Y-94485771D02*
X151871428Y-94438152D01*
X151871428Y-94438152D02*
X152061904Y-94438152D01*
X152061904Y-94438152D02*
X152157142Y-94485771D01*
X152538095Y-95057200D02*
X152633333Y-95104819D01*
X152633333Y-95104819D02*
X152823809Y-95104819D01*
X152823809Y-95104819D02*
X152919047Y-95057200D01*
X152919047Y-95057200D02*
X152966666Y-94961961D01*
X152966666Y-94961961D02*
X152966666Y-94914342D01*
X152966666Y-94914342D02*
X152919047Y-94819104D01*
X152919047Y-94819104D02*
X152823809Y-94771485D01*
X152823809Y-94771485D02*
X152680952Y-94771485D01*
X152680952Y-94771485D02*
X152585714Y-94723866D01*
X152585714Y-94723866D02*
X152538095Y-94628628D01*
X152538095Y-94628628D02*
X152538095Y-94581009D01*
X152538095Y-94581009D02*
X152585714Y-94485771D01*
X152585714Y-94485771D02*
X152680952Y-94438152D01*
X152680952Y-94438152D02*
X152823809Y-94438152D01*
X152823809Y-94438152D02*
X152919047Y-94485771D01*
X153347619Y-94200057D02*
X153395238Y-94152438D01*
X153395238Y-94152438D02*
X153490476Y-94104819D01*
X153490476Y-94104819D02*
X153728571Y-94104819D01*
X153728571Y-94104819D02*
X153823809Y-94152438D01*
X153823809Y-94152438D02*
X153871428Y-94200057D01*
X153871428Y-94200057D02*
X153919047Y-94295295D01*
X153919047Y-94295295D02*
X153919047Y-94390533D01*
X153919047Y-94390533D02*
X153871428Y-94533390D01*
X153871428Y-94533390D02*
X153300000Y-95104819D01*
X153300000Y-95104819D02*
X153919047Y-95104819D01*
X158304819Y-108714285D02*
X157304819Y-108714285D01*
X157304819Y-108714285D02*
X157304819Y-108476190D01*
X157304819Y-108476190D02*
X157352438Y-108333333D01*
X157352438Y-108333333D02*
X157447676Y-108238095D01*
X157447676Y-108238095D02*
X157542914Y-108190476D01*
X157542914Y-108190476D02*
X157733390Y-108142857D01*
X157733390Y-108142857D02*
X157876247Y-108142857D01*
X157876247Y-108142857D02*
X158066723Y-108190476D01*
X158066723Y-108190476D02*
X158161961Y-108238095D01*
X158161961Y-108238095D02*
X158257200Y-108333333D01*
X158257200Y-108333333D02*
X158304819Y-108476190D01*
X158304819Y-108476190D02*
X158304819Y-108714285D01*
X158304819Y-107190476D02*
X158304819Y-107761904D01*
X158304819Y-107476190D02*
X157304819Y-107476190D01*
X157304819Y-107476190D02*
X157447676Y-107571428D01*
X157447676Y-107571428D02*
X157542914Y-107666666D01*
X157542914Y-107666666D02*
X157590533Y-107761904D01*
X158304819Y-106238095D02*
X158304819Y-106809523D01*
X158304819Y-106523809D02*
X157304819Y-106523809D01*
X157304819Y-106523809D02*
X157447676Y-106619047D01*
X157447676Y-106619047D02*
X157542914Y-106714285D01*
X157542914Y-106714285D02*
X157590533Y-106809523D01*
X149229642Y-91839819D02*
X148896309Y-91363628D01*
X148658214Y-91839819D02*
X148658214Y-90839819D01*
X148658214Y-90839819D02*
X149039166Y-90839819D01*
X149039166Y-90839819D02*
X149134404Y-90887438D01*
X149134404Y-90887438D02*
X149182023Y-90935057D01*
X149182023Y-90935057D02*
X149229642Y-91030295D01*
X149229642Y-91030295D02*
X149229642Y-91173152D01*
X149229642Y-91173152D02*
X149182023Y-91268390D01*
X149182023Y-91268390D02*
X149134404Y-91316009D01*
X149134404Y-91316009D02*
X149039166Y-91363628D01*
X149039166Y-91363628D02*
X148658214Y-91363628D01*
X150086785Y-91173152D02*
X150086785Y-91839819D01*
X149848690Y-90792200D02*
X149610595Y-91506485D01*
X149610595Y-91506485D02*
X150229642Y-91506485D01*
X151039166Y-91173152D02*
X151039166Y-91839819D01*
X150801071Y-90792200D02*
X150562976Y-91506485D01*
X150562976Y-91506485D02*
X151182023Y-91506485D01*
X141285714Y-109954819D02*
X141285714Y-108954819D01*
X141285714Y-108954819D02*
X141523809Y-108954819D01*
X141523809Y-108954819D02*
X141666666Y-109002438D01*
X141666666Y-109002438D02*
X141761904Y-109097676D01*
X141761904Y-109097676D02*
X141809523Y-109192914D01*
X141809523Y-109192914D02*
X141857142Y-109383390D01*
X141857142Y-109383390D02*
X141857142Y-109526247D01*
X141857142Y-109526247D02*
X141809523Y-109716723D01*
X141809523Y-109716723D02*
X141761904Y-109811961D01*
X141761904Y-109811961D02*
X141666666Y-109907200D01*
X141666666Y-109907200D02*
X141523809Y-109954819D01*
X141523809Y-109954819D02*
X141285714Y-109954819D01*
X142809523Y-109954819D02*
X142238095Y-109954819D01*
X142523809Y-109954819D02*
X142523809Y-108954819D01*
X142523809Y-108954819D02*
X142428571Y-109097676D01*
X142428571Y-109097676D02*
X142333333Y-109192914D01*
X142333333Y-109192914D02*
X142238095Y-109240533D01*
X143142857Y-108954819D02*
X143809523Y-108954819D01*
X143809523Y-108954819D02*
X143380952Y-109954819D01*
X148467737Y-89794580D02*
X148420118Y-89842200D01*
X148420118Y-89842200D02*
X148277261Y-89889819D01*
X148277261Y-89889819D02*
X148182023Y-89889819D01*
X148182023Y-89889819D02*
X148039166Y-89842200D01*
X148039166Y-89842200D02*
X147943928Y-89746961D01*
X147943928Y-89746961D02*
X147896309Y-89651723D01*
X147896309Y-89651723D02*
X147848690Y-89461247D01*
X147848690Y-89461247D02*
X147848690Y-89318390D01*
X147848690Y-89318390D02*
X147896309Y-89127914D01*
X147896309Y-89127914D02*
X147943928Y-89032676D01*
X147943928Y-89032676D02*
X148039166Y-88937438D01*
X148039166Y-88937438D02*
X148182023Y-88889819D01*
X148182023Y-88889819D02*
X148277261Y-88889819D01*
X148277261Y-88889819D02*
X148420118Y-88937438D01*
X148420118Y-88937438D02*
X148467737Y-88985057D01*
X148801071Y-89223152D02*
X149039166Y-89889819D01*
X149039166Y-89889819D02*
X149277261Y-89223152D01*
X150086785Y-89842200D02*
X149991547Y-89889819D01*
X149991547Y-89889819D02*
X149801071Y-89889819D01*
X149801071Y-89889819D02*
X149705833Y-89842200D01*
X149705833Y-89842200D02*
X149658214Y-89794580D01*
X149658214Y-89794580D02*
X149610595Y-89699342D01*
X149610595Y-89699342D02*
X149610595Y-89413628D01*
X149610595Y-89413628D02*
X149658214Y-89318390D01*
X149658214Y-89318390D02*
X149705833Y-89270771D01*
X149705833Y-89270771D02*
X149801071Y-89223152D01*
X149801071Y-89223152D02*
X149991547Y-89223152D01*
X149991547Y-89223152D02*
X150086785Y-89270771D01*
X150943928Y-89842200D02*
X150848690Y-89889819D01*
X150848690Y-89889819D02*
X150658214Y-89889819D01*
X150658214Y-89889819D02*
X150562976Y-89842200D01*
X150562976Y-89842200D02*
X150515357Y-89794580D01*
X150515357Y-89794580D02*
X150467738Y-89699342D01*
X150467738Y-89699342D02*
X150467738Y-89413628D01*
X150467738Y-89413628D02*
X150515357Y-89318390D01*
X150515357Y-89318390D02*
X150562976Y-89270771D01*
X150562976Y-89270771D02*
X150658214Y-89223152D01*
X150658214Y-89223152D02*
X150848690Y-89223152D01*
X150848690Y-89223152D02*
X150943928Y-89270771D01*
X151324881Y-88985057D02*
X151372500Y-88937438D01*
X151372500Y-88937438D02*
X151467738Y-88889819D01*
X151467738Y-88889819D02*
X151705833Y-88889819D01*
X151705833Y-88889819D02*
X151801071Y-88937438D01*
X151801071Y-88937438D02*
X151848690Y-88985057D01*
X151848690Y-88985057D02*
X151896309Y-89080295D01*
X151896309Y-89080295D02*
X151896309Y-89175533D01*
X151896309Y-89175533D02*
X151848690Y-89318390D01*
X151848690Y-89318390D02*
X151277262Y-89889819D01*
X151277262Y-89889819D02*
X151896309Y-89889819D01*
X145954819Y-104642857D02*
X145478628Y-104976190D01*
X145954819Y-105214285D02*
X144954819Y-105214285D01*
X144954819Y-105214285D02*
X144954819Y-104833333D01*
X144954819Y-104833333D02*
X145002438Y-104738095D01*
X145002438Y-104738095D02*
X145050057Y-104690476D01*
X145050057Y-104690476D02*
X145145295Y-104642857D01*
X145145295Y-104642857D02*
X145288152Y-104642857D01*
X145288152Y-104642857D02*
X145383390Y-104690476D01*
X145383390Y-104690476D02*
X145431009Y-104738095D01*
X145431009Y-104738095D02*
X145478628Y-104833333D01*
X145478628Y-104833333D02*
X145478628Y-105214285D01*
X145050057Y-104261904D02*
X145002438Y-104214285D01*
X145002438Y-104214285D02*
X144954819Y-104119047D01*
X144954819Y-104119047D02*
X144954819Y-103880952D01*
X144954819Y-103880952D02*
X145002438Y-103785714D01*
X145002438Y-103785714D02*
X145050057Y-103738095D01*
X145050057Y-103738095D02*
X145145295Y-103690476D01*
X145145295Y-103690476D02*
X145240533Y-103690476D01*
X145240533Y-103690476D02*
X145383390Y-103738095D01*
X145383390Y-103738095D02*
X145954819Y-104309523D01*
X145954819Y-104309523D02*
X145954819Y-103690476D01*
X144954819Y-102785714D02*
X144954819Y-103261904D01*
X144954819Y-103261904D02*
X145431009Y-103309523D01*
X145431009Y-103309523D02*
X145383390Y-103261904D01*
X145383390Y-103261904D02*
X145335771Y-103166666D01*
X145335771Y-103166666D02*
X145335771Y-102928571D01*
X145335771Y-102928571D02*
X145383390Y-102833333D01*
X145383390Y-102833333D02*
X145431009Y-102785714D01*
X145431009Y-102785714D02*
X145526247Y-102738095D01*
X145526247Y-102738095D02*
X145764342Y-102738095D01*
X145764342Y-102738095D02*
X145859580Y-102785714D01*
X145859580Y-102785714D02*
X145907200Y-102833333D01*
X145907200Y-102833333D02*
X145954819Y-102928571D01*
X145954819Y-102928571D02*
X145954819Y-103166666D01*
X145954819Y-103166666D02*
X145907200Y-103261904D01*
X145907200Y-103261904D02*
X145859580Y-103309523D01*
X157857142Y-101454819D02*
X157523809Y-100978628D01*
X157285714Y-101454819D02*
X157285714Y-100454819D01*
X157285714Y-100454819D02*
X157666666Y-100454819D01*
X157666666Y-100454819D02*
X157761904Y-100502438D01*
X157761904Y-100502438D02*
X157809523Y-100550057D01*
X157809523Y-100550057D02*
X157857142Y-100645295D01*
X157857142Y-100645295D02*
X157857142Y-100788152D01*
X157857142Y-100788152D02*
X157809523Y-100883390D01*
X157809523Y-100883390D02*
X157761904Y-100931009D01*
X157761904Y-100931009D02*
X157666666Y-100978628D01*
X157666666Y-100978628D02*
X157285714Y-100978628D01*
X158809523Y-101454819D02*
X158238095Y-101454819D01*
X158523809Y-101454819D02*
X158523809Y-100454819D01*
X158523809Y-100454819D02*
X158428571Y-100597676D01*
X158428571Y-100597676D02*
X158333333Y-100692914D01*
X158333333Y-100692914D02*
X158238095Y-100740533D01*
X159285714Y-101454819D02*
X159476190Y-101454819D01*
X159476190Y-101454819D02*
X159571428Y-101407200D01*
X159571428Y-101407200D02*
X159619047Y-101359580D01*
X159619047Y-101359580D02*
X159714285Y-101216723D01*
X159714285Y-101216723D02*
X159761904Y-101026247D01*
X159761904Y-101026247D02*
X159761904Y-100645295D01*
X159761904Y-100645295D02*
X159714285Y-100550057D01*
X159714285Y-100550057D02*
X159666666Y-100502438D01*
X159666666Y-100502438D02*
X159571428Y-100454819D01*
X159571428Y-100454819D02*
X159380952Y-100454819D01*
X159380952Y-100454819D02*
X159285714Y-100502438D01*
X159285714Y-100502438D02*
X159238095Y-100550057D01*
X159238095Y-100550057D02*
X159190476Y-100645295D01*
X159190476Y-100645295D02*
X159190476Y-100883390D01*
X159190476Y-100883390D02*
X159238095Y-100978628D01*
X159238095Y-100978628D02*
X159285714Y-101026247D01*
X159285714Y-101026247D02*
X159380952Y-101073866D01*
X159380952Y-101073866D02*
X159571428Y-101073866D01*
X159571428Y-101073866D02*
X159666666Y-101026247D01*
X159666666Y-101026247D02*
X159714285Y-100978628D01*
X159714285Y-100978628D02*
X159761904Y-100883390D01*
X270610057Y-85245238D02*
X270562438Y-85340476D01*
X270562438Y-85340476D02*
X270467200Y-85435714D01*
X270467200Y-85435714D02*
X270324342Y-85578571D01*
X270324342Y-85578571D02*
X270276723Y-85673809D01*
X270276723Y-85673809D02*
X270276723Y-85769047D01*
X270514819Y-85721428D02*
X270467200Y-85816666D01*
X270467200Y-85816666D02*
X270371961Y-85911904D01*
X270371961Y-85911904D02*
X270181485Y-85959523D01*
X270181485Y-85959523D02*
X269848152Y-85959523D01*
X269848152Y-85959523D02*
X269657676Y-85911904D01*
X269657676Y-85911904D02*
X269562438Y-85816666D01*
X269562438Y-85816666D02*
X269514819Y-85721428D01*
X269514819Y-85721428D02*
X269514819Y-85530952D01*
X269514819Y-85530952D02*
X269562438Y-85435714D01*
X269562438Y-85435714D02*
X269657676Y-85340476D01*
X269657676Y-85340476D02*
X269848152Y-85292857D01*
X269848152Y-85292857D02*
X270181485Y-85292857D01*
X270181485Y-85292857D02*
X270371961Y-85340476D01*
X270371961Y-85340476D02*
X270467200Y-85435714D01*
X270467200Y-85435714D02*
X270514819Y-85530952D01*
X270514819Y-85530952D02*
X270514819Y-85721428D01*
X269514819Y-84388095D02*
X269514819Y-84864285D01*
X269514819Y-84864285D02*
X269991009Y-84911904D01*
X269991009Y-84911904D02*
X269943390Y-84864285D01*
X269943390Y-84864285D02*
X269895771Y-84769047D01*
X269895771Y-84769047D02*
X269895771Y-84530952D01*
X269895771Y-84530952D02*
X269943390Y-84435714D01*
X269943390Y-84435714D02*
X269991009Y-84388095D01*
X269991009Y-84388095D02*
X270086247Y-84340476D01*
X270086247Y-84340476D02*
X270324342Y-84340476D01*
X270324342Y-84340476D02*
X270419580Y-84388095D01*
X270419580Y-84388095D02*
X270467200Y-84435714D01*
X270467200Y-84435714D02*
X270514819Y-84530952D01*
X270514819Y-84530952D02*
X270514819Y-84769047D01*
X270514819Y-84769047D02*
X270467200Y-84864285D01*
X270467200Y-84864285D02*
X270419580Y-84911904D01*
X175454819Y-108214285D02*
X174454819Y-108214285D01*
X174454819Y-108214285D02*
X174454819Y-107976190D01*
X174454819Y-107976190D02*
X174502438Y-107833333D01*
X174502438Y-107833333D02*
X174597676Y-107738095D01*
X174597676Y-107738095D02*
X174692914Y-107690476D01*
X174692914Y-107690476D02*
X174883390Y-107642857D01*
X174883390Y-107642857D02*
X175026247Y-107642857D01*
X175026247Y-107642857D02*
X175216723Y-107690476D01*
X175216723Y-107690476D02*
X175311961Y-107738095D01*
X175311961Y-107738095D02*
X175407200Y-107833333D01*
X175407200Y-107833333D02*
X175454819Y-107976190D01*
X175454819Y-107976190D02*
X175454819Y-108214285D01*
X174550057Y-107261904D02*
X174502438Y-107214285D01*
X174502438Y-107214285D02*
X174454819Y-107119047D01*
X174454819Y-107119047D02*
X174454819Y-106880952D01*
X174454819Y-106880952D02*
X174502438Y-106785714D01*
X174502438Y-106785714D02*
X174550057Y-106738095D01*
X174550057Y-106738095D02*
X174645295Y-106690476D01*
X174645295Y-106690476D02*
X174740533Y-106690476D01*
X174740533Y-106690476D02*
X174883390Y-106738095D01*
X174883390Y-106738095D02*
X175454819Y-107309523D01*
X175454819Y-107309523D02*
X175454819Y-106690476D01*
X174454819Y-106071428D02*
X174454819Y-105976190D01*
X174454819Y-105976190D02*
X174502438Y-105880952D01*
X174502438Y-105880952D02*
X174550057Y-105833333D01*
X174550057Y-105833333D02*
X174645295Y-105785714D01*
X174645295Y-105785714D02*
X174835771Y-105738095D01*
X174835771Y-105738095D02*
X175073866Y-105738095D01*
X175073866Y-105738095D02*
X175264342Y-105785714D01*
X175264342Y-105785714D02*
X175359580Y-105833333D01*
X175359580Y-105833333D02*
X175407200Y-105880952D01*
X175407200Y-105880952D02*
X175454819Y-105976190D01*
X175454819Y-105976190D02*
X175454819Y-106071428D01*
X175454819Y-106071428D02*
X175407200Y-106166666D01*
X175407200Y-106166666D02*
X175359580Y-106214285D01*
X175359580Y-106214285D02*
X175264342Y-106261904D01*
X175264342Y-106261904D02*
X175073866Y-106309523D01*
X175073866Y-106309523D02*
X174835771Y-106309523D01*
X174835771Y-106309523D02*
X174645295Y-106261904D01*
X174645295Y-106261904D02*
X174550057Y-106214285D01*
X174550057Y-106214285D02*
X174502438Y-106166666D01*
X174502438Y-106166666D02*
X174454819Y-106071428D01*
X134359580Y-99642857D02*
X134407200Y-99690476D01*
X134407200Y-99690476D02*
X134454819Y-99833333D01*
X134454819Y-99833333D02*
X134454819Y-99928571D01*
X134454819Y-99928571D02*
X134407200Y-100071428D01*
X134407200Y-100071428D02*
X134311961Y-100166666D01*
X134311961Y-100166666D02*
X134216723Y-100214285D01*
X134216723Y-100214285D02*
X134026247Y-100261904D01*
X134026247Y-100261904D02*
X133883390Y-100261904D01*
X133883390Y-100261904D02*
X133692914Y-100214285D01*
X133692914Y-100214285D02*
X133597676Y-100166666D01*
X133597676Y-100166666D02*
X133502438Y-100071428D01*
X133502438Y-100071428D02*
X133454819Y-99928571D01*
X133454819Y-99928571D02*
X133454819Y-99833333D01*
X133454819Y-99833333D02*
X133502438Y-99690476D01*
X133502438Y-99690476D02*
X133550057Y-99642857D01*
X134454819Y-98690476D02*
X134454819Y-99261904D01*
X134454819Y-98976190D02*
X133454819Y-98976190D01*
X133454819Y-98976190D02*
X133597676Y-99071428D01*
X133597676Y-99071428D02*
X133692914Y-99166666D01*
X133692914Y-99166666D02*
X133740533Y-99261904D01*
X133883390Y-98119047D02*
X133835771Y-98214285D01*
X133835771Y-98214285D02*
X133788152Y-98261904D01*
X133788152Y-98261904D02*
X133692914Y-98309523D01*
X133692914Y-98309523D02*
X133645295Y-98309523D01*
X133645295Y-98309523D02*
X133550057Y-98261904D01*
X133550057Y-98261904D02*
X133502438Y-98214285D01*
X133502438Y-98214285D02*
X133454819Y-98119047D01*
X133454819Y-98119047D02*
X133454819Y-97928571D01*
X133454819Y-97928571D02*
X133502438Y-97833333D01*
X133502438Y-97833333D02*
X133550057Y-97785714D01*
X133550057Y-97785714D02*
X133645295Y-97738095D01*
X133645295Y-97738095D02*
X133692914Y-97738095D01*
X133692914Y-97738095D02*
X133788152Y-97785714D01*
X133788152Y-97785714D02*
X133835771Y-97833333D01*
X133835771Y-97833333D02*
X133883390Y-97928571D01*
X133883390Y-97928571D02*
X133883390Y-98119047D01*
X133883390Y-98119047D02*
X133931009Y-98214285D01*
X133931009Y-98214285D02*
X133978628Y-98261904D01*
X133978628Y-98261904D02*
X134073866Y-98309523D01*
X134073866Y-98309523D02*
X134264342Y-98309523D01*
X134264342Y-98309523D02*
X134359580Y-98261904D01*
X134359580Y-98261904D02*
X134407200Y-98214285D01*
X134407200Y-98214285D02*
X134454819Y-98119047D01*
X134454819Y-98119047D02*
X134454819Y-97928571D01*
X134454819Y-97928571D02*
X134407200Y-97833333D01*
X134407200Y-97833333D02*
X134359580Y-97785714D01*
X134359580Y-97785714D02*
X134264342Y-97738095D01*
X134264342Y-97738095D02*
X134073866Y-97738095D01*
X134073866Y-97738095D02*
X133978628Y-97785714D01*
X133978628Y-97785714D02*
X133931009Y-97833333D01*
X133931009Y-97833333D02*
X133883390Y-97928571D01*
X150785714Y-113454819D02*
X150785714Y-112454819D01*
X150785714Y-112454819D02*
X151023809Y-112454819D01*
X151023809Y-112454819D02*
X151166666Y-112502438D01*
X151166666Y-112502438D02*
X151261904Y-112597676D01*
X151261904Y-112597676D02*
X151309523Y-112692914D01*
X151309523Y-112692914D02*
X151357142Y-112883390D01*
X151357142Y-112883390D02*
X151357142Y-113026247D01*
X151357142Y-113026247D02*
X151309523Y-113216723D01*
X151309523Y-113216723D02*
X151261904Y-113311961D01*
X151261904Y-113311961D02*
X151166666Y-113407200D01*
X151166666Y-113407200D02*
X151023809Y-113454819D01*
X151023809Y-113454819D02*
X150785714Y-113454819D01*
X151738095Y-112550057D02*
X151785714Y-112502438D01*
X151785714Y-112502438D02*
X151880952Y-112454819D01*
X151880952Y-112454819D02*
X152119047Y-112454819D01*
X152119047Y-112454819D02*
X152214285Y-112502438D01*
X152214285Y-112502438D02*
X152261904Y-112550057D01*
X152261904Y-112550057D02*
X152309523Y-112645295D01*
X152309523Y-112645295D02*
X152309523Y-112740533D01*
X152309523Y-112740533D02*
X152261904Y-112883390D01*
X152261904Y-112883390D02*
X151690476Y-113454819D01*
X151690476Y-113454819D02*
X152309523Y-113454819D01*
X152690476Y-112550057D02*
X152738095Y-112502438D01*
X152738095Y-112502438D02*
X152833333Y-112454819D01*
X152833333Y-112454819D02*
X153071428Y-112454819D01*
X153071428Y-112454819D02*
X153166666Y-112502438D01*
X153166666Y-112502438D02*
X153214285Y-112550057D01*
X153214285Y-112550057D02*
X153261904Y-112645295D01*
X153261904Y-112645295D02*
X153261904Y-112740533D01*
X153261904Y-112740533D02*
X153214285Y-112883390D01*
X153214285Y-112883390D02*
X152642857Y-113454819D01*
X152642857Y-113454819D02*
X153261904Y-113454819D01*
X217333333Y-109954819D02*
X217000000Y-109478628D01*
X216761905Y-109954819D02*
X216761905Y-108954819D01*
X216761905Y-108954819D02*
X217142857Y-108954819D01*
X217142857Y-108954819D02*
X217238095Y-109002438D01*
X217238095Y-109002438D02*
X217285714Y-109050057D01*
X217285714Y-109050057D02*
X217333333Y-109145295D01*
X217333333Y-109145295D02*
X217333333Y-109288152D01*
X217333333Y-109288152D02*
X217285714Y-109383390D01*
X217285714Y-109383390D02*
X217238095Y-109431009D01*
X217238095Y-109431009D02*
X217142857Y-109478628D01*
X217142857Y-109478628D02*
X216761905Y-109478628D01*
X218238095Y-108954819D02*
X217761905Y-108954819D01*
X217761905Y-108954819D02*
X217714286Y-109431009D01*
X217714286Y-109431009D02*
X217761905Y-109383390D01*
X217761905Y-109383390D02*
X217857143Y-109335771D01*
X217857143Y-109335771D02*
X218095238Y-109335771D01*
X218095238Y-109335771D02*
X218190476Y-109383390D01*
X218190476Y-109383390D02*
X218238095Y-109431009D01*
X218238095Y-109431009D02*
X218285714Y-109526247D01*
X218285714Y-109526247D02*
X218285714Y-109764342D01*
X218285714Y-109764342D02*
X218238095Y-109859580D01*
X218238095Y-109859580D02*
X218190476Y-109907200D01*
X218190476Y-109907200D02*
X218095238Y-109954819D01*
X218095238Y-109954819D02*
X217857143Y-109954819D01*
X217857143Y-109954819D02*
X217761905Y-109907200D01*
X217761905Y-109907200D02*
X217714286Y-109859580D01*
X218833333Y-94954819D02*
X218500000Y-94478628D01*
X218261905Y-94954819D02*
X218261905Y-93954819D01*
X218261905Y-93954819D02*
X218642857Y-93954819D01*
X218642857Y-93954819D02*
X218738095Y-94002438D01*
X218738095Y-94002438D02*
X218785714Y-94050057D01*
X218785714Y-94050057D02*
X218833333Y-94145295D01*
X218833333Y-94145295D02*
X218833333Y-94288152D01*
X218833333Y-94288152D02*
X218785714Y-94383390D01*
X218785714Y-94383390D02*
X218738095Y-94431009D01*
X218738095Y-94431009D02*
X218642857Y-94478628D01*
X218642857Y-94478628D02*
X218261905Y-94478628D01*
X219690476Y-93954819D02*
X219500000Y-93954819D01*
X219500000Y-93954819D02*
X219404762Y-94002438D01*
X219404762Y-94002438D02*
X219357143Y-94050057D01*
X219357143Y-94050057D02*
X219261905Y-94192914D01*
X219261905Y-94192914D02*
X219214286Y-94383390D01*
X219214286Y-94383390D02*
X219214286Y-94764342D01*
X219214286Y-94764342D02*
X219261905Y-94859580D01*
X219261905Y-94859580D02*
X219309524Y-94907200D01*
X219309524Y-94907200D02*
X219404762Y-94954819D01*
X219404762Y-94954819D02*
X219595238Y-94954819D01*
X219595238Y-94954819D02*
X219690476Y-94907200D01*
X219690476Y-94907200D02*
X219738095Y-94859580D01*
X219738095Y-94859580D02*
X219785714Y-94764342D01*
X219785714Y-94764342D02*
X219785714Y-94526247D01*
X219785714Y-94526247D02*
X219738095Y-94431009D01*
X219738095Y-94431009D02*
X219690476Y-94383390D01*
X219690476Y-94383390D02*
X219595238Y-94335771D01*
X219595238Y-94335771D02*
X219404762Y-94335771D01*
X219404762Y-94335771D02*
X219309524Y-94383390D01*
X219309524Y-94383390D02*
X219261905Y-94431009D01*
X219261905Y-94431009D02*
X219214286Y-94526247D01*
X265424819Y-98658094D02*
X264424819Y-98658094D01*
X264424819Y-98658094D02*
X264424819Y-98419999D01*
X264424819Y-98419999D02*
X264472438Y-98277142D01*
X264472438Y-98277142D02*
X264567676Y-98181904D01*
X264567676Y-98181904D02*
X264662914Y-98134285D01*
X264662914Y-98134285D02*
X264853390Y-98086666D01*
X264853390Y-98086666D02*
X264996247Y-98086666D01*
X264996247Y-98086666D02*
X265186723Y-98134285D01*
X265186723Y-98134285D02*
X265281961Y-98181904D01*
X265281961Y-98181904D02*
X265377200Y-98277142D01*
X265377200Y-98277142D02*
X265424819Y-98419999D01*
X265424819Y-98419999D02*
X265424819Y-98658094D01*
X264758152Y-97229523D02*
X265424819Y-97229523D01*
X264377200Y-97467618D02*
X265091485Y-97705713D01*
X265091485Y-97705713D02*
X265091485Y-97086666D01*
X265054819Y-93101904D02*
X264054819Y-93101904D01*
X265054819Y-92530476D02*
X264483390Y-92959047D01*
X264054819Y-92530476D02*
X264626247Y-93101904D01*
X172357142Y-102804819D02*
X172023809Y-102328628D01*
X171785714Y-102804819D02*
X171785714Y-101804819D01*
X171785714Y-101804819D02*
X172166666Y-101804819D01*
X172166666Y-101804819D02*
X172261904Y-101852438D01*
X172261904Y-101852438D02*
X172309523Y-101900057D01*
X172309523Y-101900057D02*
X172357142Y-101995295D01*
X172357142Y-101995295D02*
X172357142Y-102138152D01*
X172357142Y-102138152D02*
X172309523Y-102233390D01*
X172309523Y-102233390D02*
X172261904Y-102281009D01*
X172261904Y-102281009D02*
X172166666Y-102328628D01*
X172166666Y-102328628D02*
X171785714Y-102328628D01*
X172738095Y-101900057D02*
X172785714Y-101852438D01*
X172785714Y-101852438D02*
X172880952Y-101804819D01*
X172880952Y-101804819D02*
X173119047Y-101804819D01*
X173119047Y-101804819D02*
X173214285Y-101852438D01*
X173214285Y-101852438D02*
X173261904Y-101900057D01*
X173261904Y-101900057D02*
X173309523Y-101995295D01*
X173309523Y-101995295D02*
X173309523Y-102090533D01*
X173309523Y-102090533D02*
X173261904Y-102233390D01*
X173261904Y-102233390D02*
X172690476Y-102804819D01*
X172690476Y-102804819D02*
X173309523Y-102804819D01*
X173880952Y-102233390D02*
X173785714Y-102185771D01*
X173785714Y-102185771D02*
X173738095Y-102138152D01*
X173738095Y-102138152D02*
X173690476Y-102042914D01*
X173690476Y-102042914D02*
X173690476Y-101995295D01*
X173690476Y-101995295D02*
X173738095Y-101900057D01*
X173738095Y-101900057D02*
X173785714Y-101852438D01*
X173785714Y-101852438D02*
X173880952Y-101804819D01*
X173880952Y-101804819D02*
X174071428Y-101804819D01*
X174071428Y-101804819D02*
X174166666Y-101852438D01*
X174166666Y-101852438D02*
X174214285Y-101900057D01*
X174214285Y-101900057D02*
X174261904Y-101995295D01*
X174261904Y-101995295D02*
X174261904Y-102042914D01*
X174261904Y-102042914D02*
X174214285Y-102138152D01*
X174214285Y-102138152D02*
X174166666Y-102185771D01*
X174166666Y-102185771D02*
X174071428Y-102233390D01*
X174071428Y-102233390D02*
X173880952Y-102233390D01*
X173880952Y-102233390D02*
X173785714Y-102281009D01*
X173785714Y-102281009D02*
X173738095Y-102328628D01*
X173738095Y-102328628D02*
X173690476Y-102423866D01*
X173690476Y-102423866D02*
X173690476Y-102614342D01*
X173690476Y-102614342D02*
X173738095Y-102709580D01*
X173738095Y-102709580D02*
X173785714Y-102757200D01*
X173785714Y-102757200D02*
X173880952Y-102804819D01*
X173880952Y-102804819D02*
X174071428Y-102804819D01*
X174071428Y-102804819D02*
X174166666Y-102757200D01*
X174166666Y-102757200D02*
X174214285Y-102709580D01*
X174214285Y-102709580D02*
X174261904Y-102614342D01*
X174261904Y-102614342D02*
X174261904Y-102423866D01*
X174261904Y-102423866D02*
X174214285Y-102328628D01*
X174214285Y-102328628D02*
X174166666Y-102281009D01*
X174166666Y-102281009D02*
X174071428Y-102233390D01*
X265424819Y-79158094D02*
X264424819Y-79158094D01*
X264424819Y-79158094D02*
X264424819Y-78919999D01*
X264424819Y-78919999D02*
X264472438Y-78777142D01*
X264472438Y-78777142D02*
X264567676Y-78681904D01*
X264567676Y-78681904D02*
X264662914Y-78634285D01*
X264662914Y-78634285D02*
X264853390Y-78586666D01*
X264853390Y-78586666D02*
X264996247Y-78586666D01*
X264996247Y-78586666D02*
X265186723Y-78634285D01*
X265186723Y-78634285D02*
X265281961Y-78681904D01*
X265281961Y-78681904D02*
X265377200Y-78777142D01*
X265377200Y-78777142D02*
X265424819Y-78919999D01*
X265424819Y-78919999D02*
X265424819Y-79158094D01*
X264520057Y-78205713D02*
X264472438Y-78158094D01*
X264472438Y-78158094D02*
X264424819Y-78062856D01*
X264424819Y-78062856D02*
X264424819Y-77824761D01*
X264424819Y-77824761D02*
X264472438Y-77729523D01*
X264472438Y-77729523D02*
X264520057Y-77681904D01*
X264520057Y-77681904D02*
X264615295Y-77634285D01*
X264615295Y-77634285D02*
X264710533Y-77634285D01*
X264710533Y-77634285D02*
X264853390Y-77681904D01*
X264853390Y-77681904D02*
X265424819Y-78253332D01*
X265424819Y-78253332D02*
X265424819Y-77634285D01*
X265054819Y-73601904D02*
X264054819Y-73601904D01*
X265054819Y-73030476D02*
X264483390Y-73459047D01*
X264054819Y-73030476D02*
X264626247Y-73601904D01*
X251490057Y-82245238D02*
X251442438Y-82340476D01*
X251442438Y-82340476D02*
X251347200Y-82435714D01*
X251347200Y-82435714D02*
X251204342Y-82578571D01*
X251204342Y-82578571D02*
X251156723Y-82673809D01*
X251156723Y-82673809D02*
X251156723Y-82769047D01*
X251394819Y-82721428D02*
X251347200Y-82816666D01*
X251347200Y-82816666D02*
X251251961Y-82911904D01*
X251251961Y-82911904D02*
X251061485Y-82959523D01*
X251061485Y-82959523D02*
X250728152Y-82959523D01*
X250728152Y-82959523D02*
X250537676Y-82911904D01*
X250537676Y-82911904D02*
X250442438Y-82816666D01*
X250442438Y-82816666D02*
X250394819Y-82721428D01*
X250394819Y-82721428D02*
X250394819Y-82530952D01*
X250394819Y-82530952D02*
X250442438Y-82435714D01*
X250442438Y-82435714D02*
X250537676Y-82340476D01*
X250537676Y-82340476D02*
X250728152Y-82292857D01*
X250728152Y-82292857D02*
X251061485Y-82292857D01*
X251061485Y-82292857D02*
X251251961Y-82340476D01*
X251251961Y-82340476D02*
X251347200Y-82435714D01*
X251347200Y-82435714D02*
X251394819Y-82530952D01*
X251394819Y-82530952D02*
X251394819Y-82721428D01*
X250728152Y-81435714D02*
X251394819Y-81435714D01*
X250347200Y-81673809D02*
X251061485Y-81911904D01*
X251061485Y-81911904D02*
X251061485Y-81292857D01*
X226424819Y-99118094D02*
X225424819Y-99118094D01*
X225424819Y-99118094D02*
X225424819Y-98879999D01*
X225424819Y-98879999D02*
X225472438Y-98737142D01*
X225472438Y-98737142D02*
X225567676Y-98641904D01*
X225567676Y-98641904D02*
X225662914Y-98594285D01*
X225662914Y-98594285D02*
X225853390Y-98546666D01*
X225853390Y-98546666D02*
X225996247Y-98546666D01*
X225996247Y-98546666D02*
X226186723Y-98594285D01*
X226186723Y-98594285D02*
X226281961Y-98641904D01*
X226281961Y-98641904D02*
X226377200Y-98737142D01*
X226377200Y-98737142D02*
X226424819Y-98879999D01*
X226424819Y-98879999D02*
X226424819Y-99118094D01*
X225424819Y-98213332D02*
X225424819Y-97594285D01*
X225424819Y-97594285D02*
X225805771Y-97927618D01*
X225805771Y-97927618D02*
X225805771Y-97784761D01*
X225805771Y-97784761D02*
X225853390Y-97689523D01*
X225853390Y-97689523D02*
X225901009Y-97641904D01*
X225901009Y-97641904D02*
X225996247Y-97594285D01*
X225996247Y-97594285D02*
X226234342Y-97594285D01*
X226234342Y-97594285D02*
X226329580Y-97641904D01*
X226329580Y-97641904D02*
X226377200Y-97689523D01*
X226377200Y-97689523D02*
X226424819Y-97784761D01*
X226424819Y-97784761D02*
X226424819Y-98070475D01*
X226424819Y-98070475D02*
X226377200Y-98165713D01*
X226377200Y-98165713D02*
X226329580Y-98213332D01*
X226054819Y-93561904D02*
X225054819Y-93561904D01*
X226054819Y-92990476D02*
X225483390Y-93419047D01*
X225054819Y-92990476D02*
X225626247Y-93561904D01*
X163857142Y-117304819D02*
X163523809Y-116828628D01*
X163285714Y-117304819D02*
X163285714Y-116304819D01*
X163285714Y-116304819D02*
X163666666Y-116304819D01*
X163666666Y-116304819D02*
X163761904Y-116352438D01*
X163761904Y-116352438D02*
X163809523Y-116400057D01*
X163809523Y-116400057D02*
X163857142Y-116495295D01*
X163857142Y-116495295D02*
X163857142Y-116638152D01*
X163857142Y-116638152D02*
X163809523Y-116733390D01*
X163809523Y-116733390D02*
X163761904Y-116781009D01*
X163761904Y-116781009D02*
X163666666Y-116828628D01*
X163666666Y-116828628D02*
X163285714Y-116828628D01*
X164190476Y-116304819D02*
X164809523Y-116304819D01*
X164809523Y-116304819D02*
X164476190Y-116685771D01*
X164476190Y-116685771D02*
X164619047Y-116685771D01*
X164619047Y-116685771D02*
X164714285Y-116733390D01*
X164714285Y-116733390D02*
X164761904Y-116781009D01*
X164761904Y-116781009D02*
X164809523Y-116876247D01*
X164809523Y-116876247D02*
X164809523Y-117114342D01*
X164809523Y-117114342D02*
X164761904Y-117209580D01*
X164761904Y-117209580D02*
X164714285Y-117257200D01*
X164714285Y-117257200D02*
X164619047Y-117304819D01*
X164619047Y-117304819D02*
X164333333Y-117304819D01*
X164333333Y-117304819D02*
X164238095Y-117257200D01*
X164238095Y-117257200D02*
X164190476Y-117209580D01*
X165761904Y-117304819D02*
X165190476Y-117304819D01*
X165476190Y-117304819D02*
X165476190Y-116304819D01*
X165476190Y-116304819D02*
X165380952Y-116447676D01*
X165380952Y-116447676D02*
X165285714Y-116542914D01*
X165285714Y-116542914D02*
X165190476Y-116590533D01*
D11*
%TO.C,R21*%
X138727064Y-117765000D02*
X138272936Y-117765000D01*
X138727064Y-119235000D02*
X138272936Y-119235000D01*
%TO.C,Css2*%
X133777064Y-90565000D02*
X133322936Y-90565000D01*
X133777064Y-92035000D02*
X133322936Y-92035000D01*
%TO.C,U6*%
X165390000Y-78440000D02*
X165485000Y-78440000D01*
X165390000Y-82560000D02*
X165390000Y-78440000D01*
X165485000Y-82560000D02*
X165390000Y-82560000D01*
X170415000Y-78440000D02*
X170510000Y-78440000D01*
X170510000Y-78440000D02*
X170510000Y-82560000D01*
X170510000Y-82560000D02*
X170415000Y-82560000D01*
X165480000Y-83100000D02*
X165150000Y-83340000D01*
X165150000Y-82860000D01*
X165480000Y-83100000D01*
G36*
X165480000Y-83100000D02*
G01*
X165150000Y-83340000D01*
X165150000Y-82860000D01*
X165480000Y-83100000D01*
G37*
%TO.C,D5*%
X202690000Y-75840000D02*
X202690000Y-76860000D01*
X202690000Y-83320000D02*
X202690000Y-82300000D01*
X204160000Y-77640000D02*
X201220000Y-77640000D01*
X204160000Y-77760000D02*
X201220000Y-77760000D01*
X204160000Y-77880000D02*
X201220000Y-77880000D01*
X204160000Y-76860000D02*
X201220000Y-76860000D01*
X201220000Y-82300000D01*
X204160000Y-82300000D01*
X204160000Y-76860000D01*
%TO.C,D21*%
X141040000Y-113815000D02*
X141040000Y-116500000D01*
X142960000Y-113815000D02*
X141040000Y-113815000D01*
X142960000Y-116500000D02*
X142960000Y-113815000D01*
%TO.C,A1*%
X112005000Y-103940000D02*
X112005000Y-115620000D01*
X112005000Y-115620000D02*
X118355000Y-115620000D01*
X116455000Y-74730000D02*
X116455000Y-83870000D01*
X116455000Y-83870000D02*
X118355000Y-83870000D01*
X118355000Y-71550000D02*
X118355000Y-74730000D01*
X118355000Y-74730000D02*
X116455000Y-74730000D01*
X118355000Y-83870000D02*
X118355000Y-103940000D01*
X118355000Y-103940000D02*
X112005000Y-103940000D01*
X118355000Y-115620000D02*
X118355000Y-125150000D01*
X118355000Y-125150000D02*
X183005000Y-125150000D01*
X183005000Y-125150000D02*
X184655000Y-123500000D01*
X184655000Y-71550000D02*
X118355000Y-71550000D01*
X184655000Y-74220000D02*
X184655000Y-71550000D01*
X184655000Y-112070000D02*
X187195000Y-109530000D01*
X184655000Y-123500000D02*
X184655000Y-112070000D01*
X187195000Y-76760000D02*
X184655000Y-74220000D01*
X187195000Y-109530000D02*
X187195000Y-76760000D01*
%TO.C,R42*%
X133322936Y-88615000D02*
X133777064Y-88615000D01*
X133322936Y-90085000D02*
X133777064Y-90085000D01*
%TO.C,R1*%
X218320000Y-78230000D02*
X218320000Y-84770000D01*
X218320000Y-84770000D02*
X218650000Y-84770000D01*
X218650000Y-78230000D02*
X218320000Y-78230000D01*
X220730000Y-78230000D02*
X221060000Y-78230000D01*
X221060000Y-78230000D02*
X221060000Y-84770000D01*
X221060000Y-84770000D02*
X220730000Y-84770000D01*
%TO.C,D14*%
X148540000Y-113815000D02*
X148540000Y-116500000D01*
X150460000Y-113815000D02*
X148540000Y-113815000D01*
X150460000Y-116500000D02*
X150460000Y-113815000D01*
%TO.C,R12*%
X236920000Y-105130000D02*
X243460000Y-105130000D01*
X236920000Y-105460000D02*
X236920000Y-105130000D01*
X236920000Y-107540000D02*
X236920000Y-107870000D01*
X236920000Y-107870000D02*
X243460000Y-107870000D01*
X243460000Y-105130000D02*
X243460000Y-105460000D01*
X243460000Y-107870000D02*
X243460000Y-107540000D01*
%TO.C,D18*%
X151040000Y-106000000D02*
X151040000Y-108685000D01*
X151040000Y-108685000D02*
X152960000Y-108685000D01*
X152960000Y-108685000D02*
X152960000Y-106000000D01*
%TO.C,R43*%
X148095436Y-85400000D02*
X148549564Y-85400000D01*
X148095436Y-86870000D02*
X148549564Y-86870000D01*
%TO.C,C13*%
X145977064Y-92965000D02*
X145522936Y-92965000D01*
X145977064Y-94435000D02*
X145522936Y-94435000D01*
%TO.C,R3*%
X256230000Y-85130000D02*
X262770000Y-85130000D01*
X256230000Y-85460000D02*
X256230000Y-85130000D01*
X256230000Y-87540000D02*
X256230000Y-87870000D01*
X256230000Y-87870000D02*
X262770000Y-87870000D01*
X262770000Y-85130000D02*
X262770000Y-85460000D01*
X262770000Y-87870000D02*
X262770000Y-87540000D01*
%TO.C,Q20*%
X153262500Y-84675000D02*
X157882500Y-84675000D01*
X153262500Y-94895000D02*
X153262500Y-84675000D01*
X156502500Y-84675000D02*
X156502500Y-94895000D01*
X157882500Y-84675000D02*
X157882500Y-94895000D01*
X157882500Y-87935000D02*
X156502500Y-87935000D01*
X157882500Y-91635000D02*
X156502500Y-91635000D01*
X157882500Y-94895000D02*
X153262500Y-94895000D01*
%TO.C,J1*%
X256240000Y-115140000D02*
X256690000Y-115140000D01*
X256240000Y-116860000D02*
X256240000Y-115140000D01*
X256690000Y-111490000D02*
X258840000Y-111490000D01*
X256690000Y-115140000D02*
X256690000Y-111490000D01*
X264160000Y-111490000D02*
X267310000Y-111490000D01*
X267310000Y-111490000D02*
X267310000Y-115140000D01*
X267310000Y-115140000D02*
X267760000Y-115140000D01*
X267760000Y-115140000D02*
X267760000Y-116860000D01*
X267760000Y-116860000D02*
X256240000Y-116860000D01*
X259780000Y-111600000D02*
X259450000Y-111840000D01*
X259450000Y-111360000D01*
X259780000Y-111600000D01*
G36*
X259780000Y-111600000D02*
G01*
X259450000Y-111840000D01*
X259450000Y-111360000D01*
X259780000Y-111600000D01*
G37*
%TO.C,R46*%
X140622936Y-84015000D02*
X141077064Y-84015000D01*
X140622936Y-85485000D02*
X141077064Y-85485000D01*
%TO.C,R10*%
X236230000Y-85630000D02*
X242770000Y-85630000D01*
X236230000Y-85960000D02*
X236230000Y-85630000D01*
X236230000Y-88040000D02*
X236230000Y-88370000D01*
X236230000Y-88370000D02*
X242770000Y-88370000D01*
X242770000Y-85630000D02*
X242770000Y-85960000D01*
X242770000Y-88370000D02*
X242770000Y-88040000D01*
%TO.C,C17*%
X152235000Y-83762349D02*
X153035000Y-83762349D01*
X152635000Y-84162349D02*
X152635000Y-83362349D01*
X159070000Y-79752651D02*
G75*
G02*
X150830000Y-79752651I-4120000J0D01*
G01*
X150830000Y-79752651D02*
G75*
G02*
X159070000Y-79752651I4120000J0D01*
G01*
%TO.C,Q17*%
X245650000Y-100550000D02*
X245650000Y-104150000D01*
X245661522Y-100511522D02*
G75*
G02*
X250100001Y-102350000I1838478J-1838478D01*
G01*
X250100000Y-102350000D02*
G75*
G02*
X245661522Y-104188478I-2600000J0D01*
G01*
%TO.C,R23*%
X158814564Y-117765000D02*
X158360436Y-117765000D01*
X158814564Y-119235000D02*
X158360436Y-119235000D01*
%TO.C,R45*%
X135165000Y-95122936D02*
X135165000Y-95577064D01*
X136635000Y-95122936D02*
X136635000Y-95577064D01*
%TO.C,R30*%
X152772936Y-117765000D02*
X153227064Y-117765000D01*
X152772936Y-119235000D02*
X153227064Y-119235000D01*
%TO.C,R24*%
X168727064Y-117765000D02*
X168272936Y-117765000D01*
X168727064Y-119235000D02*
X168272936Y-119235000D01*
%TO.C,R11*%
X197730000Y-106130000D02*
X204270000Y-106130000D01*
X197730000Y-106460000D02*
X197730000Y-106130000D01*
X197730000Y-108540000D02*
X197730000Y-108870000D01*
X197730000Y-108870000D02*
X204270000Y-108870000D01*
X204270000Y-106130000D02*
X204270000Y-106460000D01*
X204270000Y-108870000D02*
X204270000Y-108540000D01*
%TO.C,J3*%
X204300000Y-125380000D02*
X204300000Y-124000000D01*
X205680000Y-125380000D02*
X204300000Y-125380000D01*
X206950000Y-122620000D02*
X227380000Y-122620000D01*
X206950000Y-125380000D02*
X206950000Y-122620000D01*
X206950000Y-125380000D02*
X227380000Y-125380000D01*
X227380000Y-125380000D02*
X227380000Y-122620000D01*
%TO.C,R2*%
X216920000Y-86630000D02*
X223460000Y-86630000D01*
X216920000Y-86960000D02*
X216920000Y-86630000D01*
X216920000Y-89040000D02*
X216920000Y-89370000D01*
X216920000Y-89370000D02*
X223460000Y-89370000D01*
X223460000Y-86630000D02*
X223460000Y-86960000D01*
X223460000Y-89370000D02*
X223460000Y-89040000D01*
%TO.C,D1*%
X223190000Y-75840000D02*
X223190000Y-76860000D01*
X223190000Y-83320000D02*
X223190000Y-82300000D01*
X224660000Y-77640000D02*
X221720000Y-77640000D01*
X224660000Y-77760000D02*
X221720000Y-77760000D01*
X224660000Y-77880000D02*
X221720000Y-77880000D01*
X224660000Y-76860000D02*
X221720000Y-76860000D01*
X221720000Y-82300000D01*
X224660000Y-82300000D01*
X224660000Y-76860000D01*
%TO.C,D19*%
X161040000Y-106000000D02*
X161040000Y-108685000D01*
X161040000Y-108685000D02*
X162960000Y-108685000D01*
X162960000Y-108685000D02*
X162960000Y-106000000D01*
%TO.C,U5*%
X138550000Y-87325000D02*
X138900000Y-87325000D01*
X138550000Y-87525000D02*
X138550000Y-87325000D01*
X138550000Y-92545000D02*
X138550000Y-92345000D01*
X138900000Y-92545000D02*
X138550000Y-92545000D01*
X142820000Y-87325000D02*
X143170000Y-87325000D01*
X143170000Y-87325000D02*
X143170000Y-87525000D01*
X143170000Y-92345000D02*
X143170000Y-92545000D01*
X143170000Y-92545000D02*
X142820000Y-92545000D01*
X137910000Y-87525000D02*
X137570000Y-87055000D01*
X138250000Y-87055000D01*
X137910000Y-87525000D01*
G36*
X137910000Y-87525000D02*
G01*
X137570000Y-87055000D01*
X138250000Y-87055000D01*
X137910000Y-87525000D01*
G37*
%TO.C,R27*%
X162772936Y-103265000D02*
X163227064Y-103265000D01*
X162772936Y-104735000D02*
X163227064Y-104735000D01*
%TO.C,R17*%
X138727064Y-103265000D02*
X138272936Y-103265000D01*
X138727064Y-104735000D02*
X138272936Y-104735000D01*
%TO.C,D13*%
X138540000Y-113815000D02*
X138540000Y-116500000D01*
X140460000Y-113815000D02*
X138540000Y-113815000D01*
X140460000Y-116500000D02*
X140460000Y-113815000D01*
%TO.C,D15*%
X158540000Y-113815000D02*
X158540000Y-116500000D01*
X160460000Y-113815000D02*
X158540000Y-113815000D01*
X160460000Y-116500000D02*
X160460000Y-113815000D01*
%TO.C,D24*%
X171040000Y-113815000D02*
X171040000Y-116500000D01*
X172960000Y-113815000D02*
X171040000Y-113815000D01*
X172960000Y-116500000D02*
X172960000Y-113815000D01*
%TO.C,R16*%
X238130000Y-96420000D02*
X238130000Y-102960000D01*
X238130000Y-102960000D02*
X238460000Y-102960000D01*
X238460000Y-96420000D02*
X238130000Y-96420000D01*
X240540000Y-96420000D02*
X240870000Y-96420000D01*
X240870000Y-96420000D02*
X240870000Y-102960000D01*
X240870000Y-102960000D02*
X240540000Y-102960000D01*
%TO.C,R14*%
X237940000Y-77230000D02*
X237940000Y-83770000D01*
X237940000Y-83770000D02*
X238270000Y-83770000D01*
X238270000Y-77230000D02*
X237940000Y-77230000D01*
X240350000Y-77230000D02*
X240680000Y-77230000D01*
X240680000Y-77230000D02*
X240680000Y-83770000D01*
X240680000Y-83770000D02*
X240350000Y-83770000D01*
%TO.C,Q7*%
X225650000Y-101470000D02*
X225650000Y-105070000D01*
X225661522Y-101431522D02*
G75*
G02*
X230100001Y-103270000I1838478J-1838478D01*
G01*
X230100000Y-103270000D02*
G75*
G02*
X225661522Y-105108478I-2600000J0D01*
G01*
%TO.C,R4*%
X257130000Y-76730000D02*
X257130000Y-83270000D01*
X257130000Y-83270000D02*
X257460000Y-83270000D01*
X257460000Y-76730000D02*
X257130000Y-76730000D01*
X259540000Y-76730000D02*
X259870000Y-76730000D01*
X259870000Y-76730000D02*
X259870000Y-83270000D01*
X259870000Y-83270000D02*
X259540000Y-83270000D01*
%TO.C,R29*%
X142772936Y-117765000D02*
X143227064Y-117765000D01*
X142772936Y-119235000D02*
X143227064Y-119235000D01*
%TO.C,Q13*%
X237350000Y-104030000D02*
X237350000Y-100430000D01*
X232900000Y-102230000D02*
G75*
G02*
X237338478Y-100391522I2600000J0D01*
G01*
X237338478Y-104068478D02*
G75*
G02*
X232899999Y-102230000I-1838478J1838478D01*
G01*
%TO.C,Q11*%
X237350000Y-84410000D02*
X237350000Y-80810000D01*
X232900000Y-82610000D02*
G75*
G02*
X237338478Y-80771522I2600000J0D01*
G01*
X237338478Y-84448478D02*
G75*
G02*
X232899999Y-82610000I-1838478J1838478D01*
G01*
%TO.C,R22*%
X148727064Y-117765000D02*
X148272936Y-117765000D01*
X148727064Y-119235000D02*
X148272936Y-119235000D01*
%TO.C,R13*%
X196610000Y-86790000D02*
X203150000Y-86790000D01*
X196610000Y-87120000D02*
X196610000Y-86790000D01*
X196610000Y-89200000D02*
X196610000Y-89530000D01*
X196610000Y-89530000D02*
X203150000Y-89530000D01*
X203150000Y-86790000D02*
X203150000Y-87120000D01*
X203150000Y-89530000D02*
X203150000Y-89200000D01*
%TO.C,R9*%
X197820000Y-78390000D02*
X197820000Y-84930000D01*
X197820000Y-84930000D02*
X198150000Y-84930000D01*
X198150000Y-78390000D02*
X197820000Y-78390000D01*
X200230000Y-78390000D02*
X200560000Y-78390000D01*
X200560000Y-78390000D02*
X200560000Y-84930000D01*
X200560000Y-84930000D02*
X200230000Y-84930000D01*
%TO.C,C14*%
X143485000Y-83862349D02*
X144285000Y-83862349D01*
X143885000Y-84262349D02*
X143885000Y-83462349D01*
X150320000Y-79852651D02*
G75*
G02*
X142080000Y-79852651I-4120000J0D01*
G01*
X142080000Y-79852651D02*
G75*
G02*
X150320000Y-79852651I4120000J0D01*
G01*
%TO.C,D12*%
X168540000Y-106000000D02*
X168540000Y-108685000D01*
X168540000Y-108685000D02*
X170460000Y-108685000D01*
X170460000Y-108685000D02*
X170460000Y-106000000D01*
%TO.C,D23*%
X161040000Y-113815000D02*
X161040000Y-116500000D01*
X162960000Y-113815000D02*
X161040000Y-113815000D01*
X162960000Y-116500000D02*
X162960000Y-113815000D01*
%TO.C,Q12*%
X197850000Y-104530000D02*
X197850000Y-100930000D01*
X193400000Y-102730000D02*
G75*
G02*
X197838478Y-100891522I2600000J0D01*
G01*
X197838478Y-104568478D02*
G75*
G02*
X193399999Y-102730000I-1838478J1838478D01*
G01*
%TO.C,T2*%
X160770000Y-88070000D02*
X160770000Y-95750000D01*
X160770000Y-88070000D02*
X163430000Y-88070000D01*
X160770000Y-95750000D02*
X163430000Y-95750000D01*
X162100000Y-85470000D02*
X163430000Y-85470000D01*
X163430000Y-85470000D02*
X163430000Y-86800000D01*
X163430000Y-88070000D02*
X163430000Y-95750000D01*
%TO.C,C19*%
X137465000Y-97222936D02*
X137465000Y-97677064D01*
X138935000Y-97222936D02*
X138935000Y-97677064D01*
%TO.C,Q15*%
X245150000Y-83270000D02*
X245150000Y-86870000D01*
X245161522Y-83231522D02*
G75*
G02*
X249600001Y-85070000I1838478J-1838478D01*
G01*
X249600000Y-85070000D02*
G75*
G02*
X245161522Y-86908478I-2600000J0D01*
G01*
%TO.C,J2*%
X256240000Y-123140000D02*
X256690000Y-123140000D01*
X256240000Y-124860000D02*
X256240000Y-123140000D01*
X256690000Y-119490000D02*
X258840000Y-119490000D01*
X256690000Y-123140000D02*
X256690000Y-119490000D01*
X264160000Y-119490000D02*
X267310000Y-119490000D01*
X267310000Y-119490000D02*
X267310000Y-123140000D01*
X267310000Y-123140000D02*
X267760000Y-123140000D01*
X267760000Y-123140000D02*
X267760000Y-124860000D01*
X267760000Y-124860000D02*
X256240000Y-124860000D01*
X259780000Y-119600000D02*
X259450000Y-119840000D01*
X259450000Y-119360000D01*
X259780000Y-119600000D01*
G36*
X259780000Y-119600000D02*
G01*
X259450000Y-119840000D01*
X259450000Y-119360000D01*
X259780000Y-119600000D01*
G37*
%TO.C,R7*%
X256230000Y-105130000D02*
X262770000Y-105130000D01*
X256230000Y-105460000D02*
X256230000Y-105130000D01*
X256230000Y-107540000D02*
X256230000Y-107870000D01*
X256230000Y-107870000D02*
X262770000Y-107870000D01*
X262770000Y-105130000D02*
X262770000Y-105460000D01*
X262770000Y-107870000D02*
X262770000Y-107540000D01*
%TO.C,D16*%
X168540000Y-113815000D02*
X168540000Y-116500000D01*
X170460000Y-113815000D02*
X168540000Y-113815000D01*
X170460000Y-116500000D02*
X170460000Y-113815000D01*
%TO.C,Q8*%
X256850000Y-103570000D02*
X256850000Y-99970000D01*
X252400000Y-101770000D02*
G75*
G02*
X256838478Y-99931522I2600000J0D01*
G01*
X256838478Y-103608478D02*
G75*
G02*
X252399999Y-101770000I-1838478J1838478D01*
G01*
%TO.C,Q3*%
X139050000Y-82100000D02*
X139050000Y-78500000D01*
X134600000Y-80300000D02*
G75*
G02*
X139038478Y-78461522I2600000J0D01*
G01*
X139038478Y-82138478D02*
G75*
G02*
X134599999Y-80300000I-1838478J1838478D01*
G01*
%TO.C,D7*%
X203500000Y-95030000D02*
X203500000Y-96050000D01*
X203500000Y-102510000D02*
X203500000Y-101490000D01*
X204970000Y-96830000D02*
X202030000Y-96830000D01*
X204970000Y-96950000D02*
X202030000Y-96950000D01*
X204970000Y-97070000D02*
X202030000Y-97070000D01*
X204970000Y-96050000D02*
X202030000Y-96050000D01*
X202030000Y-101490000D01*
X204970000Y-101490000D01*
X204970000Y-96050000D01*
%TO.C,R48*%
X160500000Y-81150000D02*
X160500000Y-79350000D01*
X162450000Y-76900000D02*
X162050000Y-76900000D01*
X162450000Y-83600000D02*
X162050000Y-83600000D01*
X164000000Y-79350000D02*
X164000000Y-81150000D01*
%TO.C,Q14*%
X205840000Y-84590000D02*
X205840000Y-88190000D01*
X205851522Y-84551522D02*
G75*
G02*
X210290001Y-86390000I1838478J-1838478D01*
G01*
X210290000Y-86390000D02*
G75*
G02*
X205851522Y-88228478I-2600000J0D01*
G01*
%TO.C,Q10*%
X197350000Y-85530000D02*
X197350000Y-81930000D01*
X192900000Y-83730000D02*
G75*
G02*
X197338478Y-81891522I2600000J0D01*
G01*
X197338478Y-85568478D02*
G75*
G02*
X192899999Y-83730000I-1838478J1838478D01*
G01*
%TO.C,R47*%
X168522936Y-92215000D02*
X168977064Y-92215000D01*
X168522936Y-93685000D02*
X168977064Y-93685000D01*
%TO.C,R8*%
X257630000Y-96730000D02*
X257630000Y-103270000D01*
X257630000Y-103270000D02*
X257960000Y-103270000D01*
X257960000Y-96730000D02*
X257630000Y-96730000D01*
X260040000Y-96730000D02*
X260370000Y-96730000D01*
X260370000Y-96730000D02*
X260370000Y-103270000D01*
X260370000Y-103270000D02*
X260040000Y-103270000D01*
%TO.C,D9*%
X138540000Y-106000000D02*
X138540000Y-108685000D01*
X138540000Y-108685000D02*
X140460000Y-108685000D01*
X140460000Y-108685000D02*
X140460000Y-106000000D01*
%TO.C,Q6*%
X217350000Y-104030000D02*
X217350000Y-100430000D01*
X212900000Y-102230000D02*
G75*
G02*
X217338478Y-100391522I2600000J0D01*
G01*
X217338478Y-104068478D02*
G75*
G02*
X212899999Y-102230000I-1838478J1838478D01*
G01*
%TO.C,D6*%
X243000000Y-74680000D02*
X243000000Y-75700000D01*
X243000000Y-82160000D02*
X243000000Y-81140000D01*
X244470000Y-76480000D02*
X241530000Y-76480000D01*
X244470000Y-76600000D02*
X241530000Y-76600000D01*
X244470000Y-76720000D02*
X241530000Y-76720000D01*
X244470000Y-75700000D02*
X241530000Y-75700000D01*
X241530000Y-81140000D01*
X244470000Y-81140000D01*
X244470000Y-75700000D01*
%TO.C,Q9*%
X265150000Y-102930000D02*
X265150000Y-106530000D01*
X265161522Y-102891522D02*
G75*
G02*
X269600001Y-104730000I1838478J-1838478D01*
G01*
X269600000Y-104730000D02*
G75*
G02*
X265161522Y-106568478I-2600000J0D01*
G01*
%TO.C,R32*%
X172772936Y-117765000D02*
X173227064Y-117765000D01*
X172772936Y-119235000D02*
X173227064Y-119235000D01*
%TO.C,R20*%
X168727064Y-103265000D02*
X168272936Y-103265000D01*
X168727064Y-104735000D02*
X168272936Y-104735000D01*
%TO.C,R15*%
X198630000Y-97730000D02*
X198630000Y-104270000D01*
X198630000Y-104270000D02*
X198960000Y-104270000D01*
X198960000Y-97730000D02*
X198630000Y-97730000D01*
X201040000Y-97730000D02*
X201370000Y-97730000D01*
X201370000Y-97730000D02*
X201370000Y-104270000D01*
X201370000Y-104270000D02*
X201040000Y-104270000D01*
%TO.C,Q1*%
X217540000Y-85300000D02*
X217540000Y-81700000D01*
X213090000Y-83500000D02*
G75*
G02*
X217528478Y-81661522I2600000J0D01*
G01*
X217528478Y-85338478D02*
G75*
G02*
X213089999Y-83500000I-1838478J1838478D01*
G01*
%TO.C,R18*%
X148727064Y-103265000D02*
X148272936Y-103265000D01*
X148727064Y-104735000D02*
X148272936Y-104735000D01*
%TO.C,D29*%
X166690000Y-88000000D02*
X169180000Y-88000000D01*
X173600000Y-89470000D02*
X173600000Y-86530000D01*
X173720000Y-89470000D02*
X173720000Y-86530000D01*
X173840000Y-89470000D02*
X173840000Y-86530000D01*
X177110000Y-88000000D02*
X174620000Y-88000000D01*
X174620000Y-89470000D02*
X169180000Y-89470000D01*
X169180000Y-86530000D01*
X174620000Y-86530000D01*
X174620000Y-89470000D01*
%TO.C,Q16*%
X206150000Y-101970000D02*
X206150000Y-105570000D01*
X206161522Y-101931522D02*
G75*
G02*
X210600001Y-103770000I1838478J-1838478D01*
G01*
X210600000Y-103770000D02*
G75*
G02*
X206161522Y-105608478I-2600000J0D01*
G01*
%TO.C,C16*%
X174772936Y-92215000D02*
X175227064Y-92215000D01*
X174772936Y-93685000D02*
X175227064Y-93685000D01*
%TO.C,D8*%
X243000000Y-94180000D02*
X243000000Y-95200000D01*
X243000000Y-101660000D02*
X243000000Y-100640000D01*
X244470000Y-95980000D02*
X241530000Y-95980000D01*
X244470000Y-96100000D02*
X241530000Y-96100000D01*
X244470000Y-96220000D02*
X241530000Y-96220000D01*
X244470000Y-95200000D02*
X241530000Y-95200000D01*
X241530000Y-100640000D01*
X244470000Y-100640000D01*
X244470000Y-95200000D01*
%TO.C,C15*%
X177515000Y-84177064D02*
X177515000Y-83722936D01*
X178985000Y-84177064D02*
X178985000Y-83722936D01*
%TO.C,D10*%
X148540000Y-106000000D02*
X148540000Y-108685000D01*
X148540000Y-108685000D02*
X150460000Y-108685000D01*
X150460000Y-108685000D02*
X150460000Y-106000000D01*
%TO.C,R26*%
X152772936Y-103265000D02*
X153227064Y-103265000D01*
X152772936Y-104735000D02*
X153227064Y-104735000D01*
%TO.C,Q2*%
X225650000Y-83430000D02*
X225650000Y-87030000D01*
X225661522Y-83391522D02*
G75*
G02*
X230100001Y-85230000I1838478J-1838478D01*
G01*
X230100000Y-85230000D02*
G75*
G02*
X225661522Y-87068478I-2600000J0D01*
G01*
%TO.C,Rcs2*%
X152072936Y-95565000D02*
X152527064Y-95565000D01*
X152072936Y-97035000D02*
X152527064Y-97035000D01*
%TO.C,D11*%
X158540000Y-106000000D02*
X158540000Y-108685000D01*
X158540000Y-108685000D02*
X160460000Y-108685000D01*
X160460000Y-108685000D02*
X160460000Y-106000000D01*
%TO.C,R44*%
X149645436Y-92300000D02*
X150099564Y-92300000D01*
X149645436Y-93770000D02*
X150099564Y-93770000D01*
%TO.C,D17*%
X141040000Y-106000000D02*
X141040000Y-108685000D01*
X141040000Y-108685000D02*
X142960000Y-108685000D01*
X142960000Y-108685000D02*
X142960000Y-106000000D01*
%TO.C,Cvcc2*%
X149645436Y-90350000D02*
X150099564Y-90350000D01*
X149645436Y-91820000D02*
X150099564Y-91820000D01*
%TO.C,R25*%
X142772936Y-103265000D02*
X143227064Y-103265000D01*
X142772936Y-104735000D02*
X143227064Y-104735000D01*
%TO.C,R19*%
X158727064Y-103265000D02*
X158272936Y-103265000D01*
X158727064Y-104735000D02*
X158272936Y-104735000D01*
%TO.C,Q5*%
X264650000Y-83350000D02*
X264650000Y-86950000D01*
X264661522Y-83311522D02*
G75*
G02*
X269100001Y-85150000I1838478J-1838478D01*
G01*
X269100000Y-85150000D02*
G75*
G02*
X264661522Y-86988478I-2600000J0D01*
G01*
%TO.C,D20*%
X171040000Y-106000000D02*
X171040000Y-108685000D01*
X171040000Y-108685000D02*
X172960000Y-108685000D01*
X172960000Y-108685000D02*
X172960000Y-106000000D01*
%TO.C,C18*%
X135215000Y-98972936D02*
X135215000Y-99427064D01*
X136685000Y-98972936D02*
X136685000Y-99427064D01*
%TO.C,D22*%
X151040000Y-113815000D02*
X151040000Y-116500000D01*
X152960000Y-113815000D02*
X151040000Y-113815000D01*
X152960000Y-116500000D02*
X152960000Y-113815000D01*
%TO.C,R5*%
X217230000Y-105630000D02*
X223770000Y-105630000D01*
X217230000Y-105960000D02*
X217230000Y-105630000D01*
X217230000Y-108040000D02*
X217230000Y-108370000D01*
X217230000Y-108370000D02*
X223770000Y-108370000D01*
X223770000Y-105630000D02*
X223770000Y-105960000D01*
X223770000Y-108370000D02*
X223770000Y-108040000D01*
%TO.C,R6*%
X218130000Y-96920000D02*
X218130000Y-103460000D01*
X218130000Y-103460000D02*
X218460000Y-103460000D01*
X218460000Y-96920000D02*
X218130000Y-96920000D01*
X220540000Y-96920000D02*
X220870000Y-96920000D01*
X220870000Y-96920000D02*
X220870000Y-103460000D01*
X220870000Y-103460000D02*
X220540000Y-103460000D01*
%TO.C,D4*%
X262500000Y-94180000D02*
X262500000Y-95200000D01*
X262500000Y-101660000D02*
X262500000Y-100640000D01*
X263970000Y-95980000D02*
X261030000Y-95980000D01*
X263970000Y-96100000D02*
X261030000Y-96100000D01*
X263970000Y-96220000D02*
X261030000Y-96220000D01*
X263970000Y-95200000D02*
X261030000Y-95200000D01*
X261030000Y-100640000D01*
X263970000Y-100640000D01*
X263970000Y-95200000D01*
%TO.C,R28*%
X172772936Y-103265000D02*
X173227064Y-103265000D01*
X172772936Y-104735000D02*
X173227064Y-104735000D01*
%TO.C,D2*%
X262500000Y-74680000D02*
X262500000Y-75700000D01*
X262500000Y-82160000D02*
X262500000Y-81140000D01*
X263970000Y-76480000D02*
X261030000Y-76480000D01*
X263970000Y-76600000D02*
X261030000Y-76600000D01*
X263970000Y-76720000D02*
X261030000Y-76720000D01*
X263970000Y-75700000D02*
X261030000Y-75700000D01*
X261030000Y-81140000D01*
X263970000Y-81140000D01*
X263970000Y-75700000D01*
%TO.C,Q4*%
X256350000Y-83950000D02*
X256350000Y-80350000D01*
X251900000Y-82150000D02*
G75*
G02*
X256338478Y-80311522I2600000J0D01*
G01*
X256338478Y-83988478D02*
G75*
G02*
X251899999Y-82150000I-1838478J1838478D01*
G01*
%TO.C,D3*%
X223500000Y-94640000D02*
X223500000Y-95660000D01*
X223500000Y-102120000D02*
X223500000Y-101100000D01*
X224970000Y-96440000D02*
X222030000Y-96440000D01*
X224970000Y-96560000D02*
X222030000Y-96560000D01*
X224970000Y-96680000D02*
X222030000Y-96680000D01*
X224970000Y-95660000D02*
X222030000Y-95660000D01*
X222030000Y-101100000D01*
X224970000Y-101100000D01*
X224970000Y-95660000D01*
%TO.C,R31*%
X162860436Y-117765000D02*
X163314564Y-117765000D01*
X162860436Y-119235000D02*
X163314564Y-119235000D01*
%TD*%
M02*
