%TF.GenerationSoftware,KiCad,Pcbnew,9.0.4*%
%TF.CreationDate,2025-10-08T10:45:37-04:00*%
%TF.ProjectId,BrailleCellController,42726169-6c6c-4654-9365-6c6c436f6e74,rev?*%
%TF.SameCoordinates,Original*%
%TF.FileFunction,Legend,Bot*%
%TF.FilePolarity,Positive*%
%FSLAX46Y46*%
G04 Gerber Fmt 4.6, Leading zero omitted, Abs format (unit mm)*
G04 Created by KiCad (PCBNEW 9.0.4) date 2025-10-08 10:45:37*
%MOMM*%
%LPD*%
G01*
G04 APERTURE LIST*
%ADD10C,0.125000*%
G04 APERTURE END LIST*
D10*
G36*
X205578720Y-60379375D02*
G01*
X205480687Y-60410638D01*
X205494674Y-60451146D01*
X205511950Y-60484355D01*
X205532277Y-60511328D01*
X205555669Y-60532882D01*
X205582701Y-60549876D01*
X205613429Y-60562312D01*
X205648495Y-60570089D01*
X205688690Y-60572815D01*
X205728142Y-60569944D01*
X205763704Y-60561623D01*
X205796004Y-60548072D01*
X205825542Y-60529212D01*
X205852669Y-60504672D01*
X205875032Y-60476546D01*
X205892719Y-60444497D01*
X205905779Y-60407957D01*
X205913990Y-60366194D01*
X205916874Y-60318345D01*
X205913922Y-60267433D01*
X205905563Y-60223478D01*
X205892359Y-60185489D01*
X205874610Y-60152620D01*
X205852333Y-60124202D01*
X205825119Y-60099480D01*
X205795021Y-60080364D01*
X205761636Y-60066536D01*
X205724385Y-60057987D01*
X205682554Y-60055020D01*
X205637194Y-60058678D01*
X205597857Y-60069132D01*
X205563487Y-60085979D01*
X205533291Y-60109334D01*
X205513299Y-60132582D01*
X205496133Y-60162848D01*
X205482061Y-60201566D01*
X205582139Y-60225013D01*
X205590424Y-60200411D01*
X205602748Y-60180158D01*
X205619203Y-60163556D01*
X205639028Y-60151166D01*
X205661613Y-60143616D01*
X205687683Y-60140994D01*
X205714750Y-60143607D01*
X205738411Y-60151146D01*
X205759358Y-60163512D01*
X205778053Y-60181080D01*
X205791936Y-60201704D01*
X205802775Y-60229028D01*
X205810018Y-60264732D01*
X205812704Y-60310834D01*
X205809998Y-60360085D01*
X205802762Y-60397602D01*
X205792061Y-60425734D01*
X205778541Y-60446450D01*
X205760068Y-60464207D01*
X205739446Y-60476657D01*
X205716226Y-60484224D01*
X205689728Y-60486842D01*
X205663850Y-60483899D01*
X205640980Y-60475310D01*
X205620394Y-60460922D01*
X205603855Y-60441830D01*
X205589828Y-60415290D01*
X205578720Y-60379375D01*
G37*
G36*
X205212721Y-60057375D02*
G01*
X205248486Y-60064116D01*
X205280255Y-60074896D01*
X205302738Y-60086266D01*
X205324280Y-60101251D01*
X205345010Y-60120172D01*
X205371447Y-60152690D01*
X205391599Y-60189079D01*
X205403806Y-60224562D01*
X205411674Y-60267098D01*
X205414497Y-60317978D01*
X205411533Y-60366546D01*
X205403101Y-60408843D01*
X205389697Y-60445770D01*
X205371545Y-60478088D01*
X205348582Y-60506381D01*
X205320994Y-60530555D01*
X205290007Y-60549422D01*
X205255139Y-60563192D01*
X205215733Y-60571773D01*
X205170987Y-60574769D01*
X205126865Y-60571776D01*
X205087881Y-60563187D01*
X205053259Y-60549375D01*
X205022364Y-60530407D01*
X204994735Y-60506045D01*
X204971827Y-60477651D01*
X204953682Y-60445100D01*
X204940257Y-60407785D01*
X204931798Y-60364917D01*
X204928820Y-60315566D01*
X204928964Y-60313185D01*
X205033326Y-60313185D01*
X205036197Y-60357725D01*
X205044086Y-60393514D01*
X205056184Y-60422139D01*
X205072099Y-60444893D01*
X205092956Y-60464186D01*
X205116087Y-60477729D01*
X205141971Y-60485955D01*
X205171323Y-60488796D01*
X205200651Y-60485945D01*
X205226623Y-60477674D01*
X205249938Y-60464029D01*
X205271065Y-60444557D01*
X205287287Y-60421575D01*
X205299529Y-60393077D01*
X205307457Y-60357888D01*
X205310327Y-60314559D01*
X205307486Y-60270329D01*
X205299690Y-60234881D01*
X205287754Y-60206615D01*
X205272073Y-60184225D01*
X205251522Y-60165378D01*
X205228281Y-60152027D01*
X205201811Y-60143843D01*
X205171323Y-60140994D01*
X205140781Y-60143823D01*
X205114387Y-60151933D01*
X205091332Y-60165126D01*
X205071061Y-60183706D01*
X205055620Y-60205817D01*
X205043843Y-60233834D01*
X205036138Y-60269083D01*
X205033326Y-60313185D01*
X204928964Y-60313185D01*
X204931826Y-60265790D01*
X204940360Y-60222611D01*
X204953895Y-60185080D01*
X204972179Y-60152392D01*
X204995254Y-60123927D01*
X205023091Y-60099492D01*
X205054177Y-60080470D01*
X205088968Y-60066624D01*
X205128096Y-60058019D01*
X205172330Y-60055020D01*
X205212721Y-60057375D01*
G37*
G36*
X204848800Y-60565000D02*
G01*
X204848800Y-60062836D01*
X204750431Y-60062836D01*
X204545512Y-60399006D01*
X204545512Y-60062836D01*
X204451570Y-60062836D01*
X204451570Y-60565000D01*
X204553022Y-60565000D01*
X204754889Y-60233837D01*
X204754889Y-60565000D01*
X204848800Y-60565000D01*
G37*
G36*
X204232026Y-60565000D02*
G01*
X204232026Y-60146856D01*
X204380617Y-60146856D01*
X204380617Y-60062836D01*
X203982684Y-60062836D01*
X203982684Y-60146856D01*
X204130940Y-60146856D01*
X204130940Y-60565000D01*
X204232026Y-60565000D01*
G37*
G36*
X203916983Y-60565000D02*
G01*
X203815867Y-60565000D01*
X203815867Y-60355928D01*
X203795381Y-60355928D01*
X203762912Y-60357615D01*
X203744487Y-60361576D01*
X203729249Y-60369315D01*
X203714078Y-60382367D01*
X203697310Y-60403242D01*
X203660803Y-60455884D01*
X203587713Y-60565000D01*
X203466813Y-60565000D01*
X203527935Y-60467302D01*
X203563203Y-60413885D01*
X203585515Y-60386000D01*
X203609053Y-60364560D01*
X203639645Y-60343960D01*
X203606865Y-60336905D01*
X203580036Y-60326623D01*
X203558199Y-60313450D01*
X203540605Y-60297462D01*
X203526310Y-60278127D01*
X203516022Y-60256413D01*
X203509663Y-60231872D01*
X203507928Y-60209962D01*
X203611618Y-60209962D01*
X203614327Y-60231456D01*
X203621877Y-60248094D01*
X203633997Y-60261027D01*
X203650209Y-60269588D01*
X203674962Y-60273712D01*
X203741067Y-60275816D01*
X203815867Y-60275816D01*
X203815867Y-60146856D01*
X203736976Y-60146856D01*
X203663184Y-60148596D01*
X203640934Y-60155891D01*
X203625113Y-60168532D01*
X203617808Y-60179734D01*
X203613244Y-60193333D01*
X203611618Y-60209962D01*
X203507928Y-60209962D01*
X203507449Y-60203917D01*
X203509961Y-60174799D01*
X203517274Y-60148554D01*
X203529309Y-60124630D01*
X203545728Y-60103617D01*
X203565023Y-60087705D01*
X203587561Y-60076392D01*
X203612505Y-60069638D01*
X203650063Y-60064750D01*
X203704187Y-60062836D01*
X203916983Y-60062836D01*
X203916983Y-60565000D01*
G37*
G36*
X203230935Y-60057375D02*
G01*
X203266700Y-60064116D01*
X203298469Y-60074896D01*
X203320951Y-60086266D01*
X203342493Y-60101251D01*
X203363224Y-60120172D01*
X203389660Y-60152690D01*
X203409813Y-60189079D01*
X203422019Y-60224562D01*
X203429888Y-60267098D01*
X203432711Y-60317978D01*
X203429747Y-60366546D01*
X203421314Y-60408843D01*
X203407911Y-60445770D01*
X203389758Y-60478088D01*
X203366796Y-60506381D01*
X203339208Y-60530555D01*
X203308220Y-60549422D01*
X203273353Y-60563192D01*
X203233947Y-60571773D01*
X203189200Y-60574769D01*
X203145078Y-60571776D01*
X203106095Y-60563187D01*
X203071473Y-60549375D01*
X203040578Y-60530407D01*
X203012949Y-60506045D01*
X202990040Y-60477651D01*
X202971895Y-60445100D01*
X202958471Y-60407785D01*
X202950011Y-60364917D01*
X202947034Y-60315566D01*
X202947178Y-60313185D01*
X203051539Y-60313185D01*
X203054411Y-60357725D01*
X203062300Y-60393514D01*
X203074397Y-60422139D01*
X203090313Y-60444893D01*
X203111170Y-60464186D01*
X203134301Y-60477729D01*
X203160185Y-60485955D01*
X203189536Y-60488796D01*
X203218865Y-60485945D01*
X203244837Y-60477674D01*
X203268152Y-60464029D01*
X203289279Y-60444557D01*
X203305500Y-60421575D01*
X203317742Y-60393077D01*
X203325671Y-60357888D01*
X203328541Y-60314559D01*
X203325700Y-60270329D01*
X203317904Y-60234881D01*
X203305967Y-60206615D01*
X203290286Y-60184225D01*
X203269735Y-60165378D01*
X203246495Y-60152027D01*
X203220025Y-60143843D01*
X203189536Y-60140994D01*
X203158995Y-60143823D01*
X203132600Y-60151933D01*
X203109545Y-60165126D01*
X203089275Y-60183706D01*
X203073834Y-60205817D01*
X203062057Y-60233834D01*
X203054351Y-60269083D01*
X203051539Y-60313185D01*
X202947178Y-60313185D01*
X202950039Y-60265790D01*
X202958574Y-60222611D01*
X202972108Y-60185080D01*
X202990392Y-60152392D01*
X203013468Y-60123927D01*
X203041305Y-60099492D01*
X203072391Y-60080470D01*
X203107182Y-60066624D01*
X203146309Y-60058019D01*
X203190544Y-60055020D01*
X203230935Y-60057375D01*
G37*
G36*
X202865334Y-60565000D02*
G01*
X202865334Y-60068698D01*
X202764218Y-60068698D01*
X202764218Y-60480980D01*
X202512831Y-60480980D01*
X202512831Y-60565000D01*
X202865334Y-60565000D01*
G37*
G36*
X202437909Y-60565000D02*
G01*
X202437909Y-60068698D01*
X202336793Y-60068698D01*
X202336793Y-60480980D01*
X202085406Y-60480980D01*
X202085406Y-60565000D01*
X202437909Y-60565000D01*
G37*
G36*
X202013202Y-60565000D02*
G01*
X202013202Y-60062836D01*
X201641922Y-60062836D01*
X201641922Y-60146856D01*
X201912116Y-60146856D01*
X201912116Y-60258230D01*
X201660729Y-60258230D01*
X201660729Y-60342250D01*
X201912116Y-60342250D01*
X201912116Y-60480980D01*
X201632366Y-60480980D01*
X201632366Y-60565000D01*
X202013202Y-60565000D01*
G37*
G36*
X201546362Y-60565000D02*
G01*
X201445245Y-60565000D01*
X201445245Y-60355928D01*
X201424760Y-60355928D01*
X201392291Y-60357615D01*
X201373866Y-60361576D01*
X201358628Y-60369315D01*
X201343457Y-60382367D01*
X201326688Y-60403242D01*
X201290182Y-60455884D01*
X201217092Y-60565000D01*
X201096192Y-60565000D01*
X201157314Y-60467302D01*
X201192582Y-60413885D01*
X201214894Y-60386000D01*
X201238432Y-60364560D01*
X201269024Y-60343960D01*
X201236244Y-60336905D01*
X201209415Y-60326623D01*
X201187578Y-60313450D01*
X201169984Y-60297462D01*
X201155689Y-60278127D01*
X201145401Y-60256413D01*
X201139042Y-60231872D01*
X201137307Y-60209962D01*
X201240997Y-60209962D01*
X201243706Y-60231456D01*
X201251256Y-60248094D01*
X201263376Y-60261027D01*
X201279588Y-60269588D01*
X201304341Y-60273712D01*
X201370446Y-60275816D01*
X201445245Y-60275816D01*
X201445245Y-60146856D01*
X201366355Y-60146856D01*
X201292563Y-60148596D01*
X201270313Y-60155891D01*
X201254492Y-60168532D01*
X201247187Y-60179734D01*
X201242623Y-60193333D01*
X201240997Y-60209962D01*
X201137307Y-60209962D01*
X201136828Y-60203917D01*
X201139340Y-60174799D01*
X201146653Y-60148554D01*
X201158688Y-60124630D01*
X201175106Y-60103617D01*
X201194402Y-60087705D01*
X201216939Y-60076392D01*
X201241884Y-60069638D01*
X201279442Y-60064750D01*
X201333565Y-60062836D01*
X201546362Y-60062836D01*
X201546362Y-60565000D01*
G37*
M02*
