%TF.GenerationSoftware,KiCad,Pcbnew,9.0.4*%
%TF.CreationDate,2025-10-08T10:45:37-04:00*%
%TF.ProjectId,BrailleCellController,42726169-6c6c-4654-9365-6c6c436f6e74,rev?*%
%TF.SameCoordinates,Original*%
%TF.FileFunction,Paste,Top*%
%TF.FilePolarity,Positive*%
%FSLAX46Y46*%
G04 Gerber Fmt 4.6, Leading zero omitted, Abs format (unit mm)*
G04 Created by KiCad (PCBNEW 9.0.4) date 2025-10-08 10:45:37*
%MOMM*%
%LPD*%
G01*
G04 APERTURE LIST*
%ADD10C,0.000000*%
%ADD11R,0.300000X1.000000*%
%ADD12R,0.254000X0.812800*%
%ADD13R,0.812800X0.254000*%
%ADD14R,3.403600X3.403600*%
G04 APERTURE END LIST*
D10*
%TO.C,U1*%
G36*
X203400000Y-54900000D02*
G01*
X201898200Y-54900000D01*
X201898200Y-53398200D01*
X203400000Y-53398200D01*
X203400000Y-54900000D01*
G37*
G36*
X203400000Y-56601800D02*
G01*
X201898200Y-56601800D01*
X201898200Y-55100000D01*
X203400000Y-55100000D01*
X203400000Y-56601800D01*
G37*
G36*
X205101800Y-54900000D02*
G01*
X203600000Y-54900000D01*
X203600000Y-53398200D01*
X205101800Y-53398200D01*
X205101800Y-54900000D01*
G37*
G36*
X205101800Y-56601800D02*
G01*
X203600000Y-56601800D01*
X203600000Y-55100000D01*
X205101800Y-55100000D01*
X205101800Y-56601800D01*
G37*
%TD*%
D11*
%TO.C,J1*%
X201750000Y-61000000D03*
X202250000Y-61000000D03*
X202750000Y-61000000D03*
X203250000Y-61000000D03*
X203750000Y-61000000D03*
X204250000Y-61000000D03*
X204750000Y-61000000D03*
X205250000Y-61000000D03*
%TD*%
%TO.C,J2*%
X201750000Y-59000000D03*
X202250000Y-59000000D03*
X202750000Y-59000000D03*
X203250000Y-59000000D03*
X203750000Y-59000000D03*
X204250000Y-59000000D03*
X204750000Y-59000000D03*
X205250000Y-59000000D03*
%TD*%
D12*
%TO.C,U1*%
X201722000Y-57451100D03*
X202230000Y-57451100D03*
X202738000Y-57451100D03*
X203246000Y-57451100D03*
X203754000Y-57451100D03*
X204262000Y-57451100D03*
X204770000Y-57451100D03*
X205278000Y-57451100D03*
D13*
X205951100Y-56778000D03*
X205951100Y-56270000D03*
X205951100Y-55762000D03*
X205951100Y-55254000D03*
X205951100Y-54746000D03*
X205951100Y-54238000D03*
X205951100Y-53730000D03*
X205951100Y-53222000D03*
D12*
X205278000Y-52548900D03*
X204770000Y-52548900D03*
X204262000Y-52548900D03*
X203754000Y-52548900D03*
X203246000Y-52548900D03*
X202738000Y-52548900D03*
X202230000Y-52548900D03*
X201722000Y-52548900D03*
D13*
X201048900Y-53222000D03*
X201048900Y-53730000D03*
X201048900Y-54238000D03*
X201048900Y-54746000D03*
X201048900Y-55254000D03*
X201048900Y-55762000D03*
X201048900Y-56270000D03*
X201048900Y-56778000D03*
D14*
X203500000Y-55000000D03*
%TD*%
M02*
