%TF.GenerationSoftware,KiCad,Pcbnew,9.0.4*%
%TF.CreationDate,2025-10-08T10:45:37-04:00*%
%TF.ProjectId,BrailleCellController,42726169-6c6c-4654-9365-6c6c436f6e74,rev?*%
%TF.SameCoordinates,Original*%
%TF.FileFunction,Legend,Top*%
%TF.FilePolarity,Positive*%
%FSLAX46Y46*%
G04 Gerber Fmt 4.6, Leading zero omitted, Abs format (unit mm)*
G04 Created by KiCad (PCBNEW 9.0.4) date 2025-10-08 10:45:37*
%MOMM*%
%LPD*%
G01*
G04 APERTURE LIST*
%ADD10C,0.120000*%
%ADD11C,0.152400*%
%ADD12C,0.000000*%
G04 APERTURE END LIST*
D10*
%TO.C,J5*%
X200240000Y-51495000D02*
X200240000Y-50750000D01*
X200975000Y-51495000D02*
X200240000Y-51495000D01*
X201710000Y-50005000D02*
X206585000Y-50005000D01*
X201710000Y-50064435D02*
X201710000Y-50005000D01*
X201710000Y-51495000D02*
X201710000Y-51435565D01*
X201710000Y-51495000D02*
X206585000Y-51495000D01*
X206585000Y-50339970D02*
X206585000Y-50005000D01*
X206585000Y-51495000D02*
X206585000Y-51160030D01*
D11*
%TO.C,U1*%
X200896500Y-52396500D02*
X200896500Y-52762260D01*
X200896500Y-57237740D02*
X200896500Y-57603500D01*
X200896500Y-57603500D02*
X201262260Y-57603500D01*
X201262260Y-52396500D02*
X200896500Y-52396500D01*
X205737740Y-57603500D02*
X206103500Y-57603500D01*
X206103500Y-52396500D02*
X205737740Y-52396500D01*
X206103500Y-52762260D02*
X206103500Y-52396500D01*
X206103500Y-57603500D02*
X206103500Y-57237740D01*
D12*
G36*
X200388500Y-55952500D02*
G01*
X200134500Y-55952500D01*
X200134500Y-55571500D01*
X200388500Y-55571500D01*
X200388500Y-55952500D01*
G37*
G36*
X203944500Y-51888500D02*
G01*
X203563500Y-51888500D01*
X203563500Y-51634500D01*
X203944500Y-51634500D01*
X203944500Y-51888500D01*
G37*
G36*
X206865500Y-56460500D02*
G01*
X206611500Y-56460500D01*
X206611500Y-56079500D01*
X206865500Y-56079500D01*
X206865500Y-56460500D01*
G37*
%TD*%
M02*
