%TF.GenerationSoftware,KiCad,Pcbnew,9.0.4*%
%TF.CreationDate,2025-10-08T10:45:37-04:00*%
%TF.ProjectId,BrailleCellController,42726169-6c6c-4654-9365-6c6c436f6e74,rev?*%
%TF.SameCoordinates,Original*%
%TF.FileFunction,Copper,L1,Top*%
%TF.FilePolarity,Positive*%
%FSLAX46Y46*%
G04 Gerber Fmt 4.6, Leading zero omitted, Abs format (unit mm)*
G04 Created by KiCad (PCBNEW 9.0.4) date 2025-10-08 10:45:37*
%MOMM*%
%LPD*%
G01*
G04 APERTURE LIST*
%TA.AperFunction,SMDPad,CuDef*%
%ADD10R,0.300000X1.000000*%
%TD*%
%TA.AperFunction,ComponentPad*%
%ADD11R,0.850000X0.850000*%
%TD*%
%TA.AperFunction,ComponentPad*%
%ADD12C,0.850000*%
%TD*%
%TA.AperFunction,SMDPad,CuDef*%
%ADD13R,0.254000X0.812800*%
%TD*%
%TA.AperFunction,SMDPad,CuDef*%
%ADD14R,0.812800X0.254000*%
%TD*%
%TA.AperFunction,SMDPad,CuDef*%
%ADD15R,3.403600X3.403600*%
%TD*%
%TA.AperFunction,ViaPad*%
%ADD16C,0.400000*%
%TD*%
%TA.AperFunction,ViaPad*%
%ADD17C,0.557200*%
%TD*%
%TA.AperFunction,ViaPad*%
%ADD18C,0.350000*%
%TD*%
%TA.AperFunction,Conductor*%
%ADD19C,0.127000*%
%TD*%
%TA.AperFunction,Conductor*%
%ADD20C,0.152400*%
%TD*%
%TA.AperFunction,Conductor*%
%ADD21C,0.203200*%
%TD*%
G04 APERTURE END LIST*
D10*
%TO.P,J1,1,Pin_1*%
%TO.N,Net-(J1-Pin_1)*%
X201750000Y-61000000D03*
%TO.P,J1,2,Pin_2*%
%TO.N,Net-(J1-Pin_2)*%
X202250000Y-61000000D03*
%TO.P,J1,3,Pin_3*%
%TO.N,Net-(J1-Pin_3)*%
X202750000Y-61000000D03*
%TO.P,J1,4,Pin_4*%
%TO.N,Net-(J1-Pin_4)*%
X203250000Y-61000000D03*
%TO.P,J1,5,Pin_5*%
%TO.N,Net-(J1-Pin_5)*%
X203750000Y-61000000D03*
%TO.P,J1,6,Pin_6*%
%TO.N,Net-(J1-Pin_6)*%
X204250000Y-61000000D03*
%TO.P,J1,7,Pin_7*%
%TO.N,Net-(J1-Pin_7)*%
X204750000Y-61000000D03*
%TO.P,J1,8,Pin_8*%
%TO.N,Net-(J1-Pin_8)*%
X205250000Y-61000000D03*
%TD*%
%TO.P,J2,1,Pin_1*%
%TO.N,Net-(J2-Pin_1)*%
X201750000Y-59000000D03*
%TO.P,J2,2,Pin_2*%
%TO.N,Net-(J2-Pin_2)*%
X202250000Y-59000000D03*
%TO.P,J2,3,Pin_3*%
%TO.N,Net-(J2-Pin_3)*%
X202750000Y-59000000D03*
%TO.P,J2,4,Pin_4*%
%TO.N,Net-(J2-Pin_4)*%
X203250000Y-59000000D03*
%TO.P,J2,5,Pin_5*%
%TO.N,Net-(J2-Pin_5)*%
X203750000Y-59000000D03*
%TO.P,J2,6,Pin_6*%
%TO.N,Net-(J2-Pin_6)*%
X204250000Y-59000000D03*
%TO.P,J2,7,Pin_7*%
%TO.N,Net-(J2-Pin_7)*%
X204750000Y-59000000D03*
%TO.P,J2,8,Pin_8*%
%TO.N,Net-(J2-Pin_8)*%
X205250000Y-59000000D03*
%TD*%
D11*
%TO.P,J5,1,Pin_1*%
%TO.N,GND*%
X200975000Y-50750000D03*
D12*
%TO.P,J5,2,Pin_2*%
%TO.N,/DOUT*%
X201975000Y-50750000D03*
%TO.P,J5,3,Pin_3*%
%TO.N,+3.3VP*%
X202975000Y-50750000D03*
%TO.P,J5,4,Pin_4*%
%TO.N,/CLK*%
X203975000Y-50750000D03*
%TO.P,J5,5,Pin_5*%
%TO.N,/DIN*%
X204975000Y-50750000D03*
%TO.P,J5,6,Pin_6*%
%TO.N,+215V*%
X205975000Y-50750000D03*
%TD*%
D13*
%TO.P,U1,1,HVOUT12*%
%TO.N,Net-(J2-Pin_1)*%
X201722000Y-57451100D03*
%TO.P,U1,2,HVOUT11*%
%TO.N,Net-(J2-Pin_2)*%
X202230000Y-57451100D03*
%TO.P,U1,3,HVOUT10*%
%TO.N,Net-(J2-Pin_3)*%
X202738000Y-57451100D03*
%TO.P,U1,4,HVOUT9*%
%TO.N,Net-(J2-Pin_4)*%
X203246000Y-57451100D03*
%TO.P,U1,5,HVOUT8*%
%TO.N,Net-(J2-Pin_5)*%
X203754000Y-57451100D03*
%TO.P,U1,6,HVOUT7*%
%TO.N,Net-(J2-Pin_6)*%
X204262000Y-57451100D03*
%TO.P,U1,7,HVOUT6*%
%TO.N,Net-(J2-Pin_7)*%
X204770000Y-57451100D03*
%TO.P,U1,8,HVOUT5*%
%TO.N,Net-(J2-Pin_8)*%
X205278000Y-57451100D03*
D14*
%TO.P,U1,9,HVOUT4*%
%TO.N,Net-(J1-Pin_5)*%
X205951100Y-56778000D03*
%TO.P,U1,10,HVOUT3*%
%TO.N,Net-(J1-Pin_6)*%
X205951100Y-56270000D03*
%TO.P,U1,11,HVOUT2*%
%TO.N,Net-(J1-Pin_8)*%
X205951100Y-55762000D03*
%TO.P,U1,12,HVOUT1*%
%TO.N,Net-(J1-Pin_7)*%
X205951100Y-55254000D03*
%TO.P,U1,13,NC*%
%TO.N,unconnected-(U1-NC-Pad13)*%
X205951100Y-54746000D03*
%TO.P,U1,14,VPP*%
%TO.N,+215V*%
X205951100Y-54238000D03*
%TO.P,U1,15,GND*%
%TO.N,GND*%
X205951100Y-53730000D03*
%TO.P,U1,16,NC*%
%TO.N,unconnected-(U1-NC-Pad16)*%
X205951100Y-53222000D03*
D13*
%TO.P,U1,17,DIN*%
%TO.N,/DIN*%
X205278000Y-52548900D03*
%TO.P,U1,18,NC*%
%TO.N,unconnected-(U1-NC-Pad18)*%
X204770000Y-52548900D03*
%TO.P,U1,19,CLK*%
%TO.N,/CLK*%
X204262000Y-52548900D03*
%TO.P,U1,20,VDD*%
%TO.N,+3.3VP*%
X203754000Y-52548900D03*
%TO.P,U1,21,\u002APOL*%
%TO.N,/LE*%
X203246000Y-52548900D03*
%TO.P,U1,22,\u002ALE*%
X202738000Y-52548900D03*
%TO.P,U1,23,NC*%
%TO.N,unconnected-(U1-NC-Pad23)*%
X202230000Y-52548900D03*
%TO.P,U1,24,DOUT*%
%TO.N,/DOUT*%
X201722000Y-52548900D03*
D14*
%TO.P,U1,25,NC*%
%TO.N,unconnected-(U1-NC-Pad25)*%
X201048900Y-53222000D03*
%TO.P,U1,26,VBIAS*%
%TO.N,+3.3VP*%
X201048900Y-53730000D03*
%TO.P,U1,27,HVGND*%
%TO.N,GND*%
X201048900Y-54238000D03*
%TO.P,U1,28,BP*%
%TO.N,unconnected-(U1-BP-Pad28)*%
X201048900Y-54746000D03*
%TO.P,U1,29,HVOUT16*%
%TO.N,Net-(J1-Pin_2)*%
X201048900Y-55254000D03*
%TO.P,U1,30,HVOUT15*%
%TO.N,Net-(J1-Pin_1)*%
X201048900Y-55762000D03*
%TO.P,U1,31,HVOUT14*%
%TO.N,Net-(J1-Pin_3)*%
X201048900Y-56270000D03*
%TO.P,U1,32,HVOUT13*%
%TO.N,Net-(J1-Pin_4)*%
X201048900Y-56778000D03*
D15*
%TO.P,U1,33,EPAD*%
%TO.N,GND*%
X203500000Y-55000000D03*
%TD*%
D16*
%TO.N,+3.3VP*%
X203750000Y-51850000D03*
X201050000Y-52075000D03*
D17*
%TO.N,GND*%
X202325000Y-55350000D03*
X203800000Y-53750000D03*
X204625000Y-55850000D03*
X203500000Y-55000000D03*
D16*
%TO.N,Net-(J1-Pin_1)*%
X200387955Y-55762000D03*
D18*
X201500000Y-61000000D03*
D16*
%TO.N,Net-(J1-Pin_2)*%
X200389322Y-55256853D03*
D18*
X202250000Y-61000000D03*
%TO.N,Net-(J1-Pin_7)*%
X204750000Y-61000000D03*
D16*
X206619733Y-55254000D03*
D18*
%TO.N,Net-(J1-Pin_8)*%
X205450000Y-61025000D03*
D16*
X206608774Y-55762000D03*
%TD*%
D19*
%TO.N,/LE*%
X203246000Y-52548900D02*
X202738000Y-52548900D01*
D20*
%TO.N,/DIN*%
X204975000Y-50750000D02*
X205278000Y-51053000D01*
X205278000Y-51053000D02*
X205278000Y-52548900D01*
%TO.N,/DOUT*%
X201722000Y-52548900D02*
X201722000Y-51003000D01*
X201722000Y-51003000D02*
X201975000Y-50750000D01*
D19*
%TO.N,+3.3VP*%
X203750000Y-51525000D02*
X202975000Y-50750000D01*
X201048900Y-53730000D02*
X200451000Y-53730000D01*
X200451000Y-52674000D02*
X201050000Y-52075000D01*
X203750000Y-51850000D02*
X203750000Y-52544900D01*
X203750000Y-51850000D02*
X203750000Y-51525000D01*
X203750000Y-52544900D02*
X203754000Y-52548900D01*
X200451000Y-53730000D02*
X200451000Y-52674000D01*
D21*
%TO.N,+215V*%
X206622800Y-51397800D02*
X206622800Y-54177200D01*
X206562000Y-54238000D02*
X205951100Y-54238000D01*
X206622800Y-54177200D02*
X206562000Y-54238000D01*
X205975000Y-50750000D02*
X206622800Y-51397800D01*
D20*
%TO.N,/CLK*%
X204262000Y-51037000D02*
X204262000Y-52548900D01*
X203975000Y-50750000D02*
X204262000Y-51037000D01*
D21*
%TO.N,GND*%
X204770000Y-53730000D02*
X205951100Y-53730000D01*
X203500000Y-55000000D02*
X204770000Y-53730000D01*
X202738000Y-54238000D02*
X201048900Y-54238000D01*
X203500000Y-55000000D02*
X202738000Y-54238000D01*
D20*
%TO.N,Net-(J1-Pin_1)*%
X201048900Y-55762000D02*
X200387955Y-55762000D01*
X200387955Y-55762000D02*
X200377200Y-55751245D01*
%TO.N,Net-(J1-Pin_2)*%
X200392175Y-55254000D02*
X200389322Y-55256853D01*
X201048900Y-55254000D02*
X200392175Y-55254000D01*
%TO.N,Net-(J1-Pin_3)*%
X200377200Y-56372800D02*
X200500000Y-56250000D01*
X200595100Y-56250000D02*
X200615100Y-56270000D01*
X202750000Y-60450000D02*
X202284600Y-59984600D01*
X200615100Y-56270000D02*
X201048900Y-56270000D01*
X200500000Y-57323273D02*
X200500000Y-57250000D01*
X200500000Y-56250000D02*
X200595100Y-56250000D01*
X200768500Y-57866145D02*
X200768500Y-57591773D01*
X200377200Y-57127200D02*
X200377200Y-56372800D01*
X201115400Y-58213046D02*
X200768500Y-57866145D01*
X200500000Y-57250000D02*
X200377200Y-57127200D01*
X201115400Y-59761945D02*
X201115400Y-58213046D01*
X202750000Y-61000000D02*
X202750000Y-60450000D01*
X202284600Y-59984600D02*
X201338054Y-59984600D01*
X200768500Y-57591773D02*
X200500000Y-57323273D01*
X201338054Y-59984600D02*
X201115400Y-59761945D01*
%TO.N,Net-(J1-Pin_6)*%
X206000000Y-59646545D02*
X205646545Y-60000000D01*
X205646545Y-60000000D02*
X204597600Y-60000000D01*
X206231500Y-57866146D02*
X206000000Y-58097646D01*
X204250000Y-60347600D02*
X204250000Y-61000000D01*
X206500000Y-57245600D02*
X206500000Y-57250000D01*
X205951100Y-56270000D02*
X206622800Y-56270000D01*
X206000000Y-59646545D02*
X206000000Y-58097646D01*
X206622800Y-56270000D02*
X206622800Y-57122800D01*
X204597600Y-60000000D02*
X204250000Y-60347600D01*
X206500000Y-57250000D02*
X206231500Y-57518500D01*
X206231500Y-57518500D02*
X206231500Y-57866146D01*
X206622800Y-57122800D02*
X206500000Y-57245600D01*
%TO.N,Net-(J2-Pin_6)*%
X204262000Y-58988000D02*
X204250000Y-59000000D01*
X204262000Y-57451100D02*
X204262000Y-58988000D01*
%TO.N,Net-(J1-Pin_5)*%
X204393400Y-59704200D02*
X203750000Y-60347600D01*
X205951100Y-56778000D02*
X205951100Y-57750000D01*
X205719600Y-57981500D02*
X205719600Y-59530399D01*
X205951100Y-57750000D02*
X205719600Y-57981500D01*
X205545799Y-59704200D02*
X204393400Y-59704200D01*
X203750000Y-60347600D02*
X203750000Y-61000000D01*
X205719600Y-59530399D02*
X205545799Y-59704200D01*
%TO.N,Net-(J2-Pin_3)*%
X202738000Y-57451100D02*
X202738000Y-58988000D01*
X202738000Y-58988000D02*
X202750000Y-59000000D01*
%TO.N,Net-(J2-Pin_5)*%
X203754000Y-57451100D02*
X203754000Y-58004000D01*
X203754000Y-58004000D02*
X203750000Y-58008000D01*
X203750000Y-58008000D02*
X203750000Y-59000000D01*
X203754000Y-58996000D02*
X203750000Y-59000000D01*
%TO.N,Net-(J1-Pin_4)*%
X201395800Y-59645800D02*
X201395800Y-58096900D01*
X201395800Y-58096900D02*
X201048900Y-57750000D01*
X201048900Y-57750000D02*
X201048900Y-56778000D01*
X201454200Y-59704200D02*
X201395800Y-59645800D01*
X203250000Y-60500000D02*
X202454200Y-59704200D01*
X202454200Y-59704200D02*
X201454200Y-59704200D01*
X203250000Y-61000000D02*
X203250000Y-60500000D01*
%TO.N,Net-(J2-Pin_8)*%
X205278000Y-58972000D02*
X205250000Y-59000000D01*
X205278000Y-57451100D02*
X205278000Y-58972000D01*
%TO.N,Net-(J2-Pin_7)*%
X204770000Y-58980000D02*
X204750000Y-59000000D01*
X204770000Y-57451100D02*
X204770000Y-58980000D01*
%TO.N,Net-(J2-Pin_4)*%
X203246000Y-58996000D02*
X203250000Y-59000000D01*
X203246000Y-57451100D02*
X203246000Y-58996000D01*
X203246000Y-57451100D02*
X203246000Y-57996000D01*
X203246000Y-57996000D02*
X203250000Y-58000000D01*
%TO.N,Net-(J1-Pin_7)*%
X206619733Y-55254000D02*
X206622800Y-55250933D01*
X205951100Y-55254000D02*
X206619733Y-55254000D01*
%TO.N,Net-(J2-Pin_1)*%
X201722000Y-58972000D02*
X201750000Y-59000000D01*
X201750000Y-59000000D02*
X201750000Y-57479100D01*
X201750000Y-57479100D02*
X201722000Y-57451100D01*
%TO.N,Net-(J1-Pin_8)*%
X205951100Y-55762000D02*
X206608774Y-55762000D01*
X206608774Y-55762000D02*
X206622800Y-55747974D01*
%TO.N,Net-(J2-Pin_2)*%
X202230000Y-57451100D02*
X202230000Y-58980000D01*
X202230000Y-58980000D02*
X202250000Y-59000000D01*
%TD*%
%TA.AperFunction,Conductor*%
%TO.N,GND*%
G36*
X200280677Y-50119878D02*
G01*
X200336610Y-50161750D01*
X200361027Y-50227214D01*
X200358961Y-50260250D01*
X200350000Y-50305303D01*
X200350000Y-50550000D01*
X200821446Y-50550000D01*
X200763060Y-50608386D01*
X200725000Y-50700272D01*
X200725000Y-50799728D01*
X200763060Y-50891614D01*
X200833386Y-50961940D01*
X200925272Y-51000000D01*
X201024728Y-51000000D01*
X201116614Y-50961940D01*
X201175000Y-50903554D01*
X201175000Y-51375000D01*
X201394300Y-51375000D01*
X201461339Y-51394685D01*
X201507094Y-51447489D01*
X201518300Y-51499000D01*
X201518300Y-51610407D01*
X201498615Y-51677446D01*
X201445811Y-51723201D01*
X201376653Y-51733145D01*
X201332299Y-51717794D01*
X201262415Y-51677446D01*
X201223886Y-51655201D01*
X201109309Y-51624500D01*
X200990691Y-51624500D01*
X200876114Y-51655201D01*
X200876112Y-51655201D01*
X200876112Y-51655202D01*
X200773387Y-51714511D01*
X200773384Y-51714513D01*
X200689513Y-51798384D01*
X200689511Y-51798387D01*
X200639901Y-51884314D01*
X200630201Y-51901114D01*
X200599500Y-52015691D01*
X200599500Y-52015693D01*
X200599500Y-52134310D01*
X200606557Y-52160647D01*
X200604894Y-52230497D01*
X200574463Y-52280420D01*
X200342807Y-52512078D01*
X200289079Y-52565805D01*
X200289078Y-52565806D01*
X200260000Y-52636006D01*
X200260000Y-52636008D01*
X200260000Y-53767992D01*
X200289078Y-53838193D01*
X200342807Y-53891922D01*
X200342809Y-53891923D01*
X200352962Y-53898707D01*
X200352025Y-53900109D01*
X200395272Y-53934958D01*
X200398476Y-53939812D01*
X200405929Y-53951699D01*
X200406534Y-53954740D01*
X200427632Y-53986317D01*
X200428602Y-53987863D01*
X200437600Y-54019828D01*
X200447523Y-54051521D01*
X200447281Y-54054219D01*
X200447535Y-54055119D01*
X200447063Y-54056661D01*
X200445162Y-54077916D01*
X200442500Y-54091302D01*
X200442500Y-54111000D01*
X200924900Y-54111000D01*
X200933585Y-54113550D01*
X200942547Y-54112262D01*
X200966587Y-54123240D01*
X200991939Y-54130685D01*
X200997866Y-54137525D01*
X201006103Y-54141287D01*
X201020392Y-54163521D01*
X201037694Y-54183489D01*
X201039981Y-54194003D01*
X201043877Y-54200065D01*
X201048900Y-54235000D01*
X201048900Y-54241000D01*
X201029215Y-54308039D01*
X200976411Y-54353794D01*
X200924900Y-54365000D01*
X200442500Y-54365000D01*
X200442500Y-54384702D01*
X200445161Y-54398081D01*
X200438931Y-54467673D01*
X200426647Y-54491155D01*
X200406534Y-54521257D01*
X200406533Y-54521259D01*
X200392000Y-54594323D01*
X200392000Y-54694595D01*
X200372315Y-54761634D01*
X200319511Y-54807389D01*
X200300095Y-54814369D01*
X200215436Y-54837054D01*
X200215435Y-54837054D01*
X200215433Y-54837055D01*
X200186499Y-54853760D01*
X200118598Y-54870231D01*
X200052572Y-54847379D01*
X200009382Y-54792457D01*
X200000500Y-54746372D01*
X200000500Y-51194702D01*
X200350000Y-51194702D01*
X200361602Y-51253033D01*
X200361603Y-51253034D01*
X200405808Y-51319191D01*
X200471965Y-51363396D01*
X200471966Y-51363397D01*
X200530297Y-51374999D01*
X200530301Y-51375000D01*
X200775000Y-51375000D01*
X200775000Y-50950000D01*
X200350000Y-50950000D01*
X200350000Y-51194702D01*
X200000500Y-51194702D01*
X200000500Y-50506960D01*
X200001280Y-50493077D01*
X200008383Y-50430038D01*
X200011016Y-50406670D01*
X200014455Y-50388487D01*
X200017528Y-50377020D01*
X200020252Y-50368193D01*
X200045355Y-50296452D01*
X200057393Y-50271453D01*
X200102046Y-50200389D01*
X200119350Y-50178691D01*
X200149664Y-50148377D01*
X200210985Y-50114894D01*
X200280677Y-50119878D01*
G37*
%TD.AperFunction*%
%TD*%
M02*
