%TF.GenerationSoftware,KiCad,Pcbnew,9.0.5*%
%TF.CreationDate,2026-04-16T21:35:19-04:00*%
%TF.ProjectId,lightboard,6c696768-7462-46f6-9172-642e6b696361,rev?*%
%TF.SameCoordinates,Original*%
%TF.FileFunction,Legend,Bot*%
%TF.FilePolarity,Positive*%
%FSLAX46Y46*%
G04 Gerber Fmt 4.6, Leading zero omitted, Abs format (unit mm)*
G04 Created by KiCad (PCBNEW 9.0.5) date 2026-04-16 21:35:19*
%MOMM*%
%LPD*%
G01*
G04 APERTURE LIST*
%ADD10C,0.150000*%
G04 APERTURE END LIST*
D10*
X152119919Y-103865183D02*
X151643728Y-103531850D01*
X152119919Y-103293755D02*
X151119919Y-103293755D01*
X151119919Y-103293755D02*
X151119919Y-103674707D01*
X151119919Y-103674707D02*
X151167538Y-103769945D01*
X151167538Y-103769945D02*
X151215157Y-103817564D01*
X151215157Y-103817564D02*
X151310395Y-103865183D01*
X151310395Y-103865183D02*
X151453252Y-103865183D01*
X151453252Y-103865183D02*
X151548490Y-103817564D01*
X151548490Y-103817564D02*
X151596109Y-103769945D01*
X151596109Y-103769945D02*
X151643728Y-103674707D01*
X151643728Y-103674707D02*
X151643728Y-103293755D01*
X151453252Y-104722326D02*
X152119919Y-104722326D01*
X151072300Y-104484231D02*
X151786585Y-104246136D01*
X151786585Y-104246136D02*
X151786585Y-104865183D01*
X152119919Y-110865183D02*
X151643728Y-110531850D01*
X152119919Y-110293755D02*
X151119919Y-110293755D01*
X151119919Y-110293755D02*
X151119919Y-110674707D01*
X151119919Y-110674707D02*
X151167538Y-110769945D01*
X151167538Y-110769945D02*
X151215157Y-110817564D01*
X151215157Y-110817564D02*
X151310395Y-110865183D01*
X151310395Y-110865183D02*
X151453252Y-110865183D01*
X151453252Y-110865183D02*
X151548490Y-110817564D01*
X151548490Y-110817564D02*
X151596109Y-110769945D01*
X151596109Y-110769945D02*
X151643728Y-110674707D01*
X151643728Y-110674707D02*
X151643728Y-110293755D01*
X151119919Y-111722326D02*
X151119919Y-111531850D01*
X151119919Y-111531850D02*
X151167538Y-111436612D01*
X151167538Y-111436612D02*
X151215157Y-111388993D01*
X151215157Y-111388993D02*
X151358014Y-111293755D01*
X151358014Y-111293755D02*
X151548490Y-111246136D01*
X151548490Y-111246136D02*
X151929442Y-111246136D01*
X151929442Y-111246136D02*
X152024680Y-111293755D01*
X152024680Y-111293755D02*
X152072300Y-111341374D01*
X152072300Y-111341374D02*
X152119919Y-111436612D01*
X152119919Y-111436612D02*
X152119919Y-111627088D01*
X152119919Y-111627088D02*
X152072300Y-111722326D01*
X152072300Y-111722326D02*
X152024680Y-111769945D01*
X152024680Y-111769945D02*
X151929442Y-111817564D01*
X151929442Y-111817564D02*
X151691347Y-111817564D01*
X151691347Y-111817564D02*
X151596109Y-111769945D01*
X151596109Y-111769945D02*
X151548490Y-111722326D01*
X151548490Y-111722326D02*
X151500871Y-111627088D01*
X151500871Y-111627088D02*
X151500871Y-111436612D01*
X151500871Y-111436612D02*
X151548490Y-111341374D01*
X151548490Y-111341374D02*
X151596109Y-111293755D01*
X151596109Y-111293755D02*
X151691347Y-111246136D01*
X152403194Y-100986669D02*
X152403194Y-99986669D01*
X152403194Y-99986669D02*
X152165099Y-99986669D01*
X152165099Y-99986669D02*
X152022242Y-100034288D01*
X152022242Y-100034288D02*
X151927004Y-100129526D01*
X151927004Y-100129526D02*
X151879385Y-100224764D01*
X151879385Y-100224764D02*
X151831766Y-100415240D01*
X151831766Y-100415240D02*
X151831766Y-100558097D01*
X151831766Y-100558097D02*
X151879385Y-100748573D01*
X151879385Y-100748573D02*
X151927004Y-100843811D01*
X151927004Y-100843811D02*
X152022242Y-100939050D01*
X152022242Y-100939050D02*
X152165099Y-100986669D01*
X152165099Y-100986669D02*
X152403194Y-100986669D01*
X150879385Y-100986669D02*
X151450813Y-100986669D01*
X151165099Y-100986669D02*
X151165099Y-99986669D01*
X151165099Y-99986669D02*
X151260337Y-100129526D01*
X151260337Y-100129526D02*
X151355575Y-100224764D01*
X151355575Y-100224764D02*
X151450813Y-100272383D01*
X152403194Y-107986669D02*
X152403194Y-106986669D01*
X152403194Y-106986669D02*
X152165099Y-106986669D01*
X152165099Y-106986669D02*
X152022242Y-107034288D01*
X152022242Y-107034288D02*
X151927004Y-107129526D01*
X151927004Y-107129526D02*
X151879385Y-107224764D01*
X151879385Y-107224764D02*
X151831766Y-107415240D01*
X151831766Y-107415240D02*
X151831766Y-107558097D01*
X151831766Y-107558097D02*
X151879385Y-107748573D01*
X151879385Y-107748573D02*
X151927004Y-107843811D01*
X151927004Y-107843811D02*
X152022242Y-107939050D01*
X152022242Y-107939050D02*
X152165099Y-107986669D01*
X152165099Y-107986669D02*
X152403194Y-107986669D01*
X150974623Y-107320002D02*
X150974623Y-107986669D01*
X151212718Y-106939050D02*
X151450813Y-107653335D01*
X151450813Y-107653335D02*
X150831766Y-107653335D01*
X152403194Y-114986669D02*
X152403194Y-113986669D01*
X152403194Y-113986669D02*
X152165099Y-113986669D01*
X152165099Y-113986669D02*
X152022242Y-114034288D01*
X152022242Y-114034288D02*
X151927004Y-114129526D01*
X151927004Y-114129526D02*
X151879385Y-114224764D01*
X151879385Y-114224764D02*
X151831766Y-114415240D01*
X151831766Y-114415240D02*
X151831766Y-114558097D01*
X151831766Y-114558097D02*
X151879385Y-114748573D01*
X151879385Y-114748573D02*
X151927004Y-114843811D01*
X151927004Y-114843811D02*
X152022242Y-114939050D01*
X152022242Y-114939050D02*
X152165099Y-114986669D01*
X152165099Y-114986669D02*
X152403194Y-114986669D01*
X150974623Y-113986669D02*
X151165099Y-113986669D01*
X151165099Y-113986669D02*
X151260337Y-114034288D01*
X151260337Y-114034288D02*
X151307956Y-114081907D01*
X151307956Y-114081907D02*
X151403194Y-114224764D01*
X151403194Y-114224764D02*
X151450813Y-114415240D01*
X151450813Y-114415240D02*
X151450813Y-114796192D01*
X151450813Y-114796192D02*
X151403194Y-114891430D01*
X151403194Y-114891430D02*
X151355575Y-114939050D01*
X151355575Y-114939050D02*
X151260337Y-114986669D01*
X151260337Y-114986669D02*
X151069861Y-114986669D01*
X151069861Y-114986669D02*
X150974623Y-114939050D01*
X150974623Y-114939050D02*
X150927004Y-114891430D01*
X150927004Y-114891430D02*
X150879385Y-114796192D01*
X150879385Y-114796192D02*
X150879385Y-114558097D01*
X150879385Y-114558097D02*
X150927004Y-114462859D01*
X150927004Y-114462859D02*
X150974623Y-114415240D01*
X150974623Y-114415240D02*
X151069861Y-114367621D01*
X151069861Y-114367621D02*
X151260337Y-114367621D01*
X151260337Y-114367621D02*
X151355575Y-114415240D01*
X151355575Y-114415240D02*
X151403194Y-114462859D01*
X151403194Y-114462859D02*
X151450813Y-114558097D01*
X152369919Y-96865183D02*
X151893728Y-96531850D01*
X152369919Y-96293755D02*
X151369919Y-96293755D01*
X151369919Y-96293755D02*
X151369919Y-96674707D01*
X151369919Y-96674707D02*
X151417538Y-96769945D01*
X151417538Y-96769945D02*
X151465157Y-96817564D01*
X151465157Y-96817564D02*
X151560395Y-96865183D01*
X151560395Y-96865183D02*
X151703252Y-96865183D01*
X151703252Y-96865183D02*
X151798490Y-96817564D01*
X151798490Y-96817564D02*
X151846109Y-96769945D01*
X151846109Y-96769945D02*
X151893728Y-96674707D01*
X151893728Y-96674707D02*
X151893728Y-96293755D01*
X152369919Y-97817564D02*
X152369919Y-97246136D01*
X152369919Y-97531850D02*
X151369919Y-97531850D01*
X151369919Y-97531850D02*
X151512776Y-97436612D01*
X151512776Y-97436612D02*
X151608014Y-97341374D01*
X151608014Y-97341374D02*
X151655633Y-97246136D01*
X146119919Y-110865183D02*
X145643728Y-110531850D01*
X146119919Y-110293755D02*
X145119919Y-110293755D01*
X145119919Y-110293755D02*
X145119919Y-110674707D01*
X145119919Y-110674707D02*
X145167538Y-110769945D01*
X145167538Y-110769945D02*
X145215157Y-110817564D01*
X145215157Y-110817564D02*
X145310395Y-110865183D01*
X145310395Y-110865183D02*
X145453252Y-110865183D01*
X145453252Y-110865183D02*
X145548490Y-110817564D01*
X145548490Y-110817564D02*
X145596109Y-110769945D01*
X145596109Y-110769945D02*
X145643728Y-110674707D01*
X145643728Y-110674707D02*
X145643728Y-110293755D01*
X145119919Y-111769945D02*
X145119919Y-111293755D01*
X145119919Y-111293755D02*
X145596109Y-111246136D01*
X145596109Y-111246136D02*
X145548490Y-111293755D01*
X145548490Y-111293755D02*
X145500871Y-111388993D01*
X145500871Y-111388993D02*
X145500871Y-111627088D01*
X145500871Y-111627088D02*
X145548490Y-111722326D01*
X145548490Y-111722326D02*
X145596109Y-111769945D01*
X145596109Y-111769945D02*
X145691347Y-111817564D01*
X145691347Y-111817564D02*
X145929442Y-111817564D01*
X145929442Y-111817564D02*
X146024680Y-111769945D01*
X146024680Y-111769945D02*
X146072300Y-111722326D01*
X146072300Y-111722326D02*
X146119919Y-111627088D01*
X146119919Y-111627088D02*
X146119919Y-111388993D01*
X146119919Y-111388993D02*
X146072300Y-111293755D01*
X146072300Y-111293755D02*
X146024680Y-111246136D01*
X146403194Y-114986669D02*
X146403194Y-113986669D01*
X146403194Y-113986669D02*
X146165099Y-113986669D01*
X146165099Y-113986669D02*
X146022242Y-114034288D01*
X146022242Y-114034288D02*
X145927004Y-114129526D01*
X145927004Y-114129526D02*
X145879385Y-114224764D01*
X145879385Y-114224764D02*
X145831766Y-114415240D01*
X145831766Y-114415240D02*
X145831766Y-114558097D01*
X145831766Y-114558097D02*
X145879385Y-114748573D01*
X145879385Y-114748573D02*
X145927004Y-114843811D01*
X145927004Y-114843811D02*
X146022242Y-114939050D01*
X146022242Y-114939050D02*
X146165099Y-114986669D01*
X146165099Y-114986669D02*
X146403194Y-114986669D01*
X144927004Y-113986669D02*
X145403194Y-113986669D01*
X145403194Y-113986669D02*
X145450813Y-114462859D01*
X145450813Y-114462859D02*
X145403194Y-114415240D01*
X145403194Y-114415240D02*
X145307956Y-114367621D01*
X145307956Y-114367621D02*
X145069861Y-114367621D01*
X145069861Y-114367621D02*
X144974623Y-114415240D01*
X144974623Y-114415240D02*
X144927004Y-114462859D01*
X144927004Y-114462859D02*
X144879385Y-114558097D01*
X144879385Y-114558097D02*
X144879385Y-114796192D01*
X144879385Y-114796192D02*
X144927004Y-114891430D01*
X144927004Y-114891430D02*
X144974623Y-114939050D01*
X144974623Y-114939050D02*
X145069861Y-114986669D01*
X145069861Y-114986669D02*
X145307956Y-114986669D01*
X145307956Y-114986669D02*
X145403194Y-114939050D01*
X145403194Y-114939050D02*
X145450813Y-114891430D01*
X146119919Y-103865183D02*
X145643728Y-103531850D01*
X146119919Y-103293755D02*
X145119919Y-103293755D01*
X145119919Y-103293755D02*
X145119919Y-103674707D01*
X145119919Y-103674707D02*
X145167538Y-103769945D01*
X145167538Y-103769945D02*
X145215157Y-103817564D01*
X145215157Y-103817564D02*
X145310395Y-103865183D01*
X145310395Y-103865183D02*
X145453252Y-103865183D01*
X145453252Y-103865183D02*
X145548490Y-103817564D01*
X145548490Y-103817564D02*
X145596109Y-103769945D01*
X145596109Y-103769945D02*
X145643728Y-103674707D01*
X145643728Y-103674707D02*
X145643728Y-103293755D01*
X145119919Y-104198517D02*
X145119919Y-104817564D01*
X145119919Y-104817564D02*
X145500871Y-104484231D01*
X145500871Y-104484231D02*
X145500871Y-104627088D01*
X145500871Y-104627088D02*
X145548490Y-104722326D01*
X145548490Y-104722326D02*
X145596109Y-104769945D01*
X145596109Y-104769945D02*
X145691347Y-104817564D01*
X145691347Y-104817564D02*
X145929442Y-104817564D01*
X145929442Y-104817564D02*
X146024680Y-104769945D01*
X146024680Y-104769945D02*
X146072300Y-104722326D01*
X146072300Y-104722326D02*
X146119919Y-104627088D01*
X146119919Y-104627088D02*
X146119919Y-104341374D01*
X146119919Y-104341374D02*
X146072300Y-104246136D01*
X146072300Y-104246136D02*
X146024680Y-104198517D01*
X146119919Y-96865183D02*
X145643728Y-96531850D01*
X146119919Y-96293755D02*
X145119919Y-96293755D01*
X145119919Y-96293755D02*
X145119919Y-96674707D01*
X145119919Y-96674707D02*
X145167538Y-96769945D01*
X145167538Y-96769945D02*
X145215157Y-96817564D01*
X145215157Y-96817564D02*
X145310395Y-96865183D01*
X145310395Y-96865183D02*
X145453252Y-96865183D01*
X145453252Y-96865183D02*
X145548490Y-96817564D01*
X145548490Y-96817564D02*
X145596109Y-96769945D01*
X145596109Y-96769945D02*
X145643728Y-96674707D01*
X145643728Y-96674707D02*
X145643728Y-96293755D01*
X145215157Y-97246136D02*
X145167538Y-97293755D01*
X145167538Y-97293755D02*
X145119919Y-97388993D01*
X145119919Y-97388993D02*
X145119919Y-97627088D01*
X145119919Y-97627088D02*
X145167538Y-97722326D01*
X145167538Y-97722326D02*
X145215157Y-97769945D01*
X145215157Y-97769945D02*
X145310395Y-97817564D01*
X145310395Y-97817564D02*
X145405633Y-97817564D01*
X145405633Y-97817564D02*
X145548490Y-97769945D01*
X145548490Y-97769945D02*
X146119919Y-97198517D01*
X146119919Y-97198517D02*
X146119919Y-97817564D01*
X146403194Y-107986669D02*
X146403194Y-106986669D01*
X146403194Y-106986669D02*
X146165099Y-106986669D01*
X146165099Y-106986669D02*
X146022242Y-107034288D01*
X146022242Y-107034288D02*
X145927004Y-107129526D01*
X145927004Y-107129526D02*
X145879385Y-107224764D01*
X145879385Y-107224764D02*
X145831766Y-107415240D01*
X145831766Y-107415240D02*
X145831766Y-107558097D01*
X145831766Y-107558097D02*
X145879385Y-107748573D01*
X145879385Y-107748573D02*
X145927004Y-107843811D01*
X145927004Y-107843811D02*
X146022242Y-107939050D01*
X146022242Y-107939050D02*
X146165099Y-107986669D01*
X146165099Y-107986669D02*
X146403194Y-107986669D01*
X145498432Y-106986669D02*
X144879385Y-106986669D01*
X144879385Y-106986669D02*
X145212718Y-107367621D01*
X145212718Y-107367621D02*
X145069861Y-107367621D01*
X145069861Y-107367621D02*
X144974623Y-107415240D01*
X144974623Y-107415240D02*
X144927004Y-107462859D01*
X144927004Y-107462859D02*
X144879385Y-107558097D01*
X144879385Y-107558097D02*
X144879385Y-107796192D01*
X144879385Y-107796192D02*
X144927004Y-107891430D01*
X144927004Y-107891430D02*
X144974623Y-107939050D01*
X144974623Y-107939050D02*
X145069861Y-107986669D01*
X145069861Y-107986669D02*
X145355575Y-107986669D01*
X145355575Y-107986669D02*
X145450813Y-107939050D01*
X145450813Y-107939050D02*
X145498432Y-107891430D01*
X146403194Y-100986669D02*
X146403194Y-99986669D01*
X146403194Y-99986669D02*
X146165099Y-99986669D01*
X146165099Y-99986669D02*
X146022242Y-100034288D01*
X146022242Y-100034288D02*
X145927004Y-100129526D01*
X145927004Y-100129526D02*
X145879385Y-100224764D01*
X145879385Y-100224764D02*
X145831766Y-100415240D01*
X145831766Y-100415240D02*
X145831766Y-100558097D01*
X145831766Y-100558097D02*
X145879385Y-100748573D01*
X145879385Y-100748573D02*
X145927004Y-100843811D01*
X145927004Y-100843811D02*
X146022242Y-100939050D01*
X146022242Y-100939050D02*
X146165099Y-100986669D01*
X146165099Y-100986669D02*
X146403194Y-100986669D01*
X145450813Y-100081907D02*
X145403194Y-100034288D01*
X145403194Y-100034288D02*
X145307956Y-99986669D01*
X145307956Y-99986669D02*
X145069861Y-99986669D01*
X145069861Y-99986669D02*
X144974623Y-100034288D01*
X144974623Y-100034288D02*
X144927004Y-100081907D01*
X144927004Y-100081907D02*
X144879385Y-100177145D01*
X144879385Y-100177145D02*
X144879385Y-100272383D01*
X144879385Y-100272383D02*
X144927004Y-100415240D01*
X144927004Y-100415240D02*
X145498432Y-100986669D01*
X145498432Y-100986669D02*
X144879385Y-100986669D01*
M02*
