M48
; DRILL file {KiCad 9.0.4} date 2025-10-08T10:23:39-0400
; FORMAT={-:-/ absolute / metric / decimal}
; #@! TF.CreationDate,2025-10-08T10:23:39-04:00
; #@! TF.GenerationSoftware,Kicad,Pcbnew,9.0.4
; #@! TF.FileFunction,Plated,1,2,PTH
FMAT,2
METRIC
; #@! TA.AperFunction,Plated,PTH,ViaDrill
T1C0.200
; #@! TA.AperFunction,Plated,PTH,ComponentDrill
T2C0.200
%
G90
G05
T1
X152.25Y-60.41
X153.25Y-60.41
X153.76Y-60.4
T2
X151.0Y-51.903
X151.0Y-54.403
X151.0Y-56.903
X151.0Y-59.403
X151.25Y-51.47
X151.25Y-52.336
X151.25Y-53.97
X151.25Y-54.836
X151.25Y-56.47
X151.25Y-57.336
X151.25Y-58.97
X151.25Y-59.836
X151.5Y-51.037
X151.5Y-51.903
X151.5Y-53.537
X151.5Y-54.403
X151.5Y-56.037
X151.5Y-56.903
X151.5Y-58.537
X151.5Y-59.403
X151.75Y-51.47
X151.75Y-52.336
X151.75Y-53.97
X151.75Y-54.836
X151.75Y-56.47
X151.75Y-57.336
X151.75Y-58.97
X151.75Y-59.836
X152.0Y-51.037
X152.0Y-51.903
X152.0Y-53.537
X152.0Y-54.403
X152.0Y-56.037
X152.0Y-56.903
X152.0Y-58.537
X152.0Y-59.403
X152.25Y-51.47
X152.25Y-52.336
X152.25Y-53.97
X152.25Y-54.836
X152.25Y-56.47
X152.25Y-57.336
X152.25Y-58.97
X152.25Y-59.836
X152.5Y-51.903
X152.5Y-54.403
X152.5Y-56.903
X152.5Y-59.403
X153.5Y-51.903
X153.5Y-54.403
X153.5Y-56.903
X153.5Y-59.403
X153.75Y-51.47
X153.75Y-52.336
X153.75Y-53.97
X153.75Y-54.836
X153.75Y-56.47
X153.75Y-57.336
X153.75Y-58.97
X153.75Y-59.836
X154.0Y-51.037
X154.0Y-51.903
X154.0Y-53.537
X154.0Y-54.403
X154.0Y-56.037
X154.0Y-56.903
X154.0Y-58.537
X154.0Y-59.403
X154.25Y-51.47
X154.25Y-52.336
X154.25Y-53.97
X154.25Y-54.836
X154.25Y-56.47
X154.25Y-57.336
X154.25Y-58.97
X154.25Y-59.836
X154.5Y-51.037
X154.5Y-51.903
X154.5Y-53.537
X154.5Y-54.403
X154.5Y-56.037
X154.5Y-56.903
X154.5Y-58.537
X154.5Y-59.403
X154.75Y-51.47
X154.75Y-52.336
X154.75Y-53.97
X154.75Y-54.836
X154.75Y-56.47
X154.75Y-57.336
X154.75Y-58.97
X154.75Y-59.836
X155.0Y-51.903
X155.0Y-54.403
X155.0Y-56.903
X155.0Y-59.403
M30
