%TF.GenerationSoftware,KiCad,Pcbnew,9.0.4*%
%TF.CreationDate,2025-10-08T10:23:37-04:00*%
%TF.ProjectId,BrailleCell,42726169-6c6c-4654-9365-6c6c2e6b6963,rev?*%
%TF.SameCoordinates,Original*%
%TF.FileFunction,Copper,L1,Top*%
%TF.FilePolarity,Positive*%
%FSLAX46Y46*%
G04 Gerber Fmt 4.6, Leading zero omitted, Abs format (unit mm)*
G04 Created by KiCad (PCBNEW 9.0.4) date 2025-10-08 10:23:37*
%MOMM*%
%LPD*%
G01*
G04 APERTURE LIST*
%TA.AperFunction,ComponentPad*%
%ADD10C,0.500000*%
%TD*%
%TA.AperFunction,SMDPad,CuDef*%
%ADD11C,1.700000*%
%TD*%
%TA.AperFunction,SMDPad,CuDef*%
%ADD12R,0.300000X1.000000*%
%TD*%
%TA.AperFunction,ViaPad*%
%ADD13C,0.400000*%
%TD*%
%TA.AperFunction,Conductor*%
%ADD14C,0.160000*%
%TD*%
%TA.AperFunction,Conductor*%
%ADD15C,0.127000*%
%TD*%
G04 APERTURE END LIST*
D10*
%TO.P,J6,1,Pin_1*%
%TO.N,Net-(J1-Pin_5)*%
X153500000Y-54403000D03*
X153750000Y-53970000D03*
X153750000Y-54836000D03*
X154000000Y-53537000D03*
X154000000Y-54403000D03*
X154250000Y-53970000D03*
D11*
X154250000Y-54250000D03*
D10*
X154250000Y-54836000D03*
X154500000Y-53537000D03*
X154500000Y-54403000D03*
X154750000Y-53970000D03*
X154750000Y-54836000D03*
X155000000Y-54403000D03*
%TD*%
%TO.P,J2,1,Pin_1*%
%TO.N,Net-(J1-Pin_1)*%
X151000000Y-51903000D03*
X151250000Y-51470000D03*
X151250000Y-52336000D03*
X151500000Y-51037000D03*
X151500000Y-51903000D03*
X151750000Y-51470000D03*
D11*
X151750000Y-51750000D03*
D10*
X151750000Y-52336000D03*
X152000000Y-51037000D03*
X152000000Y-51903000D03*
X152250000Y-51470000D03*
X152250000Y-52336000D03*
X152500000Y-51903000D03*
%TD*%
%TO.P,J9,1,Pin_1*%
%TO.N,Net-(J1-Pin_8)*%
X153500000Y-51903000D03*
X153750000Y-51470000D03*
X153750000Y-52336000D03*
X154000000Y-51037000D03*
X154000000Y-51903000D03*
X154250000Y-51470000D03*
D11*
X154250000Y-51750000D03*
D10*
X154250000Y-52336000D03*
X154500000Y-51037000D03*
X154500000Y-51903000D03*
X154750000Y-51470000D03*
X154750000Y-52336000D03*
X155000000Y-51903000D03*
%TD*%
%TO.P,J5,1,Pin_1*%
%TO.N,Net-(J1-Pin_4)*%
X151000000Y-54403000D03*
X151250000Y-53970000D03*
X151250000Y-54836000D03*
X151500000Y-53537000D03*
X151500000Y-54403000D03*
X151750000Y-53970000D03*
D11*
X151750000Y-54250000D03*
D10*
X151750000Y-54836000D03*
X152000000Y-53537000D03*
X152000000Y-54403000D03*
X152250000Y-53970000D03*
X152250000Y-54836000D03*
X152500000Y-54403000D03*
%TD*%
%TO.P,J4,1,Pin_1*%
%TO.N,Net-(J1-Pin_3)*%
X151000000Y-56903000D03*
X151250000Y-56470000D03*
X151250000Y-57336000D03*
X151500000Y-56037000D03*
X151500000Y-56903000D03*
X151750000Y-56470000D03*
D11*
X151750000Y-56750000D03*
D10*
X151750000Y-57336000D03*
X152000000Y-56037000D03*
X152000000Y-56903000D03*
X152250000Y-56470000D03*
X152250000Y-57336000D03*
X152500000Y-56903000D03*
%TD*%
%TO.P,J3,1,Pin_1*%
%TO.N,Net-(J1-Pin_2)*%
X151000000Y-59403000D03*
X151250000Y-58970000D03*
X151250000Y-59836000D03*
X151500000Y-58537000D03*
X151500000Y-59403000D03*
X151750000Y-58970000D03*
D11*
X151750000Y-59250000D03*
D10*
X151750000Y-59836000D03*
X152000000Y-58537000D03*
X152000000Y-59403000D03*
X152250000Y-58970000D03*
X152250000Y-59836000D03*
X152500000Y-59403000D03*
%TD*%
%TO.P,J7,1,Pin_1*%
%TO.N,Net-(J1-Pin_6)*%
X153500000Y-56903000D03*
X153750000Y-56470000D03*
X153750000Y-57336000D03*
X154000000Y-56037000D03*
X154000000Y-56903000D03*
X154250000Y-56470000D03*
D11*
X154250000Y-56750000D03*
D10*
X154250000Y-57336000D03*
X154500000Y-56037000D03*
X154500000Y-56903000D03*
X154750000Y-56470000D03*
X154750000Y-57336000D03*
X155000000Y-56903000D03*
%TD*%
D12*
%TO.P,CONDUCTOR,1,Pin_1*%
%TO.N,Net-(J1-Pin_1)*%
X151250000Y-61000000D03*
%TO.P,CONDUCTOR,2,Pin_2*%
%TO.N,Net-(J1-Pin_2)*%
X151750000Y-61000000D03*
%TO.P,CONDUCTOR,3,Pin_3*%
%TO.N,Net-(J1-Pin_3)*%
X152250000Y-61000000D03*
%TO.P,CONDUCTOR,4,Pin_4*%
%TO.N,Net-(J1-Pin_4)*%
X152750000Y-61000000D03*
%TO.P,CONDUCTOR,5,Pin_5*%
%TO.N,Net-(J1-Pin_5)*%
X153250000Y-61000000D03*
%TO.P,CONDUCTOR,6,Pin_6*%
%TO.N,Net-(J1-Pin_6)*%
X153750000Y-61000000D03*
%TO.P,CONDUCTOR,7,Pin_7*%
%TO.N,Net-(J1-Pin_7)*%
X154250000Y-61000000D03*
%TO.P,CONDUCTOR,8,Pin_8*%
%TO.N,Net-(J1-Pin_8)*%
X154750000Y-61000000D03*
%TD*%
D10*
%TO.P,J8,1,Pin_1*%
%TO.N,Net-(J1-Pin_7)*%
X153500000Y-59403000D03*
X153750000Y-58970000D03*
X153750000Y-59836000D03*
X154000000Y-58537000D03*
X154000000Y-59403000D03*
X154250000Y-58970000D03*
D11*
X154250000Y-59250000D03*
D10*
X154250000Y-59836000D03*
X154500000Y-58537000D03*
X154500000Y-59403000D03*
X154750000Y-58970000D03*
X154750000Y-59836000D03*
X155000000Y-59403000D03*
%TD*%
D13*
%TO.N,Net-(J1-Pin_6)*%
X153760000Y-60400000D03*
%TO.N,Net-(J1-Pin_3)*%
X152250000Y-60410000D03*
%TO.N,Net-(J1-Pin_5)*%
X153250000Y-60410000D03*
%TD*%
D14*
%TO.N,Net-(J1-Pin_6)*%
X153760000Y-60400000D02*
X153760000Y-60990000D01*
X153760000Y-60990000D02*
X153750000Y-61000000D01*
%TO.N,Net-(J1-Pin_8)*%
X154750000Y-61000000D02*
X154750000Y-60980000D01*
D15*
X155525000Y-53025000D02*
X154250000Y-51750000D01*
D14*
X154750000Y-60980000D02*
X154760000Y-60970000D01*
D15*
X154750000Y-61000000D02*
X155525000Y-60225000D01*
X155525000Y-60225000D02*
X155525000Y-53025000D01*
%TO.N,Net-(J1-Pin_1)*%
X150450000Y-60200000D02*
X150450000Y-53050000D01*
X151250000Y-61000000D02*
X150450000Y-60200000D01*
X150450000Y-53050000D02*
X151750000Y-51750000D01*
D14*
%TO.N,Net-(J1-Pin_2)*%
X151750000Y-61000000D02*
X151750000Y-59250000D01*
%TO.N,Net-(J1-Pin_3)*%
X152250000Y-61000000D02*
X152250000Y-60410000D01*
%TO.N,Net-(J1-Pin_7)*%
X154250000Y-61000000D02*
X154250000Y-59250000D01*
D15*
%TO.N,Net-(J1-Pin_4)*%
X152986000Y-59776348D02*
X152986000Y-55486000D01*
X152986000Y-55486000D02*
X151750000Y-54250000D01*
X152750000Y-61000000D02*
X152750000Y-60012348D01*
X152750000Y-60012348D02*
X152986000Y-59776348D01*
D14*
%TO.N,Net-(J1-Pin_5)*%
X153250000Y-60410000D02*
X153250000Y-61000000D01*
%TD*%
M02*
