%TF.GenerationSoftware,KiCad,Pcbnew,9.0.5*%
%TF.CreationDate,2026-04-16T18:07:47-04:00*%
%TF.ProjectId,demo_board,64656d6f-5f62-46f6-9172-642e6b696361,rev?*%
%TF.SameCoordinates,Original*%
%TF.FileFunction,Soldermask,Bot*%
%TF.FilePolarity,Negative*%
%FSLAX46Y46*%
G04 Gerber Fmt 4.6, Leading zero omitted, Abs format (unit mm)*
G04 Created by KiCad (PCBNEW 9.0.5) date 2026-04-16 18:07:47*
%MOMM*%
%LPD*%
G01*
G04 APERTURE LIST*
G04 Aperture macros list*
%AMRoundRect*
0 Rectangle with rounded corners*
0 $1 Rounding radius*
0 $2 $3 $4 $5 $6 $7 $8 $9 X,Y pos of 4 corners*
0 Add a 4 corners polygon primitive as box body*
4,1,4,$2,$3,$4,$5,$6,$7,$8,$9,$2,$3,0*
0 Add four circle primitives for the rounded corners*
1,1,$1+$1,$2,$3*
1,1,$1+$1,$4,$5*
1,1,$1+$1,$6,$7*
1,1,$1+$1,$8,$9*
0 Add four rect primitives between the rounded corners*
20,1,$1+$1,$2,$3,$4,$5,0*
20,1,$1+$1,$4,$5,$6,$7,0*
20,1,$1+$1,$6,$7,$8,$9,0*
20,1,$1+$1,$8,$9,$2,$3,0*%
G04 Aperture macros list end*
%ADD10R,1.700000X1.700000*%
%ADD11C,1.700000*%
%ADD12RoundRect,1.500000X-1.500000X-1.500000X1.500000X-1.500000X1.500000X1.500000X-1.500000X1.500000X0*%
%ADD13C,6.000000*%
%ADD14RoundRect,1.500000X1.500000X1.500000X-1.500000X1.500000X-1.500000X-1.500000X1.500000X-1.500000X0*%
%ADD15RoundRect,0.200000X-0.275000X0.200000X-0.275000X-0.200000X0.275000X-0.200000X0.275000X0.200000X0*%
%ADD16RoundRect,0.200000X0.275000X-0.200000X0.275000X0.200000X-0.275000X0.200000X-0.275000X-0.200000X0*%
%ADD17C,5.500000*%
G04 APERTURE END LIST*
D10*
%TO.C,J11*%
X90000000Y-133000000D03*
D11*
X90000000Y-135540000D03*
X92540000Y-133000000D03*
X92540000Y-135540000D03*
X95080000Y-133000000D03*
X95080000Y-135540000D03*
%TD*%
D10*
%TO.C,J8*%
X94190000Y-80000000D03*
D11*
X96730000Y-80000000D03*
X94190000Y-82540000D03*
X96730000Y-82540000D03*
X94190000Y-85080000D03*
X96730000Y-85080000D03*
%TD*%
D12*
%TO.C,J6*%
X81400000Y-66250000D03*
D13*
X88600000Y-66250000D03*
%TD*%
D10*
%TO.C,J4*%
X90000000Y-105924000D03*
D11*
X90000000Y-108464000D03*
X92540000Y-105924000D03*
X92540000Y-108464000D03*
X95080000Y-105924000D03*
X95080000Y-108464000D03*
%TD*%
D10*
%TO.C,J7*%
X51640000Y-80000000D03*
D11*
X49100000Y-80000000D03*
X51640000Y-82540000D03*
X49100000Y-82540000D03*
X51640000Y-85080000D03*
X49100000Y-85080000D03*
%TD*%
D10*
%TO.C,J0*%
X60000000Y-105924000D03*
D11*
X60000000Y-108464000D03*
X62540000Y-105924000D03*
X62540000Y-108464000D03*
X65080000Y-105924000D03*
X65080000Y-108464000D03*
%TD*%
D10*
%TO.C,J9*%
X60000000Y-133000000D03*
D11*
X60000000Y-135540000D03*
X62540000Y-133000000D03*
X62540000Y-135540000D03*
X65080000Y-133000000D03*
X65080000Y-135540000D03*
%TD*%
D10*
%TO.C,J10*%
X75000000Y-133000000D03*
D11*
X75000000Y-135540000D03*
X77540000Y-133000000D03*
X77540000Y-135540000D03*
X80080000Y-133000000D03*
X80080000Y-135540000D03*
%TD*%
D10*
%TO.C,J2*%
X45000000Y-105924000D03*
D11*
X45000000Y-108464000D03*
X47540000Y-105924000D03*
X47540000Y-108464000D03*
X50080000Y-105924000D03*
X50080000Y-108464000D03*
%TD*%
D14*
%TO.C,J5*%
X59100000Y-66250000D03*
D13*
X51900000Y-66250000D03*
%TD*%
D10*
%TO.C,J1*%
X45000000Y-133000000D03*
D11*
X45000000Y-135540000D03*
X47540000Y-133000000D03*
X47540000Y-135540000D03*
X50080000Y-133000000D03*
X50080000Y-135540000D03*
%TD*%
D10*
%TO.C,J3*%
X75000000Y-105924000D03*
D11*
X75000000Y-108464000D03*
X77540000Y-105924000D03*
X77540000Y-108464000D03*
X80080000Y-105924000D03*
X80080000Y-108464000D03*
%TD*%
D15*
%TO.C,R67*%
X62500000Y-125925000D03*
X62500000Y-127575000D03*
%TD*%
%TO.C,R69*%
X93000000Y-125925000D03*
X93000000Y-127575000D03*
%TD*%
%TO.C,R73*%
X98250000Y-125925000D03*
X98250000Y-127575000D03*
%TD*%
%TO.C,R70*%
X52250000Y-125925000D03*
X52250000Y-127575000D03*
%TD*%
%TO.C,R72*%
X83000000Y-125925000D03*
X83000000Y-127575000D03*
%TD*%
%TO.C,R50*%
X42500000Y-88425000D03*
X42500000Y-90075000D03*
%TD*%
%TO.C,R55*%
X62500000Y-89175000D03*
X62500000Y-90825000D03*
%TD*%
%TO.C,R53*%
X88000000Y-89675000D03*
X88000000Y-91325000D03*
%TD*%
%TO.C,R57*%
X92500000Y-89500000D03*
X92500000Y-91150000D03*
%TD*%
%TO.C,R51*%
X57250000Y-88925000D03*
X57250000Y-90575000D03*
%TD*%
%TO.C,R68*%
X77750000Y-125925000D03*
X77750000Y-127575000D03*
%TD*%
%TO.C,R66*%
X47000000Y-125925000D03*
X47000000Y-127575000D03*
%TD*%
%TO.C,R61*%
X98250000Y-89675000D03*
X98250000Y-91325000D03*
%TD*%
%TO.C,R64*%
X72500000Y-125925000D03*
X72500000Y-127575000D03*
%TD*%
%TO.C,R56*%
X77750000Y-88925000D03*
X77750000Y-90575000D03*
%TD*%
D16*
%TO.C,R49*%
X54250000Y-73825000D03*
X54250000Y-72175000D03*
%TD*%
D15*
%TO.C,R58*%
X52750000Y-89425000D03*
X52750000Y-91075000D03*
%TD*%
%TO.C,R71*%
X67500000Y-125925000D03*
X67500000Y-127575000D03*
%TD*%
%TO.C,R60*%
X82750000Y-89175000D03*
X82750000Y-90825000D03*
%TD*%
%TO.C,R52*%
X72750000Y-88925000D03*
X72750000Y-90575000D03*
%TD*%
%TO.C,R65*%
X88000000Y-125925000D03*
X88000000Y-127575000D03*
%TD*%
%TO.C,R62*%
X41750000Y-125925000D03*
X41750000Y-127575000D03*
%TD*%
%TO.C,R59*%
X68250000Y-88675000D03*
X68250000Y-90325000D03*
%TD*%
%TO.C,R63*%
X57250000Y-125925000D03*
X57250000Y-127575000D03*
%TD*%
%TO.C,R54*%
X47000000Y-88425000D03*
X47000000Y-90075000D03*
%TD*%
D17*
X98490699Y-139250000D03*
X98500000Y-64042327D03*
X41487835Y-139195946D03*
X41550000Y-64000000D03*
M02*
