%TF.GenerationSoftware,KiCad,Pcbnew,9.0.5*%
%TF.CreationDate,2026-04-16T18:07:47-04:00*%
%TF.ProjectId,demo_board,64656d6f-5f62-46f6-9172-642e6b696361,rev?*%
%TF.SameCoordinates,Original*%
%TF.FileFunction,Paste,Bot*%
%TF.FilePolarity,Positive*%
%FSLAX46Y46*%
G04 Gerber Fmt 4.6, Leading zero omitted, Abs format (unit mm)*
G04 Created by KiCad (PCBNEW 9.0.5) date 2026-04-16 18:07:47*
%MOMM*%
%LPD*%
G01*
G04 APERTURE LIST*
G04 Aperture macros list*
%AMRoundRect*
0 Rectangle with rounded corners*
0 $1 Rounding radius*
0 $2 $3 $4 $5 $6 $7 $8 $9 X,Y pos of 4 corners*
0 Add a 4 corners polygon primitive as box body*
4,1,4,$2,$3,$4,$5,$6,$7,$8,$9,$2,$3,0*
0 Add four circle primitives for the rounded corners*
1,1,$1+$1,$2,$3*
1,1,$1+$1,$4,$5*
1,1,$1+$1,$6,$7*
1,1,$1+$1,$8,$9*
0 Add four rect primitives between the rounded corners*
20,1,$1+$1,$2,$3,$4,$5,0*
20,1,$1+$1,$4,$5,$6,$7,0*
20,1,$1+$1,$6,$7,$8,$9,0*
20,1,$1+$1,$8,$9,$2,$3,0*%
G04 Aperture macros list end*
%ADD10RoundRect,0.200000X-0.275000X0.200000X-0.275000X-0.200000X0.275000X-0.200000X0.275000X0.200000X0*%
%ADD11RoundRect,0.200000X0.275000X-0.200000X0.275000X0.200000X-0.275000X0.200000X-0.275000X-0.200000X0*%
G04 APERTURE END LIST*
D10*
%TO.C,R67*%
X62500000Y-125925000D03*
X62500000Y-127575000D03*
%TD*%
%TO.C,R69*%
X93000000Y-125925000D03*
X93000000Y-127575000D03*
%TD*%
%TO.C,R73*%
X98250000Y-125925000D03*
X98250000Y-127575000D03*
%TD*%
%TO.C,R70*%
X52250000Y-125925000D03*
X52250000Y-127575000D03*
%TD*%
%TO.C,R72*%
X83000000Y-125925000D03*
X83000000Y-127575000D03*
%TD*%
%TO.C,R50*%
X42500000Y-88425000D03*
X42500000Y-90075000D03*
%TD*%
%TO.C,R55*%
X62500000Y-89175000D03*
X62500000Y-90825000D03*
%TD*%
%TO.C,R53*%
X88000000Y-89675000D03*
X88000000Y-91325000D03*
%TD*%
%TO.C,R57*%
X92500000Y-89500000D03*
X92500000Y-91150000D03*
%TD*%
%TO.C,R51*%
X57250000Y-88925000D03*
X57250000Y-90575000D03*
%TD*%
%TO.C,R68*%
X77750000Y-125925000D03*
X77750000Y-127575000D03*
%TD*%
%TO.C,R66*%
X47000000Y-125925000D03*
X47000000Y-127575000D03*
%TD*%
%TO.C,R61*%
X98250000Y-89675000D03*
X98250000Y-91325000D03*
%TD*%
%TO.C,R64*%
X72500000Y-125925000D03*
X72500000Y-127575000D03*
%TD*%
%TO.C,R56*%
X77750000Y-88925000D03*
X77750000Y-90575000D03*
%TD*%
D11*
%TO.C,R49*%
X54250000Y-73825000D03*
X54250000Y-72175000D03*
%TD*%
D10*
%TO.C,R58*%
X52750000Y-89425000D03*
X52750000Y-91075000D03*
%TD*%
%TO.C,R71*%
X67500000Y-125925000D03*
X67500000Y-127575000D03*
%TD*%
%TO.C,R60*%
X82750000Y-89175000D03*
X82750000Y-90825000D03*
%TD*%
%TO.C,R52*%
X72750000Y-88925000D03*
X72750000Y-90575000D03*
%TD*%
%TO.C,R65*%
X88000000Y-125925000D03*
X88000000Y-127575000D03*
%TD*%
%TO.C,R62*%
X41750000Y-125925000D03*
X41750000Y-127575000D03*
%TD*%
%TO.C,R59*%
X68250000Y-88675000D03*
X68250000Y-90325000D03*
%TD*%
%TO.C,R63*%
X57250000Y-125925000D03*
X57250000Y-127575000D03*
%TD*%
%TO.C,R54*%
X47000000Y-88425000D03*
X47000000Y-90075000D03*
%TD*%
M02*
