%TF.GenerationSoftware,KiCad,Pcbnew,9.0.5*%
%TF.CreationDate,2026-04-16T18:07:47-04:00*%
%TF.ProjectId,demo_board,64656d6f-5f62-46f6-9172-642e6b696361,rev?*%
%TF.SameCoordinates,Original*%
%TF.FileFunction,Legend,Bot*%
%TF.FilePolarity,Positive*%
%FSLAX46Y46*%
G04 Gerber Fmt 4.6, Leading zero omitted, Abs format (unit mm)*
G04 Created by KiCad (PCBNEW 9.0.5) date 2026-04-16 18:07:47*
%MOMM*%
%LPD*%
G01*
G04 APERTURE LIST*
%ADD10C,0.150000*%
%ADD11C,0.120000*%
G04 APERTURE END LIST*
D10*
X79341792Y-73164636D02*
X79389411Y-73212256D01*
X79389411Y-73212256D02*
X79532268Y-73259875D01*
X79532268Y-73259875D02*
X79627506Y-73259875D01*
X79627506Y-73259875D02*
X79770363Y-73212256D01*
X79770363Y-73212256D02*
X79865601Y-73117017D01*
X79865601Y-73117017D02*
X79913220Y-73021779D01*
X79913220Y-73021779D02*
X79960839Y-72831303D01*
X79960839Y-72831303D02*
X79960839Y-72688446D01*
X79960839Y-72688446D02*
X79913220Y-72497970D01*
X79913220Y-72497970D02*
X79865601Y-72402732D01*
X79865601Y-72402732D02*
X79770363Y-72307494D01*
X79770363Y-72307494D02*
X79627506Y-72259875D01*
X79627506Y-72259875D02*
X79532268Y-72259875D01*
X79532268Y-72259875D02*
X79389411Y-72307494D01*
X79389411Y-72307494D02*
X79341792Y-72355113D01*
X78913220Y-73259875D02*
X78913220Y-72259875D01*
X78484649Y-73259875D02*
X78484649Y-72736065D01*
X78484649Y-72736065D02*
X78532268Y-72640827D01*
X78532268Y-72640827D02*
X78627506Y-72593208D01*
X78627506Y-72593208D02*
X78770363Y-72593208D01*
X78770363Y-72593208D02*
X78865601Y-72640827D01*
X78865601Y-72640827D02*
X78913220Y-72688446D01*
X77579887Y-73259875D02*
X77579887Y-72736065D01*
X77579887Y-72736065D02*
X77627506Y-72640827D01*
X77627506Y-72640827D02*
X77722744Y-72593208D01*
X77722744Y-72593208D02*
X77913220Y-72593208D01*
X77913220Y-72593208D02*
X78008458Y-72640827D01*
X77579887Y-73212256D02*
X77675125Y-73259875D01*
X77675125Y-73259875D02*
X77913220Y-73259875D01*
X77913220Y-73259875D02*
X78008458Y-73212256D01*
X78008458Y-73212256D02*
X78056077Y-73117017D01*
X78056077Y-73117017D02*
X78056077Y-73021779D01*
X78056077Y-73021779D02*
X78008458Y-72926541D01*
X78008458Y-72926541D02*
X77913220Y-72878922D01*
X77913220Y-72878922D02*
X77675125Y-72878922D01*
X77675125Y-72878922D02*
X77579887Y-72831303D01*
X77103696Y-73259875D02*
X77103696Y-72593208D01*
X77103696Y-72783684D02*
X77056077Y-72688446D01*
X77056077Y-72688446D02*
X77008458Y-72640827D01*
X77008458Y-72640827D02*
X76913220Y-72593208D01*
X76913220Y-72593208D02*
X76817982Y-72593208D01*
X76341791Y-73259875D02*
X76437029Y-73212256D01*
X76437029Y-73212256D02*
X76484648Y-73117017D01*
X76484648Y-73117017D02*
X76484648Y-72259875D01*
X75579886Y-73212256D02*
X75675124Y-73259875D01*
X75675124Y-73259875D02*
X75865600Y-73259875D01*
X75865600Y-73259875D02*
X75960838Y-73212256D01*
X75960838Y-73212256D02*
X76008457Y-73117017D01*
X76008457Y-73117017D02*
X76008457Y-72736065D01*
X76008457Y-72736065D02*
X75960838Y-72640827D01*
X75960838Y-72640827D02*
X75865600Y-72593208D01*
X75865600Y-72593208D02*
X75675124Y-72593208D01*
X75675124Y-72593208D02*
X75579886Y-72640827D01*
X75579886Y-72640827D02*
X75532267Y-72736065D01*
X75532267Y-72736065D02*
X75532267Y-72831303D01*
X75532267Y-72831303D02*
X76008457Y-72926541D01*
X75151314Y-73212256D02*
X75056076Y-73259875D01*
X75056076Y-73259875D02*
X74865600Y-73259875D01*
X74865600Y-73259875D02*
X74770362Y-73212256D01*
X74770362Y-73212256D02*
X74722743Y-73117017D01*
X74722743Y-73117017D02*
X74722743Y-73069398D01*
X74722743Y-73069398D02*
X74770362Y-72974160D01*
X74770362Y-72974160D02*
X74865600Y-72926541D01*
X74865600Y-72926541D02*
X75008457Y-72926541D01*
X75008457Y-72926541D02*
X75103695Y-72878922D01*
X75103695Y-72878922D02*
X75151314Y-72783684D01*
X75151314Y-72783684D02*
X75151314Y-72736065D01*
X75151314Y-72736065D02*
X75103695Y-72640827D01*
X75103695Y-72640827D02*
X75008457Y-72593208D01*
X75008457Y-72593208D02*
X74865600Y-72593208D01*
X74865600Y-72593208D02*
X74770362Y-72640827D01*
X73675123Y-72259875D02*
X73341790Y-73259875D01*
X73341790Y-73259875D02*
X73008457Y-72259875D01*
X72246552Y-73259875D02*
X72246552Y-72736065D01*
X72246552Y-72736065D02*
X72294171Y-72640827D01*
X72294171Y-72640827D02*
X72389409Y-72593208D01*
X72389409Y-72593208D02*
X72579885Y-72593208D01*
X72579885Y-72593208D02*
X72675123Y-72640827D01*
X72246552Y-73212256D02*
X72341790Y-73259875D01*
X72341790Y-73259875D02*
X72579885Y-73259875D01*
X72579885Y-73259875D02*
X72675123Y-73212256D01*
X72675123Y-73212256D02*
X72722742Y-73117017D01*
X72722742Y-73117017D02*
X72722742Y-73021779D01*
X72722742Y-73021779D02*
X72675123Y-72926541D01*
X72675123Y-72926541D02*
X72579885Y-72878922D01*
X72579885Y-72878922D02*
X72341790Y-72878922D01*
X72341790Y-72878922D02*
X72246552Y-72831303D01*
X71770361Y-72593208D02*
X71770361Y-73259875D01*
X71770361Y-72688446D02*
X71722742Y-72640827D01*
X71722742Y-72640827D02*
X71627504Y-72593208D01*
X71627504Y-72593208D02*
X71484647Y-72593208D01*
X71484647Y-72593208D02*
X71389409Y-72640827D01*
X71389409Y-72640827D02*
X71341790Y-72736065D01*
X71341790Y-72736065D02*
X71341790Y-73259875D01*
X70103694Y-73259875D02*
X70103694Y-72259875D01*
X70103694Y-72736065D02*
X69532266Y-72736065D01*
X69532266Y-73259875D02*
X69532266Y-72259875D01*
X68913218Y-73259875D02*
X69008456Y-73212256D01*
X69008456Y-73212256D02*
X69056075Y-73164636D01*
X69056075Y-73164636D02*
X69103694Y-73069398D01*
X69103694Y-73069398D02*
X69103694Y-72783684D01*
X69103694Y-72783684D02*
X69056075Y-72688446D01*
X69056075Y-72688446D02*
X69008456Y-72640827D01*
X69008456Y-72640827D02*
X68913218Y-72593208D01*
X68913218Y-72593208D02*
X68770361Y-72593208D01*
X68770361Y-72593208D02*
X68675123Y-72640827D01*
X68675123Y-72640827D02*
X68627504Y-72688446D01*
X68627504Y-72688446D02*
X68579885Y-72783684D01*
X68579885Y-72783684D02*
X68579885Y-73069398D01*
X68579885Y-73069398D02*
X68627504Y-73164636D01*
X68627504Y-73164636D02*
X68675123Y-73212256D01*
X68675123Y-73212256D02*
X68770361Y-73259875D01*
X68770361Y-73259875D02*
X68913218Y-73259875D01*
X68008456Y-73259875D02*
X68103694Y-73212256D01*
X68103694Y-73212256D02*
X68151313Y-73164636D01*
X68151313Y-73164636D02*
X68198932Y-73069398D01*
X68198932Y-73069398D02*
X68198932Y-72783684D01*
X68198932Y-72783684D02*
X68151313Y-72688446D01*
X68151313Y-72688446D02*
X68103694Y-72640827D01*
X68103694Y-72640827D02*
X68008456Y-72593208D01*
X68008456Y-72593208D02*
X67865599Y-72593208D01*
X67865599Y-72593208D02*
X67770361Y-72640827D01*
X67770361Y-72640827D02*
X67722742Y-72688446D01*
X67722742Y-72688446D02*
X67675123Y-72783684D01*
X67675123Y-72783684D02*
X67675123Y-73069398D01*
X67675123Y-73069398D02*
X67722742Y-73164636D01*
X67722742Y-73164636D02*
X67770361Y-73212256D01*
X67770361Y-73212256D02*
X67865599Y-73259875D01*
X67865599Y-73259875D02*
X68008456Y-73259875D01*
X67246551Y-73259875D02*
X67246551Y-72259875D01*
X67151313Y-72878922D02*
X66865599Y-73259875D01*
X66865599Y-72593208D02*
X67246551Y-72974160D01*
X79437030Y-74869819D02*
X79913220Y-74869819D01*
X79913220Y-74869819D02*
X79913220Y-73869819D01*
X78722744Y-74822200D02*
X78817982Y-74869819D01*
X78817982Y-74869819D02*
X79008458Y-74869819D01*
X79008458Y-74869819D02*
X79103696Y-74822200D01*
X79103696Y-74822200D02*
X79151315Y-74726961D01*
X79151315Y-74726961D02*
X79151315Y-74346009D01*
X79151315Y-74346009D02*
X79103696Y-74250771D01*
X79103696Y-74250771D02*
X79008458Y-74203152D01*
X79008458Y-74203152D02*
X78817982Y-74203152D01*
X78817982Y-74203152D02*
X78722744Y-74250771D01*
X78722744Y-74250771D02*
X78675125Y-74346009D01*
X78675125Y-74346009D02*
X78675125Y-74441247D01*
X78675125Y-74441247D02*
X79151315Y-74536485D01*
X77817982Y-74869819D02*
X77817982Y-74346009D01*
X77817982Y-74346009D02*
X77865601Y-74250771D01*
X77865601Y-74250771D02*
X77960839Y-74203152D01*
X77960839Y-74203152D02*
X78151315Y-74203152D01*
X78151315Y-74203152D02*
X78246553Y-74250771D01*
X77817982Y-74822200D02*
X77913220Y-74869819D01*
X77913220Y-74869819D02*
X78151315Y-74869819D01*
X78151315Y-74869819D02*
X78246553Y-74822200D01*
X78246553Y-74822200D02*
X78294172Y-74726961D01*
X78294172Y-74726961D02*
X78294172Y-74631723D01*
X78294172Y-74631723D02*
X78246553Y-74536485D01*
X78246553Y-74536485D02*
X78151315Y-74488866D01*
X78151315Y-74488866D02*
X77913220Y-74488866D01*
X77913220Y-74488866D02*
X77817982Y-74441247D01*
X77341791Y-74869819D02*
X77341791Y-73869819D01*
X76913220Y-74869819D02*
X76913220Y-74346009D01*
X76913220Y-74346009D02*
X76960839Y-74250771D01*
X76960839Y-74250771D02*
X77056077Y-74203152D01*
X77056077Y-74203152D02*
X77198934Y-74203152D01*
X77198934Y-74203152D02*
X77294172Y-74250771D01*
X77294172Y-74250771D02*
X77341791Y-74298390D01*
X75389410Y-73869819D02*
X75389410Y-74584104D01*
X75389410Y-74584104D02*
X75437029Y-74726961D01*
X75437029Y-74726961D02*
X75532267Y-74822200D01*
X75532267Y-74822200D02*
X75675124Y-74869819D01*
X75675124Y-74869819D02*
X75770362Y-74869819D01*
X74770362Y-74869819D02*
X74865600Y-74822200D01*
X74865600Y-74822200D02*
X74913219Y-74774580D01*
X74913219Y-74774580D02*
X74960838Y-74679342D01*
X74960838Y-74679342D02*
X74960838Y-74393628D01*
X74960838Y-74393628D02*
X74913219Y-74298390D01*
X74913219Y-74298390D02*
X74865600Y-74250771D01*
X74865600Y-74250771D02*
X74770362Y-74203152D01*
X74770362Y-74203152D02*
X74627505Y-74203152D01*
X74627505Y-74203152D02*
X74532267Y-74250771D01*
X74532267Y-74250771D02*
X74484648Y-74298390D01*
X74484648Y-74298390D02*
X74437029Y-74393628D01*
X74437029Y-74393628D02*
X74437029Y-74679342D01*
X74437029Y-74679342D02*
X74484648Y-74774580D01*
X74484648Y-74774580D02*
X74532267Y-74822200D01*
X74532267Y-74822200D02*
X74627505Y-74869819D01*
X74627505Y-74869819D02*
X74770362Y-74869819D01*
X74008457Y-74203152D02*
X74008457Y-74869819D01*
X74008457Y-74298390D02*
X73960838Y-74250771D01*
X73960838Y-74250771D02*
X73865600Y-74203152D01*
X73865600Y-74203152D02*
X73722743Y-74203152D01*
X73722743Y-74203152D02*
X73627505Y-74250771D01*
X73627505Y-74250771D02*
X73579886Y-74346009D01*
X73579886Y-74346009D02*
X73579886Y-74869819D01*
X72722743Y-74822200D02*
X72817981Y-74869819D01*
X72817981Y-74869819D02*
X73008457Y-74869819D01*
X73008457Y-74869819D02*
X73103695Y-74822200D01*
X73103695Y-74822200D02*
X73151314Y-74726961D01*
X73151314Y-74726961D02*
X73151314Y-74346009D01*
X73151314Y-74346009D02*
X73103695Y-74250771D01*
X73103695Y-74250771D02*
X73008457Y-74203152D01*
X73008457Y-74203152D02*
X72817981Y-74203152D01*
X72817981Y-74203152D02*
X72722743Y-74250771D01*
X72722743Y-74250771D02*
X72675124Y-74346009D01*
X72675124Y-74346009D02*
X72675124Y-74441247D01*
X72675124Y-74441247D02*
X73151314Y-74536485D01*
X72294171Y-74822200D02*
X72198933Y-74869819D01*
X72198933Y-74869819D02*
X72008457Y-74869819D01*
X72008457Y-74869819D02*
X71913219Y-74822200D01*
X71913219Y-74822200D02*
X71865600Y-74726961D01*
X71865600Y-74726961D02*
X71865600Y-74679342D01*
X71865600Y-74679342D02*
X71913219Y-74584104D01*
X71913219Y-74584104D02*
X72008457Y-74536485D01*
X72008457Y-74536485D02*
X72151314Y-74536485D01*
X72151314Y-74536485D02*
X72246552Y-74488866D01*
X72246552Y-74488866D02*
X72294171Y-74393628D01*
X72294171Y-74393628D02*
X72294171Y-74346009D01*
X72294171Y-74346009D02*
X72246552Y-74250771D01*
X72246552Y-74250771D02*
X72151314Y-74203152D01*
X72151314Y-74203152D02*
X72008457Y-74203152D01*
X72008457Y-74203152D02*
X71913219Y-74250771D01*
X61524819Y-126107142D02*
X61048628Y-125773809D01*
X61524819Y-125535714D02*
X60524819Y-125535714D01*
X60524819Y-125535714D02*
X60524819Y-125916666D01*
X60524819Y-125916666D02*
X60572438Y-126011904D01*
X60572438Y-126011904D02*
X60620057Y-126059523D01*
X60620057Y-126059523D02*
X60715295Y-126107142D01*
X60715295Y-126107142D02*
X60858152Y-126107142D01*
X60858152Y-126107142D02*
X60953390Y-126059523D01*
X60953390Y-126059523D02*
X61001009Y-126011904D01*
X61001009Y-126011904D02*
X61048628Y-125916666D01*
X61048628Y-125916666D02*
X61048628Y-125535714D01*
X60524819Y-126964285D02*
X60524819Y-126773809D01*
X60524819Y-126773809D02*
X60572438Y-126678571D01*
X60572438Y-126678571D02*
X60620057Y-126630952D01*
X60620057Y-126630952D02*
X60762914Y-126535714D01*
X60762914Y-126535714D02*
X60953390Y-126488095D01*
X60953390Y-126488095D02*
X61334342Y-126488095D01*
X61334342Y-126488095D02*
X61429580Y-126535714D01*
X61429580Y-126535714D02*
X61477200Y-126583333D01*
X61477200Y-126583333D02*
X61524819Y-126678571D01*
X61524819Y-126678571D02*
X61524819Y-126869047D01*
X61524819Y-126869047D02*
X61477200Y-126964285D01*
X61477200Y-126964285D02*
X61429580Y-127011904D01*
X61429580Y-127011904D02*
X61334342Y-127059523D01*
X61334342Y-127059523D02*
X61096247Y-127059523D01*
X61096247Y-127059523D02*
X61001009Y-127011904D01*
X61001009Y-127011904D02*
X60953390Y-126964285D01*
X60953390Y-126964285D02*
X60905771Y-126869047D01*
X60905771Y-126869047D02*
X60905771Y-126678571D01*
X60905771Y-126678571D02*
X60953390Y-126583333D01*
X60953390Y-126583333D02*
X61001009Y-126535714D01*
X61001009Y-126535714D02*
X61096247Y-126488095D01*
X60524819Y-127392857D02*
X60524819Y-128059523D01*
X60524819Y-128059523D02*
X61524819Y-127630952D01*
X92024819Y-126107142D02*
X91548628Y-125773809D01*
X92024819Y-125535714D02*
X91024819Y-125535714D01*
X91024819Y-125535714D02*
X91024819Y-125916666D01*
X91024819Y-125916666D02*
X91072438Y-126011904D01*
X91072438Y-126011904D02*
X91120057Y-126059523D01*
X91120057Y-126059523D02*
X91215295Y-126107142D01*
X91215295Y-126107142D02*
X91358152Y-126107142D01*
X91358152Y-126107142D02*
X91453390Y-126059523D01*
X91453390Y-126059523D02*
X91501009Y-126011904D01*
X91501009Y-126011904D02*
X91548628Y-125916666D01*
X91548628Y-125916666D02*
X91548628Y-125535714D01*
X91024819Y-126964285D02*
X91024819Y-126773809D01*
X91024819Y-126773809D02*
X91072438Y-126678571D01*
X91072438Y-126678571D02*
X91120057Y-126630952D01*
X91120057Y-126630952D02*
X91262914Y-126535714D01*
X91262914Y-126535714D02*
X91453390Y-126488095D01*
X91453390Y-126488095D02*
X91834342Y-126488095D01*
X91834342Y-126488095D02*
X91929580Y-126535714D01*
X91929580Y-126535714D02*
X91977200Y-126583333D01*
X91977200Y-126583333D02*
X92024819Y-126678571D01*
X92024819Y-126678571D02*
X92024819Y-126869047D01*
X92024819Y-126869047D02*
X91977200Y-126964285D01*
X91977200Y-126964285D02*
X91929580Y-127011904D01*
X91929580Y-127011904D02*
X91834342Y-127059523D01*
X91834342Y-127059523D02*
X91596247Y-127059523D01*
X91596247Y-127059523D02*
X91501009Y-127011904D01*
X91501009Y-127011904D02*
X91453390Y-126964285D01*
X91453390Y-126964285D02*
X91405771Y-126869047D01*
X91405771Y-126869047D02*
X91405771Y-126678571D01*
X91405771Y-126678571D02*
X91453390Y-126583333D01*
X91453390Y-126583333D02*
X91501009Y-126535714D01*
X91501009Y-126535714D02*
X91596247Y-126488095D01*
X92024819Y-127535714D02*
X92024819Y-127726190D01*
X92024819Y-127726190D02*
X91977200Y-127821428D01*
X91977200Y-127821428D02*
X91929580Y-127869047D01*
X91929580Y-127869047D02*
X91786723Y-127964285D01*
X91786723Y-127964285D02*
X91596247Y-128011904D01*
X91596247Y-128011904D02*
X91215295Y-128011904D01*
X91215295Y-128011904D02*
X91120057Y-127964285D01*
X91120057Y-127964285D02*
X91072438Y-127916666D01*
X91072438Y-127916666D02*
X91024819Y-127821428D01*
X91024819Y-127821428D02*
X91024819Y-127630952D01*
X91024819Y-127630952D02*
X91072438Y-127535714D01*
X91072438Y-127535714D02*
X91120057Y-127488095D01*
X91120057Y-127488095D02*
X91215295Y-127440476D01*
X91215295Y-127440476D02*
X91453390Y-127440476D01*
X91453390Y-127440476D02*
X91548628Y-127488095D01*
X91548628Y-127488095D02*
X91596247Y-127535714D01*
X91596247Y-127535714D02*
X91643866Y-127630952D01*
X91643866Y-127630952D02*
X91643866Y-127821428D01*
X91643866Y-127821428D02*
X91596247Y-127916666D01*
X91596247Y-127916666D02*
X91548628Y-127964285D01*
X91548628Y-127964285D02*
X91453390Y-128011904D01*
X97274819Y-126107142D02*
X96798628Y-125773809D01*
X97274819Y-125535714D02*
X96274819Y-125535714D01*
X96274819Y-125535714D02*
X96274819Y-125916666D01*
X96274819Y-125916666D02*
X96322438Y-126011904D01*
X96322438Y-126011904D02*
X96370057Y-126059523D01*
X96370057Y-126059523D02*
X96465295Y-126107142D01*
X96465295Y-126107142D02*
X96608152Y-126107142D01*
X96608152Y-126107142D02*
X96703390Y-126059523D01*
X96703390Y-126059523D02*
X96751009Y-126011904D01*
X96751009Y-126011904D02*
X96798628Y-125916666D01*
X96798628Y-125916666D02*
X96798628Y-125535714D01*
X96274819Y-126440476D02*
X96274819Y-127107142D01*
X96274819Y-127107142D02*
X97274819Y-126678571D01*
X96274819Y-127392857D02*
X96274819Y-128011904D01*
X96274819Y-128011904D02*
X96655771Y-127678571D01*
X96655771Y-127678571D02*
X96655771Y-127821428D01*
X96655771Y-127821428D02*
X96703390Y-127916666D01*
X96703390Y-127916666D02*
X96751009Y-127964285D01*
X96751009Y-127964285D02*
X96846247Y-128011904D01*
X96846247Y-128011904D02*
X97084342Y-128011904D01*
X97084342Y-128011904D02*
X97179580Y-127964285D01*
X97179580Y-127964285D02*
X97227200Y-127916666D01*
X97227200Y-127916666D02*
X97274819Y-127821428D01*
X97274819Y-127821428D02*
X97274819Y-127535714D01*
X97274819Y-127535714D02*
X97227200Y-127440476D01*
X97227200Y-127440476D02*
X97179580Y-127392857D01*
X51274819Y-126107142D02*
X50798628Y-125773809D01*
X51274819Y-125535714D02*
X50274819Y-125535714D01*
X50274819Y-125535714D02*
X50274819Y-125916666D01*
X50274819Y-125916666D02*
X50322438Y-126011904D01*
X50322438Y-126011904D02*
X50370057Y-126059523D01*
X50370057Y-126059523D02*
X50465295Y-126107142D01*
X50465295Y-126107142D02*
X50608152Y-126107142D01*
X50608152Y-126107142D02*
X50703390Y-126059523D01*
X50703390Y-126059523D02*
X50751009Y-126011904D01*
X50751009Y-126011904D02*
X50798628Y-125916666D01*
X50798628Y-125916666D02*
X50798628Y-125535714D01*
X50274819Y-126440476D02*
X50274819Y-127107142D01*
X50274819Y-127107142D02*
X51274819Y-126678571D01*
X50274819Y-127678571D02*
X50274819Y-127773809D01*
X50274819Y-127773809D02*
X50322438Y-127869047D01*
X50322438Y-127869047D02*
X50370057Y-127916666D01*
X50370057Y-127916666D02*
X50465295Y-127964285D01*
X50465295Y-127964285D02*
X50655771Y-128011904D01*
X50655771Y-128011904D02*
X50893866Y-128011904D01*
X50893866Y-128011904D02*
X51084342Y-127964285D01*
X51084342Y-127964285D02*
X51179580Y-127916666D01*
X51179580Y-127916666D02*
X51227200Y-127869047D01*
X51227200Y-127869047D02*
X51274819Y-127773809D01*
X51274819Y-127773809D02*
X51274819Y-127678571D01*
X51274819Y-127678571D02*
X51227200Y-127583333D01*
X51227200Y-127583333D02*
X51179580Y-127535714D01*
X51179580Y-127535714D02*
X51084342Y-127488095D01*
X51084342Y-127488095D02*
X50893866Y-127440476D01*
X50893866Y-127440476D02*
X50655771Y-127440476D01*
X50655771Y-127440476D02*
X50465295Y-127488095D01*
X50465295Y-127488095D02*
X50370057Y-127535714D01*
X50370057Y-127535714D02*
X50322438Y-127583333D01*
X50322438Y-127583333D02*
X50274819Y-127678571D01*
X82024819Y-126107142D02*
X81548628Y-125773809D01*
X82024819Y-125535714D02*
X81024819Y-125535714D01*
X81024819Y-125535714D02*
X81024819Y-125916666D01*
X81024819Y-125916666D02*
X81072438Y-126011904D01*
X81072438Y-126011904D02*
X81120057Y-126059523D01*
X81120057Y-126059523D02*
X81215295Y-126107142D01*
X81215295Y-126107142D02*
X81358152Y-126107142D01*
X81358152Y-126107142D02*
X81453390Y-126059523D01*
X81453390Y-126059523D02*
X81501009Y-126011904D01*
X81501009Y-126011904D02*
X81548628Y-125916666D01*
X81548628Y-125916666D02*
X81548628Y-125535714D01*
X81024819Y-126440476D02*
X81024819Y-127107142D01*
X81024819Y-127107142D02*
X82024819Y-126678571D01*
X81120057Y-127440476D02*
X81072438Y-127488095D01*
X81072438Y-127488095D02*
X81024819Y-127583333D01*
X81024819Y-127583333D02*
X81024819Y-127821428D01*
X81024819Y-127821428D02*
X81072438Y-127916666D01*
X81072438Y-127916666D02*
X81120057Y-127964285D01*
X81120057Y-127964285D02*
X81215295Y-128011904D01*
X81215295Y-128011904D02*
X81310533Y-128011904D01*
X81310533Y-128011904D02*
X81453390Y-127964285D01*
X81453390Y-127964285D02*
X82024819Y-127392857D01*
X82024819Y-127392857D02*
X82024819Y-128011904D01*
X41524819Y-88607142D02*
X41048628Y-88273809D01*
X41524819Y-88035714D02*
X40524819Y-88035714D01*
X40524819Y-88035714D02*
X40524819Y-88416666D01*
X40524819Y-88416666D02*
X40572438Y-88511904D01*
X40572438Y-88511904D02*
X40620057Y-88559523D01*
X40620057Y-88559523D02*
X40715295Y-88607142D01*
X40715295Y-88607142D02*
X40858152Y-88607142D01*
X40858152Y-88607142D02*
X40953390Y-88559523D01*
X40953390Y-88559523D02*
X41001009Y-88511904D01*
X41001009Y-88511904D02*
X41048628Y-88416666D01*
X41048628Y-88416666D02*
X41048628Y-88035714D01*
X40524819Y-89511904D02*
X40524819Y-89035714D01*
X40524819Y-89035714D02*
X41001009Y-88988095D01*
X41001009Y-88988095D02*
X40953390Y-89035714D01*
X40953390Y-89035714D02*
X40905771Y-89130952D01*
X40905771Y-89130952D02*
X40905771Y-89369047D01*
X40905771Y-89369047D02*
X40953390Y-89464285D01*
X40953390Y-89464285D02*
X41001009Y-89511904D01*
X41001009Y-89511904D02*
X41096247Y-89559523D01*
X41096247Y-89559523D02*
X41334342Y-89559523D01*
X41334342Y-89559523D02*
X41429580Y-89511904D01*
X41429580Y-89511904D02*
X41477200Y-89464285D01*
X41477200Y-89464285D02*
X41524819Y-89369047D01*
X41524819Y-89369047D02*
X41524819Y-89130952D01*
X41524819Y-89130952D02*
X41477200Y-89035714D01*
X41477200Y-89035714D02*
X41429580Y-88988095D01*
X40524819Y-90178571D02*
X40524819Y-90273809D01*
X40524819Y-90273809D02*
X40572438Y-90369047D01*
X40572438Y-90369047D02*
X40620057Y-90416666D01*
X40620057Y-90416666D02*
X40715295Y-90464285D01*
X40715295Y-90464285D02*
X40905771Y-90511904D01*
X40905771Y-90511904D02*
X41143866Y-90511904D01*
X41143866Y-90511904D02*
X41334342Y-90464285D01*
X41334342Y-90464285D02*
X41429580Y-90416666D01*
X41429580Y-90416666D02*
X41477200Y-90369047D01*
X41477200Y-90369047D02*
X41524819Y-90273809D01*
X41524819Y-90273809D02*
X41524819Y-90178571D01*
X41524819Y-90178571D02*
X41477200Y-90083333D01*
X41477200Y-90083333D02*
X41429580Y-90035714D01*
X41429580Y-90035714D02*
X41334342Y-89988095D01*
X41334342Y-89988095D02*
X41143866Y-89940476D01*
X41143866Y-89940476D02*
X40905771Y-89940476D01*
X40905771Y-89940476D02*
X40715295Y-89988095D01*
X40715295Y-89988095D02*
X40620057Y-90035714D01*
X40620057Y-90035714D02*
X40572438Y-90083333D01*
X40572438Y-90083333D02*
X40524819Y-90178571D01*
X61524819Y-89357142D02*
X61048628Y-89023809D01*
X61524819Y-88785714D02*
X60524819Y-88785714D01*
X60524819Y-88785714D02*
X60524819Y-89166666D01*
X60524819Y-89166666D02*
X60572438Y-89261904D01*
X60572438Y-89261904D02*
X60620057Y-89309523D01*
X60620057Y-89309523D02*
X60715295Y-89357142D01*
X60715295Y-89357142D02*
X60858152Y-89357142D01*
X60858152Y-89357142D02*
X60953390Y-89309523D01*
X60953390Y-89309523D02*
X61001009Y-89261904D01*
X61001009Y-89261904D02*
X61048628Y-89166666D01*
X61048628Y-89166666D02*
X61048628Y-88785714D01*
X60524819Y-90261904D02*
X60524819Y-89785714D01*
X60524819Y-89785714D02*
X61001009Y-89738095D01*
X61001009Y-89738095D02*
X60953390Y-89785714D01*
X60953390Y-89785714D02*
X60905771Y-89880952D01*
X60905771Y-89880952D02*
X60905771Y-90119047D01*
X60905771Y-90119047D02*
X60953390Y-90214285D01*
X60953390Y-90214285D02*
X61001009Y-90261904D01*
X61001009Y-90261904D02*
X61096247Y-90309523D01*
X61096247Y-90309523D02*
X61334342Y-90309523D01*
X61334342Y-90309523D02*
X61429580Y-90261904D01*
X61429580Y-90261904D02*
X61477200Y-90214285D01*
X61477200Y-90214285D02*
X61524819Y-90119047D01*
X61524819Y-90119047D02*
X61524819Y-89880952D01*
X61524819Y-89880952D02*
X61477200Y-89785714D01*
X61477200Y-89785714D02*
X61429580Y-89738095D01*
X60524819Y-91214285D02*
X60524819Y-90738095D01*
X60524819Y-90738095D02*
X61001009Y-90690476D01*
X61001009Y-90690476D02*
X60953390Y-90738095D01*
X60953390Y-90738095D02*
X60905771Y-90833333D01*
X60905771Y-90833333D02*
X60905771Y-91071428D01*
X60905771Y-91071428D02*
X60953390Y-91166666D01*
X60953390Y-91166666D02*
X61001009Y-91214285D01*
X61001009Y-91214285D02*
X61096247Y-91261904D01*
X61096247Y-91261904D02*
X61334342Y-91261904D01*
X61334342Y-91261904D02*
X61429580Y-91214285D01*
X61429580Y-91214285D02*
X61477200Y-91166666D01*
X61477200Y-91166666D02*
X61524819Y-91071428D01*
X61524819Y-91071428D02*
X61524819Y-90833333D01*
X61524819Y-90833333D02*
X61477200Y-90738095D01*
X61477200Y-90738095D02*
X61429580Y-90690476D01*
X87024819Y-89857142D02*
X86548628Y-89523809D01*
X87024819Y-89285714D02*
X86024819Y-89285714D01*
X86024819Y-89285714D02*
X86024819Y-89666666D01*
X86024819Y-89666666D02*
X86072438Y-89761904D01*
X86072438Y-89761904D02*
X86120057Y-89809523D01*
X86120057Y-89809523D02*
X86215295Y-89857142D01*
X86215295Y-89857142D02*
X86358152Y-89857142D01*
X86358152Y-89857142D02*
X86453390Y-89809523D01*
X86453390Y-89809523D02*
X86501009Y-89761904D01*
X86501009Y-89761904D02*
X86548628Y-89666666D01*
X86548628Y-89666666D02*
X86548628Y-89285714D01*
X86024819Y-90761904D02*
X86024819Y-90285714D01*
X86024819Y-90285714D02*
X86501009Y-90238095D01*
X86501009Y-90238095D02*
X86453390Y-90285714D01*
X86453390Y-90285714D02*
X86405771Y-90380952D01*
X86405771Y-90380952D02*
X86405771Y-90619047D01*
X86405771Y-90619047D02*
X86453390Y-90714285D01*
X86453390Y-90714285D02*
X86501009Y-90761904D01*
X86501009Y-90761904D02*
X86596247Y-90809523D01*
X86596247Y-90809523D02*
X86834342Y-90809523D01*
X86834342Y-90809523D02*
X86929580Y-90761904D01*
X86929580Y-90761904D02*
X86977200Y-90714285D01*
X86977200Y-90714285D02*
X87024819Y-90619047D01*
X87024819Y-90619047D02*
X87024819Y-90380952D01*
X87024819Y-90380952D02*
X86977200Y-90285714D01*
X86977200Y-90285714D02*
X86929580Y-90238095D01*
X86024819Y-91142857D02*
X86024819Y-91761904D01*
X86024819Y-91761904D02*
X86405771Y-91428571D01*
X86405771Y-91428571D02*
X86405771Y-91571428D01*
X86405771Y-91571428D02*
X86453390Y-91666666D01*
X86453390Y-91666666D02*
X86501009Y-91714285D01*
X86501009Y-91714285D02*
X86596247Y-91761904D01*
X86596247Y-91761904D02*
X86834342Y-91761904D01*
X86834342Y-91761904D02*
X86929580Y-91714285D01*
X86929580Y-91714285D02*
X86977200Y-91666666D01*
X86977200Y-91666666D02*
X87024819Y-91571428D01*
X87024819Y-91571428D02*
X87024819Y-91285714D01*
X87024819Y-91285714D02*
X86977200Y-91190476D01*
X86977200Y-91190476D02*
X86929580Y-91142857D01*
X91524819Y-89682142D02*
X91048628Y-89348809D01*
X91524819Y-89110714D02*
X90524819Y-89110714D01*
X90524819Y-89110714D02*
X90524819Y-89491666D01*
X90524819Y-89491666D02*
X90572438Y-89586904D01*
X90572438Y-89586904D02*
X90620057Y-89634523D01*
X90620057Y-89634523D02*
X90715295Y-89682142D01*
X90715295Y-89682142D02*
X90858152Y-89682142D01*
X90858152Y-89682142D02*
X90953390Y-89634523D01*
X90953390Y-89634523D02*
X91001009Y-89586904D01*
X91001009Y-89586904D02*
X91048628Y-89491666D01*
X91048628Y-89491666D02*
X91048628Y-89110714D01*
X90524819Y-90586904D02*
X90524819Y-90110714D01*
X90524819Y-90110714D02*
X91001009Y-90063095D01*
X91001009Y-90063095D02*
X90953390Y-90110714D01*
X90953390Y-90110714D02*
X90905771Y-90205952D01*
X90905771Y-90205952D02*
X90905771Y-90444047D01*
X90905771Y-90444047D02*
X90953390Y-90539285D01*
X90953390Y-90539285D02*
X91001009Y-90586904D01*
X91001009Y-90586904D02*
X91096247Y-90634523D01*
X91096247Y-90634523D02*
X91334342Y-90634523D01*
X91334342Y-90634523D02*
X91429580Y-90586904D01*
X91429580Y-90586904D02*
X91477200Y-90539285D01*
X91477200Y-90539285D02*
X91524819Y-90444047D01*
X91524819Y-90444047D02*
X91524819Y-90205952D01*
X91524819Y-90205952D02*
X91477200Y-90110714D01*
X91477200Y-90110714D02*
X91429580Y-90063095D01*
X90524819Y-90967857D02*
X90524819Y-91634523D01*
X90524819Y-91634523D02*
X91524819Y-91205952D01*
X56274819Y-89107142D02*
X55798628Y-88773809D01*
X56274819Y-88535714D02*
X55274819Y-88535714D01*
X55274819Y-88535714D02*
X55274819Y-88916666D01*
X55274819Y-88916666D02*
X55322438Y-89011904D01*
X55322438Y-89011904D02*
X55370057Y-89059523D01*
X55370057Y-89059523D02*
X55465295Y-89107142D01*
X55465295Y-89107142D02*
X55608152Y-89107142D01*
X55608152Y-89107142D02*
X55703390Y-89059523D01*
X55703390Y-89059523D02*
X55751009Y-89011904D01*
X55751009Y-89011904D02*
X55798628Y-88916666D01*
X55798628Y-88916666D02*
X55798628Y-88535714D01*
X55274819Y-90011904D02*
X55274819Y-89535714D01*
X55274819Y-89535714D02*
X55751009Y-89488095D01*
X55751009Y-89488095D02*
X55703390Y-89535714D01*
X55703390Y-89535714D02*
X55655771Y-89630952D01*
X55655771Y-89630952D02*
X55655771Y-89869047D01*
X55655771Y-89869047D02*
X55703390Y-89964285D01*
X55703390Y-89964285D02*
X55751009Y-90011904D01*
X55751009Y-90011904D02*
X55846247Y-90059523D01*
X55846247Y-90059523D02*
X56084342Y-90059523D01*
X56084342Y-90059523D02*
X56179580Y-90011904D01*
X56179580Y-90011904D02*
X56227200Y-89964285D01*
X56227200Y-89964285D02*
X56274819Y-89869047D01*
X56274819Y-89869047D02*
X56274819Y-89630952D01*
X56274819Y-89630952D02*
X56227200Y-89535714D01*
X56227200Y-89535714D02*
X56179580Y-89488095D01*
X56274819Y-91011904D02*
X56274819Y-90440476D01*
X56274819Y-90726190D02*
X55274819Y-90726190D01*
X55274819Y-90726190D02*
X55417676Y-90630952D01*
X55417676Y-90630952D02*
X55512914Y-90535714D01*
X55512914Y-90535714D02*
X55560533Y-90440476D01*
X76774819Y-126107142D02*
X76298628Y-125773809D01*
X76774819Y-125535714D02*
X75774819Y-125535714D01*
X75774819Y-125535714D02*
X75774819Y-125916666D01*
X75774819Y-125916666D02*
X75822438Y-126011904D01*
X75822438Y-126011904D02*
X75870057Y-126059523D01*
X75870057Y-126059523D02*
X75965295Y-126107142D01*
X75965295Y-126107142D02*
X76108152Y-126107142D01*
X76108152Y-126107142D02*
X76203390Y-126059523D01*
X76203390Y-126059523D02*
X76251009Y-126011904D01*
X76251009Y-126011904D02*
X76298628Y-125916666D01*
X76298628Y-125916666D02*
X76298628Y-125535714D01*
X75774819Y-126964285D02*
X75774819Y-126773809D01*
X75774819Y-126773809D02*
X75822438Y-126678571D01*
X75822438Y-126678571D02*
X75870057Y-126630952D01*
X75870057Y-126630952D02*
X76012914Y-126535714D01*
X76012914Y-126535714D02*
X76203390Y-126488095D01*
X76203390Y-126488095D02*
X76584342Y-126488095D01*
X76584342Y-126488095D02*
X76679580Y-126535714D01*
X76679580Y-126535714D02*
X76727200Y-126583333D01*
X76727200Y-126583333D02*
X76774819Y-126678571D01*
X76774819Y-126678571D02*
X76774819Y-126869047D01*
X76774819Y-126869047D02*
X76727200Y-126964285D01*
X76727200Y-126964285D02*
X76679580Y-127011904D01*
X76679580Y-127011904D02*
X76584342Y-127059523D01*
X76584342Y-127059523D02*
X76346247Y-127059523D01*
X76346247Y-127059523D02*
X76251009Y-127011904D01*
X76251009Y-127011904D02*
X76203390Y-126964285D01*
X76203390Y-126964285D02*
X76155771Y-126869047D01*
X76155771Y-126869047D02*
X76155771Y-126678571D01*
X76155771Y-126678571D02*
X76203390Y-126583333D01*
X76203390Y-126583333D02*
X76251009Y-126535714D01*
X76251009Y-126535714D02*
X76346247Y-126488095D01*
X76203390Y-127630952D02*
X76155771Y-127535714D01*
X76155771Y-127535714D02*
X76108152Y-127488095D01*
X76108152Y-127488095D02*
X76012914Y-127440476D01*
X76012914Y-127440476D02*
X75965295Y-127440476D01*
X75965295Y-127440476D02*
X75870057Y-127488095D01*
X75870057Y-127488095D02*
X75822438Y-127535714D01*
X75822438Y-127535714D02*
X75774819Y-127630952D01*
X75774819Y-127630952D02*
X75774819Y-127821428D01*
X75774819Y-127821428D02*
X75822438Y-127916666D01*
X75822438Y-127916666D02*
X75870057Y-127964285D01*
X75870057Y-127964285D02*
X75965295Y-128011904D01*
X75965295Y-128011904D02*
X76012914Y-128011904D01*
X76012914Y-128011904D02*
X76108152Y-127964285D01*
X76108152Y-127964285D02*
X76155771Y-127916666D01*
X76155771Y-127916666D02*
X76203390Y-127821428D01*
X76203390Y-127821428D02*
X76203390Y-127630952D01*
X76203390Y-127630952D02*
X76251009Y-127535714D01*
X76251009Y-127535714D02*
X76298628Y-127488095D01*
X76298628Y-127488095D02*
X76393866Y-127440476D01*
X76393866Y-127440476D02*
X76584342Y-127440476D01*
X76584342Y-127440476D02*
X76679580Y-127488095D01*
X76679580Y-127488095D02*
X76727200Y-127535714D01*
X76727200Y-127535714D02*
X76774819Y-127630952D01*
X76774819Y-127630952D02*
X76774819Y-127821428D01*
X76774819Y-127821428D02*
X76727200Y-127916666D01*
X76727200Y-127916666D02*
X76679580Y-127964285D01*
X76679580Y-127964285D02*
X76584342Y-128011904D01*
X76584342Y-128011904D02*
X76393866Y-128011904D01*
X76393866Y-128011904D02*
X76298628Y-127964285D01*
X76298628Y-127964285D02*
X76251009Y-127916666D01*
X76251009Y-127916666D02*
X76203390Y-127821428D01*
X45454819Y-125107142D02*
X44978628Y-124773809D01*
X45454819Y-124535714D02*
X44454819Y-124535714D01*
X44454819Y-124535714D02*
X44454819Y-124916666D01*
X44454819Y-124916666D02*
X44502438Y-125011904D01*
X44502438Y-125011904D02*
X44550057Y-125059523D01*
X44550057Y-125059523D02*
X44645295Y-125107142D01*
X44645295Y-125107142D02*
X44788152Y-125107142D01*
X44788152Y-125107142D02*
X44883390Y-125059523D01*
X44883390Y-125059523D02*
X44931009Y-125011904D01*
X44931009Y-125011904D02*
X44978628Y-124916666D01*
X44978628Y-124916666D02*
X44978628Y-124535714D01*
X44454819Y-125964285D02*
X44454819Y-125773809D01*
X44454819Y-125773809D02*
X44502438Y-125678571D01*
X44502438Y-125678571D02*
X44550057Y-125630952D01*
X44550057Y-125630952D02*
X44692914Y-125535714D01*
X44692914Y-125535714D02*
X44883390Y-125488095D01*
X44883390Y-125488095D02*
X45264342Y-125488095D01*
X45264342Y-125488095D02*
X45359580Y-125535714D01*
X45359580Y-125535714D02*
X45407200Y-125583333D01*
X45407200Y-125583333D02*
X45454819Y-125678571D01*
X45454819Y-125678571D02*
X45454819Y-125869047D01*
X45454819Y-125869047D02*
X45407200Y-125964285D01*
X45407200Y-125964285D02*
X45359580Y-126011904D01*
X45359580Y-126011904D02*
X45264342Y-126059523D01*
X45264342Y-126059523D02*
X45026247Y-126059523D01*
X45026247Y-126059523D02*
X44931009Y-126011904D01*
X44931009Y-126011904D02*
X44883390Y-125964285D01*
X44883390Y-125964285D02*
X44835771Y-125869047D01*
X44835771Y-125869047D02*
X44835771Y-125678571D01*
X44835771Y-125678571D02*
X44883390Y-125583333D01*
X44883390Y-125583333D02*
X44931009Y-125535714D01*
X44931009Y-125535714D02*
X45026247Y-125488095D01*
X44454819Y-126916666D02*
X44454819Y-126726190D01*
X44454819Y-126726190D02*
X44502438Y-126630952D01*
X44502438Y-126630952D02*
X44550057Y-126583333D01*
X44550057Y-126583333D02*
X44692914Y-126488095D01*
X44692914Y-126488095D02*
X44883390Y-126440476D01*
X44883390Y-126440476D02*
X45264342Y-126440476D01*
X45264342Y-126440476D02*
X45359580Y-126488095D01*
X45359580Y-126488095D02*
X45407200Y-126535714D01*
X45407200Y-126535714D02*
X45454819Y-126630952D01*
X45454819Y-126630952D02*
X45454819Y-126821428D01*
X45454819Y-126821428D02*
X45407200Y-126916666D01*
X45407200Y-126916666D02*
X45359580Y-126964285D01*
X45359580Y-126964285D02*
X45264342Y-127011904D01*
X45264342Y-127011904D02*
X45026247Y-127011904D01*
X45026247Y-127011904D02*
X44931009Y-126964285D01*
X44931009Y-126964285D02*
X44883390Y-126916666D01*
X44883390Y-126916666D02*
X44835771Y-126821428D01*
X44835771Y-126821428D02*
X44835771Y-126630952D01*
X44835771Y-126630952D02*
X44883390Y-126535714D01*
X44883390Y-126535714D02*
X44931009Y-126488095D01*
X44931009Y-126488095D02*
X45026247Y-126440476D01*
X97274819Y-89857142D02*
X96798628Y-89523809D01*
X97274819Y-89285714D02*
X96274819Y-89285714D01*
X96274819Y-89285714D02*
X96274819Y-89666666D01*
X96274819Y-89666666D02*
X96322438Y-89761904D01*
X96322438Y-89761904D02*
X96370057Y-89809523D01*
X96370057Y-89809523D02*
X96465295Y-89857142D01*
X96465295Y-89857142D02*
X96608152Y-89857142D01*
X96608152Y-89857142D02*
X96703390Y-89809523D01*
X96703390Y-89809523D02*
X96751009Y-89761904D01*
X96751009Y-89761904D02*
X96798628Y-89666666D01*
X96798628Y-89666666D02*
X96798628Y-89285714D01*
X96274819Y-90714285D02*
X96274819Y-90523809D01*
X96274819Y-90523809D02*
X96322438Y-90428571D01*
X96322438Y-90428571D02*
X96370057Y-90380952D01*
X96370057Y-90380952D02*
X96512914Y-90285714D01*
X96512914Y-90285714D02*
X96703390Y-90238095D01*
X96703390Y-90238095D02*
X97084342Y-90238095D01*
X97084342Y-90238095D02*
X97179580Y-90285714D01*
X97179580Y-90285714D02*
X97227200Y-90333333D01*
X97227200Y-90333333D02*
X97274819Y-90428571D01*
X97274819Y-90428571D02*
X97274819Y-90619047D01*
X97274819Y-90619047D02*
X97227200Y-90714285D01*
X97227200Y-90714285D02*
X97179580Y-90761904D01*
X97179580Y-90761904D02*
X97084342Y-90809523D01*
X97084342Y-90809523D02*
X96846247Y-90809523D01*
X96846247Y-90809523D02*
X96751009Y-90761904D01*
X96751009Y-90761904D02*
X96703390Y-90714285D01*
X96703390Y-90714285D02*
X96655771Y-90619047D01*
X96655771Y-90619047D02*
X96655771Y-90428571D01*
X96655771Y-90428571D02*
X96703390Y-90333333D01*
X96703390Y-90333333D02*
X96751009Y-90285714D01*
X96751009Y-90285714D02*
X96846247Y-90238095D01*
X97274819Y-91761904D02*
X97274819Y-91190476D01*
X97274819Y-91476190D02*
X96274819Y-91476190D01*
X96274819Y-91476190D02*
X96417676Y-91380952D01*
X96417676Y-91380952D02*
X96512914Y-91285714D01*
X96512914Y-91285714D02*
X96560533Y-91190476D01*
X71524819Y-126107142D02*
X71048628Y-125773809D01*
X71524819Y-125535714D02*
X70524819Y-125535714D01*
X70524819Y-125535714D02*
X70524819Y-125916666D01*
X70524819Y-125916666D02*
X70572438Y-126011904D01*
X70572438Y-126011904D02*
X70620057Y-126059523D01*
X70620057Y-126059523D02*
X70715295Y-126107142D01*
X70715295Y-126107142D02*
X70858152Y-126107142D01*
X70858152Y-126107142D02*
X70953390Y-126059523D01*
X70953390Y-126059523D02*
X71001009Y-126011904D01*
X71001009Y-126011904D02*
X71048628Y-125916666D01*
X71048628Y-125916666D02*
X71048628Y-125535714D01*
X70524819Y-126964285D02*
X70524819Y-126773809D01*
X70524819Y-126773809D02*
X70572438Y-126678571D01*
X70572438Y-126678571D02*
X70620057Y-126630952D01*
X70620057Y-126630952D02*
X70762914Y-126535714D01*
X70762914Y-126535714D02*
X70953390Y-126488095D01*
X70953390Y-126488095D02*
X71334342Y-126488095D01*
X71334342Y-126488095D02*
X71429580Y-126535714D01*
X71429580Y-126535714D02*
X71477200Y-126583333D01*
X71477200Y-126583333D02*
X71524819Y-126678571D01*
X71524819Y-126678571D02*
X71524819Y-126869047D01*
X71524819Y-126869047D02*
X71477200Y-126964285D01*
X71477200Y-126964285D02*
X71429580Y-127011904D01*
X71429580Y-127011904D02*
X71334342Y-127059523D01*
X71334342Y-127059523D02*
X71096247Y-127059523D01*
X71096247Y-127059523D02*
X71001009Y-127011904D01*
X71001009Y-127011904D02*
X70953390Y-126964285D01*
X70953390Y-126964285D02*
X70905771Y-126869047D01*
X70905771Y-126869047D02*
X70905771Y-126678571D01*
X70905771Y-126678571D02*
X70953390Y-126583333D01*
X70953390Y-126583333D02*
X71001009Y-126535714D01*
X71001009Y-126535714D02*
X71096247Y-126488095D01*
X70858152Y-127916666D02*
X71524819Y-127916666D01*
X70477200Y-127678571D02*
X71191485Y-127440476D01*
X71191485Y-127440476D02*
X71191485Y-128059523D01*
X76774819Y-89107142D02*
X76298628Y-88773809D01*
X76774819Y-88535714D02*
X75774819Y-88535714D01*
X75774819Y-88535714D02*
X75774819Y-88916666D01*
X75774819Y-88916666D02*
X75822438Y-89011904D01*
X75822438Y-89011904D02*
X75870057Y-89059523D01*
X75870057Y-89059523D02*
X75965295Y-89107142D01*
X75965295Y-89107142D02*
X76108152Y-89107142D01*
X76108152Y-89107142D02*
X76203390Y-89059523D01*
X76203390Y-89059523D02*
X76251009Y-89011904D01*
X76251009Y-89011904D02*
X76298628Y-88916666D01*
X76298628Y-88916666D02*
X76298628Y-88535714D01*
X75774819Y-90011904D02*
X75774819Y-89535714D01*
X75774819Y-89535714D02*
X76251009Y-89488095D01*
X76251009Y-89488095D02*
X76203390Y-89535714D01*
X76203390Y-89535714D02*
X76155771Y-89630952D01*
X76155771Y-89630952D02*
X76155771Y-89869047D01*
X76155771Y-89869047D02*
X76203390Y-89964285D01*
X76203390Y-89964285D02*
X76251009Y-90011904D01*
X76251009Y-90011904D02*
X76346247Y-90059523D01*
X76346247Y-90059523D02*
X76584342Y-90059523D01*
X76584342Y-90059523D02*
X76679580Y-90011904D01*
X76679580Y-90011904D02*
X76727200Y-89964285D01*
X76727200Y-89964285D02*
X76774819Y-89869047D01*
X76774819Y-89869047D02*
X76774819Y-89630952D01*
X76774819Y-89630952D02*
X76727200Y-89535714D01*
X76727200Y-89535714D02*
X76679580Y-89488095D01*
X75774819Y-90916666D02*
X75774819Y-90726190D01*
X75774819Y-90726190D02*
X75822438Y-90630952D01*
X75822438Y-90630952D02*
X75870057Y-90583333D01*
X75870057Y-90583333D02*
X76012914Y-90488095D01*
X76012914Y-90488095D02*
X76203390Y-90440476D01*
X76203390Y-90440476D02*
X76584342Y-90440476D01*
X76584342Y-90440476D02*
X76679580Y-90488095D01*
X76679580Y-90488095D02*
X76727200Y-90535714D01*
X76727200Y-90535714D02*
X76774819Y-90630952D01*
X76774819Y-90630952D02*
X76774819Y-90821428D01*
X76774819Y-90821428D02*
X76727200Y-90916666D01*
X76727200Y-90916666D02*
X76679580Y-90964285D01*
X76679580Y-90964285D02*
X76584342Y-91011904D01*
X76584342Y-91011904D02*
X76346247Y-91011904D01*
X76346247Y-91011904D02*
X76251009Y-90964285D01*
X76251009Y-90964285D02*
X76203390Y-90916666D01*
X76203390Y-90916666D02*
X76155771Y-90821428D01*
X76155771Y-90821428D02*
X76155771Y-90630952D01*
X76155771Y-90630952D02*
X76203390Y-90535714D01*
X76203390Y-90535714D02*
X76251009Y-90488095D01*
X76251009Y-90488095D02*
X76346247Y-90440476D01*
X56134819Y-72357142D02*
X55658628Y-72023809D01*
X56134819Y-71785714D02*
X55134819Y-71785714D01*
X55134819Y-71785714D02*
X55134819Y-72166666D01*
X55134819Y-72166666D02*
X55182438Y-72261904D01*
X55182438Y-72261904D02*
X55230057Y-72309523D01*
X55230057Y-72309523D02*
X55325295Y-72357142D01*
X55325295Y-72357142D02*
X55468152Y-72357142D01*
X55468152Y-72357142D02*
X55563390Y-72309523D01*
X55563390Y-72309523D02*
X55611009Y-72261904D01*
X55611009Y-72261904D02*
X55658628Y-72166666D01*
X55658628Y-72166666D02*
X55658628Y-71785714D01*
X55468152Y-73214285D02*
X56134819Y-73214285D01*
X55087200Y-72976190D02*
X55801485Y-72738095D01*
X55801485Y-72738095D02*
X55801485Y-73357142D01*
X56134819Y-73785714D02*
X56134819Y-73976190D01*
X56134819Y-73976190D02*
X56087200Y-74071428D01*
X56087200Y-74071428D02*
X56039580Y-74119047D01*
X56039580Y-74119047D02*
X55896723Y-74214285D01*
X55896723Y-74214285D02*
X55706247Y-74261904D01*
X55706247Y-74261904D02*
X55325295Y-74261904D01*
X55325295Y-74261904D02*
X55230057Y-74214285D01*
X55230057Y-74214285D02*
X55182438Y-74166666D01*
X55182438Y-74166666D02*
X55134819Y-74071428D01*
X55134819Y-74071428D02*
X55134819Y-73880952D01*
X55134819Y-73880952D02*
X55182438Y-73785714D01*
X55182438Y-73785714D02*
X55230057Y-73738095D01*
X55230057Y-73738095D02*
X55325295Y-73690476D01*
X55325295Y-73690476D02*
X55563390Y-73690476D01*
X55563390Y-73690476D02*
X55658628Y-73738095D01*
X55658628Y-73738095D02*
X55706247Y-73785714D01*
X55706247Y-73785714D02*
X55753866Y-73880952D01*
X55753866Y-73880952D02*
X55753866Y-74071428D01*
X55753866Y-74071428D02*
X55706247Y-74166666D01*
X55706247Y-74166666D02*
X55658628Y-74214285D01*
X55658628Y-74214285D02*
X55563390Y-74261904D01*
X51774819Y-89607142D02*
X51298628Y-89273809D01*
X51774819Y-89035714D02*
X50774819Y-89035714D01*
X50774819Y-89035714D02*
X50774819Y-89416666D01*
X50774819Y-89416666D02*
X50822438Y-89511904D01*
X50822438Y-89511904D02*
X50870057Y-89559523D01*
X50870057Y-89559523D02*
X50965295Y-89607142D01*
X50965295Y-89607142D02*
X51108152Y-89607142D01*
X51108152Y-89607142D02*
X51203390Y-89559523D01*
X51203390Y-89559523D02*
X51251009Y-89511904D01*
X51251009Y-89511904D02*
X51298628Y-89416666D01*
X51298628Y-89416666D02*
X51298628Y-89035714D01*
X50774819Y-90511904D02*
X50774819Y-90035714D01*
X50774819Y-90035714D02*
X51251009Y-89988095D01*
X51251009Y-89988095D02*
X51203390Y-90035714D01*
X51203390Y-90035714D02*
X51155771Y-90130952D01*
X51155771Y-90130952D02*
X51155771Y-90369047D01*
X51155771Y-90369047D02*
X51203390Y-90464285D01*
X51203390Y-90464285D02*
X51251009Y-90511904D01*
X51251009Y-90511904D02*
X51346247Y-90559523D01*
X51346247Y-90559523D02*
X51584342Y-90559523D01*
X51584342Y-90559523D02*
X51679580Y-90511904D01*
X51679580Y-90511904D02*
X51727200Y-90464285D01*
X51727200Y-90464285D02*
X51774819Y-90369047D01*
X51774819Y-90369047D02*
X51774819Y-90130952D01*
X51774819Y-90130952D02*
X51727200Y-90035714D01*
X51727200Y-90035714D02*
X51679580Y-89988095D01*
X51203390Y-91130952D02*
X51155771Y-91035714D01*
X51155771Y-91035714D02*
X51108152Y-90988095D01*
X51108152Y-90988095D02*
X51012914Y-90940476D01*
X51012914Y-90940476D02*
X50965295Y-90940476D01*
X50965295Y-90940476D02*
X50870057Y-90988095D01*
X50870057Y-90988095D02*
X50822438Y-91035714D01*
X50822438Y-91035714D02*
X50774819Y-91130952D01*
X50774819Y-91130952D02*
X50774819Y-91321428D01*
X50774819Y-91321428D02*
X50822438Y-91416666D01*
X50822438Y-91416666D02*
X50870057Y-91464285D01*
X50870057Y-91464285D02*
X50965295Y-91511904D01*
X50965295Y-91511904D02*
X51012914Y-91511904D01*
X51012914Y-91511904D02*
X51108152Y-91464285D01*
X51108152Y-91464285D02*
X51155771Y-91416666D01*
X51155771Y-91416666D02*
X51203390Y-91321428D01*
X51203390Y-91321428D02*
X51203390Y-91130952D01*
X51203390Y-91130952D02*
X51251009Y-91035714D01*
X51251009Y-91035714D02*
X51298628Y-90988095D01*
X51298628Y-90988095D02*
X51393866Y-90940476D01*
X51393866Y-90940476D02*
X51584342Y-90940476D01*
X51584342Y-90940476D02*
X51679580Y-90988095D01*
X51679580Y-90988095D02*
X51727200Y-91035714D01*
X51727200Y-91035714D02*
X51774819Y-91130952D01*
X51774819Y-91130952D02*
X51774819Y-91321428D01*
X51774819Y-91321428D02*
X51727200Y-91416666D01*
X51727200Y-91416666D02*
X51679580Y-91464285D01*
X51679580Y-91464285D02*
X51584342Y-91511904D01*
X51584342Y-91511904D02*
X51393866Y-91511904D01*
X51393866Y-91511904D02*
X51298628Y-91464285D01*
X51298628Y-91464285D02*
X51251009Y-91416666D01*
X51251009Y-91416666D02*
X51203390Y-91321428D01*
X66524819Y-126107142D02*
X66048628Y-125773809D01*
X66524819Y-125535714D02*
X65524819Y-125535714D01*
X65524819Y-125535714D02*
X65524819Y-125916666D01*
X65524819Y-125916666D02*
X65572438Y-126011904D01*
X65572438Y-126011904D02*
X65620057Y-126059523D01*
X65620057Y-126059523D02*
X65715295Y-126107142D01*
X65715295Y-126107142D02*
X65858152Y-126107142D01*
X65858152Y-126107142D02*
X65953390Y-126059523D01*
X65953390Y-126059523D02*
X66001009Y-126011904D01*
X66001009Y-126011904D02*
X66048628Y-125916666D01*
X66048628Y-125916666D02*
X66048628Y-125535714D01*
X65524819Y-126440476D02*
X65524819Y-127107142D01*
X65524819Y-127107142D02*
X66524819Y-126678571D01*
X66524819Y-128011904D02*
X66524819Y-127440476D01*
X66524819Y-127726190D02*
X65524819Y-127726190D01*
X65524819Y-127726190D02*
X65667676Y-127630952D01*
X65667676Y-127630952D02*
X65762914Y-127535714D01*
X65762914Y-127535714D02*
X65810533Y-127440476D01*
X81774819Y-89357142D02*
X81298628Y-89023809D01*
X81774819Y-88785714D02*
X80774819Y-88785714D01*
X80774819Y-88785714D02*
X80774819Y-89166666D01*
X80774819Y-89166666D02*
X80822438Y-89261904D01*
X80822438Y-89261904D02*
X80870057Y-89309523D01*
X80870057Y-89309523D02*
X80965295Y-89357142D01*
X80965295Y-89357142D02*
X81108152Y-89357142D01*
X81108152Y-89357142D02*
X81203390Y-89309523D01*
X81203390Y-89309523D02*
X81251009Y-89261904D01*
X81251009Y-89261904D02*
X81298628Y-89166666D01*
X81298628Y-89166666D02*
X81298628Y-88785714D01*
X80774819Y-90214285D02*
X80774819Y-90023809D01*
X80774819Y-90023809D02*
X80822438Y-89928571D01*
X80822438Y-89928571D02*
X80870057Y-89880952D01*
X80870057Y-89880952D02*
X81012914Y-89785714D01*
X81012914Y-89785714D02*
X81203390Y-89738095D01*
X81203390Y-89738095D02*
X81584342Y-89738095D01*
X81584342Y-89738095D02*
X81679580Y-89785714D01*
X81679580Y-89785714D02*
X81727200Y-89833333D01*
X81727200Y-89833333D02*
X81774819Y-89928571D01*
X81774819Y-89928571D02*
X81774819Y-90119047D01*
X81774819Y-90119047D02*
X81727200Y-90214285D01*
X81727200Y-90214285D02*
X81679580Y-90261904D01*
X81679580Y-90261904D02*
X81584342Y-90309523D01*
X81584342Y-90309523D02*
X81346247Y-90309523D01*
X81346247Y-90309523D02*
X81251009Y-90261904D01*
X81251009Y-90261904D02*
X81203390Y-90214285D01*
X81203390Y-90214285D02*
X81155771Y-90119047D01*
X81155771Y-90119047D02*
X81155771Y-89928571D01*
X81155771Y-89928571D02*
X81203390Y-89833333D01*
X81203390Y-89833333D02*
X81251009Y-89785714D01*
X81251009Y-89785714D02*
X81346247Y-89738095D01*
X80774819Y-90928571D02*
X80774819Y-91023809D01*
X80774819Y-91023809D02*
X80822438Y-91119047D01*
X80822438Y-91119047D02*
X80870057Y-91166666D01*
X80870057Y-91166666D02*
X80965295Y-91214285D01*
X80965295Y-91214285D02*
X81155771Y-91261904D01*
X81155771Y-91261904D02*
X81393866Y-91261904D01*
X81393866Y-91261904D02*
X81584342Y-91214285D01*
X81584342Y-91214285D02*
X81679580Y-91166666D01*
X81679580Y-91166666D02*
X81727200Y-91119047D01*
X81727200Y-91119047D02*
X81774819Y-91023809D01*
X81774819Y-91023809D02*
X81774819Y-90928571D01*
X81774819Y-90928571D02*
X81727200Y-90833333D01*
X81727200Y-90833333D02*
X81679580Y-90785714D01*
X81679580Y-90785714D02*
X81584342Y-90738095D01*
X81584342Y-90738095D02*
X81393866Y-90690476D01*
X81393866Y-90690476D02*
X81155771Y-90690476D01*
X81155771Y-90690476D02*
X80965295Y-90738095D01*
X80965295Y-90738095D02*
X80870057Y-90785714D01*
X80870057Y-90785714D02*
X80822438Y-90833333D01*
X80822438Y-90833333D02*
X80774819Y-90928571D01*
X71774819Y-89107142D02*
X71298628Y-88773809D01*
X71774819Y-88535714D02*
X70774819Y-88535714D01*
X70774819Y-88535714D02*
X70774819Y-88916666D01*
X70774819Y-88916666D02*
X70822438Y-89011904D01*
X70822438Y-89011904D02*
X70870057Y-89059523D01*
X70870057Y-89059523D02*
X70965295Y-89107142D01*
X70965295Y-89107142D02*
X71108152Y-89107142D01*
X71108152Y-89107142D02*
X71203390Y-89059523D01*
X71203390Y-89059523D02*
X71251009Y-89011904D01*
X71251009Y-89011904D02*
X71298628Y-88916666D01*
X71298628Y-88916666D02*
X71298628Y-88535714D01*
X70774819Y-90011904D02*
X70774819Y-89535714D01*
X70774819Y-89535714D02*
X71251009Y-89488095D01*
X71251009Y-89488095D02*
X71203390Y-89535714D01*
X71203390Y-89535714D02*
X71155771Y-89630952D01*
X71155771Y-89630952D02*
X71155771Y-89869047D01*
X71155771Y-89869047D02*
X71203390Y-89964285D01*
X71203390Y-89964285D02*
X71251009Y-90011904D01*
X71251009Y-90011904D02*
X71346247Y-90059523D01*
X71346247Y-90059523D02*
X71584342Y-90059523D01*
X71584342Y-90059523D02*
X71679580Y-90011904D01*
X71679580Y-90011904D02*
X71727200Y-89964285D01*
X71727200Y-89964285D02*
X71774819Y-89869047D01*
X71774819Y-89869047D02*
X71774819Y-89630952D01*
X71774819Y-89630952D02*
X71727200Y-89535714D01*
X71727200Y-89535714D02*
X71679580Y-89488095D01*
X70870057Y-90440476D02*
X70822438Y-90488095D01*
X70822438Y-90488095D02*
X70774819Y-90583333D01*
X70774819Y-90583333D02*
X70774819Y-90821428D01*
X70774819Y-90821428D02*
X70822438Y-90916666D01*
X70822438Y-90916666D02*
X70870057Y-90964285D01*
X70870057Y-90964285D02*
X70965295Y-91011904D01*
X70965295Y-91011904D02*
X71060533Y-91011904D01*
X71060533Y-91011904D02*
X71203390Y-90964285D01*
X71203390Y-90964285D02*
X71774819Y-90392857D01*
X71774819Y-90392857D02*
X71774819Y-91011904D01*
X87024819Y-126107142D02*
X86548628Y-125773809D01*
X87024819Y-125535714D02*
X86024819Y-125535714D01*
X86024819Y-125535714D02*
X86024819Y-125916666D01*
X86024819Y-125916666D02*
X86072438Y-126011904D01*
X86072438Y-126011904D02*
X86120057Y-126059523D01*
X86120057Y-126059523D02*
X86215295Y-126107142D01*
X86215295Y-126107142D02*
X86358152Y-126107142D01*
X86358152Y-126107142D02*
X86453390Y-126059523D01*
X86453390Y-126059523D02*
X86501009Y-126011904D01*
X86501009Y-126011904D02*
X86548628Y-125916666D01*
X86548628Y-125916666D02*
X86548628Y-125535714D01*
X86024819Y-126964285D02*
X86024819Y-126773809D01*
X86024819Y-126773809D02*
X86072438Y-126678571D01*
X86072438Y-126678571D02*
X86120057Y-126630952D01*
X86120057Y-126630952D02*
X86262914Y-126535714D01*
X86262914Y-126535714D02*
X86453390Y-126488095D01*
X86453390Y-126488095D02*
X86834342Y-126488095D01*
X86834342Y-126488095D02*
X86929580Y-126535714D01*
X86929580Y-126535714D02*
X86977200Y-126583333D01*
X86977200Y-126583333D02*
X87024819Y-126678571D01*
X87024819Y-126678571D02*
X87024819Y-126869047D01*
X87024819Y-126869047D02*
X86977200Y-126964285D01*
X86977200Y-126964285D02*
X86929580Y-127011904D01*
X86929580Y-127011904D02*
X86834342Y-127059523D01*
X86834342Y-127059523D02*
X86596247Y-127059523D01*
X86596247Y-127059523D02*
X86501009Y-127011904D01*
X86501009Y-127011904D02*
X86453390Y-126964285D01*
X86453390Y-126964285D02*
X86405771Y-126869047D01*
X86405771Y-126869047D02*
X86405771Y-126678571D01*
X86405771Y-126678571D02*
X86453390Y-126583333D01*
X86453390Y-126583333D02*
X86501009Y-126535714D01*
X86501009Y-126535714D02*
X86596247Y-126488095D01*
X86024819Y-127964285D02*
X86024819Y-127488095D01*
X86024819Y-127488095D02*
X86501009Y-127440476D01*
X86501009Y-127440476D02*
X86453390Y-127488095D01*
X86453390Y-127488095D02*
X86405771Y-127583333D01*
X86405771Y-127583333D02*
X86405771Y-127821428D01*
X86405771Y-127821428D02*
X86453390Y-127916666D01*
X86453390Y-127916666D02*
X86501009Y-127964285D01*
X86501009Y-127964285D02*
X86596247Y-128011904D01*
X86596247Y-128011904D02*
X86834342Y-128011904D01*
X86834342Y-128011904D02*
X86929580Y-127964285D01*
X86929580Y-127964285D02*
X86977200Y-127916666D01*
X86977200Y-127916666D02*
X87024819Y-127821428D01*
X87024819Y-127821428D02*
X87024819Y-127583333D01*
X87024819Y-127583333D02*
X86977200Y-127488095D01*
X86977200Y-127488095D02*
X86929580Y-127440476D01*
X40774819Y-126107142D02*
X40298628Y-125773809D01*
X40774819Y-125535714D02*
X39774819Y-125535714D01*
X39774819Y-125535714D02*
X39774819Y-125916666D01*
X39774819Y-125916666D02*
X39822438Y-126011904D01*
X39822438Y-126011904D02*
X39870057Y-126059523D01*
X39870057Y-126059523D02*
X39965295Y-126107142D01*
X39965295Y-126107142D02*
X40108152Y-126107142D01*
X40108152Y-126107142D02*
X40203390Y-126059523D01*
X40203390Y-126059523D02*
X40251009Y-126011904D01*
X40251009Y-126011904D02*
X40298628Y-125916666D01*
X40298628Y-125916666D02*
X40298628Y-125535714D01*
X39774819Y-126964285D02*
X39774819Y-126773809D01*
X39774819Y-126773809D02*
X39822438Y-126678571D01*
X39822438Y-126678571D02*
X39870057Y-126630952D01*
X39870057Y-126630952D02*
X40012914Y-126535714D01*
X40012914Y-126535714D02*
X40203390Y-126488095D01*
X40203390Y-126488095D02*
X40584342Y-126488095D01*
X40584342Y-126488095D02*
X40679580Y-126535714D01*
X40679580Y-126535714D02*
X40727200Y-126583333D01*
X40727200Y-126583333D02*
X40774819Y-126678571D01*
X40774819Y-126678571D02*
X40774819Y-126869047D01*
X40774819Y-126869047D02*
X40727200Y-126964285D01*
X40727200Y-126964285D02*
X40679580Y-127011904D01*
X40679580Y-127011904D02*
X40584342Y-127059523D01*
X40584342Y-127059523D02*
X40346247Y-127059523D01*
X40346247Y-127059523D02*
X40251009Y-127011904D01*
X40251009Y-127011904D02*
X40203390Y-126964285D01*
X40203390Y-126964285D02*
X40155771Y-126869047D01*
X40155771Y-126869047D02*
X40155771Y-126678571D01*
X40155771Y-126678571D02*
X40203390Y-126583333D01*
X40203390Y-126583333D02*
X40251009Y-126535714D01*
X40251009Y-126535714D02*
X40346247Y-126488095D01*
X39870057Y-127440476D02*
X39822438Y-127488095D01*
X39822438Y-127488095D02*
X39774819Y-127583333D01*
X39774819Y-127583333D02*
X39774819Y-127821428D01*
X39774819Y-127821428D02*
X39822438Y-127916666D01*
X39822438Y-127916666D02*
X39870057Y-127964285D01*
X39870057Y-127964285D02*
X39965295Y-128011904D01*
X39965295Y-128011904D02*
X40060533Y-128011904D01*
X40060533Y-128011904D02*
X40203390Y-127964285D01*
X40203390Y-127964285D02*
X40774819Y-127392857D01*
X40774819Y-127392857D02*
X40774819Y-128011904D01*
X67274819Y-88857142D02*
X66798628Y-88523809D01*
X67274819Y-88285714D02*
X66274819Y-88285714D01*
X66274819Y-88285714D02*
X66274819Y-88666666D01*
X66274819Y-88666666D02*
X66322438Y-88761904D01*
X66322438Y-88761904D02*
X66370057Y-88809523D01*
X66370057Y-88809523D02*
X66465295Y-88857142D01*
X66465295Y-88857142D02*
X66608152Y-88857142D01*
X66608152Y-88857142D02*
X66703390Y-88809523D01*
X66703390Y-88809523D02*
X66751009Y-88761904D01*
X66751009Y-88761904D02*
X66798628Y-88666666D01*
X66798628Y-88666666D02*
X66798628Y-88285714D01*
X66274819Y-89761904D02*
X66274819Y-89285714D01*
X66274819Y-89285714D02*
X66751009Y-89238095D01*
X66751009Y-89238095D02*
X66703390Y-89285714D01*
X66703390Y-89285714D02*
X66655771Y-89380952D01*
X66655771Y-89380952D02*
X66655771Y-89619047D01*
X66655771Y-89619047D02*
X66703390Y-89714285D01*
X66703390Y-89714285D02*
X66751009Y-89761904D01*
X66751009Y-89761904D02*
X66846247Y-89809523D01*
X66846247Y-89809523D02*
X67084342Y-89809523D01*
X67084342Y-89809523D02*
X67179580Y-89761904D01*
X67179580Y-89761904D02*
X67227200Y-89714285D01*
X67227200Y-89714285D02*
X67274819Y-89619047D01*
X67274819Y-89619047D02*
X67274819Y-89380952D01*
X67274819Y-89380952D02*
X67227200Y-89285714D01*
X67227200Y-89285714D02*
X67179580Y-89238095D01*
X67274819Y-90285714D02*
X67274819Y-90476190D01*
X67274819Y-90476190D02*
X67227200Y-90571428D01*
X67227200Y-90571428D02*
X67179580Y-90619047D01*
X67179580Y-90619047D02*
X67036723Y-90714285D01*
X67036723Y-90714285D02*
X66846247Y-90761904D01*
X66846247Y-90761904D02*
X66465295Y-90761904D01*
X66465295Y-90761904D02*
X66370057Y-90714285D01*
X66370057Y-90714285D02*
X66322438Y-90666666D01*
X66322438Y-90666666D02*
X66274819Y-90571428D01*
X66274819Y-90571428D02*
X66274819Y-90380952D01*
X66274819Y-90380952D02*
X66322438Y-90285714D01*
X66322438Y-90285714D02*
X66370057Y-90238095D01*
X66370057Y-90238095D02*
X66465295Y-90190476D01*
X66465295Y-90190476D02*
X66703390Y-90190476D01*
X66703390Y-90190476D02*
X66798628Y-90238095D01*
X66798628Y-90238095D02*
X66846247Y-90285714D01*
X66846247Y-90285714D02*
X66893866Y-90380952D01*
X66893866Y-90380952D02*
X66893866Y-90571428D01*
X66893866Y-90571428D02*
X66846247Y-90666666D01*
X66846247Y-90666666D02*
X66798628Y-90714285D01*
X66798628Y-90714285D02*
X66703390Y-90761904D01*
X56274819Y-126107142D02*
X55798628Y-125773809D01*
X56274819Y-125535714D02*
X55274819Y-125535714D01*
X55274819Y-125535714D02*
X55274819Y-125916666D01*
X55274819Y-125916666D02*
X55322438Y-126011904D01*
X55322438Y-126011904D02*
X55370057Y-126059523D01*
X55370057Y-126059523D02*
X55465295Y-126107142D01*
X55465295Y-126107142D02*
X55608152Y-126107142D01*
X55608152Y-126107142D02*
X55703390Y-126059523D01*
X55703390Y-126059523D02*
X55751009Y-126011904D01*
X55751009Y-126011904D02*
X55798628Y-125916666D01*
X55798628Y-125916666D02*
X55798628Y-125535714D01*
X55274819Y-126964285D02*
X55274819Y-126773809D01*
X55274819Y-126773809D02*
X55322438Y-126678571D01*
X55322438Y-126678571D02*
X55370057Y-126630952D01*
X55370057Y-126630952D02*
X55512914Y-126535714D01*
X55512914Y-126535714D02*
X55703390Y-126488095D01*
X55703390Y-126488095D02*
X56084342Y-126488095D01*
X56084342Y-126488095D02*
X56179580Y-126535714D01*
X56179580Y-126535714D02*
X56227200Y-126583333D01*
X56227200Y-126583333D02*
X56274819Y-126678571D01*
X56274819Y-126678571D02*
X56274819Y-126869047D01*
X56274819Y-126869047D02*
X56227200Y-126964285D01*
X56227200Y-126964285D02*
X56179580Y-127011904D01*
X56179580Y-127011904D02*
X56084342Y-127059523D01*
X56084342Y-127059523D02*
X55846247Y-127059523D01*
X55846247Y-127059523D02*
X55751009Y-127011904D01*
X55751009Y-127011904D02*
X55703390Y-126964285D01*
X55703390Y-126964285D02*
X55655771Y-126869047D01*
X55655771Y-126869047D02*
X55655771Y-126678571D01*
X55655771Y-126678571D02*
X55703390Y-126583333D01*
X55703390Y-126583333D02*
X55751009Y-126535714D01*
X55751009Y-126535714D02*
X55846247Y-126488095D01*
X55274819Y-127392857D02*
X55274819Y-128011904D01*
X55274819Y-128011904D02*
X55655771Y-127678571D01*
X55655771Y-127678571D02*
X55655771Y-127821428D01*
X55655771Y-127821428D02*
X55703390Y-127916666D01*
X55703390Y-127916666D02*
X55751009Y-127964285D01*
X55751009Y-127964285D02*
X55846247Y-128011904D01*
X55846247Y-128011904D02*
X56084342Y-128011904D01*
X56084342Y-128011904D02*
X56179580Y-127964285D01*
X56179580Y-127964285D02*
X56227200Y-127916666D01*
X56227200Y-127916666D02*
X56274819Y-127821428D01*
X56274819Y-127821428D02*
X56274819Y-127535714D01*
X56274819Y-127535714D02*
X56227200Y-127440476D01*
X56227200Y-127440476D02*
X56179580Y-127392857D01*
X46024819Y-88607142D02*
X45548628Y-88273809D01*
X46024819Y-88035714D02*
X45024819Y-88035714D01*
X45024819Y-88035714D02*
X45024819Y-88416666D01*
X45024819Y-88416666D02*
X45072438Y-88511904D01*
X45072438Y-88511904D02*
X45120057Y-88559523D01*
X45120057Y-88559523D02*
X45215295Y-88607142D01*
X45215295Y-88607142D02*
X45358152Y-88607142D01*
X45358152Y-88607142D02*
X45453390Y-88559523D01*
X45453390Y-88559523D02*
X45501009Y-88511904D01*
X45501009Y-88511904D02*
X45548628Y-88416666D01*
X45548628Y-88416666D02*
X45548628Y-88035714D01*
X45024819Y-89511904D02*
X45024819Y-89035714D01*
X45024819Y-89035714D02*
X45501009Y-88988095D01*
X45501009Y-88988095D02*
X45453390Y-89035714D01*
X45453390Y-89035714D02*
X45405771Y-89130952D01*
X45405771Y-89130952D02*
X45405771Y-89369047D01*
X45405771Y-89369047D02*
X45453390Y-89464285D01*
X45453390Y-89464285D02*
X45501009Y-89511904D01*
X45501009Y-89511904D02*
X45596247Y-89559523D01*
X45596247Y-89559523D02*
X45834342Y-89559523D01*
X45834342Y-89559523D02*
X45929580Y-89511904D01*
X45929580Y-89511904D02*
X45977200Y-89464285D01*
X45977200Y-89464285D02*
X46024819Y-89369047D01*
X46024819Y-89369047D02*
X46024819Y-89130952D01*
X46024819Y-89130952D02*
X45977200Y-89035714D01*
X45977200Y-89035714D02*
X45929580Y-88988095D01*
X45358152Y-90416666D02*
X46024819Y-90416666D01*
X44977200Y-90178571D02*
X45691485Y-89940476D01*
X45691485Y-89940476D02*
X45691485Y-90559523D01*
D11*
%TO.C,R67*%
X61977500Y-126512742D02*
X61977500Y-126987258D01*
X63022500Y-126512742D02*
X63022500Y-126987258D01*
%TO.C,R69*%
X92477500Y-126512742D02*
X92477500Y-126987258D01*
X93522500Y-126512742D02*
X93522500Y-126987258D01*
%TO.C,R73*%
X97727500Y-126512742D02*
X97727500Y-126987258D01*
X98772500Y-126512742D02*
X98772500Y-126987258D01*
%TO.C,R70*%
X51727500Y-126512742D02*
X51727500Y-126987258D01*
X52772500Y-126512742D02*
X52772500Y-126987258D01*
%TO.C,R72*%
X82477500Y-126512742D02*
X82477500Y-126987258D01*
X83522500Y-126512742D02*
X83522500Y-126987258D01*
%TO.C,R50*%
X41977500Y-89012742D02*
X41977500Y-89487258D01*
X43022500Y-89012742D02*
X43022500Y-89487258D01*
%TO.C,R55*%
X61977500Y-89762742D02*
X61977500Y-90237258D01*
X63022500Y-89762742D02*
X63022500Y-90237258D01*
%TO.C,R53*%
X87477500Y-90262742D02*
X87477500Y-90737258D01*
X88522500Y-90262742D02*
X88522500Y-90737258D01*
%TO.C,R57*%
X91977500Y-90087742D02*
X91977500Y-90562258D01*
X93022500Y-90087742D02*
X93022500Y-90562258D01*
%TO.C,R51*%
X56727500Y-89512742D02*
X56727500Y-89987258D01*
X57772500Y-89512742D02*
X57772500Y-89987258D01*
%TO.C,R68*%
X77227500Y-126512742D02*
X77227500Y-126987258D01*
X78272500Y-126512742D02*
X78272500Y-126987258D01*
%TO.C,R66*%
X46477500Y-126512742D02*
X46477500Y-126987258D01*
X47522500Y-126512742D02*
X47522500Y-126987258D01*
%TO.C,R61*%
X97727500Y-90262742D02*
X97727500Y-90737258D01*
X98772500Y-90262742D02*
X98772500Y-90737258D01*
%TO.C,R64*%
X71977500Y-126512742D02*
X71977500Y-126987258D01*
X73022500Y-126512742D02*
X73022500Y-126987258D01*
%TO.C,R56*%
X77227500Y-89512742D02*
X77227500Y-89987258D01*
X78272500Y-89512742D02*
X78272500Y-89987258D01*
%TO.C,R49*%
X53727500Y-73237258D02*
X53727500Y-72762742D01*
X54772500Y-73237258D02*
X54772500Y-72762742D01*
%TO.C,R58*%
X52227500Y-90012742D02*
X52227500Y-90487258D01*
X53272500Y-90012742D02*
X53272500Y-90487258D01*
%TO.C,R71*%
X66977500Y-126512742D02*
X66977500Y-126987258D01*
X68022500Y-126512742D02*
X68022500Y-126987258D01*
%TO.C,R60*%
X82227500Y-89762742D02*
X82227500Y-90237258D01*
X83272500Y-89762742D02*
X83272500Y-90237258D01*
%TO.C,R52*%
X72227500Y-89512742D02*
X72227500Y-89987258D01*
X73272500Y-89512742D02*
X73272500Y-89987258D01*
%TO.C,R65*%
X87477500Y-126512742D02*
X87477500Y-126987258D01*
X88522500Y-126512742D02*
X88522500Y-126987258D01*
%TO.C,R62*%
X41227500Y-126512742D02*
X41227500Y-126987258D01*
X42272500Y-126512742D02*
X42272500Y-126987258D01*
%TO.C,R59*%
X67727500Y-89262742D02*
X67727500Y-89737258D01*
X68772500Y-89262742D02*
X68772500Y-89737258D01*
%TO.C,R63*%
X56727500Y-126512742D02*
X56727500Y-126987258D01*
X57772500Y-126512742D02*
X57772500Y-126987258D01*
%TO.C,R54*%
X46477500Y-89012742D02*
X46477500Y-89487258D01*
X47522500Y-89012742D02*
X47522500Y-89487258D01*
%TD*%
M02*
