M48
; DRILL file {KiCad 9.0.5} date 2026-04-16T18:07:56-0400
; FORMAT={-:-/ absolute / metric / decimal}
; #@! TF.CreationDate,2026-04-16T18:07:56-04:00
; #@! TF.GenerationSoftware,Kicad,Pcbnew,9.0.5
; #@! TF.FileFunction,Plated,1,2,PTH
FMAT,2
METRIC
; #@! TA.AperFunction,Plated,PTH,ViaDrill
T1C0.300
; #@! TA.AperFunction,Plated,PTH,ViaDrill
T2C0.400
; #@! TA.AperFunction,Plated,PTH,ComponentDrill
T3C1.000
; #@! TA.AperFunction,Plated,PTH,ViaDrill
T4C3.000
; #@! TA.AperFunction,Plated,PTH,ComponentDrill
T5C4.500
%
G90
G05
T1
X41.5Y-118.25
X41.788Y-99.938
X41.837Y-114.483
X41.837Y-123.257
X42.25Y-96.75
X42.5Y-88.425
X43.25Y-91.25
X44.25Y-84.25
X46.663Y-118.25
X46.95Y-99.938
X47.0Y-77.5
X47.0Y-88.425
X47.0Y-114.483
X47.0Y-123.257
X47.25Y-73.5
X47.412Y-96.75
X47.45Y-75.05
X49.5Y-92.75
X51.8Y-118.25
X52.1Y-99.938
X52.137Y-114.483
X52.137Y-123.257
X52.562Y-96.75
X52.75Y-75.75
X52.75Y-89.425
X52.886Y-72.114
X53.0Y-73.75
X53.6Y-91.25
X55.75Y-76.0
X56.25Y-73.5
X56.9Y-118.25
X57.237Y-99.938
X57.237Y-114.483
X57.25Y-88.925
X57.277Y-123.207
X57.5Y-82.25
X57.7Y-96.75
X58.62Y-82.38
X59.25Y-91.25
X61.0Y-82.25
X61.25Y-80.25
X62.012Y-118.28
X62.35Y-114.512
X62.387Y-99.938
X62.387Y-123.207
X62.5Y-81.0
X62.5Y-89.175
X62.85Y-96.75
X63.25Y-82.25
X63.887Y-91.25
X64.75Y-87.0
X66.5Y-77.5
X67.162Y-118.28
X67.5Y-114.512
X67.537Y-123.207
X67.55Y-99.938
X68.013Y-96.75
X68.25Y-88.675
X68.5Y-82.75
X69.05Y-91.25
X70.5Y-82.5
X72.3Y-118.28
X72.638Y-114.512
X72.65Y-99.925
X72.675Y-123.237
X72.75Y-88.925
X73.0Y-82.5
X73.112Y-96.737
X73.25Y-80.25
X74.15Y-91.287
X74.5Y-81.0
X75.25Y-82.5
X75.75Y-87.25
X77.45Y-118.28
X77.75Y-88.925
X77.763Y-99.912
X77.787Y-114.512
X77.888Y-123.237
X78.225Y-96.725
X78.5Y-77.75
X79.263Y-91.275
X81.0Y-82.5
X82.6Y-118.28
X82.75Y-89.175
X82.912Y-99.912
X82.938Y-114.512
X83.037Y-123.237
X83.25Y-82.5
X83.375Y-96.725
X84.75Y-91.25
X85.0Y-82.5
X85.25Y-80.25
X86.5Y-80.75
X87.25Y-82.5
X87.712Y-118.28
X88.0Y-89.675
X88.025Y-99.938
X88.05Y-114.512
X88.05Y-123.287
X88.487Y-96.75
X90.0Y-91.25
X91.0Y-75.0
X91.75Y-85.0
X92.5Y-89.5
X92.812Y-118.28
X93.15Y-114.512
X93.15Y-123.287
X93.188Y-99.938
X93.65Y-96.75
X94.688Y-91.25
X97.912Y-118.255
X98.25Y-89.675
X98.25Y-114.487
X98.25Y-123.262
X98.325Y-99.938
X98.787Y-96.75
X99.825Y-91.25
T2
X40.051Y-112.75
X40.5Y-95.75
T3
X45.0Y-105.924
X45.0Y-108.464
X45.0Y-133.0
X45.0Y-135.54
X47.54Y-105.924
X47.54Y-108.464
X47.54Y-133.0
X47.54Y-135.54
X49.1Y-80.0
X49.1Y-82.54
X49.1Y-85.08
X50.08Y-105.924
X50.08Y-108.464
X50.08Y-133.0
X50.08Y-135.54
X51.64Y-80.0
X51.64Y-82.54
X51.64Y-85.08
X60.0Y-105.924
X60.0Y-108.464
X60.0Y-133.0
X60.0Y-135.54
X62.54Y-105.924
X62.54Y-108.464
X62.54Y-133.0
X62.54Y-135.54
X65.08Y-105.924
X65.08Y-108.464
X65.08Y-133.0
X65.08Y-135.54
X75.0Y-105.924
X75.0Y-108.464
X75.0Y-133.0
X75.0Y-135.54
X77.54Y-105.924
X77.54Y-108.464
X77.54Y-133.0
X77.54Y-135.54
X80.08Y-105.924
X80.08Y-108.464
X80.08Y-133.0
X80.08Y-135.54
X90.0Y-105.924
X90.0Y-108.464
X90.0Y-133.0
X90.0Y-135.54
X92.54Y-105.924
X92.54Y-108.464
X92.54Y-133.0
X92.54Y-135.54
X94.19Y-80.0
X94.19Y-82.54
X94.19Y-85.08
X95.08Y-105.924
X95.08Y-108.464
X95.08Y-133.0
X95.08Y-135.54
X96.73Y-80.0
X96.73Y-82.54
X96.73Y-85.08
T4
X41.488Y-139.196
X41.55Y-64.0
X98.491Y-139.25
X98.5Y-64.042
T5
X51.9Y-66.25
X59.1Y-66.25
X81.4Y-66.25
X88.6Y-66.25
M30
